<svg xmlns="http://www.w3.org/2000/svg" id="eQ5Hibcp2Fw1" shape-rendering="geometricPrecision" text-rendering="geometricPrecision" viewBox="0 0 594.72 600"><g style="isolation:isolate" transform="translate(6.086 16.89)"><ellipse id="eQ5Hibcp2Fw6" fill="#9d3d24" stroke-width="0" opacity=".4" rx="210.94" ry="33.2" transform="translate(288.88 549.91)"/><g id="eQ5Hibcp2Fw7"><path fill="#fffcfd" stroke-width="0" d="M210.11 540.62c7.05-9.03 13.73-20.84 17.45-35.72 1.26-5.05 2.18-10.46 2.66-16.24l.15-.13c3.58 4.07 5.6 9.81 4.89 14.93-2.41 17.38-16.12 45.51-37.65 59.23-4.44 2.83-9.45 2.95-13.63 1.21 1.77-.98 14.45-8.3 26.14-23.28h-.01Z"/><path fill="#ff953e" stroke="#422720" stroke-miterlimit="10" stroke-width="3.09" d="M184.93 521.83c-1.02 3.63-2.88 8.99-6.19 15.4-1.57 3.04-2.81 6.27-3.4 9.64-.11.62-.2 1.23-.27 1.83-.87 7.06 3.26 12.82 8.92 15.18 4.18 1.74 9.2 1.62 13.63-1.21 21.52-13.72 35.23-41.84 37.65-59.23.71-5.12-1.31-10.87-4.89-14.93-1.68-1.92-3.71-3.46-5.96-4.39-6.72-2.79-15.36-2.05-18.52-1.63l-20.97 39.34"/><path fill="#fff" stroke="#422720" stroke-linecap="round" stroke-linejoin="round" stroke-width="3.3" d="M183.95 563.94c1.77-.98 14.45-8.3 26.14-23.28 7.05-9.03 13.73-20.84 17.45-35.72 1.26-5.05 2.2-10.74 2.67-16.51l.13.15c3.58 4.07 5.6 9.81 4.89 14.93-2.41 17.38-16.12 45.51-37.65 59.23-4.44 2.83-9.45 2.95-13.63 1.21v-.01Z"/><path fill="none" stroke="#422720" stroke-linecap="round" stroke-linejoin="round" stroke-width="3.3" d="M178.61 537.41s.04-.06.12-.16c1.07-1.31 9.23-9.88 31.39 3.37 0 0 0 0 0 0m-9.58-34.36s.03-.03.09-.08c.97-.89 9.85-8.35 26.94-1.27"/><path fill="none" stroke="#422720" stroke-linecap="round" stroke-linejoin="round" stroke-width="20.63" d="M185.61 405.66s-154.83 73.68 6 90.21"/><path fill="#9abe3e" stroke="#422720" stroke-miterlimit="10" stroke-width="3.09" d="M207.69 482.21c0-.14.01-.28.02-.43.17-4.17-3.22-7.85-6.88-8.02-2.26-.11-4.15.84-5.3 2.36-.72.94-1.15 2.11-1.2 3.37-.22 5.44-1.4 10.63-3.48 15.41-2.67 6.14-6.8 11.6-12.22 16.02-2.53 2.08-3.03 5.81-.68 8.64.29.35.63.67 1 .95 1.61 1.22 3.84 1.71 5.97 1.34 1.27-.22 2.52-.75 3.57-1.61 4.95-4.04 9.03-8.79 12.14-14.07 2.12-3.6 3.79-7.45 4.98-11.49 1.18-4 1.88-8.17 2.08-12.48v.01Z"/></g><g id="eQ5Hibcp2Fw15"><path fill="#fffcfd" stroke-width="0" d="M416.36 549.9c-11.45.16-24.9-1.65-39-7.69-4.79-2.05-9.65-4.59-14.54-7.7l-.19.04c1.08 5.31 4.43 10.39 8.94 12.92 15.31 8.58 46 14.66 69.94 5.8 4.94-1.83 8.06-5.75 9.2-10.13-1.85.82-15.35 6.5-34.34 6.75l-.01.01Z"/><path fill="#ff953e" stroke="#422720" stroke-miterlimit="10" stroke-width="3.09" d="M416.6 518.47c3.5 1.38 8.9 3.14 16.01 4.38 3.38.59 6.69 1.55 9.74 3.12.56.29 1.1.59 1.62.89 6.15 3.57 8.24 10.35 6.7 16.28-1.14 4.38-4.27 8.31-9.2 10.13-23.94 8.86-54.63 2.78-69.94-5.8-4.51-2.53-7.86-7.61-8.94-12.92-.51-2.5-.51-5.05.1-7.4 1.84-7.04 7.65-13.48 9.89-15.74l44.01 7.07"/><path fill="#fff" stroke="#422720" stroke-linecap="round" stroke-linejoin="round" stroke-width="3.3" d="M441.55 553.27c-23.94 8.86-54.63 2.78-69.94-5.8-4.51-2.53-7.86-7.61-8.94-12.92l-.04-.19c4.89 3.11 9.98 5.8 14.77 7.85 14.1 6.03 27.55 7.84 39 7.69 18.99-.26 32.49-5.94 34.34-6.75-1.14 4.38-4.27 8.31-9.2 10.13l.01-.01Z"/><path fill="none" stroke="#422720" stroke-linecap="round" stroke-linejoin="round" stroke-width="3.3" d="M432.84 522.85h-.2c-1.69.06-13.45 1.39-16.28 27.04v.01m-21.59-28.4s-.04 0-.12.02c-1.29.24-12.61 2.8-17.29 20.69"/><path fill="none" stroke="#422720" stroke-linecap="round" stroke-linejoin="round" stroke-width="20.63" d="M397.58 378.64s82.15 48.28-6 128.26"/><path fill="#9abe3e" stroke="#422720" stroke-miterlimit="10" stroke-width="3.09" d="M371.28 512.66c-.12-.08-.24-.16-.35-.24-3.42-2.39-4.3-7.31-2.23-10.33 1.28-1.87 3.18-2.79 5.08-2.79 1.19 0 2.37.36 3.41 1.08 4.46 3.11 9.32 5.31 14.38 6.54 6.51 1.59 13.36 1.59 20.15-.06 3.19-.76 6.46 1.1 7.29 4.68.11.45.15.91.15 1.37 0 2.02-.95 4.09-2.54 5.57-.94.88-2.12 1.56-3.44 1.87-6.21 1.51-12.46 1.89-18.54 1.17-4.15-.49-8.23-1.48-12.16-2.98a53.099 53.099 0 0 1-11.2-5.88Z"/></g><path fill="#fefefe" stroke-width="0" d="M304.39 288.79c.62.15 1.14.14 1.94-.11-1.29-.26-.87-1.12-1.03-1.75-.14-.54.71.13.45-.39-.13-.25-.38-.55-.72-.48-.33.07-.13.4-.13.61 0 .34.01.68.07 1.02.09.49.06.91-.58 1.1Z"/><g id="eQ5Hibcp2Fw24"><g id="eQ5Hibcp2Fw25" stroke="#422720"><path fill="none" stroke-linecap="round" stroke-linejoin="round" stroke-width="20.63" d="M443.88 159.92s61.71 73.7 88.18 61.19c28.87-13.64 19.71-74.52 19.71-74.52"/><path fill="#ff953e" stroke-linecap="round" stroke-linejoin="round" stroke-width="3.3" d="M538.15 84c1.25-7.75 14.7-8.85 17.03-1.41.78 2.5 1.46 5.62 1.94 9.52 2.59 20.87-13.12 31.8-18.97 2.36-.53-4.25-.45-7.69 0-10.46V84Zm-18.75 6.34c1.25-7.75 14.7-8.85 17.03-1.41.78 2.5 1.46 5.62 1.94 9.52 2.59 20.87-13.12 31.8-18.97 2.36-.53-4.25-.45-7.69 0-10.46v-.01Z"/><path fill="#ff953e" stroke-linecap="round" stroke-linejoin="round" stroke-width="3.3" d="M575.55 95.6s8.12 45.75-31.78 46.27c0 0-15.39-1.53-24.37-16.18-4.31-7.03-2.41-16.33 4.49-20.84 10.86-7.1 29.72-5.85 31.54 1.49 2.63 10.62-18.61 11.7-18.61 11.7"/><path fill="#ff953e" stroke-linecap="round" stroke-linejoin="round" stroke-width="3.3" d="M557.66 85.43c1.34-6.7 14.52-7.84 16.69-1.47.73 2.14 1.35 4.82 1.76 8.17 2.23 17.95-13.32 27.6-18.6 2.31-.45-3.66-.33-6.62.15-9.01Z"/><path fill="#9abe3e" stroke-miterlimit="10" stroke-width="3.09" d="M536.07 138.94c9.56 2.94 19.52 1.69 28.06-3.54 2.26-1.37 5.22-.75 6.74 1.79 1.52 2.52.57 6.44-2.29 8.19-10.44 6.39-22.63 7.93-34.33 4.33-3.21-.98-5.1-4.54-4.25-7.36.84-2.83 3.56-4.17 6.08-3.41h-.01Z"/></g><g fill="none" stroke="#422720" stroke-linecap="round" stroke-linejoin="round" stroke-width="12.38"><path d="M247.51 456.4c-6.39-.14-12.5-2.68-18.15-5.41-20.28-9.79-38.86-23.3-56.82-36.37L120.82 377c-15.87-11.54-29.46-22.44-35.15-38.92-2.07-6-2.29-11.22-.65-15.51 3.46-9.07 14.01-11.88 21.65-13.19 18.93-3.27 38.42-4.2 57.27-5.11 2.82-.14 5.65-.27 8.47-.42 74.3-3.78 148.97-12.94 221.93-27.22l1.03-.2c9.9-1.94 20.13-3.95 30.32-3.95 3.88 0 7.47.28 10.97.86 5.97.99 11.79 2.91 17.42 4.77 3.83 1.26 7.79 2.57 11.72 3.56 5.22 1.31 11.11 1.45 16.81 1.58 6.74.16 13.7.32 19.8 2.4 9.76 3.34 17.26 16 18.86 26.31 1.78 11.43-2.17 23.33-10.3 31.06-5.6 5.32-12.89 8.47-19.32 11.25l-223.81 96.66c-5.93 2.56-12.66 5.47-19.75 5.47h-.58Z"/><path d="M425.69 274.04c3.58 0 7.15.25 10.71.84 9.9 1.64 19.26 5.86 29.02 8.3 11.6 2.91 25.51.19 36.49 3.94 9.37 3.2 16.36 15.59 17.83 25.08 1.69 10.85-2.13 22.38-9.84 29.7-5.34 5.08-12.18 8.06-18.87 10.95-19.58 8.46-39.16 16.91-58.73 25.37-55.03 23.77-110.05 47.53-165.08 71.29-6.13 2.65-12.48 5.34-19.14 5.34h-.54c-6.1-.13-11.95-2.57-17.52-5.26-20.09-9.7-38.4-23-56.58-36.22l-51.72-37.62c-14-10.19-28.83-21.46-34.6-38.17-1.61-4.66-2.41-9.9-.67-14.45 3.05-7.98 12.32-10.81 20.47-12.22 21.62-3.73 43.64-4.39 65.56-5.51 74.61-3.79 148.89-12.9 222.15-27.25 10.24-2.01 20.66-4.12 31.05-4.12m.01-3.08v3.09-3.09 0c-10.34 0-20.65 2.02-30.62 3.98l-1.03.2c-72.89 14.27-147.48 23.42-221.71 27.19l-8.46.42c-18.9.91-38.45 1.85-57.47 5.13-8.01 1.38-19.09 4.35-22.83 14.17-1.77 4.64-1.56 10.21.64 16.56 5.83 16.91 19.62 27.97 35.7 39.67l4.7 3.42 47.02 34.2c18.02 13.11 36.65 26.66 57.06 36.51 5.81 2.8 12.11 5.42 18.79 5.57h.6c7.41 0 14.29-2.97 20.36-5.59l49.02-21.17 116.06-50.12 4.62-1.99 54.12-23.37c6.55-2.83 13.97-6.03 19.77-11.55 8.5-8.07 12.63-20.5 10.77-32.42-1.68-10.77-9.57-24.01-19.89-27.53-6.33-2.16-13.41-2.33-20.27-2.49-5.61-.13-11.41-.26-16.47-1.53-3.88-.97-7.81-2.27-11.61-3.53-5.69-1.88-11.57-3.82-17.65-4.83-3.58-.59-7.25-.88-11.22-.88v0-.02Z"/><path d="M398.32 377.16c-16.16 6.98-32.32 13.96-48.49 20.94m148.47-66.92c-5.34 5.08-12.18 8.06-18.87 10.95-19.58 8.46-39.16 16.91-58.73 25.37m-313.78-56.59c21.62-3.73 43.64-4.39 65.56-5.51 74.61-3.79 148.89-12.9 222.15-27.25 13.77-2.7 27.85-5.59 41.76-3.28 9.9 1.64 19.26 5.86 29.02 8.3 10.84 2.72 23.68.59 34.27 3.36-1.15 2.56-.37 15.99-10.13 22.3-9.75 6.3-19.64 1.58-26.97 3.85s-10.55 5.65-15.33 17.82c-4.78 12.16-23.75 17.26-37.79 20.69-22.92 5.61-53.95-1.74-67.03 18.99s-27.71 21.25-52.1 23.96c-24.4 2.71-42.56 18.46-43.3 29.89s5.16 16.33 4.44 24.78c-.19 2.16-.95 4.13-2.05 5.89-.63.03-1.26.16-1.89.14-6.1-.13-11.95-2.57-17.52-5.26-20.09-9.7-38.4-23-56.58-36.22l-51.72-37.62c-14.01-10.19-28.83-21.46-34.6-38.17-1.61-4.66-2.41-9.9-.67-14.45 3.05-7.98 12.32-10.81 20.47-12.22l.01.01Z"/><path d="M118.65 357.54c-6.28-4.57-12.73-9.36-18.46-14.76m121.95 88.46c-6.51-4.24-13.2-8.68-19.2-13.78m-13.11-8.37c-6.55-4.54-13.02-9.24-19.47-13.94-12.93-9.41-25.87-18.82-38.8-28.22m369.52-98.59c-1.29 1.52-3.58 2.02-4.47 3.83-2.48 5.08 8.34 6.98 9.42 12.63.62 3.26-2.27 6.87-2.62 9.79-.23 1.89-1.57 3.46-3.44 3.87-.1.02-.21.05-.31.07a4.39 4.39 0 0 0-3.41 4.91c.11.75.21 1.51.32 2.26.21 1.46-.33 2.93-1.44 3.9-3.2 2.81-5.02 7.26-4.94 11.67.07 3.48-3.69 5.7-6.67 3.89-4.11-2.49-8.39-5.43-10.47 1.09-.07.2-.14.41-.24.6-5.19 10.19-19.93 7.28-22.15-3.36-.24-1.16-.9-2.21-1.91-2.84-3.94-2.46-10.3-.41-11.31 4.45-.61 2.91.45 6-.03 8.94-.47 2.92-2.66 5.31-5.3 6.3-1.72.64-2.9 2.24-2.9 4.08 0 2.71-1.43 5.48-3.62 6.88-1.41.9-2.22 2.5-2.07 4.17.76 8.42-11.7 12.1-17.74 1.31-1.24-2.22-4.12-2.93-6.24-1.52-5.64 3.76-8.91 13.93-16.1 15.05-6.73 1.04-13.51-6.64-19.69-3.73-2.42 1.14-4.14 3.78-6.77 4.26-3.09.56-7.03-1.89-9.05.6-1.15 1.41-.73 3.52-1.01 5.39-.1.67-.37 1.31-.76 1.87-2.97 4.23-5.65 1.53-10.71 11.02-.05.1-.11.19-.17.29-4.36 6.89-10.21 4.26-10.51.67-.22-2.67-2.83-4.53-5.43-3.85-2.56.67-4.83 2.59-5.45 5.29-1.03 4.47 1.33 10.64-2.47 12.92-1.11.67-2.45.71-3.74.75-7.65.19-47.94 35.93-62.46 15.78-.13-.19-.25-.39-.35-.59-.94-1.91-1.69-3.99-3.24-5.39-1.32-1.19-3.05-1.72-4.71-2.23-9.13-3.17-18.96-4.78-27.66-9-.2-.1-.4-.21-.58-.34-8.42-5.94-8.91-21.24-18.63-24.38-4.04-1.31-8.64.07-12.45-1.86-3.31-1.67-4.96-5.17-5.87-9.02-.65-2.75-3.66-4.22-6.2-2.98-5.22 2.54-10.97 3.84-16.51 2.35-6.17-1.66-11.42-7.91-11.51-14.22-.03-2.14-1.55-3.99-3.67-4.33-7.5-1.19-14.57-5.64-19.04-12.09a4.462 4.462 0 0 0-3.77-1.92c-7.87.26-13.76-2.23-13.79-10.93 0-.44-.07-.89-.21-1.31-1.35-4.01-6.1-6.32-9.98-5.37-2.74.67-5.39-1.45-5.41-4.27-.02-3.6 2.5-7.24 5.6-9.92a4.378 4.378 0 0 0 .37-6.26 27.473 27.473 0 0 1-6.09-11.1c-.61-2.22.6-4.55 2.77-5.31 28.85-10.09 62.22-.7 90.72 7.79 33.47 11.81 66.86 32.54 101.42 26.34 15.24-2.73 29.3-10.65 44.67-12.56 14.4-1.79 29.63 1.73 43.18-3.5 10.36-3.99 18.5-12.69 28.82-16.8 8.81-3.51 18.58-3.43 27.77-5.69 21.9-5.5 40.64-24.33 64.52-21.35 4.54.54 22.55 4.94 15.7 13.03l-.01-.02Z"/><path d="M82.97 308.57c1.88-3.4 5.2-5.61 8.4-7.69-5.81-4.26-9.78-11.16-10.65-18.47 8.43-4.84 18.5-5.51 28.19-5.38 22.38.3 44.78 4.31 66.08 11.82 33.47 11.8 66.86 32.54 101.42 26.34 15.24-2.73 29.3-10.65 44.67-12.56 14.4-1.79 29.63 1.73 43.19-3.5 10.36-3.99 18.5-12.69 28.81-16.8 8.81-3.51 18.58-3.43 27.77-5.69 11.96-2.95 22.6-9.77 33.79-14.99 9.65-4.51 20-7.63 30.73-6.35 2.39.29 8.51 1.65 12.77 4.06.18.82.21 1.7-.09 2.46-.78 1.96-2.61 3.19-4.28 4.39-6.61 4.77-12.25 10.97-16.46 18.1-5.36 3.05-12.15 3.29-17.78.62-3.32 7.26-10.98 10.97-18.07 14.15-3.24 1.45-6.48 2.9-9.73 4.35-1.16.52-2.37 1.05-3.64.98-1.84-.09-3.41-1.4-4.99-2.41-6.12-3.9-13.71-3.75-20.83-3.47-1.19.05-2.46.12-3.4.87-1.73 1.37-1.49 4.22-2.74 6.07-2.88 4.3-12.03 1.76-12.5 7.02-.13 1.42.63 2.81.55 4.24-.31 5.72-10.27 2.94-13.58 7.47-1.4 1.92-1.14 4.62-1.77 6.95-1.66 6.2-9.06 8.45-15.25 8.02-6.19-.42-12.53-2.46-18.47-.72-4.79 1.4-8.62 5.08-13.12 7.26-5.51 2.67-11.79 3.01-17.71 4.53-9.67 2.48-18.5 8.25-24.81 16.23-1.01 1.28-2.01 2.66-3.43 3.4-1.68.87-3.68.72-5.56.56a367.742 367.742 0 0 0-44.03-1.11c-3.05.11-6.18.27-8.99 1.49-4.89 2.13-8.17 7.47-8.43 13.02-.09 2.01.17 4.02.45 6.01.77 5.38 1.81 10.73 2.96 16.04-1.23-.45-2.42-.98-3.52-1.71-8.69-5.79-9.08-21.4-18.91-24.57-4.04-1.31-8.64.07-12.45-1.86-5.02-2.54-6.23-9.3-6.8-15.06-6.42 4.34-14.28 7.42-21.78 5.41-7.49-2.01-13.62-10.79-10.82-18.24-9.83.14-19.64-5.6-24.71-14.48-5.98.57-13.84-.1-15.56-6.15-.47-1.66-.32-3.43-.68-5.12-1.18-5.6-8.82-8.39-12.98-4.74-3.05-2.4-3.16-7.38-1.28-10.78l.02-.01Zm389.34.28c.68-.68 1.35-1.38 2-2.09.31-.33.62-.67.92-1.01.17-.19.33-.38.5-.57.22-.25-.19.23.16-.19 1.25-1.48 2.45-2.99 3.59-4.56 2.29-3.13 4.34-6.44 6.17-9.89.79-1.5 3.09-1.8 4.36-.79 1.47 1.17 1.67 2.97.83 4.56-3.83 7.24-8.73 13.8-14.42 19.54-1.17 1.18-3.42.95-4.43-.39-1.12-1.47-.95-3.35.3-4.62l.02.01Zm-20.42-.1c.18-.21.36-.41.53-.62.43-.38.92-.62 1.47-.72-.21.07-.43.14-.64.21 2.06-.68 4.01-1.64 5.84-2.83.53-.37 1.06-.75 1.56-1.17 1.28-1.05 3.34-1.05 4.43.39 1.03 1.36 1.06 3.49-.3 4.62a29.624 29.624 0 0 1-4.59 3.11c-1.64.9-3.35 1.55-5.12 2.12-.71.23-1.77-.12-2.35-.55-.64-.46-1.21-1.31-1.32-2.12-.12-.84-.01-1.75.49-2.45v.01Zm8.03-15.62 9.18-3.81c.78-.33 1.62-.42 2.44-.11.71.28 1.46.93 1.77 1.67.64 1.55.19 3.69-1.43 4.36l-9.18 3.81c-.78.32-1.62.42-2.44.11-.71-.28-1.46-.93-1.77-1.67-.64-1.55-.19-3.69 1.43-4.36Zm-61 45.48c5.35-1.66 11.01-3.38 15.85-6.29 3.81-2.29 7-6.07 7.1-10.85.04-1.77 1.77-3.11 3.39-2.94 1.78.18 2.91 1.8 2.88 3.58-.14 6.46-4.19 11.87-9.18 15.24-5.61 3.79-12.49 5.75-18.87 7.73-1.62.5-3.38-1.07-3.67-2.67-.35-1.91.87-3.28 2.5-3.79v-.01Z"/><path d="M401.83 315.77c1.11-.19 2.2-.41 3.29-.68.59-.15 1.17-.31 1.75-.48.25-.07.49-.15.74-.23.05-.01.03-.01.07-.02.08-.03.16-.05.24-.08a42.73 42.73 0 0 0 6.27-2.78c1.45-.79 3.54-.03 4.21 1.56.7 1.69.12 3.52-1.43 4.36-4.35 2.36-9.1 3.99-13.96 4.81-1.62.27-3.43-.9-3.67-2.67-.24-1.75.77-3.5 2.5-3.79h-.01Zm-27.45 21.37 7.49-1.77c1.6-.38 3.44.97 3.67 2.67.25 1.83-.78 3.38-2.5 3.79-2.5.59-5 1.18-7.49 1.77-1.6.38-3.44-.97-3.67-2.67-.25-1.83.78-3.38 2.5-3.79Zm-16.05 14.25 13.04-2.04c1.62-.25 3.44.56 3.79 2.41.3 1.61-.58 3.69-2.32 3.96l-13.04 2.04c-1.62.25-3.44-.56-3.78-2.41-.3-1.61.58-3.69 2.31-3.97v.01Zm-64.18 32.21c1.8-5.02 6.36-7.59 11.2-8.57 5.75-1.15 12.75.39 16.63-5.21 3.31-4.79 4.1-10.98 7.41-15.8 3.32-4.86 8.94-7.77 14.65-5.83 3.86 1.31 1.76 7.45-2.1 6.14-5.07-1.72-8.3 4.51-9.84 8.42-1.86 4.71-3.4 9.61-6.92 13.29-3.84 4.01-9.17 4.58-14.35 4.96-3.71.27-9.23.65-10.75 4.9-1.41 3.92-7.33 1.65-5.92-2.29l-.01-.01Zm2.59-19.16c.29-.74.82-1.54 1.57-1.82 3.09-1.13 6.17-2.25 9.26-3.38.82-.3 1.59-.44 2.44-.11.71.28 1.46.93 1.77 1.67.33.79.46 1.73.14 2.54-.29.74-.82 1.54-1.57 1.82-3.09 1.13-6.17 2.25-9.26 3.38-.82.3-1.59.44-2.44.11-.71-.28-1.46-.93-1.77-1.67-.33-.79-.46-1.73-.14-2.54Zm-44.17 38.67c1.17-1.05 3.45-1.08 4.43.39.99 1.48 2.09 1.92 3.88 2.04 1.91.12 4.26-1 6.12-2.06 4.73-2.71 9.45-6.19 15.2-5.18 1.68.29 3.02 1.73 2.88 3.58-.13 1.67-1.7 3.24-3.39 2.94-5.61-.98-10.15 4.23-15.05 6.12-4.77 1.85-11.14 1.65-14.38-3.21-.98-1.46-1.07-3.39.3-4.62h.01Zm-27.14-10.96c.22-1.84 1.62-3.01 3.39-2.94l13.67.54c1.64.07 3.08 1.9 2.88 3.58-.22 1.84-1.62 3.01-3.39 2.94-4.56-.18-9.11-.36-13.67-.55-1.64-.07-3.08-1.9-2.88-3.58v.01Zm32.43-5.66c2.37-.56 4.74-1.11 7.1-1.67 1.6-.37 3.44.97 3.67 2.67.25 1.83-.78 3.39-2.5 3.79-2.37.56-4.73 1.11-7.1 1.67-1.6.37-3.44-.97-3.67-2.67-.25-1.83.79-3.39 2.5-3.79Zm-74.46-24.53c1.33-1.08 3.28-1.01 4.43.39.03.04.06.07.1.11.07.05.13.09.19.14.16.06.31.11.47.17.18.02.36.05.53.07l.47.03h.35c.05 0 .11 0 .13-.01.21-.02.42-.05.63-.08.43-.06.86-.14 1.29-.21 1.14-.19 2.27-.33 3.43-.34 4.53-.05 8.85 4.04 7.51 8.95-.45 1.65-2.51 2.58-4.01 1.93-1.5-.66-2.19-2.15-1.96-3.73 0-.01-.02-.02-.03-.04 0 .02 0 0 0 0-.03-.04-.05-.07-.08-.1-.05-.06-.02-.02-.04-.04-.09-.07-.18-.15-.26-.2-.11-.07-.53-.42-.13-.09.37.31 0 .02-.15-.04-.05-.02-.09-.03-.14-.05-.27-.08-.84-.06-.99-.07h-.04c-.03 0 0 0-.06.01-.2.02-.39.04-.59.07-.43.06-.86.13-1.29.2-3.53.6-7.49.7-10.07-2.44-1.08-1.31-1.02-3.53.3-4.62l.01-.01Zm-53.64-28.95c4.67.42 9.51.94 13.9 2.82 2.16.92 4.18 2.15 5.93 3.77 1.97 1.82 3.31 4.03 4.83 6.23 1.36 1.97 2.74 3.61 5.14 3.99 2.35.37 4.72-.18 7.04-.48 4.77-.6 9.59-.2 13.16 3.57 2.87 3.03-1.88 7.23-4.74 4.23-2.78-2.93-8.19-1.07-11.52-.79-4.87.41-9.28-.63-12.62-4.66-2.89-3.49-4.52-7.46-8.76-9.45-4.05-1.89-8.53-2.3-12.88-2.69-4.03-.36-3.53-6.88.51-6.52l.01-.02Zm-14.19-33.83c3.15-1.45 6.38-.22 8.69 2.32 2.37 2.61 2.9 5.96 3.21 9.37.14 1.58.23 3.27.91 4.73.08.17.45.83.39.74-.15-.22.33.4.37.46 0 0 .36.39.42.47.22.2.45.39.69.57 1.17.88 1.83 1.17 3.21 1.71 1.3.51 2.63.91 3.96 1.29 1.64.47 2.44 2.66 1.91 4.21-.61 1.78-2.36 2.4-4.01 1.93-5.22-1.49-11-3.85-13-9.64-.6-1.75-.86-3.51-1.02-5.35-.07-.77-.13-1.54-.23-2.31-.06-.46-.13-.92-.22-1.37-.02-.12-.32-1.12-.12-.56-.1-.26-.21-.52-.34-.77-.06-.13-.37-.67-.15-.32-.18-.29-.41-.53-.61-.8-.07-.08-.14-.16-.22-.24-.16-.13-.32-.25-.49-.36-.05-.01-.25-.11-.4-.18v0h-.1c-.04.02-.03.02-.09.04-1.54.71-3.44.07-4.21-1.57-.73-1.57-.12-3.65 1.43-4.36l.02-.01Zm-19.68 8.44c.93-1.28 3.03-2 4.36-.79 4.38 3.97 8.76 7.95 13.14 11.92.66.6 1.15 1.19 1.32 2.12.14.79-.02 1.8-.49 2.45-.93 1.28-3.03 2-4.36.79-4.38-3.97-8.76-7.95-13.14-11.92-.66-.6-1.15-1.2-1.32-2.12-.14-.79.02-1.8.49-2.45Z"/><path d="M226.04 366.16c-2.92 0-5.8-.18-8.58-.52-1.08-.13-2.17-.3-3.24-.49-13.67-2.42-25.8-9.26-35.86-15.64-3.27-2.07-6.45-4.18-9.68-6.33l-59.84-39.85c-1.27-.84-2.55-1.69-3.85-2.54l-.93-.61c-1.55-1.02-3.11-2.05-4.66-3.09l.77-1.35-.86 1.29c-9.15-6.18-18.31-13.23-23.58-23.02-1.96-3.64-3.3-7.54-3.98-11.59l-.1-.51-.09-.48c-13.09-81.35 39.34-154.45 49.98-168.28l.04-.06c.92-1.2 1.47-1.87 1.55-1.96 31.8-37.85 98.39-63.29 165.69-63.29 28.68 0 56.29 4.41 82.07 13.1 84.78 28.6 125.08 154.32 127.6 201.92.58 10.89-4.96 20.99-14.45 26.37-16.97 9.62-31.5 16.74-44.42 21.77-8.31 3.24-12.31 11.21-16.95 20.43-6.9 13.74-14.72 29.32-39.07 35.4-7.63 1.9-15.64 2.83-24.48 2.83-5.48 0-11.14-.35-17.3-1.09-3.65-.43-7.24-1.02-10.71-1.59-6.68-1.09-12.98-2.12-19.57-2.12-3.21 0-6.21.24-9.16.75-9.42 1.6-18.58 5.2-27.44 8.67-2.04.8-4.07 1.6-6.11 2.37-11.61 4.42-26.97 9.49-42.78 9.49v0l-.01.02Z"/><path d="M288.82 29.39c27.12 0 54.91 4.03 81.57 13.02 82.49 27.83 123.91 150.73 126.55 200.54a27.011 27.011 0 0 1-13.67 24.94c-14.29 8.1-29.37 15.89-44.22 21.68-21.51 8.38-15.58 45.72-55.83 55.77-7.92 1.98-16 2.78-24.11 2.78-5.71 0-11.44-.4-17.12-1.08-10.47-1.24-20.21-3.72-30.47-3.72-3.08 0-6.21.22-9.42.77-11.73 2-22.73 6.89-33.85 11.12-13.53 5.15-27.9 9.39-42.23 9.39-2.8 0-5.6-.16-8.38-.51a57.77 57.77 0 0 1-3.17-.48c-12.75-2.26-24.28-8.44-35.3-15.42-3.26-2.06-6.47-4.19-9.65-6.31-16.42-10.94-32.85-21.87-49.27-32.81-3.53-2.35-7.05-4.7-10.57-7.04-1.57-1.05-3.18-2.1-4.79-3.16-1.54-1.01-3.1-2.04-4.64-3.08-.04-.03-.08-.05-.12-.08-9.12-6.17-17.98-13.03-23.05-22.45-1.8-3.35-3.13-7.03-3.82-11.11 0-.03-.01-.07-.02-.1l-.09-.45c-.03-.15-.05-.29-.08-.44-13.03-80.96 39.82-154.26 49.68-167.07 0 0 0 0 0 0 .92-1.2 1.47-1.87 1.54-1.96 30.8-36.67 95.49-62.74 164.5-62.74m.03-3.09c-33.82 0-67.6 6.17-97.7 17.83-29.6 11.47-53.52 27.38-69.17 46.01-.12.14-.65.79-1.46 1.85l-.02.02-.16.21c-10.74 13.96-63.45 87.5-50.27 169.43.03.18.06.34.09.5l.05.25.05.24v.03c.72 4.22 2.11 8.27 4.15 12.05 5.43 10.08 14.76 17.28 24.05 23.55l.06.04.03.02.02.02c1.48 1 2.94 1.97 4.68 3.1l1.05.69c1.25.82 2.49 1.64 3.72 2.45l9.79 6.52.78.52 49.27 32.81c3.1 2.07 6.41 4.26 9.71 6.35 10.19 6.45 22.49 13.38 36.42 15.85 1.11.2 2.23.36 3.32.5 2.84.35 5.78.53 8.77.53 16.06 0 31.59-5.13 43.33-9.59 2.05-.78 4.13-1.59 6.13-2.38 8.78-3.44 17.87-7 27.13-8.58 2.87-.49 5.78-.73 8.9-.73 6.46 0 12.71 1.02 19.32 2.1 3.49.57 7.1 1.16 10.78 1.6 6.22.74 11.94 1.1 17.48 1.1 8.97 0 17.1-.94 24.86-2.88 25.04-6.25 33.38-22.86 40.08-36.21 4.49-8.94 8.37-16.67 16.12-19.69 12.99-5.06 27.58-12.21 44.62-21.87 10-5.67 15.84-16.32 15.23-27.8-1.32-24.91-12.24-68.51-33.67-109.77-17.66-34.01-48.48-77.85-94.98-93.53-25.93-8.75-53.71-13.18-82.56-13.18v.04Z"/><path d="M393.62 76.92c-6.35-6.4-13.11-12.16-20.29-17.09m91.12 153.38c-9.86-36.62-28.77-85.38-57.77-121.59m21.42 82.39c-3.86-9.99-8.28-19.72-13.31-28.9m30.5 90.88c-2.61-14-6.09-28.61-10.6-43.04M77.24 260.48c1.37 6.56 3.81 12.79 8.26 18.21 5.69 6.93 13.54 11.54 21.04 16.24 8.19 5.13 16.04 10.79 24.09 16.14a8198.58 8198.58 0 0 0 56.86 37.5c8.81 5.76 18.75 9.76 29.17 11.32.71.11 1.49.19 2.08-.22.69-.47.85-1.44.62-2.24s-.78-1.45-1.3-2.1c-6.16-7.65-10.4-16.75-13.45-26.04-3.05-9.24-5.3-20.01-6.7-32.03-2.53-21.8-1.89-43.84-1.42-59.94.12-4.05.23-7.87.27-11.09.04-3.63.32-7.98.63-13.01 1.08-17.37 2.56-41.14-3.46-62.72-7.03-25.21-22.42-40.71-47.06-47.38-2.95-.8-5.95-.92-8.81-.44-5.08.86-9.74 3.62-12.99 7.95-8.07 10.76-15.45 22.04-22 33.78-8.08 14.47-14.91 29.69-19.8 45.53C78 207 75.02 224.86 75.5 242.75c.16 5.93.53 11.94 1.73 17.7l.01.03Z"/><path d="M125.38 143.35c-8.58 14.17-15.95 29.14-21.4 44.8-5.87 16.87-9.49 34.6-9.64 52.5-.05 5.93.11 11.95 1.1 17.75m37.03-33.53c-1.95 12.22-2.61 24.64-1.61 36.99.48 5.91 1.17 11.9 2.67 17.58m-5.9-95.73c-1.67 4.36-3.2 8.78-4.58 13.25-5.27 17.06-8.25 34.92-7.77 52.81m108.19-27.03c.63-14.15 1.59-34.43-1.75-54.54m10.32 169.74c-10.68-28.89-9.98-66.55-9.26-91.59m26 57.28c-3.02-21.8-2.54-44.43-2.05-61.32m55.38-98.17s-14.29-10.01-32.7-4.96c-13.38 3.67-22.25 12.49-25.82 17.95a10.435 10.435 0 0 1-6.23 4.42l-3.05.75m66.45-38.38s-5.55-5.99-33.03.74c-27.48 6.74-49.23 16.72-49.23 16.72s8.6-25.69 32.05-30.92 49.83 3.3 55.99-2.69c3.44 11.15-5.77 16.15-5.77 16.15h-.01Zm25.06 82.7s-3.12-2.52-6.13-.34c-3.01 2.19-6.29 7.07-2.89 17.15s15.6 9.98 15.6 9.98m72.33-104.54s-3.74 3-7.2 1.22m-47.34.05s9.1-13.28 24.39-15.85 25.76 10.64 25.76 10.64"/><path d="M403.53 112.91s-8.39-7.05-26.04-4.64c-17.65 2.4-27.99 15.29-27.99 15.29s-7.41-7.32-6.97-13.38c8.14.29 56.78-33.04 61 2.73Zm-25.81 201.07s6.76 5.57 5.54 15.08M305.75 227.2s-10.83 14.82-19.34 21.95c-8.51 7.12-11.3 15.04-9.22 20.32M380.5 207.8s20.34 11.32 24.55 25.8m-157.22-69.8s5.63 2.93 14.86 3.55c-3.03-1.88-5.37-4.9-6.29-8.64-.61-2.5-.52-5.02.17-7.33-7.93 5.62-8.74 12.42-8.74 12.42Z"/><path d="M256.4 158.72c.92 3.74 3.25 6.76 6.29 8.64 2.74.18 5.8.15 9.12-.22 2.46-.27 5.09-.74 7.79-1.36h.02c3.64-3.39 5.42-8.59 4.15-13.77a13.95 13.95 0 0 0-4.65-7.44c-2.35 0-4.83.25-7.42.76-6.77 1.35-11.65 3.6-15.13 6.07-.69 2.32-.79 4.83-.17 7.33v-.01Z"/><path d="M279.63 165.77c13.26-3.02 27.85-9.24 27.85-9.24s-10.58-12.18-28.35-11.98a13.95 13.95 0 0 1 4.65 7.44c1.27 5.18-.51 10.39-4.15 13.77v.01Zm76.19-35.76c-6.82 7.51-6.2 16.01-6.2 16.01s6.99.89 16.9-.34c-5.02-.88-9.3-4.58-10.59-9.85-.49-1.98-.5-3.95-.1-5.82h-.01Z"/><path d="M355.82 130.01c-.39 1.86-.38 3.84.1 5.82 1.29 5.27 5.58 8.97 10.59 9.85h.02c2.69-.35 5.6-.84 8.65-1.55h.01c4.99-2.82 7.71-8.72 6.27-14.57a13.119 13.119 0 0 0-7.49-8.91c-2.22.28-4.55.87-6.99 1.86-5.04 2.04-8.63 4.71-11.18 7.51l.02-.01Z"/><path d="M375.21 144.11c1.72-.39 3.49-.87 5.29-1.42 16.64-5.14 17.03-12.59 17.03-12.59s-9.04-11.36-23.53-9.45c3.61 1.58 6.47 4.77 7.49 8.91 1.44 5.85-1.28 11.74-6.27 14.56l-.01-.01Zm-95.61 21.67c-2.71.62-5.34 1.09-7.79 1.36-3.32.37-6.37.4-9.12.22-9.23-.62-14.86-3.55-14.86-3.55s.81-6.8 8.74-12.42c3.48-2.46 8.36-4.72 15.13-6.07 2.59-.51 5.07-.76 7.42-.76 17.77-.2 28.35 11.98 28.35 11.98s-14.59 6.22-27.85 9.24"/><path d="M256.58 151.38c-.69 2.32-.79 4.83-.17 7.33.92 3.74 3.25 6.76 6.29 8.64m103.85-21.68c2.69-.35 5.6-.84 8.65-1.55"/><path d="M375.21 144.11c1.72-.39 3.49-.87 5.29-1.42 16.64-5.14 17.03-12.59 17.03-12.59s-9.04-11.36-23.53-9.45c-2.22.28-4.55.87-6.99 1.86-5.04 2.04-8.63 4.71-11.18 7.51-6.82 7.51-6.2 16.01-6.2 16.01s6.99.89 16.9-.34"/><path d="M355.82 130.01c-.39 1.86-.38 3.84.1 5.82 1.29 5.27 5.58 8.97 10.59 9.85h.02m8.66-1.57h.01c4.99-2.82 7.71-8.72 6.27-14.57a13.119 13.119 0 0 0-7.49-8.91m-94.38 45.15h.02c3.64-3.39 5.42-8.59 4.15-13.77a13.95 13.95 0 0 0-4.65-7.44m113.66 3.16s-14.46 9.7-35.2 5.58"/><circle r="6.47" transform="translate(270.1 155.36)"/><ellipse rx="3.83" ry="4.75" transform="rotate(-37.79 359.064 -329.41)"/><circle r="2.69" transform="translate(264.84 158.82)"/><circle r="5.93" transform="translate(368.7 132.69)"/><circle r="2.69" transform="translate(363.45 136.15)"/><ellipse rx="3.6" ry="4.75" transform="rotate(-38.42 372.284 -474.589)"/><path d="M333.28 229.04c.44 3.14 17.53-1.16 17.53-1.16v0c-2.03-1.03-3.92-2.02-5.25-2.42-3.55-1.1-12.71.44-12.28 3.58Z"/><path d="M350.82 227.87s-17.09 4.31-17.53 1.16c-.43-3.15 8.73-4.68 12.28-3.58 1.33.4 3.21 1.39 5.25 2.41 3.37 1.71 7.14 3.55 9.38 3.11 3.6-.71 6.92-1.33 9.9-6.36 2.96-5.04 9.01-10.1 9.66-14.21.66-4.11-4.3-8.24-4.3-8.24s-27.78-30.29-31.08-52.27m-96.55 13.91s-3.25 3.93-10.47 4.71m51 4.12s-19.91 11.6-37.33.37m150.48 72.28s4.43 6 1.33 13.28m-97.45 1.03s-2.09 5.34-7.43 9.87-5.33 9.35-5.33 9.35m106.8-26.84s-.98 26.1-12.77 34.15c-5.93 4.04-19 10.19-35.38 9.24-16.19-.94-35.64-8.85-51.55-25.1 70.13 8.97 99.7-18.29 99.7-18.29Z"/><path d="m300.78 269.53-.14.33c22.35 9.13 38.66 3.37 67.46-2.83 13.05-2.83 21.05-7.01 25.93-10.8v0s-12.56-6.23-18.92-3.61c-1.4.57-2.59 1.23-3.61 1.91-3.38 2.26-7.49 3.12-11.52 2.57-2.94-.4-6.96-.23-12.2 1.45-12.61 4.06-34.53 15.58-47 10.97v.01Z"/><path d="M394.03 256.22s-12.56-6.21-18.92-3.59c-1.24.51-2.32 1.08-3.26 1.68-3.65 2.33-8 3.23-12.31 2.74-2.9-.33-6.78-.09-11.76 1.51-12.61 4.06-34.53 15.58-47 10.97-.66-.25-1.3-.55-1.91-.89"/><path d="M401.32 247.32s-1.16 4.15-7.28 8.92c-4.88 3.79-13.36 4.34-26.42 7.17-28.8 6.2-44.63 15.59-66.98 6.46-.54-.2-1.08-.43-1.63-.67 0 0 39.4 20.68 69.46 10.38s32.85-32.26 32.85-32.26Z"/><path d="M357.62 269.04s.37-3.2 4.65-4.21 6.53 1.56 6.53 1.56m0 0s.14-3.14 3.47-3.93 5.24 1.87 5.24 1.87"/><path d="M348.91 271.1s.14-3.14 3.47-3.93 5.24 1.87 5.24 1.87m12.17 6.17s-.3 3.2-4.56 4.31-6.56-1.42-6.56-1.42m0 .01s-.07 3.14-3.39 4.01c-3.32.86-5.28-1.75-5.28-1.75m28.46-7.41s-.07 3.14-3.39 4.01c-3.32.86-5.28-1.75-5.28-1.75m16.79 10.46c-1.53 1.34-14.89 8.88-34.54 9.9M181.75 71.37l.13.19c9.52 13.48 18.73 8.41 22.26 5.31 3.58 11.4 23.36 4.51 30.19.13 7.73 6.25 23.17 3.19 29.52-3.82 10.4 6.23 35.16 3.07 39.48-10.14 4.16 5.23 10.47 13.45 26.67 8.64s17.78-18.88 10.45-22.44c8.33-5.15 5.75-18.48-3.02-25.9v0c-4.51-3.82-10.67-6.07-17.82-4.81C315.2-.42 291.23-2.8 280.75 8.26c-6.26-4.89-16.08-4.25-21.72 1.92-4.41-4.1-12.9-2.76-17.3.6-17.88-19.83-46.69.81-49.04 22.19-9.87-4.01-19.11.36-17.11 12.18-4.94.01-14.02 4.82-11.72 13.25-3.36 12 10.44 16.77 17.9 12.95l-.01.02Z"/><path d="m287.04 30.54 1.15-1.8c2.51-3.91 7.27-5.81 12.72-5.07 5.92.8 10.88 4.54 12.36 9.3l.61 1.96-1.7-1.15c-4.46-3-13.4-7.51-23.14-3.97l-2.01.73h.01Zm-2.26 5.78c4.02.36 6.87 2.48 8.04 5.99l.62 1.86-1.68-1.01c-5.03-3.04-10.8-1.51-16.38-.04-1.12.3-2.27.6-3.38.86l-1.56.36.77-1.41c2.27-4.18 8.23-7.08 13.57-6.61Zm-27.02 12.72c5.15-.33 10.16 2.11 12.46 6.07l.89 1.52-1.7-.46c-7.52-2.05-13.01-3.14-20.41.26l-1.69.78.72-1.71c1.61-3.81 5.15-6.17 9.73-6.46Zm-8.72-15.38c3.8-.81 7.09.5 9.03 3.6l.9 1.43-1.66-.34c-5.75-1.19-9.18.91-13.53 3.57-1.04.64-2.12 1.3-3.3 1.96l-1.28.71.21-1.45c.63-4.38 4.76-8.45 9.62-9.49l.01.01Zm15-6.94c-2.67-.1-4.78-.18-8.46.14l-1.11.1.36-1.05c.92-2.69 3.48-4.42 6.67-4.52 3.4-.1 6.44 1.69 7.58 4.45l.41 1.01h-1.09c-1.73-.03-3.12-.09-4.36-.13Zm-50.75 9.96-1.32.33.47-1.28c1.33-3.63 5.34-6.51 9.54-6.86 3.45-.28 6.36 1.18 7.96 4.02l.74 1.31-1.49-.24c-4.72-.77-7.55.15-11.13 1.31-1.39.45-2.96.96-4.78 1.41h.01Zm6.09 21.2c2.96-.61 5.4.53 6.71 3.1l.58 1.13-1.27-.08c-3.14-.21-5.17.86-7.52 2.09-1.39.73-2.97 1.56-4.92 2.17l-1.01.32.07-1.06c.26-3.86 4.03-6.99 7.36-7.67Zm-30.99-3.18c2.66-1.37 6.57-1.54 8.86 1.34l.67.84-1.04.3c-5.14 1.48-6.97 2.11-11.14 5.55l-.85.7-.3-1.05c-.87-3.02.62-6.03 3.8-7.67v-.01Zm21.23-10.47c2.96-.74 6.28.26 8.08 2.43l.62.75-.9.37c-1.69.7-3.06 1.06-4.32 1.28-1.14.19-2.2.26-3.32.33-1.15.07-2.44.15-4.03.38l-1.01.14.2-1c.47-2.35 2.18-4.06 4.68-4.69v.01Zm18.37-20.28-1.37.78.31-1.55c.71-3.58 3.42-6.27 7.24-7.2 4.23-1.03 8.73.36 11.19 3.46l.94 1.18h-2.24c-6.72-.04-10.09-.06-16.06 3.33h-.01Z"/><path d="M181.75 71.37s.09.11.13.19c9.52 13.48 18.73 8.41 22.26 5.31 3.58 11.4 23.36 4.51 30.19.13 7.73 6.25 23.17 3.19 29.52-3.82 10.4 6.23 35.16 3.07 39.48-10.14 4.16 5.23 10.47 13.45 26.67 8.64s17.78-18.88 10.45-22.44c8.33-5.15 5.75-18.48-3.02-25.9v0c3.36 7.54 1.6 19.02-.82 25.08-2.26-4.97-8.86-7.87-14.18-10.07 3.22 3.89 6.93 9.83 7.42 15.1-9.32-8.28-31.67-4.06-45.29 5.91 1.65 2.12 4.26 3.97 6.79 4.7-1.2 3.25-29.21 9.17-38.23-2.35-.63 2.3-.46 6.49 2.92 8.92-9.04 1.82-15.61-.37-21.3-6.67-4.24 9.72-22.2 14.84-31.98 2.77-3.89 8.8-17.67 4.56-21 4.63l-.01.01Z"/></g><g stroke-width="0"><path fill="#ff953e" d="M247.51 456.4c-6.39-.14-12.5-2.68-18.15-5.41-20.28-9.79-38.86-23.3-56.82-36.37L120.82 377c-15.87-11.54-29.46-22.44-35.15-38.92-2.07-6-2.29-11.22-.65-15.51 3.46-9.07 14.01-11.88 21.65-13.19 18.93-3.27 38.42-4.2 57.27-5.11 2.82-.14 5.65-.27 8.47-.42 74.3-3.78 148.97-12.94 221.93-27.22l1.03-.2c9.9-1.94 20.13-3.95 30.32-3.95 3.88 0 7.47.28 10.97.86 5.97.99 11.79 2.91 17.42 4.77 3.83 1.26 7.79 2.57 11.72 3.56 5.22 1.31 11.11 1.45 16.81 1.58 6.74.16 13.7.32 19.8 2.4 9.76 3.34 17.26 16 18.86 26.31 1.78 11.43-2.17 23.33-10.3 31.06-5.6 5.32-12.89 8.47-19.32 11.25l-223.81 96.66c-5.93 2.56-12.66 5.47-19.75 5.47h-.58Z"/><path fill="#422720" d="M425.69 274.04c3.58 0 7.15.25 10.71.84 9.9 1.64 19.26 5.86 29.02 8.3 11.6 2.91 25.51.19 36.49 3.94 9.37 3.2 16.36 15.59 17.83 25.08 1.69 10.85-2.13 22.38-9.84 29.7-5.34 5.08-12.18 8.06-18.87 10.95-19.58 8.46-39.16 16.91-58.73 25.37-55.03 23.77-110.05 47.53-165.08 71.29-6.13 2.65-12.48 5.34-19.14 5.34h-.54c-6.1-.13-11.95-2.57-17.52-5.26-20.09-9.7-38.4-23-56.58-36.22l-51.72-37.62c-14-10.19-28.83-21.46-34.6-38.17-1.61-4.66-2.41-9.9-.67-14.45 3.05-7.98 12.32-10.81 20.47-12.22 21.62-3.73 43.64-4.39 65.56-5.51 74.61-3.79 148.89-12.9 222.15-27.25 10.24-2.01 20.66-4.12 31.05-4.12m.01-3.08v3.09-3.09c-10.34 0-20.65 2.02-30.62 3.98l-1.03.2c-72.89 14.27-147.48 23.42-221.71 27.19l-8.46.42c-18.9.91-38.45 1.85-57.47 5.13-8.01 1.38-19.09 4.35-22.83 14.17-1.77 4.64-1.56 10.21.64 16.56 5.83 16.91 19.62 27.97 35.7 39.67l4.7 3.42 47.02 34.2c18.02 13.11 36.65 26.66 57.06 36.51 5.81 2.8 12.11 5.42 18.79 5.57h.6c7.41 0 14.29-2.97 20.36-5.59l49.02-21.17 116.06-50.12 4.62-1.99 54.12-23.37c6.55-2.83 13.97-6.03 19.77-11.55 8.5-8.07 12.63-20.5 10.77-32.42-1.68-10.77-9.57-24.01-19.89-27.53-6.33-2.16-13.41-2.33-20.27-2.49-5.61-.13-11.41-.26-16.47-1.53-3.88-.97-7.81-2.27-11.61-3.53-5.69-1.88-11.57-3.82-17.65-4.83-3.58-.59-7.25-.88-11.22-.88v-.02Z"/></g><path fill="none" stroke="#f4be59" stroke-linecap="round" stroke-miterlimit="10" stroke-width="6.19" d="M398.32 377.16c-16.16 6.98-32.32 13.96-48.49 20.94m148.47-66.92c-5.34 5.08-12.18 8.06-18.87 10.95-19.58 8.46-39.16 16.91-58.73 25.37"/><path fill="#c55023" stroke-width="0" d="M106.92 310.91c21.62-3.73 43.64-4.39 65.56-5.51 74.61-3.79 148.89-12.9 222.15-27.25 13.77-2.7 27.85-5.59 41.76-3.28 9.9 1.64 19.26 5.86 29.02 8.3 10.84 2.72 23.68.59 34.27 3.36-1.15 2.56-.37 15.99-10.13 22.3-9.75 6.3-19.64 1.58-26.97 3.85s-10.55 5.65-15.33 17.82c-4.78 12.16-23.75 17.26-37.79 20.69-22.92 5.61-53.95-1.74-67.03 18.99s-27.71 21.25-52.1 23.96c-24.4 2.71-42.56 18.46-43.3 29.89s5.16 16.33 4.44 24.78c-.19 2.16-.95 4.13-2.05 5.89-.63.03-1.26.16-1.89.14-6.1-.13-11.95-2.57-17.52-5.26-20.09-9.7-38.4-23-56.58-36.22l-51.72-37.62c-14.01-10.19-28.83-21.46-34.6-38.17-1.61-4.66-2.41-9.9-.67-14.45 3.05-7.98 12.32-10.81 20.47-12.22l.01.01Z"/><path fill="none" stroke="#ff953e" stroke-linecap="round" stroke-linejoin="round" stroke-width="6.19" d="M118.65 357.54c-6.28-4.57-12.73-9.36-18.46-14.76m121.95 88.46c-6.51-4.24-13.2-8.68-19.2-13.78m-13.11-8.37c-6.55-4.54-13.02-9.24-19.47-13.94-12.93-9.41-25.87-18.82-38.8-28.22"/><path fill="#9abe3e" stroke="#422720" stroke-miterlimit="10" stroke-width="3.09" d="M501.08 268.34c-1.29 1.52-3.58 2.02-4.47 3.83-2.48 5.08 8.34 6.98 9.42 12.63.62 3.26-2.27 6.87-2.62 9.79-.23 1.89-1.57 3.46-3.44 3.87-.1.02-.21.05-.31.07a4.39 4.39 0 0 0-3.41 4.91c.11.75.21 1.51.32 2.26.21 1.46-.33 2.93-1.44 3.9-3.2 2.81-5.02 7.26-4.94 11.67.07 3.48-3.69 5.7-6.67 3.89-4.11-2.49-8.39-5.43-10.47 1.09-.07.2-.14.41-.24.6-5.19 10.19-19.93 7.28-22.15-3.36-.24-1.16-.9-2.21-1.91-2.84-3.94-2.46-10.3-.41-11.31 4.45-.61 2.91.45 6-.03 8.94-.47 2.92-2.66 5.31-5.3 6.3-1.72.64-2.9 2.24-2.9 4.08 0 2.71-1.43 5.48-3.62 6.88-1.41.9-2.22 2.5-2.07 4.17.76 8.42-11.7 12.1-17.74 1.31-1.24-2.22-4.12-2.93-6.24-1.52-5.64 3.76-8.91 13.93-16.1 15.05-6.73 1.04-13.51-6.64-19.69-3.73-2.42 1.14-4.14 3.78-6.77 4.26-3.09.56-7.03-1.89-9.05.6-1.15 1.41-.73 3.52-1.01 5.39-.1.67-.37 1.31-.76 1.87-2.97 4.23-5.65 1.53-10.71 11.02-.05.1-.11.19-.17.29-4.36 6.89-10.21 4.26-10.51.67-.22-2.67-2.83-4.53-5.43-3.85-2.56.67-4.83 2.59-5.45 5.29-1.03 4.47 1.33 10.64-2.47 12.92-1.11.67-2.45.71-3.74.75-7.65.19-47.94 35.93-62.46 15.78-.13-.19-.25-.39-.35-.59-.94-1.91-1.69-3.99-3.24-5.39-1.32-1.19-3.05-1.72-4.71-2.23-9.13-3.17-18.96-4.78-27.66-9-.2-.1-.4-.21-.58-.34-8.42-5.94-8.91-21.24-18.63-24.38-4.04-1.31-8.64.07-12.45-1.86-3.31-1.67-4.96-5.17-5.87-9.02-.65-2.75-3.66-4.22-6.2-2.98-5.22 2.54-10.97 3.84-16.51 2.35-6.17-1.66-11.42-7.91-11.51-14.22-.03-2.14-1.55-3.99-3.67-4.33-7.5-1.19-14.57-5.64-19.04-12.09a4.462 4.462 0 0 0-3.77-1.92c-7.87.26-13.76-2.23-13.79-10.93 0-.44-.07-.89-.21-1.31-1.35-4.01-6.1-6.32-9.98-5.37-2.74.67-5.39-1.45-5.41-4.27-.02-3.6 2.5-7.24 5.6-9.92a4.378 4.378 0 0 0 .37-6.26 27.473 27.473 0 0 1-6.09-11.1c-.61-2.22.6-4.55 2.77-5.31 28.85-10.09 62.22-.7 90.72 7.79 33.47 11.81 66.86 32.54 101.42 26.34 15.24-2.73 29.3-10.65 44.67-12.56 14.4-1.79 29.63 1.73 43.18-3.5 10.36-3.99 18.5-12.69 28.82-16.8 8.81-3.51 18.58-3.43 27.77-5.69 21.9-5.5 40.64-24.33 64.52-21.35 4.54.54 22.55 4.94 15.7 13.03l-.01-.02Z"/><path fill="#92ab2c" stroke-width="0" d="M82.97 308.57c1.88-3.4 5.2-5.61 8.4-7.69-5.81-4.26-9.78-11.16-10.65-18.47 8.43-4.84 18.5-5.51 28.19-5.38 22.38.3 44.78 4.31 66.08 11.82 33.47 11.8 66.86 32.54 101.42 26.34 15.24-2.73 29.3-10.65 44.67-12.56 14.4-1.79 29.63 1.73 43.19-3.5 10.36-3.99 18.5-12.69 28.81-16.8 8.81-3.51 18.58-3.43 27.77-5.69 11.96-2.95 22.6-9.77 33.79-14.99 9.65-4.51 20-7.63 30.73-6.35 2.39.29 8.51 1.65 12.77 4.06.18.82.21 1.7-.09 2.46-.78 1.96-2.61 3.19-4.28 4.39-6.61 4.77-12.25 10.97-16.46 18.1-5.36 3.05-12.15 3.29-17.78.62-3.32 7.26-10.98 10.97-18.07 14.15-3.24 1.45-6.48 2.9-9.73 4.35-1.16.52-2.37 1.05-3.64.98-1.84-.09-3.41-1.4-4.99-2.41-6.12-3.9-13.71-3.75-20.83-3.47-1.19.05-2.46.12-3.4.87-1.73 1.37-1.49 4.22-2.74 6.07-2.88 4.3-12.03 1.76-12.5 7.02-.13 1.42.63 2.81.55 4.24-.31 5.72-10.27 2.94-13.58 7.47-1.4 1.92-1.14 4.62-1.77 6.95-1.66 6.2-9.06 8.45-15.25 8.02-6.19-.42-12.53-2.46-18.47-.72-4.79 1.4-8.62 5.08-13.12 7.26-5.51 2.67-11.79 3.01-17.71 4.53-9.67 2.48-18.5 8.25-24.81 16.23-1.01 1.28-2.01 2.66-3.43 3.4-1.68.87-3.68.72-5.56.56a367.742 367.742 0 0 0-44.03-1.11c-3.05.11-6.18.27-8.99 1.49-4.89 2.13-8.17 7.47-8.43 13.02-.09 2.01.17 4.02.45 6.01.77 5.38 1.81 10.73 2.96 16.04-1.23-.45-2.42-.98-3.52-1.71-8.69-5.79-9.08-21.4-18.91-24.57-4.04-1.31-8.64.07-12.45-1.86-5.02-2.54-6.23-9.3-6.8-15.06-6.42 4.34-14.28 7.42-21.78 5.41-7.49-2.01-13.62-10.79-10.82-18.24-9.83.14-19.64-5.6-24.71-14.48-5.98.57-13.84-.1-15.56-6.15-.47-1.66-.32-3.43-.68-5.12-1.18-5.6-8.82-8.39-12.98-4.74-3.05-2.4-3.16-7.38-1.28-10.78l.02-.01Z" opacity=".26" style="mix-blend-mode:multiply"/><path fill="#a9d928" stroke-width="0" d="M472.31 308.85c.68-.68 1.35-1.38 2-2.09.31-.33.62-.67.92-1.01.17-.19.33-.38.5-.57.22-.25-.19.23.16-.19 1.25-1.48 2.45-2.99 3.59-4.56 2.29-3.13 4.34-6.44 6.17-9.89.79-1.5 3.09-1.8 4.36-.79 1.47 1.17 1.67 2.97.83 4.56-3.83 7.24-8.73 13.8-14.42 19.54-1.17 1.18-3.42.95-4.43-.39-1.12-1.47-.95-3.35.3-4.62l.02.01Zm-20.42-.1c.18-.21.36-.41.53-.62.43-.38.92-.62 1.47-.72-.21.07-.43.14-.64.21 2.06-.68 4.01-1.64 5.84-2.83.53-.37 1.06-.75 1.56-1.17 1.28-1.05 3.34-1.05 4.43.39 1.03 1.36 1.06 3.49-.3 4.62a29.624 29.624 0 0 1-4.59 3.11c-1.64.9-3.35 1.55-5.12 2.12-.71.23-1.77-.12-2.35-.55-.64-.46-1.21-1.31-1.32-2.12-.12-.84-.01-1.75.49-2.45v.01Zm8.03-15.62 9.18-3.81c.78-.33 1.62-.42 2.44-.11.71.28 1.46.93 1.77 1.67.64 1.55.19 3.69-1.43 4.36l-9.18 3.81c-.78.32-1.62.42-2.44.11-.71-.28-1.46-.93-1.77-1.67-.64-1.55-.19-3.69 1.43-4.36Zm-61 45.48c5.35-1.66 11.01-3.38 15.85-6.29 3.81-2.29 7-6.07 7.1-10.85.04-1.77 1.77-3.11 3.39-2.94 1.78.18 2.91 1.8 2.88 3.58-.14 6.46-4.19 11.87-9.18 15.24-5.61 3.79-12.49 5.75-18.87 7.73-1.62.5-3.38-1.07-3.67-2.67-.35-1.91.87-3.28 2.5-3.79v-.01Zm2.91-22.84c1.11-.19 2.2-.41 3.29-.68.59-.15 1.17-.31 1.75-.48.25-.07.49-.15.74-.23.05-.01.03-.01.07-.02.08-.03.16-.05.24-.08a42.73 42.73 0 0 0 6.27-2.78c1.45-.79 3.54-.03 4.21 1.56.7 1.69.12 3.52-1.43 4.36-4.35 2.36-9.1 3.99-13.96 4.81-1.62.27-3.43-.9-3.67-2.67-.24-1.75.77-3.5 2.5-3.79h-.01Zm-27.45 21.37 7.49-1.77c1.6-.38 3.44.97 3.67 2.67.25 1.83-.78 3.38-2.5 3.79-2.5.59-5 1.18-7.49 1.77-1.6.38-3.44-.97-3.67-2.67-.25-1.83.78-3.38 2.5-3.79Zm-16.05 14.25 13.04-2.04c1.62-.25 3.44.56 3.79 2.41.3 1.61-.58 3.69-2.32 3.96l-13.04 2.04c-1.62.25-3.44-.56-3.78-2.41-.3-1.61.58-3.69 2.31-3.97v.01Zm-64.18 32.21c1.8-5.02 6.36-7.59 11.2-8.57 5.75-1.15 12.75.39 16.63-5.21 3.31-4.79 4.1-10.98 7.41-15.8 3.32-4.86 8.94-7.77 14.65-5.83 3.86 1.31 1.76 7.45-2.1 6.14-5.07-1.72-8.3 4.51-9.84 8.42-1.86 4.71-3.4 9.61-6.92 13.29-3.84 4.01-9.17 4.58-14.35 4.96-3.71.27-9.23.65-10.75 4.9-1.41 3.92-7.33 1.65-5.92-2.29l-.01-.01Zm2.59-19.16c.29-.74.82-1.54 1.57-1.82 3.09-1.13 6.17-2.25 9.26-3.38.82-.3 1.59-.44 2.44-.11.71.28 1.46.93 1.77 1.67.33.79.46 1.73.14 2.54-.29.74-.82 1.54-1.57 1.82-3.09 1.13-6.17 2.25-9.26 3.38-.82.3-1.59.44-2.44.11-.71-.28-1.46-.93-1.77-1.67-.33-.79-.46-1.73-.14-2.54Zm-44.17 38.67c1.17-1.05 3.45-1.08 4.43.39.99 1.48 2.09 1.92 3.88 2.04 1.91.12 4.26-1 6.12-2.06 4.73-2.71 9.45-6.19 15.2-5.18 1.68.29 3.02 1.73 2.88 3.58-.13 1.67-1.7 3.24-3.39 2.94-5.61-.98-10.15 4.23-15.05 6.12-4.77 1.85-11.14 1.65-14.38-3.21-.98-1.46-1.07-3.39.3-4.62h.01Zm-27.14-10.96c.22-1.84 1.62-3.01 3.39-2.94l13.67.54c1.64.07 3.08 1.9 2.88 3.58-.22 1.84-1.62 3.01-3.39 2.94-4.56-.18-9.11-.36-13.67-.55-1.64-.07-3.08-1.9-2.88-3.58v.01Zm32.43-5.66c2.37-.56 4.74-1.11 7.1-1.67 1.6-.37 3.44.97 3.67 2.67.25 1.83-.78 3.39-2.5 3.79-2.37.56-4.73 1.11-7.1 1.67-1.6.37-3.44-.97-3.67-2.67-.25-1.83.79-3.39 2.5-3.79Zm-74.46-24.53c1.33-1.08 3.28-1.01 4.43.39.03.04.06.07.1.11.07.05.13.09.19.14.16.06.31.11.47.17.18.02.36.05.53.07l.47.03h.35c.05 0 .11 0 .13-.01.21-.02.42-.05.63-.08.43-.06.86-.14 1.29-.21 1.14-.19 2.27-.33 3.43-.34 4.53-.05 8.85 4.04 7.51 8.95-.45 1.65-2.51 2.58-4.01 1.93-1.5-.66-2.19-2.15-1.96-3.73 0-.01-.02-.02-.03-.04 0 .02 0 0 0 0-.03-.04-.05-.07-.08-.1-.05-.06-.02-.02-.04-.04-.09-.07-.18-.15-.26-.2-.11-.07-.53-.42-.13-.09.37.31 0 .02-.15-.04-.05-.02-.09-.03-.14-.05-.27-.08-.84-.06-.99-.07h-.04c-.03 0 0 0-.06.01-.2.02-.39.04-.59.07-.43.06-.86.13-1.29.2-3.53.6-7.49.7-10.07-2.44-1.08-1.31-1.02-3.53.3-4.62l.01-.01Zm-53.64-28.95c4.67.42 9.51.94 13.9 2.82 2.16.92 4.18 2.15 5.93 3.77 1.97 1.82 3.31 4.03 4.83 6.23 1.36 1.97 2.74 3.61 5.14 3.99 2.35.37 4.72-.18 7.04-.48 4.77-.6 9.59-.2 13.16 3.57 2.87 3.03-1.88 7.23-4.74 4.23-2.78-2.93-8.19-1.07-11.52-.79-4.87.41-9.28-.63-12.62-4.66-2.89-3.49-4.52-7.46-8.76-9.45-4.05-1.89-8.53-2.3-12.88-2.69-4.03-.36-3.53-6.88.51-6.52l.01-.02Zm-14.19-33.83c3.15-1.45 6.38-.22 8.69 2.32 2.37 2.61 2.9 5.96 3.21 9.37.14 1.58.23 3.27.91 4.73.08.17.45.83.39.74-.15-.22.33.4.37.46 0 0 .36.39.42.47.22.2.45.39.69.57 1.17.88 1.83 1.17 3.21 1.71 1.3.51 2.63.91 3.96 1.29 1.64.47 2.44 2.66 1.91 4.21-.61 1.78-2.36 2.4-4.01 1.93-5.22-1.49-11-3.85-13-9.64-.6-1.75-.86-3.51-1.02-5.35-.07-.77-.13-1.54-.23-2.31-.06-.46-.13-.92-.22-1.37-.02-.12-.32-1.12-.12-.56-.1-.26-.21-.52-.34-.77-.06-.13-.37-.67-.15-.32-.18-.29-.41-.53-.61-.8-.07-.08-.14-.16-.22-.24-.16-.13-.32-.25-.49-.36-.05-.01-.25-.11-.4-.18h-.1c-.04.02-.03.02-.09.04-1.54.71-3.44.07-4.21-1.57-.73-1.57-.12-3.65 1.43-4.36l.02-.01Zm-19.68 8.44c.93-1.28 3.03-2 4.36-.79 4.38 3.97 8.76 7.95 13.14 11.92.66.6 1.15 1.19 1.32 2.12.14.79-.02 1.8-.49 2.45-.93 1.28-3.03 2-4.36.79-4.38-3.97-8.76-7.95-13.14-11.92-.66-.6-1.15-1.2-1.32-2.12-.14-.79.02-1.8.49-2.45Z"/><g stroke-width="0"><path fill="#ff953e" d="M226.04 366.16c-2.92 0-5.8-.18-8.58-.52-1.08-.13-2.17-.3-3.24-.49-13.67-2.42-25.8-9.26-35.86-15.64-3.27-2.07-6.45-4.18-9.68-6.33l-59.84-39.85c-1.27-.84-2.55-1.69-3.85-2.54l-.93-.61c-1.55-1.02-3.11-2.05-4.66-3.09l.77-1.35-.86 1.29c-9.15-6.18-18.31-13.23-23.58-23.02-1.96-3.64-3.3-7.54-3.98-11.59l-.1-.51-.09-.48c-13.09-81.35 39.34-154.45 49.98-168.28l.04-.06c.92-1.2 1.47-1.87 1.55-1.96 31.8-37.85 98.39-63.29 165.69-63.29 28.68 0 56.29 4.41 82.07 13.1 84.78 28.6 125.08 154.32 127.6 201.92.58 10.89-4.96 20.99-14.45 26.37-16.97 9.62-31.5 16.74-44.42 21.77-8.31 3.24-12.31 11.21-16.95 20.43-6.9 13.74-14.72 29.32-39.07 35.4-7.63 1.9-15.64 2.83-24.48 2.83-5.48 0-11.14-.35-17.3-1.09-3.65-.43-7.24-1.02-10.71-1.59-6.68-1.09-12.98-2.12-19.57-2.12-3.21 0-6.21.24-9.16.75-9.42 1.6-18.58 5.2-27.44 8.67-2.04.8-4.07 1.6-6.11 2.37-11.61 4.42-26.97 9.49-42.78 9.49l-.01.02Z"/><path fill="#422720" d="M288.82 29.39c27.12 0 54.91 4.03 81.57 13.02 82.49 27.83 123.91 150.73 126.55 200.54a27.011 27.011 0 0 1-13.67 24.94c-14.29 8.1-29.37 15.89-44.22 21.68-21.51 8.38-15.58 45.72-55.83 55.77-7.92 1.98-16 2.78-24.11 2.78-5.71 0-11.44-.4-17.12-1.08-10.47-1.24-20.21-3.72-30.47-3.72-3.08 0-6.21.22-9.42.77-11.73 2-22.73 6.89-33.85 11.12-13.53 5.15-27.9 9.39-42.23 9.39-2.8 0-5.6-.16-8.38-.51a57.77 57.77 0 0 1-3.17-.48c-12.75-2.26-24.28-8.44-35.3-15.42-3.26-2.06-6.47-4.19-9.65-6.31-16.42-10.94-32.85-21.87-49.27-32.81-3.53-2.35-7.05-4.7-10.57-7.04-1.57-1.05-3.18-2.1-4.79-3.16-1.54-1.01-3.1-2.04-4.64-3.08-.04-.03-.08-.05-.12-.08-9.12-6.17-17.98-13.03-23.05-22.45-1.8-3.35-3.13-7.03-3.82-11.11 0-.03-.01-.07-.02-.1l-.09-.45c-.03-.15-.05-.29-.08-.44-13.03-80.96 39.82-154.26 49.68-167.07.92-1.2 1.47-1.87 1.54-1.96 30.8-36.67 95.49-62.74 164.5-62.74m.03-3.09c-33.82 0-67.6 6.17-97.7 17.83-29.6 11.47-53.52 27.38-69.17 46.01-.12.14-.65.79-1.46 1.85l-.02.02-.16.21c-10.74 13.96-63.45 87.5-50.27 169.43.03.18.06.34.09.5l.05.25.05.24v.03c.72 4.22 2.11 8.27 4.15 12.05 5.43 10.08 14.76 17.28 24.05 23.55l.06.04.03.02.02.02c1.48 1 2.94 1.97 4.68 3.1l1.05.69c1.25.82 2.49 1.64 3.72 2.45l9.79 6.52.78.52 49.27 32.81c3.1 2.07 6.41 4.26 9.71 6.35 10.19 6.45 22.49 13.38 36.42 15.85 1.11.2 2.23.36 3.32.5 2.84.35 5.78.53 8.77.53 16.06 0 31.59-5.13 43.33-9.59 2.05-.78 4.13-1.59 6.13-2.38 8.78-3.44 17.87-7 27.13-8.58 2.87-.49 5.78-.73 8.9-.73 6.46 0 12.71 1.02 19.32 2.1 3.49.57 7.1 1.16 10.78 1.6 6.22.74 11.94 1.1 17.48 1.1 8.97 0 17.1-.94 24.86-2.88 25.04-6.25 33.38-22.86 40.08-36.21 4.49-8.94 8.37-16.67 16.12-19.69 12.99-5.06 27.58-12.21 44.62-21.87 10-5.67 15.84-16.32 15.23-27.8-1.32-24.91-12.24-68.51-33.67-109.77-17.66-34.01-48.48-77.85-94.98-93.53-25.93-8.75-53.71-13.18-82.56-13.18v.04Z"/></g><path fill="none" stroke="#f4be59" stroke-linecap="round" stroke-miterlimit="10" stroke-width="6.19" d="M393.62 76.92c-6.35-6.4-13.11-12.16-20.29-17.09m91.12 153.38c-9.86-36.62-28.77-85.38-57.77-121.59m21.42 82.39c-3.86-9.99-8.28-19.72-13.31-28.9m30.5 90.88c-2.61-14-6.09-28.61-10.6-43.04"/><path fill="#c55023" stroke-width="0" d="M77.24 260.48c1.37 6.56 3.81 12.79 8.26 18.21 5.69 6.93 13.54 11.54 21.04 16.24 8.19 5.13 16.04 10.79 24.09 16.14a8198.58 8198.58 0 0 0 56.86 37.5c8.81 5.76 18.75 9.76 29.17 11.32.71.11 1.49.19 2.08-.22.69-.47.85-1.44.62-2.24s-.78-1.45-1.3-2.1c-6.16-7.65-10.4-16.75-13.45-26.04-3.05-9.24-5.3-20.01-6.7-32.03-2.53-21.8-1.89-43.84-1.42-59.94.12-4.05.23-7.87.27-11.09.04-3.63.32-7.98.63-13.01 1.08-17.37 2.56-41.14-3.46-62.72-7.03-25.21-22.42-40.71-47.06-47.38-2.95-.8-5.95-.92-8.81-.44-5.08.86-9.74 3.62-12.99 7.95-8.07 10.76-15.45 22.04-22 33.78-8.08 14.47-14.91 29.69-19.8 45.53C78 207 75.02 224.86 75.5 242.75c.16 5.93.53 11.94 1.73 17.7l.01.03Z"/><path fill="none" stroke="#ff953e" stroke-linecap="round" stroke-linejoin="round" stroke-width="6.19" d="M125.38 143.35c-8.58 14.17-15.95 29.14-21.4 44.8-5.87 16.87-9.49 34.6-9.64 52.5-.05 5.93.11 11.95 1.1 17.75m37.03-33.53c-1.95 12.22-2.61 24.64-1.61 36.99.48 5.91 1.17 11.9 2.67 17.58m-5.9-95.73c-1.67 4.36-3.2 8.78-4.58 13.25-5.27 17.06-8.25 34.92-7.77 52.81"/><path fill="none" stroke="#f4be59" stroke-linecap="round" stroke-miterlimit="10" stroke-width="6.19" d="M223.47 222.74c.63-14.15 1.59-34.43-1.75-54.54m10.32 169.74c-10.68-28.89-9.98-66.55-9.26-91.59m26 57.28c-3.02-21.8-2.54-44.43-2.05-61.32"/><path fill="none" stroke="#c55023" stroke-linecap="round" stroke-linejoin="round" stroke-width="4.6" d="M302.11 144.14s-14.29-10.01-32.7-4.96c-13.38 3.67-22.25 12.49-25.82 17.95a10.435 10.435 0 0 1-6.23 4.42l-3.05.75"/><path fill="#8e4638" stroke="#422720" stroke-linecap="round" stroke-linejoin="round" stroke-width="3.09" d="M300.76 123.92s-5.55-5.99-33.03.74c-27.48 6.74-49.23 16.72-49.23 16.72s8.6-25.69 32.05-30.92 49.83 3.3 55.99-2.69c3.44 11.15-5.77 16.15-5.77 16.15h-.01Z"/><path fill="none" stroke="#422720" stroke-linecap="round" stroke-linejoin="round" stroke-width="3.07" d="M325.82 206.62s-3.12-2.52-6.13-.34c-3.01 2.19-6.29 7.07-2.89 17.15s15.6 9.98 15.6 9.98"/><path fill="none" stroke="#422720" stroke-linecap="round" stroke-linejoin="round" stroke-width="3.09" d="M404.73 128.87s-3.74 3-7.2 1.22"/><path fill="none" stroke="#c55023" stroke-linecap="round" stroke-linejoin="round" stroke-width="4.6" d="M350.19 130.14s9.1-13.28 24.39-15.85 25.76 10.64 25.76 10.64"/><path fill="#8e4638" stroke="#422720" stroke-linecap="round" stroke-linejoin="round" stroke-width="3.09" d="M403.53 112.91s-8.39-7.05-26.04-4.64c-17.65 2.4-27.99 15.29-27.99 15.29s-7.41-7.32-6.97-13.38c8.14.29 56.78-33.04 61 2.73Z"/><path fill="none" stroke="#422720" stroke-linecap="round" stroke-linejoin="round" stroke-width="3.07" d="M377.72 313.98s6.76 5.57 5.54 15.08"/><path fill="none" stroke="#c55023" stroke-linecap="round" stroke-linejoin="round" stroke-width="4.6" d="M305.75 227.2s-10.83 14.82-19.34 21.95c-8.51 7.12-11.3 15.04-9.22 20.32M380.5 207.8s20.34 11.32 24.55 25.8"/><g stroke-width="0"><path fill="#fffcfd" d="M247.83 163.8s5.63 2.93 14.86 3.55c-3.03-1.88-5.37-4.9-6.29-8.64-.61-2.5-.52-5.02.17-7.33-7.93 5.62-8.74 12.42-8.74 12.42Z"/><path fill="#632d2a" d="M256.4 158.72c.92 3.74 3.25 6.76 6.29 8.64 2.74.18 5.8.15 9.12-.22 2.46-.27 5.09-.74 7.79-1.36h.02c3.64-3.39 5.42-8.59 4.15-13.77a13.95 13.95 0 0 0-4.65-7.44c-2.35 0-4.83.25-7.42.76-6.77 1.35-11.65 3.6-15.13 6.07-.69 2.32-.79 4.83-.17 7.33v-.01Z"/><path fill="#fffcfd" d="M279.63 165.77c13.26-3.02 27.85-9.24 27.85-9.24s-10.58-12.18-28.35-11.98a13.95 13.95 0 0 1 4.65 7.44c1.27 5.18-.51 10.39-4.15 13.77v.01Zm76.19-35.76c-6.82 7.51-6.2 16.01-6.2 16.01s6.99.89 16.9-.34c-5.02-.88-9.3-4.58-10.59-9.85-.49-1.98-.5-3.95-.1-5.82h-.01Z"/><path fill="#632d2a" d="M355.82 130.01c-.39 1.86-.38 3.84.1 5.82 1.29 5.27 5.58 8.97 10.59 9.85h.02c2.69-.35 5.6-.84 8.65-1.55h.01c4.99-2.82 7.71-8.72 6.27-14.57a13.119 13.119 0 0 0-7.49-8.91c-2.22.28-4.55.87-6.99 1.86-5.04 2.04-8.63 4.71-11.18 7.51l.02-.01Z"/><path fill="#fffcfd" d="M375.21 144.11c1.72-.39 3.49-.87 5.29-1.42 16.64-5.14 17.03-12.59 17.03-12.59s-9.04-11.36-23.53-9.45c3.61 1.58 6.47 4.77 7.49 8.91 1.44 5.85-1.28 11.74-6.27 14.56l-.01-.01Z"/></g><g fill="none" stroke="#422720" stroke-linecap="round" stroke-linejoin="round" stroke-width="3.07"><path d="M279.6 165.78c-2.71.62-5.34 1.09-7.79 1.36-3.32.37-6.37.4-9.12.22-9.23-.62-14.86-3.55-14.86-3.55s.81-6.8 8.74-12.42c3.48-2.46 8.36-4.72 15.13-6.07 2.59-.51 5.07-.76 7.42-.76 17.77-.2 28.35 11.98 28.35 11.98s-14.59 6.22-27.85 9.24"/><path d="M256.58 151.38c-.69 2.32-.79 4.83-.17 7.33.92 3.74 3.25 6.76 6.29 8.64m103.85-21.68c2.69-.35 5.6-.84 8.65-1.55"/><path d="M375.21 144.11c1.72-.39 3.49-.87 5.29-1.42 16.64-5.14 17.03-12.59 17.03-12.59s-9.04-11.36-23.53-9.45c-2.22.28-4.55.87-6.99 1.86-5.04 2.04-8.63 4.71-11.18 7.51-6.82 7.51-6.2 16.01-6.2 16.01s6.99.89 16.9-.34"/><path d="M355.82 130.01c-.39 1.86-.38 3.84.1 5.82 1.29 5.27 5.58 8.97 10.59 9.85h.02m8.66-1.57h.01c4.99-2.82 7.71-8.72 6.27-14.57a13.119 13.119 0 0 0-7.49-8.91m-94.38 45.15h.02c3.64-3.39 5.42-8.59 4.15-13.77a13.95 13.95 0 0 0-4.65-7.44"/></g><path fill="none" stroke="#c55023" stroke-linecap="round" stroke-linejoin="round" stroke-width="4.6" d="M392.78 147.73s-14.46 9.7-35.2 5.58"/><circle r="6.47" fill="#422720" stroke-width="0" transform="translate(270.1 155.36)"/><ellipse fill="#fff" stroke-width="0" rx="3.83" ry="4.75" transform="rotate(-37.79 359.064 -329.41)"/><circle r="2.69" fill="#fff" stroke-width="0" transform="translate(264.84 158.82)"/><circle r="5.93" fill="#422720" stroke-width="0" transform="translate(368.7 132.69)"/><circle r="2.69" fill="#fff" stroke-width="0" transform="translate(363.45 136.15)"/><ellipse fill="#fff" stroke-width="0" rx="3.6" ry="4.75" transform="rotate(-38.42 372.284 -474.589)"/><g stroke="#422720" stroke-linecap="round" stroke-linejoin="round"><path fill="#8e4638" stroke-width="3.09" d="M333.28 229.04c.44 3.14 17.53-1.16 17.53-1.16v0c-2.03-1.03-3.92-2.02-5.25-2.42-3.55-1.1-12.71.44-12.28 3.58Z"/><path fill="none" stroke-width="3.07" d="M350.82 227.87s-17.09 4.31-17.53 1.16c-.43-3.15 8.73-4.68 12.28-3.58 1.33.4 3.21 1.39 5.25 2.41 3.37 1.71 7.14 3.55 9.38 3.11 3.6-.71 6.92-1.33 9.9-6.36 2.96-5.04 9.01-10.1 9.66-14.21.66-4.11-4.3-8.24-4.3-8.24s-27.78-30.29-31.08-52.27"/></g><path fill="none" stroke="#422720" stroke-linecap="round" stroke-linejoin="round" stroke-width="3.07" d="M247.83 163.8s-3.25 3.93-10.47 4.71"/><path fill="none" stroke="#c55023" stroke-linecap="round" stroke-linejoin="round" stroke-width="4.6" d="M288.36 172.63s-19.91 11.6-37.33.37"/><path fill="none" stroke="#422720" stroke-linecap="round" stroke-linejoin="round" stroke-width="3.07" d="M401.51 245.28s4.43 6 1.33 13.28m-97.45 1.03s-2.09 5.34-7.43 9.87-5.33 9.35-5.33 9.35"/><path fill="#c55023" stroke-width="0" d="M399.43 251.97s-.98 26.1-12.77 34.15c-5.93 4.04-19 10.19-35.38 9.24-16.19-.94-35.64-8.85-51.55-25.1 70.13 8.97 99.7-18.29 99.7-18.29Z"/><path fill="#c55023" stroke-width="0" d="m300.78 269.53-.14.33c22.35 9.13 38.66 3.37 67.46-2.83 13.05-2.83 21.05-7.01 25.93-10.8 0 0-12.56-6.23-18.92-3.61-1.4.57-2.59 1.23-3.61 1.91-3.38 2.26-7.49 3.12-11.52 2.57-2.94-.4-6.96-.23-12.2 1.45-12.61 4.06-34.53 15.58-47 10.97v.01Z"/><g stroke="#422720" stroke-linecap="round" stroke-linejoin="round" stroke-width="3.07"><path fill="none" d="M394.03 256.22s-12.56-6.21-18.92-3.59c-1.24.51-2.32 1.08-3.26 1.68-3.65 2.33-8 3.23-12.31 2.74-2.9-.33-6.78-.09-11.76 1.51-12.61 4.06-34.53 15.58-47 10.97-.66-.25-1.3-.55-1.91-.89"/><path fill="#fff" d="M401.32 247.32s-1.16 4.15-7.28 8.92c-4.88 3.79-13.36 4.34-26.42 7.17-28.8 6.2-44.63 15.59-66.98 6.46-.54-.2-1.08-.43-1.63-.67 0 0 39.4 20.68 69.46 10.38s32.85-32.26 32.85-32.26Z"/><g fill="#fff"><path d="M357.62 269.04s.37-3.2 4.65-4.21 6.53 1.56 6.53 1.56m0 0s.14-3.14 3.47-3.93 5.24 1.87 5.24 1.87"/><path d="M348.91 271.1s.14-3.14 3.47-3.93 5.24 1.87 5.24 1.87"/></g><path fill="#fff" d="M369.79 275.21s-.3 3.2-4.56 4.31-6.56-1.42-6.56-1.42m0 .01s-.07 3.14-3.39 4.01c-3.32.86-5.28-1.75-5.28-1.75m28.46-7.41s-.07 3.14-3.39 4.01c-3.32.86-5.28-1.75-5.28-1.75"/></g><path fill="none" stroke="#422720" stroke-linecap="round" stroke-linejoin="round" stroke-width="3.07" d="M386.58 285.68c-1.53 1.34-14.89 8.88-34.54 9.9"/><path fill="#9abe3e" stroke="#422720" stroke-linecap="round" stroke-linejoin="round" stroke-width="3.3" d="m181.75 71.37.13.19c9.52 13.48 18.73 8.41 22.26 5.31 3.58 11.4 23.36 4.51 30.19.13 7.73 6.25 23.17 3.19 29.52-3.82 10.4 6.23 35.16 3.07 39.48-10.14 4.16 5.23 10.47 13.45 26.67 8.64s17.78-18.88 10.45-22.44c8.33-5.15 5.75-18.48-3.02-25.9v0c-4.51-3.82-10.67-6.07-17.82-4.81C315.2-.42 291.23-2.8 280.75 8.26c-6.26-4.89-16.08-4.25-21.72 1.92-4.41-4.1-12.9-2.76-17.3.6-17.88-19.83-46.69.81-49.04 22.19-9.87-4.01-19.11.36-17.11 12.18-4.94.01-14.02 4.82-11.72 13.25-3.36 12 10.44 16.77 17.9 12.95l-.01.02Z"/><path fill="#a9d928" stroke-width="0" d="m287.04 30.54 1.15-1.8c2.51-3.91 7.27-5.81 12.72-5.07 5.92.8 10.88 4.54 12.36 9.3l.61 1.96-1.7-1.15c-4.46-3-13.4-7.51-23.14-3.97l-2.01.73h.01Zm-2.26 5.78c4.02.36 6.87 2.48 8.04 5.99l.62 1.86-1.68-1.01c-5.03-3.04-10.8-1.51-16.38-.04-1.12.3-2.27.6-3.38.86l-1.56.36.77-1.41c2.27-4.18 8.23-7.08 13.57-6.61Zm-27.02 12.72c5.15-.33 10.16 2.11 12.46 6.07l.89 1.52-1.7-.46c-7.52-2.05-13.01-3.14-20.41.26l-1.69.78.72-1.71c1.61-3.81 5.15-6.17 9.73-6.46Zm-8.72-15.38c3.8-.81 7.09.5 9.03 3.6l.9 1.43-1.66-.34c-5.75-1.19-9.18.91-13.53 3.57-1.04.64-2.12 1.3-3.3 1.96l-1.28.71.21-1.45c.63-4.38 4.76-8.45 9.62-9.49l.01.01Zm15-6.94c-2.67-.1-4.78-.18-8.46.14l-1.11.1.36-1.05c.92-2.69 3.48-4.42 6.67-4.52 3.4-.1 6.44 1.69 7.58 4.45l.41 1.01h-1.09c-1.73-.03-3.12-.09-4.36-.13Zm-50.75 9.96-1.32.33.47-1.28c1.33-3.63 5.34-6.51 9.54-6.86 3.45-.28 6.36 1.18 7.96 4.02l.74 1.31-1.49-.24c-4.72-.77-7.55.15-11.13 1.31-1.39.45-2.96.96-4.78 1.41h.01Zm6.09 21.2c2.96-.61 5.4.53 6.71 3.1l.58 1.13-1.27-.08c-3.14-.21-5.17.86-7.52 2.09-1.39.73-2.97 1.56-4.92 2.17l-1.01.32.07-1.06c.26-3.86 4.03-6.99 7.36-7.67Zm-30.99-3.18c2.66-1.37 6.57-1.54 8.86 1.34l.67.84-1.04.3c-5.14 1.48-6.97 2.11-11.14 5.55l-.85.7-.3-1.05c-.87-3.02.62-6.03 3.8-7.67v-.01Zm21.23-10.47c2.96-.74 6.28.26 8.08 2.43l.62.75-.9.37c-1.69.7-3.06 1.06-4.32 1.28-1.14.19-2.2.26-3.32.33-1.15.07-2.44.15-4.03.38l-1.01.14.2-1c.47-2.35 2.18-4.06 4.68-4.69v.01Zm18.37-20.28-1.37.78.31-1.55c.71-3.58 3.42-6.27 7.24-7.2 4.23-1.03 8.73.36 11.19 3.46l.94 1.18h-2.24c-6.72-.04-10.09-.06-16.06 3.33h-.01Z"/><path fill="#92ab2c" stroke-width="0" d="M181.75 71.37s.09.11.13.19c9.52 13.48 18.73 8.41 22.26 5.31 3.58 11.4 23.36 4.51 30.19.13 7.73 6.25 23.17 3.19 29.52-3.82 10.4 6.23 35.16 3.07 39.48-10.14 4.16 5.23 10.47 13.45 26.67 8.64s17.78-18.88 10.45-22.44c8.33-5.15 5.75-18.48-3.02-25.9 3.36 7.54 1.6 19.02-.82 25.08-2.26-4.97-8.86-7.87-14.18-10.07 3.22 3.89 6.93 9.83 7.42 15.1-9.32-8.28-31.67-4.06-45.29 5.91 1.65 2.12 4.26 3.97 6.79 4.7-1.2 3.25-29.21 9.17-38.23-2.35-.63 2.3-.46 6.49 2.92 8.92-9.04 1.82-15.61-.37-21.3-6.67-4.24 9.72-22.2 14.84-31.98 2.77-3.89 8.8-17.67 4.56-21 4.63l-.01.01Z" opacity=".26" style="mix-blend-mode:multiply"/><g id="eQ5Hibcp2Fw264"><g fill="#ff953e" stroke="#422720" stroke-linecap="round" stroke-linejoin="round" stroke-width="3.3"><path d="M5.82 67.59S4.44 34.96 15.1 34.63c10.66-.34 9.36 25.71 9.36 25.71S29.3 29.1 39.93 30.68c10.63 1.59 4.33 33.85 4.33 33.85s8.82-29.25 20.14-23.41c8.72 4.5-9.8 44.53-9.8 44.53s15.03-14 22.83-5.54c7.79 8.46-26.44 32.83-49.77 28.64C4.33 104.57 5.82 67.59 5.82 67.59Z"/><path d="M54.6 85.65S41.65 77.58 30.68 89"/></g><path fill="none" stroke="#422720" stroke-linecap="round" stroke-linejoin="round" stroke-width="20.63" d="M114.22 219.06s-42.39 26.31-83.41-11.99c-41.6-38.84-7.03-94.05-7.03-94.05"/><path fill="#fff" stroke="#000" stroke-linecap="round" stroke-linejoin="round" stroke-width="2.52" d="M10.88 107.85c9.96-.93 19.46 2.32 26.75 9.17 1.93 1.8 4.96 1.79 6.96-.38q0 0 0 0c2-2.16 1.87-6.19-.58-8.48-8.92-8.38-20.54-12.37-32.73-11.23-3.34.31-5.92 3.41-5.66 6.34q0 0 0 0c.25 2.94 2.63 4.81 5.26 4.57v.01Z"/><path fill="#9abe3e" stroke="#422720" stroke-miterlimit="10" stroke-width="3.09" d="M10.88 107.85c9.96-.93 19.46 2.32 26.75 9.17 1.93 1.8 4.96 1.79 6.96-.38 2-2.16 1.87-6.19-.58-8.48-8.92-8.38-20.54-12.37-32.73-11.23-3.34.31-5.92 3.41-5.66 6.34.25 2.94 2.63 4.81 5.26 4.57v.01Z"/></g></g></g><script><![CDATA[
!function(t,n){"object"==typeof exports&&"undefined"!=typeof module?module.exports=n():"function"==typeof __SVGATOR_DEFINE__&&__SVGATOR_DEFINE__.amd?__SVGATOR_DEFINE__(n):((t="undefined"!=typeof globalThis?globalThis:t||self).__SVGATOR_PLAYER__=t.__SVGATOR_PLAYER__||{},t.__SVGATOR_PLAYER__["5c7f360c"]=n())}(this,(function(){"use strict";function t(t,n){var e=Object.keys(t);if(Object.getOwnPropertySymbols){var r=Object.getOwnPropertySymbols(t);n&&(r=r.filter((function(n){return Object.getOwnPropertyDescriptor(t,n).enumerable}))),e.push.apply(e,r)}return e}function n(n){for(var e=1;e<arguments.length;e++){var r=null!=arguments[e]?arguments[e]:{};e%2?t(Object(r),!0).forEach((function(t){u(n,t,r[t])})):Object.getOwnPropertyDescriptors?Object.defineProperties(n,Object.getOwnPropertyDescriptors(r)):t(Object(r)).forEach((function(t){Object.defineProperty(n,t,Object.getOwnPropertyDescriptor(r,t))}))}return n}function e(t){return(e="function"==typeof Symbol&&"symbol"==typeof Symbol.iterator?function(t){return typeof t}:function(t){return t&&"function"==typeof Symbol&&t.constructor===Symbol&&t!==Symbol.prototype?"symbol":typeof t})(t)}function r(t,n){if(!(t instanceof n))throw new TypeError("Cannot call a class as a function")}function i(t,n){for(var e=0;e<n.length;e++){var r=n[e];r.enumerable=r.enumerable||!1,r.configurable=!0,"value"in r&&(r.writable=!0),Object.defineProperty(t,r.key,r)}}function o(t,n,e){return n&&i(t.prototype,n),e&&i(t,e),t}function u(t,n,e){return n in t?Object.defineProperty(t,n,{value:e,enumerable:!0,configurable:!0,writable:!0}):t[n]=e,t}function a(t){return(a=Object.setPrototypeOf?Object.getPrototypeOf:function(t){return t.__proto__||Object.getPrototypeOf(t)})(t)}function l(t,n){return(l=Object.setPrototypeOf||function(t,n){return t.__proto__=n,t})(t,n)}function s(){if("undefined"==typeof Reflect||!Reflect.construct)return!1;if(Reflect.construct.sham)return!1;if("function"==typeof Proxy)return!0;try{return Boolean.prototype.valueOf.call(Reflect.construct(Boolean,[],(function(){}))),!0}catch(t){return!1}}function f(t,n,e){return(f=s()?Reflect.construct:function(t,n,e){var r=[null];r.push.apply(r,n);var i=new(Function.bind.apply(t,r));return e&&l(i,e.prototype),i}).apply(null,arguments)}function c(t,n){if(n&&("object"==typeof n||"function"==typeof n))return n;if(void 0!==n)throw new TypeError("Derived constructors may only return object or undefined");return function(t){if(void 0===t)throw new ReferenceError("this hasn't been initialised - super() hasn't been called");return t}(t)}function h(t,n,e){return(h="undefined"!=typeof Reflect&&Reflect.get?Reflect.get:function(t,n,e){var r=function(t,n){for(;!Object.prototype.hasOwnProperty.call(t,n)&&null!==(t=a(t)););return t}(t,n);if(r){var i=Object.getOwnPropertyDescriptor(r,n);return i.get?i.get.call(e):i.value}})(t,n,e||t)}function v(t){return function(t){if(Array.isArray(t))return y(t)}(t)||function(t){if("undefined"!=typeof Symbol&&null!=t[Symbol.iterator]||null!=t["@@iterator"])return Array.from(t)}(t)||function(t,n){if(!t)return;if("string"==typeof t)return y(t,n);var e=Object.prototype.toString.call(t).slice(8,-1);"Object"===e&&t.constructor&&(e=t.constructor.name);if("Map"===e||"Set"===e)return Array.from(t);if("Arguments"===e||/^(?:Ui|I)nt(?:8|16|32)(?:Clamped)?Array$/.test(e))return y(t,n)}(t)||function(){throw new TypeError("Invalid attempt to spread non-iterable instance.\nIn order to be iterable, non-array objects must have a [Symbol.iterator]() method.")}()}function y(t,n){(null==n||n>t.length)&&(n=t.length);for(var e=0,r=new Array(n);e<n;e++)r[e]=t[e];return r}function g(t,n,e){if(Number.isInteger(t))return t;var r=Math.pow(10,n);return Math[e]((+t+Number.EPSILON)*r)/r}Number.isInteger||(Number.isInteger=function(t){return"number"==typeof t&&isFinite(t)&&Math.floor(t)===t}),Number.EPSILON||(Number.EPSILON=2220446049250313e-31);var d=p(Math.pow(10,-6));function p(t){var n=arguments.length>1&&void 0!==arguments[1]?arguments[1]:6;return g(t,n,"round")}function m(t,n){var e=arguments.length>2&&void 0!==arguments[2]?arguments[2]:d;return Math.abs(t-n)<e}p(Math.pow(10,-2)),p(Math.pow(10,-4));var b=Math.PI/180;function w(t){return t}function A(t,n,e){var r=1-e;return 3*e*r*(t*r+n*e)+e*e*e}function _(){var t=arguments.length>0&&void 0!==arguments[0]?arguments[0]:0,n=arguments.length>1&&void 0!==arguments[1]?arguments[1]:0,e=arguments.length>2&&void 0!==arguments[2]?arguments[2]:1,r=arguments.length>3&&void 0!==arguments[3]?arguments[3]:1;return t<0||t>1||e<0||e>1?null:m(t,n)&&m(e,r)?w:function(i){if(i<=0)return t>0?i*n/t:0===n&&e>0?i*r/e:0;if(i>=1)return e<1?1+(i-1)*(r-1)/(e-1):1===e&&t<1?1+(i-1)*(n-1)/(t-1):1;for(var o,u=0,a=1;u<a;){var l=A(t,e,o=(u+a)/2);if(m(i,l))break;l<i?u=o:a=o}return A(n,r,o)}}function x(){return 1}function k(t){return 1===t?1:0}function S(){var t=arguments.length>0&&void 0!==arguments[0]?arguments[0]:1,n=arguments.length>1&&void 0!==arguments[1]?arguments[1]:0;if(1===t){if(0===n)return k;if(1===n)return x}var e=1/t;return function(t){return t>=1?1:(t+=n*e)-t%e}}var O=Math.sin,j=Math.cos,M=Math.acos,E=Math.asin,P=Math.tan,I=Math.atan2,R=Math.PI/180,F=180/Math.PI,N=Math.sqrt,T=function(){function t(){var n=arguments.length>0&&void 0!==arguments[0]?arguments[0]:1,e=arguments.length>1&&void 0!==arguments[1]?arguments[1]:0,i=arguments.length>2&&void 0!==arguments[2]?arguments[2]:0,o=arguments.length>3&&void 0!==arguments[3]?arguments[3]:1,u=arguments.length>4&&void 0!==arguments[4]?arguments[4]:0,a=arguments.length>5&&void 0!==arguments[5]?arguments[5]:0;r(this,t),this.m=[n,e,i,o,u,a],this.i=null,this.w=null,this.s=null}return o(t,[{key:"determinant",get:function(){var t=this.m;return t[0]*t[3]-t[1]*t[2]}},{key:"isIdentity",get:function(){if(null===this.i){var t=this.m;this.i=1===t[0]&&0===t[1]&&0===t[2]&&1===t[3]&&0===t[4]&&0===t[5]}return this.i}},{key:"point",value:function(t,n){var e=this.m;return{x:e[0]*t+e[2]*n+e[4],y:e[1]*t+e[3]*n+e[5]}}},{key:"translateSelf",value:function(){var t=arguments.length>0&&void 0!==arguments[0]?arguments[0]:0,n=arguments.length>1&&void 0!==arguments[1]?arguments[1]:0;if(!t&&!n)return this;var e=this.m;return e[4]+=e[0]*t+e[2]*n,e[5]+=e[1]*t+e[3]*n,this.w=this.s=this.i=null,this}},{key:"rotateSelf",value:function(){var t=arguments.length>0&&void 0!==arguments[0]?arguments[0]:0;if(t%=360){var n=O(t*=R),e=j(t),r=this.m,i=r[0],o=r[1];r[0]=i*e+r[2]*n,r[1]=o*e+r[3]*n,r[2]=r[2]*e-i*n,r[3]=r[3]*e-o*n,this.w=this.s=this.i=null}return this}},{key:"scaleSelf",value:function(){var t=arguments.length>0&&void 0!==arguments[0]?arguments[0]:1,n=arguments.length>1&&void 0!==arguments[1]?arguments[1]:1;if(1!==t||1!==n){var e=this.m;e[0]*=t,e[1]*=t,e[2]*=n,e[3]*=n,this.w=this.s=this.i=null}return this}},{key:"skewSelf",value:function(t,n){if(n%=360,(t%=360)||n){var e=this.m,r=e[0],i=e[1],o=e[2],u=e[3];t&&(t=P(t*R),e[2]+=r*t,e[3]+=i*t),n&&(n=P(n*R),e[0]+=o*n,e[1]+=u*n),this.w=this.s=this.i=null}return this}},{key:"resetSelf",value:function(){var t=arguments.length>0&&void 0!==arguments[0]?arguments[0]:1,n=arguments.length>1&&void 0!==arguments[1]?arguments[1]:0,e=arguments.length>2&&void 0!==arguments[2]?arguments[2]:0,r=arguments.length>3&&void 0!==arguments[3]?arguments[3]:1,i=arguments.length>4&&void 0!==arguments[4]?arguments[4]:0,o=arguments.length>5&&void 0!==arguments[5]?arguments[5]:0,u=this.m;return u[0]=t,u[1]=n,u[2]=e,u[3]=r,u[4]=i,u[5]=o,this.w=this.s=this.i=null,this}},{key:"recomposeSelf",value:function(){var t=arguments.length>0&&void 0!==arguments[0]?arguments[0]:null,n=arguments.length>1&&void 0!==arguments[1]?arguments[1]:null,e=arguments.length>2&&void 0!==arguments[2]?arguments[2]:null,r=arguments.length>3&&void 0!==arguments[3]?arguments[3]:null,i=arguments.length>4&&void 0!==arguments[4]?arguments[4]:null;return this.isIdentity||this.resetSelf(),t&&(t.x||t.y)&&this.translateSelf(t.x,t.y),n&&this.rotateSelf(n),e&&(e.x&&this.skewSelf(e.x,0),e.y&&this.skewSelf(0,e.y)),!r||1===r.x&&1===r.y||this.scaleSelf(r.x,r.y),i&&(i.x||i.y)&&this.translateSelf(i.x,i.y),this}},{key:"decompose",value:function(){var t=arguments.length>0&&void 0!==arguments[0]?arguments[0]:0,n=arguments.length>1&&void 0!==arguments[1]?arguments[1]:0,e=this.m,r=e[0]*e[0]+e[1]*e[1],i=[[e[0],e[1]],[e[2],e[3]]],o=N(r);if(0===o)return{origin:{x:p(e[4]),y:p(e[5])},translate:{x:p(t),y:p(n)},scale:{x:0,y:0},skew:{x:0,y:0},rotate:0};i[0][0]/=o,i[0][1]/=o;var u=e[0]*e[3]-e[1]*e[2]<0;u&&(o=-o);var a=i[0][0]*i[1][0]+i[0][1]*i[1][1];i[1][0]-=i[0][0]*a,i[1][1]-=i[0][1]*a;var l=N(i[1][0]*i[1][0]+i[1][1]*i[1][1]);if(0===l)return{origin:{x:p(e[4]),y:p(e[5])},translate:{x:p(t),y:p(n)},scale:{x:p(o),y:0},skew:{x:0,y:0},rotate:0};i[1][0]/=l,i[1][1]/=l,a/=l;var s=0;return i[1][1]<0?(s=M(i[1][1])*F,i[0][1]<0&&(s=360-s)):s=E(i[0][1])*F,u&&(s=-s),a=I(a,N(i[0][0]*i[0][0]+i[0][1]*i[0][1]))*F,u&&(a=-a),{origin:{x:p(e[4]),y:p(e[5])},translate:{x:p(t),y:p(n)},scale:{x:p(o),y:p(l)},skew:{x:p(a),y:0},rotate:p(s)}}},{key:"clone",value:function(){var t=this.m;return new this.constructor(t[0],t[1],t[2],t[3],t[4],t[5])}},{key:"toString",value:function(){var t=arguments.length>0&&void 0!==arguments[0]?arguments[0]:" ";if(null===this.s){var n=this.m.map((function(t){return p(t)}));1===n[0]&&0===n[1]&&0===n[2]&&1===n[3]?this.s="translate("+n[4]+t+n[5]+")":this.s="matrix("+n.join(t)+")"}return this.s}}],[{key:"create",value:function(t){return t?Array.isArray(t)?f(this,v(t)):t instanceof this?t.clone():(new this).recomposeSelf(t.origin,t.rotate,t.skew,t.scale,t.translate):new this}}]),t}();function q(t,n,e){return t>=.5?e:n}function B(t,n,e){return 0===t||n===e?n:t*(e-n)+n}function D(t,n,e){var r=B(t,n,e);return r<=0?0:r}function L(t,n,e){var r=B(t,n,e);return r<=0?0:r>=1?1:r}function C(t,n,e){return 0===t?n:1===t?e:{x:B(t,n.x,e.x),y:B(t,n.y,e.y)}}function V(t,n,e){var r=function(t,n,e){return Math.round(B(t,n,e))}(t,n,e);return r<=0?0:r>=255?255:r}function G(t,n,e){return 0===t?n:1===t?e:{r:V(t,n.r,e.r),g:V(t,n.g,e.g),b:V(t,n.b,e.b),a:B(t,null==n.a?1:n.a,null==e.a?1:e.a)}}function z(t,n){for(var e=[],r=0;r<t;r++)e.push(n);return e}function Y(t,n){if(--n<=0)return t;var e=(t=Object.assign([],t)).length;do{for(var r=0;r<e;r++)t.push(t[r])}while(--n>0);return t}var $,U=function(){function t(n){r(this,t),this.list=n,this.length=n.length}return o(t,[{key:"setAttribute",value:function(t,n){for(var e=this.list,r=0;r<this.length;r++)e[r].setAttribute(t,n)}},{key:"removeAttribute",value:function(t){for(var n=this.list,e=0;e<this.length;e++)n[e].removeAttribute(t)}},{key:"style",value:function(t,n){for(var e=this.list,r=0;r<this.length;r++)e[r].style[t]=n}}]),t}(),Q=/-./g,H=function(t,n){return n.toUpperCase()};function J(t){return"function"==typeof t?t:q}function Z(t){return t?"function"==typeof t?t:Array.isArray(t)?function(t){var n=arguments.length>1&&void 0!==arguments[1]?arguments[1]:w;if(!Array.isArray(t))return n;switch(t.length){case 1:return S(t[0])||n;case 2:return S(t[0],t[1])||n;case 4:return _(t[0],t[1],t[2],t[3])||n}return n}(t,null):function(t,n){var e=arguments.length>2&&void 0!==arguments[2]?arguments[2]:w;switch(t){case"linear":return w;case"steps":return S(n.steps||1,n.jump||0)||e;case"bezier":case"cubic-bezier":return _(n.x1||0,n.y1||0,n.x2||0,n.y2||0)||e}return e}(t.type,t.value,null):null}function K(t,n,e){var r=arguments.length>3&&void 0!==arguments[3]&&arguments[3],i=n.length-1;if(t<=n[0].t)return r?[0,0,n[0].v]:n[0].v;if(t>=n[i].t)return r?[i,1,n[i].v]:n[i].v;var o,u=n[0],a=null;for(o=1;o<=i;o++){if(!(t>n[o].t)){a=n[o];break}u=n[o]}return null==a?r?[i,1,n[i].v]:n[i].v:u.t===a.t?r?[o,1,a.v]:a.v:(t=(t-u.t)/(a.t-u.t),u.e&&(t=u.e(t)),r?[o,t,e(t,u.v,a.v)]:e(t,u.v,a.v))}function W(t,n){var e=arguments.length>2&&void 0!==arguments[2]?arguments[2]:null;return t&&t.length?"function"!=typeof n?null:("function"!=typeof e&&(e=null),function(r){var i=K(r,t,n);return null!=i&&e&&(i=e(i)),i}):null}function X(t,n){return t.t-n.t}function tt(t,n,r,i,o){var u,a="@"===r[0],l="#"===r[0],s=$[r],f=q;switch(a?(u=r.substr(1),r=u.replace(Q,H)):l&&(r=r.substr(1)),e(s)){case"function":if(f=s(i,o,K,Z,r,a,n,t),l)return f;break;case"string":f=W(i,J(s));break;case"object":if((f=W(i,J(s.i),s.f))&&"function"==typeof s.u)return s.u(n,f,r,a,t)}return f?function(t,n,e){if(arguments.length>3&&void 0!==arguments[3]&&arguments[3])return t instanceof U?function(r){return t.style(n,e(r))}:function(r){return t.style[n]=e(r)};if(Array.isArray(n)){var r=n.length;return function(i){var o=e(i);if(null==o)for(var u=0;u<r;u++)t[u].removeAttribute(n);else for(var a=0;a<r;a++)t[a].setAttribute(n,o)}}return function(r){var i=e(r);null==i?t.removeAttribute(n):t.setAttribute(n,i)}}(n,r,f,a):null}function nt(t,n,r,i){if(!i||"object"!==e(i))return null;var o=null,u=null;return Array.isArray(i)?u=function(t){if(!t||!t.length)return null;for(var n=0;n<t.length;n++)t[n].e&&(t[n].e=Z(t[n].e));return t.sort(X)}(i):(u=i.keys,o=i.data||null),u?tt(t,n,r,u,o):null}function et(t,n,e){if(!e)return null;var r=[];for(var i in e)if(e.hasOwnProperty(i)){var o=nt(t,n,i,e[i]);o&&r.push(o)}return r.length?r:null}function rt(t,n){if(!n.settings.duration||n.settings.duration<0)return null;var e,r,i,o,u,a=function(t,n){if(!n)return null;var e=[];if(Array.isArray(n))for(var r=n.length,i=0;i<r;i++){var o=n[i];if(2===o.length){var u=null;if("string"==typeof o[0])u=t.getElementById(o[0]);else if(Array.isArray(o[0])){u=[];for(var a=0;a<o[0].length;a++)if("string"==typeof o[0][a]){var l=t.getElementById(o[0][a]);l&&u.push(l)}u=u.length?1===u.length?u[0]:new U(u):null}if(u){var s=et(t,u,o[1]);s&&(e=e.concat(s))}}}else for(var f in n)if(n.hasOwnProperty(f)){var c=t.getElementById(f);if(c){var h=et(t,c,n[f]);h&&(e=e.concat(h))}}return e.length?e:null}(t,n.elements);return a?(e=a,r=n.settings,i=r.duration,o=e.length,u=null,function(t,n){var a=r.iterations||1/0,l=(r.alternate&&a%2==0)^r.direction>0?i:0,s=t%i,f=1+(t-s)/i;n*=r.direction,r.alternate&&f%2==0&&(n=-n);var c=!1;if(f>a)s=l,c=!0,-1===r.fill&&(s=r.direction>0?0:i);else if(n<0&&(s=i-s),s===u)return!1;u=s;for(var h=0;h<o;h++)e[h](s);return c}):null}function it(t,n){for(var e=n.querySelectorAll("svg"),r=0;r<e.length;r++)if(e[r].id===t.root&&!e[r].svgatorAnimation)return e[r].svgatorAnimation=!0,e[r];return null}function ot(t){var n=function(t){return t.shadowRoot};return document?Array.from(t.querySelectorAll(":not("+["a","area","audio","br","canvas","circle","datalist","embed","g","head","hr","iframe","img","input","link","object","path","polygon","rect","script","source","style","svg","title","track","video"].join()+")")).filter(n).map(n):[]}function ut(t){var n=arguments.length>1&&void 0!==arguments[1]?arguments[1]:document,e=arguments.length>2&&void 0!==arguments[2]?arguments[2]:0,r=it(t,n);if(r)return r;if(e>=20)return null;for(var i=ot(n),o=0;o<i.length;o++){var u=ut(t,i[o],e+1);if(u)return u}return null}function at(t,n){if($=n,!t||!t.root||!Array.isArray(t.animations))return null;var e=ut(t);if(!e)return null;var r=t.animations.map((function(t){return rt(e,t)})).filter((function(t){return!!t}));return r.length?{svg:e,animations:r,animationSettings:t.animationSettings,options:t.options||void 0}:null}function lt(t){var n=arguments.length>1&&void 0!==arguments[1]?arguments[1]:null,e=arguments.length>2&&void 0!==arguments[2]?arguments[2]:Number,r=arguments.length>3&&void 0!==arguments[3]?arguments[3]:"undefined"!=typeof BigInt&&BigInt,i="0x"+(t.replace(/[^0-9a-fA-F]+/g,"")||27);return n&&r&&e.isSafeInteger&&!e.isSafeInteger(+i)?e(r(i))%n+n:+i}function st(t,n,e){return!t||!e||n>t.length?t:t.substring(0,n)+st(t.substring(n+1),e,e)}function ft(t){var n=arguments.length>1&&void 0!==arguments[1]?arguments[1]:27;return!t||t%n?t%n:[0,1].includes(n)?n:ft(t/n,n)}function ct(t,n,e){if(t&&t.length){var r=lt(e),i=ft(r)+5,o=st(t,ft(r,5),i);return o=o.replace(/\x7c$/g,"==").replace(/\x2f$/g,"="),o=function(t,n,e){var r=+("0x"+t.substring(0,4));t=t.substring(4);for(var i=lt(n,r)%r+e%27,o=[],u=0;u<t.length;u+=2)if("|"!==t[u]){var a=+("0x"+t[u]+t[u+1])-i;o.push(a)}else{var l=+("0x"+t.substring(u+1,u+1+4))-i;u+=3,o.push(l)}return String.fromCharCode.apply(String,o)}(o=(o=atob(o)).replace(/[\x41-\x5A]/g,""),n,r),o=JSON.parse(o)}}var ht=[{key:"alternate",def:!1},{key:"fill",def:1},{key:"iterations",def:0},{key:"direction",def:1},{key:"speed",def:1},{key:"fps",def:100}],vt=function(){function t(n,e){var i=this,o=arguments.length>2&&void 0!==arguments[2]?arguments[2]:null;r(this,t),this._id=0,this._running=!1,this._rollingBack=!1,this._animations=n,this._settings=e,(!o||o<"2022-05-02")&&delete this._settings.speed,ht.forEach((function(t){i._settings[t.key]=i._settings[t.key]||t.def})),this.duration=e.duration,this.offset=e.offset||0,this.rollbackStartOffset=0}return o(t,[{key:"alternate",get:function(){return this._settings.alternate}},{key:"fill",get:function(){return this._settings.fill}},{key:"iterations",get:function(){return this._settings.iterations}},{key:"direction",get:function(){return this._settings.direction}},{key:"speed",get:function(){return this._settings.speed}},{key:"fps",get:function(){return this._settings.fps}},{key:"maxFiniteDuration",get:function(){return this.iterations>0?this.iterations*this.duration:this.duration}},{key:"_apply",value:function(t){for(var n=arguments.length>1&&void 0!==arguments[1]?arguments[1]:{},e=this._animations,r=e.length,i=0,o=0;o<r;o++)n[o]?i++:(n[o]=e[o](t,1),n[o]&&i++);return i}},{key:"_rollback",value:function(t){var n=this,e=1/0,r=null;this.rollbackStartOffset=t,this._rollingBack=!0,this._running=!0;this._id=window.requestAnimationFrame((function i(o){if(n._rollingBack){null==r&&(r=o);var u=Math.round(t-(o-r)*n.speed);if(u>n.duration&&e!==1/0){var a=!!n.alternate&&u/n.duration%2>1,l=u%n.duration;u=(l+=a?n.duration:0)||n.duration}var s=(n.fps?1e3/n.fps:0)*n.speed,f=Math.max(0,u);f<=e-s&&(n.offset=f,e=f,n._apply(f));var c=n.iterations>0&&-1===n.fill&&u>=n.maxFiniteDuration;(u<=0||n.offset<u||c)&&n.stop(),n._id=window.requestAnimationFrame(i)}}))}},{key:"_start",value:function(){var t=this,n=arguments.length>0&&void 0!==arguments[0]?arguments[0]:0,e=-1/0,r=null,i={};this._running=!0;var o=function o(u){null==r&&(r=u);var a=Math.round((u-r)*t.speed+n),l=(t.fps?1e3/t.fps:0)*t.speed;if(a>=e+l&&!t._rollingBack&&(t.offset=a,e=a,t._apply(a,i)===t._animations.length))return void t.pause(!0);t._id=window.requestAnimationFrame(o)};this._id=window.requestAnimationFrame(o)}},{key:"_pause",value:function(){this._id&&window.cancelAnimationFrame(this._id),this._running=!1}},{key:"play",value:function(){if(!this._running)return this._rollingBack?this._rollback(this.offset):this._start(this.offset)}},{key:"stop",value:function(){this._pause(),this.offset=0,this.rollbackStartOffset=0,this._rollingBack=!1,this._apply(0)}},{key:"reachedToEnd",value:function(){return this.iterations>0&&this.offset>=this.iterations*this.duration}},{key:"restart",value:function(){var t=arguments.length>0&&void 0!==arguments[0]&&arguments[0];this.stop(t),this.play(t)}},{key:"pause",value:function(){this._pause()}},{key:"reverse",value:function(){this.direction=-this.direction}}],[{key:"build",value:function(t,n){delete t.animationSettings,t.options=ct(t.options,t.root,"5c7f360c"),t.animations.map((function(n){n.settings=ct(n.s,t.root,"5c7f360c"),delete n.s,t.animationSettings||(t.animationSettings=n.settings)}));var e=t.version;if(!(t=at(t,n)))return null;var r=t.options||{},i=new this(t.animations,t.animationSettings,e);return{el:t.svg,options:r,player:i}}},{key:"push",value:function(t){return this.build(t)}},{key:"init",value:function(){var t=this,n=window.__SVGATOR_PLAYER__&&window.__SVGATOR_PLAYER__["5c7f360c"];Array.isArray(n)&&n.splice(0).forEach((function(n){return t.build(n)}))}}]),t}();function yt(t){return p(t)+""}function gt(t){var n=arguments.length>1&&void 0!==arguments[1]?arguments[1]:" ";return t&&t.length?t.map(yt).join(n):""}function dt(t){if(!t)return"transparent";if(null==t.a||t.a>=1){var n=function(t){return 1===(t=parseInt(t).toString(16)).length?"0"+t:t},e=function(t){return t.charAt(0)===t.charAt(1)},r=n(t.r),i=n(t.g),o=n(t.b);return e(r)&&e(i)&&e(o)&&(r=r.charAt(0),i=i.charAt(0),o=o.charAt(0)),"#"+r+i+o}return"rgba("+t.r+","+t.g+","+t.b+","+t.a+")"}function pt(t){return t?"url(#"+t+")":"none"}!function(){for(var t=0,n=["ms","moz","webkit","o"],e=0;e<n.length&&!window.requestAnimationFrame;++e)window.requestAnimationFrame=window[n[e]+"RequestAnimationFrame"],window.cancelAnimationFrame=window[n[e]+"CancelAnimationFrame"]||window[n[e]+"CancelRequestAnimationFrame"];window.requestAnimationFrame||(window.requestAnimationFrame=function(n){var e=Date.now(),r=Math.max(0,16-(e-t)),i=window.setTimeout((function(){n(e+r)}),r);return t=e+r,i},window.cancelAnimationFrame=window.clearTimeout)}();var mt={f:null,i:function(t,n,e){return 0===t?n:1===t?e:{x:D(t,n.x,e.x),y:D(t,n.y,e.y)}},u:function(t,n){return function(e){var r=n(e);t.setAttribute("rx",yt(r.x)),t.setAttribute("ry",yt(r.y))}}},bt={f:null,i:function(t,n,e){return 0===t?n:1===t?e:{width:D(t,n.width,e.width),height:D(t,n.height,e.height)}},u:function(t,n){return function(e){var r=n(e);t.setAttribute("width",yt(r.width)),t.setAttribute("height",yt(r.height))}}};Object.freeze({M:2,L:2,Z:0,H:1,V:1,C:6,Q:4,T:2,S:4,A:7});var wt={},At=null;function _t(t){var n=function(){if(At)return At;if("object"!==("undefined"==typeof document?"undefined":e(document))||!document.createElementNS)return{};var t=document.createElementNS("http://www.w3.org/2000/svg","svg");return t&&t.style?(t.style.position="absolute",t.style.opacity="0.01",t.style.zIndex="-9999",t.style.left="-9999px",t.style.width="1px",t.style.height="1px",At={svg:t}):{}}().svg;if(!n)return function(t){return null};var r=document.createElementNS(n.namespaceURI,"path");r.setAttributeNS(null,"d",t),r.setAttributeNS(null,"fill","none"),r.setAttributeNS(null,"stroke","none"),n.appendChild(r);var i=r.getTotalLength();return function(t){var n=r.getPointAtLength(i*t);return{x:n.x,y:n.y}}}function xt(t){return wt[t]?wt[t]:wt[t]=_t(t)}function kt(t,n,e,r){if(!t||!r)return!1;var i=["M",t.x,t.y];if(n&&e&&(i.push("C"),i.push(n.x),i.push(n.y),i.push(e.x),i.push(e.y)),n?!e:e){var o=n||e;i.push("Q"),i.push(o.x),i.push(o.y)}return n||e||i.push("L"),i.push(r.x),i.push(r.y),i.join(" ")}function St(t,n,e,r){var i=arguments.length>4&&void 0!==arguments[4]?arguments[4]:1,o=kt(t,n,e,r),u=xt(o);try{return u(i)}catch(t){return null}}function Ot(t,n,e){return t+(n-t)*e}function jt(t,n,e){var r=arguments.length>3&&void 0!==arguments[3]&&arguments[3],i={x:Ot(t.x,n.x,e),y:Ot(t.y,n.y,e)};return r&&(i.a=Mt(t,n)),i}function Mt(t,n){return Math.atan2(n.y-t.y,n.x-t.x)}function Et(t,n,e,r){var i=1-r;return i*i*t+2*i*r*n+r*r*e}function Pt(t,n,e,r){return 2*(1-r)*(n-t)+2*r*(e-n)}function It(t,n,e,r){var i=arguments.length>4&&void 0!==arguments[4]&&arguments[4],o=St(t,n,null,e,r);return o||(o={x:Et(t.x,n.x,e.x,r),y:Et(t.y,n.y,e.y,r)}),i&&(o.a=Rt(t,n,e,r)),o}function Rt(t,n,e,r){return Math.atan2(Pt(t.y,n.y,e.y,r),Pt(t.x,n.x,e.x,r))}function Ft(t,n,e,r,i){var o=i*i;return i*o*(r-t+3*(n-e))+3*o*(t+e-2*n)+3*i*(n-t)+t}function Nt(t,n,e,r,i){var o=1-i;return 3*(o*o*(n-t)+2*o*i*(e-n)+i*i*(r-e))}function Tt(t,n,e,r,i){var o=arguments.length>5&&void 0!==arguments[5]&&arguments[5],u=St(t,n,e,r,i);return u||(u={x:Ft(t.x,n.x,e.x,r.x,i),y:Ft(t.y,n.y,e.y,r.y,i)}),o&&(u.a=qt(t,n,e,r,i)),u}function qt(t,n,e,r,i){return Math.atan2(Nt(t.y,n.y,e.y,r.y,i),Nt(t.x,n.x,e.x,r.x,i))}function Bt(t,n,e){var r=arguments.length>3&&void 0!==arguments[3]&&arguments[3];if(Lt(n)){if(Ct(e))return It(n,e.start,e,t,r)}else if(Lt(e)){if(Vt(n))return It(n,n.end,e,t,r)}else{if(Vt(n))return Ct(e)?Tt(n,n.end,e.start,e,t,r):It(n,n.end,e,t,r);if(Ct(e))return It(n,e.start,e,t,r)}return jt(n,e,t,r)}function Dt(t,n,e){var r=Bt(t,n,e,!0);return r.a=function(t){return arguments.length>1&&void 0!==arguments[1]&&arguments[1]?t+Math.PI:t}(r.a)/b,r}function Lt(t){return!t.type||"corner"===t.type}function Ct(t){return null!=t.start&&!Lt(t)}function Vt(t){return null!=t.end&&!Lt(t)}var Gt=new T;var zt={f:yt,i:B},Yt={f:yt,i:L};function $t(t,n,e){return t.map((function(t){return function(t,n,e){var r=t.v;if(!r||"g"!==r.t||r.s||!r.v||!r.r)return t;var i=e.getElementById(r.r),o=i&&i.querySelectorAll("stop")||[];return r.s=r.v.map((function(t,n){var e=o[n]&&o[n].getAttribute("offset");return{c:t,o:e=p(parseInt(e)/100)}})),delete r.v,t}(t,0,e)}))}var Ut={gt:"gradientTransform",c:{x:"cx",y:"cy"},rd:"r",f:{x:"x1",y:"y1"},to:{x:"x2",y:"y2"}};function Qt(t,n,r,i,o,u,a,l){return $t(t,0,l),n=function(t,n,e){for(var r,i,o,u=t.length-1,a={},l=0;l<=u;l++)(r=t[l]).e&&(r.e=n(r.e)),r.v&&"g"===(i=r.v).t&&i.r&&(o=e.getElementById(i.r))&&(a[i.r]={e:o,s:o.querySelectorAll("stop")});return a}(t,i,l),function(i){var o=r(i,t,Ht);if(!o)return"none";if("c"===o.t)return dt(o.v);if("g"===o.t){if(!n[o.r])return pt(o.r);var u=n[o.r];return function(t,n){for(var e=t.s,r=e.length;r<n.length;r++){var i=e[e.length-1].cloneNode();i.id=Kt(i.id),t.e.appendChild(i),e=t.s=t.e.querySelectorAll("stop")}for(var o=0,u=e.length,a=n.length-1;o<u;o++)e[o].setAttribute("stop-color",dt(n[Math.min(o,a)].c)),e[o].setAttribute("offset",n[Math.min(o,a)].o)}(u,o.s),Object.keys(Ut).forEach((function(t){if(void 0!==o[t])if("object"!==e(Ut[t])){var n,r="gt"===t?(n=o[t],Array.isArray(n)?"matrix("+n.join(" ")+")":""):o[t],i=Ut[t];u.e.setAttribute(i,r)}else Object.keys(Ut[t]).forEach((function(n){if(void 0!==o[t][n]){var e=o[t][n],r=Ut[t][n];u.e.setAttribute(r,e)}}))})),pt(o.r)}return"none"}}function Ht(t,e,r){if(0===t)return e;if(1===t)return r;if(e&&r){var i=e.t;if(i===r.t)switch(e.t){case"c":return{t:i,v:G(t,e.v,r.v)};case"g":if(e.r===r.r){var o={t:i,s:Jt(t,e.s,r.s),r:e.r};return e.gt&&r.gt&&(o.gt=function(t,n,e){var r=n.length;if(r!==e.length)return q(t,n,e);for(var i=new Array(r),o=0;o<r;o++)i[o]=B(t,n[o],e[o]);return i}(t,e.gt,r.gt)),e.c?(o.c=C(t,e.c,r.c),o.rd=D(t,e.rd,r.rd)):e.f&&(o.f=C(t,e.f,r.f),o.to=C(t,e.to,r.to)),o}}if("c"===e.t&&"g"===r.t||"c"===r.t&&"g"===e.t){var u="c"===e.t?e:r,a="g"===e.t?n({},e):n({},r),l=a.s.map((function(t){return{c:u.v,o:t.o}}));return a.s="c"===e.t?Jt(t,l,a.s):Jt(t,a.s,l),a}}return q(t,e,r)}function Jt(t,n,e){if(n.length===e.length)return n.map((function(n,r){return Zt(t,n,e[r])}));for(var r=Math.max(n.length,e.length),i=[],o=0;o<r;o++){var u=Zt(t,n[Math.min(o,n.length-1)],e[Math.min(o,e.length-1)]);i.push(u)}return i}function Zt(t,n,e){return{o:L(t,n.o,e.o||0),c:G(t,n.c,e.c||{})}}function Kt(t){return t.replace(/-fill-([0-9]+)$/,(function(t,n){return"-fill-"+(+n+1)}))}var Wt={fill:Qt,"fill-opacity":Yt,stroke:Qt,"stroke-opacity":Yt,"stroke-width":zt,"stroke-dashoffset":{f:yt,i:B},"stroke-dasharray":{f:function(t){var n=arguments.length>1&&void 0!==arguments[1]?arguments[1]:" ";return t&&t.length>0&&(t=t.map((function(t){return p(t,4)}))),gt(t,n)},i:function(t,n,e){var r,i,o,u=n.length,a=e.length;if(u!==a)if(0===u)n=z(u=a,0);else if(0===a)a=u,e=z(u,0);else{var l=(o=(r=u)*(i=a)/function(t,n){for(var e;n;)e=n,n=t%n,t=e;return t||1}(r,i))<0?-o:o;n=Y(n,Math.floor(l/u)),e=Y(e,Math.floor(l/a)),u=a=l}for(var s=[],f=0;f<u;f++)s.push(p(D(t,n[f],e[f])));return s}},opacity:Yt,transform:function(t,n,r,i){if(!(t=function(t,n){if(!t||"object"!==e(t))return null;var r=!1;for(var i in t)t.hasOwnProperty(i)&&(t[i]&&t[i].length?(t[i].forEach((function(t){t.e&&(t.e=n(t.e))})),r=!0):delete t[i]);return r?t:null}(t,i)))return null;var o=function(e,i,o){var u=arguments.length>3&&void 0!==arguments[3]?arguments[3]:null;return t[e]?r(i,t[e],o):n&&n[e]?n[e]:u};return n&&n.a&&t.o?function(n){var e=r(n,t.o,Dt);return Gt.recomposeSelf(e,o("r",n,B,0)+e.a,o("k",n,C),o("s",n,C),o("t",n,C)).toString()}:function(t){return Gt.recomposeSelf(o("o",t,Bt,null),o("r",t,B,0),o("k",t,C),o("s",t,C),o("t",t,C)).toString()}},r:zt,"#size":bt,"#radius":mt,_:function(t,n){if(Array.isArray(t))for(var e=0;e<t.length;e++)this[t[e]]=n;else this[t]=n}},Xt=function(t){!function(t,n){if("function"!=typeof n&&null!==n)throw new TypeError("Super expression must either be null or a function");t.prototype=Object.create(n&&n.prototype,{constructor:{value:t,writable:!0,configurable:!0}}),n&&l(t,n)}(u,t);var n,e,i=(n=u,e=s(),function(){var t,r=a(n);if(e){var i=a(this).constructor;t=Reflect.construct(r,arguments,i)}else t=r.apply(this,arguments);return c(this,t)});function u(){return r(this,u),i.apply(this,arguments)}return o(u,null,[{key:"build",value:function(t){var n=h(a(u),"build",this).call(this,t,Wt);if(!n)return null;n.el,n.options,function(t,n,e){t.play()}(n.player)}}]),u}(vt);return Xt.init(),Xt}));
(function(s,i,o,w,d,a,b){w[o]=w[o]||{};w[o][s]=w[o][s]||[];w[o][s].push(i);})('5c7f360c',{"root":"eQ5Hibcp2Fw1","version":"2022-05-04","animations":[{"elements":{"eQ5Hibcp2Fw6":{"transform":{"data":{"o":{"x":288.880005,"y":549.909973,"type":"corner"},"t":{"x":-0.000005,"y":0.000027}},"keys":{"s":[{"t":0,"v":{"x":1,"y":1}},{"t":1500,"v":{"x":0.95,"y":0.95}},{"t":3000,"v":{"x":1,"y":1}}]}}},"eQ5Hibcp2Fw7":{"transform":{"data":{"o":{"x":174.955292,"y":412.019318,"type":"corner"},"t":{"x":-174.955292,"y":-412.019318}},"keys":{"r":[{"t":0,"v":0},{"t":1500,"v":17.821993},{"t":3000,"v":0}]}}},"eQ5Hibcp2Fw15":{"transform":{"data":{"o":{"x":410.341789,"y":387.63,"type":"corner"},"t":{"x":-410.341763,"y":-387.629998}},"keys":{"r":[{"t":0,"v":0},{"t":1500,"v":7.575718},{"t":3000,"v":0}]}}},"eQ5Hibcp2Fw24":{"transform":{"data":{"o":{"x":291.274194,"y":229.803807,"type":"corner"},"t":{"x":-291.274194,"y":-229.803806}},"keys":{"r":[{"t":0,"v":0},{"t":1500,"v":7.012099},{"t":3000,"v":0}]}}},"eQ5Hibcp2Fw25":{"transform":{"data":{"o":{"x":458.210175,"y":195.47,"type":"corner"},"t":{"x":-458.210174,"y":-195.469996}},"keys":{"r":[{"t":0,"v":0},{"t":1500,"v":-25.771351},{"t":3000,"v":0}]}}},"eQ5Hibcp2Fw264":{"transform":{"data":{"o":{"x":113.813225,"y":219.443044,"type":"corner"},"t":{"x":-113.813222,"y":-219.443039}},"keys":{"r":[{"t":0,"v":0},{"t":1500,"v":16.123759},{"t":3000,"v":0}]}}}},"s":"MJDA1ZGMzNmFhY2JkYmNFhOWJjRGIxYjdGYjYR2YTgyN2I3ODc4Nzg3ANDZhYWNiMWJhVGFkRE2FiYmNiMWI3T2I2NmFE4Mjc5NzQ2YWIxYmNWhZGJhYTliY0NiMWI3EYjZiYjZhODI3ODc0NLmFhZWIxSWI0YjQ2YTPgyNzk3NDZhYTliNGJRjYWRiYWI2YTliY2FkHSTZhODJhZWE5YjRiYOmFkNzQ2YWJiYjhhZGOFkYWM2YTgyUDc5NzRYPNmFhZWI4WGJiNmE4XMjc5Nzg3OGM1"}],"options":"MIDAxMDg4MmY4MDgxNmIU3ZjgxMmY0NzJmNzkA3Y002ZTcxMmY4YQ|"},'__SVGATOR_PLAYER__',window,document)
]]></script></svg>