<svg id="eHoh2uUWFm01" xmlns="http://www.w3.org/2000/svg" viewBox="0 0 563.09 560" shape-rendering="geometricPrecision" text-rendering="geometricPrecision"><g transform="translate(0 9.01)" style="isolation:isolate"><ellipse rx="204.12" ry="32.12" transform="translate(258.55 518.87)" opacity=".4" fill="#9d3d24" stroke-width="0"/><g id="eHoh2uUWFm07"><path d="M165.52 364.5s0 80.49-101.82 90.81" fill="none" stroke="#422720" stroke-width="19.96" stroke-linecap="round" stroke-linejoin="round"/><path d="M40.05 498.15c-5.83-9.43-11.01-21.5-13.02-36.2-.68-4.99-1-10.3-.84-15.9l-.13-.14c-3.87 3.53-6.42 8.85-6.28 13.85.49 16.98 10.71 45.48 29.96 60.94 3.97 3.19 8.78 3.83 12.99 2.6-1.6-1.13-13.02-9.51-22.69-25.15h.01Z" fill="#fffcfd" stroke-width="0"/><path d="M66.26 482.72c.59 3.6 1.82 8.95 4.33 15.47 1.19 3.09 2.04 6.33 2.25 9.63.04.61.06 1.21.07 1.79.09 6.89-4.49 11.99-10.18 13.66-4.2 1.23-9.02.59-12.99-2.6-19.26-15.47-29.48-43.97-29.96-60.94-.14-5 2.41-10.31 6.28-13.85 1.82-1.67 3.94-2.94 6.2-3.6 6.76-1.97 14.99-.35 17.99.39l16.02 40.05" fill="#ff953e" stroke="#422720" stroke-width="2.99" stroke-miterlimit="10"/><path d="M49.78 520.74c-19.26-15.47-29.48-43.97-29.96-60.94-.14-5 2.41-10.31 6.28-13.85l.14-.13c-.15 5.6.15 11.17.83 16.17 2 14.7 7.19 26.77 13.02 36.2 9.66 15.64 21.09 24.02 22.69 25.15-4.2 1.23-9.02.59-12.99-2.6h-.01Z" fill="#fff" stroke="#422720" stroke-width="3.19" stroke-linecap="round" stroke-linejoin="round"/><path d="M70.7 498.38s-.03-.06-.1-.17c-.89-1.37-7.84-10.47-30.55-.07 0 0 0 0 0 0m12.84-32.04s-.03-.03-.08-.09c-.84-.95-8.59-9.07-25.78-4.06" fill="none" stroke="#422720" stroke-width="3.19" stroke-linecap="round" stroke-linejoin="round"/><path d="M48.55 442.21c0-.14.02-.28.03-.41.28-4.03 3.93-7.21 7.46-6.99 2.19.13 3.9 1.25 4.85 2.83.59.98.88 2.15.8 3.37-.37 5.25.23 10.38 1.73 15.19 1.92 6.19 5.32 11.88 10.07 16.7 2.22 2.27 2.3 5.91-.26 8.38-.32.31-.68.58-1.06.81-1.67 1-3.87 1.24-5.89.66-1.2-.35-2.34-.98-3.27-1.92-4.34-4.41-7.76-9.41-10.19-14.81a49.523 49.523 0 0 1-3.58-11.58c-.71-3.97-.95-8.06-.69-12.22v-.01Z" fill="#9abe3e" stroke="#422720" stroke-width="2.99" stroke-miterlimit="10"/></g><g id="eHoh2uUWFm016"><path d="M356.132 338.11s-.91 69.07 62.35 136.51" fill="none" stroke="#422720" stroke-width="19.96" stroke-linecap="round" stroke-linejoin="round"/><path d="M428.552 467.71s8.96 4.32 22.97-12.15 33.61-4.8 33.61-4.8l-52.94 68.1c-14.84-14.25-19.83-34.06-19.83-34.06l16.19-17.1v.01Z" fill="#ff953e" stroke="#422720" stroke-width="2.99" stroke-miterlimit="10"/><path d="M445.632 516.96c10.74-7.43 20.19-16.88 27.48-27.67 5.98-8.85 17.33-25.25 10.43-36.39-2.69-4.35-7.57-6.48-12.55-6.17-5.25.32-9.7 4.23-11.18 9.11a75.487 75.487 0 0 1-14.16 26.26c-3.03 3.64-6.41 7.19-10.15 10.07-4 3.07-8.29 5.66-9.99 10.71-1.3 3.87-.55 8.41 1.93 11.77 4.64 6.27 12.31 6.39 18.18 2.32l.01-.01Z" fill="#fff" stroke="#422720" stroke-width="3.19" stroke-linecap="round" stroke-linejoin="round"/><path d="M434.872 468.04c-9.58 4.32-16.56 12.22-19.66 22.26-.83 2.64-3.6 4.21-6.55 3.26q0 0 0 0c-2.95-.94-4.92-4.68-3.87-8.05 3.8-12.29 12.34-21.95 24.06-27.24 3.21-1.45 7.17.04 8.46 2.85q0 0 0 0c1.3 2.82.09 5.76-2.43 6.91l-.01.01Z" fill="#fff" stroke="#000" stroke-width=".4" stroke-linecap="round" stroke-linejoin="round"/><path d="M434.872 468.04c-9.58 4.32-16.56 12.22-19.66 22.26-.83 2.64-3.6 4.21-6.55 3.26-2.95-.94-4.92-4.68-3.87-8.05 3.8-12.29 12.34-21.95 24.06-27.24 3.21-1.45 7.17.04 8.46 2.85 1.3 2.82.09 5.76-2.43 6.91l-.01.01Z" fill="#9abe3e" stroke="#422720" stroke-width="2.99" stroke-miterlimit="10"/><path d="M450.522 520.98c10.95-7.72 20.62-17.48 28.14-28.57 6.16-9.1 17.85-25.96 11.04-37.22-2.66-4.4-7.56-6.5-12.59-6.12-5.3.4-9.85 4.44-11.42 9.43a79.873 79.873 0 0 1-14.66 26.95c-3.11 3.75-6.57 7.42-10.39 10.4-4.08 3.18-8.45 5.88-10.23 11.05-1.36 3.96-.67 8.57 1.79 11.96 4.6 6.32 12.34 6.34 18.33 2.11l-.01.01Z" fill="#fff" stroke="#422720" stroke-width="3.19" stroke-linecap="round" stroke-linejoin="round"/><path fill="none" stroke="#422720" stroke-width="3.19" stroke-linecap="round" stroke-linejoin="round" d="m489.042 474.61-24.42-12.94m14.83 29.57-23.31-12.69m8.48 30.66-20.11-16.71m6.01 28.48-16.1-20.13m12.73-40.64s1 6.94 6.87 9.51m-26.59 2.79s-2.11 10.58 7.62 19.99"/></g><path d="M285.05 287.06c.59.19 1.09.21 1.88.03-1.23-.34-.76-1.14-.88-1.76-.1-.53.68.18.46-.34-.1-.25-.33-.56-.66-.51-.32.05-.15.38-.17.58-.03.33-.04.66 0 .99.05.48 0 .88-.64 1.02l.01-.01Z" fill="#fefefe" stroke-width="0"/><g id="eHoh2uUWFm031"><g id="eHoh2uUWFm032" stroke="#422720"><g fill="#ff953e" stroke-width="3.19" stroke-linecap="round" stroke-linejoin="round"><path d="M554.73 78.07s.38-31.76-9.98-31.77c-10.37-.01-8.35 25.27-8.35 25.27s-5.62-30.22-15.91-28.37-3.21 33.03-3.21 33.03-9.43-28.18-20.26-22.16c-8.34 4.63 10.83 42.99 10.83 42.99s-15.02-13.17-22.35-4.71c-7.33 8.45 26.66 31.13 49.21 26.38 22.56-4.75 20.02-40.65 20.02-40.65v-.01Z"/><path d="M507.85 97.05s12.35-8.22 23.35 2.55"/></g><path d="M453.8 228.48s41.97 24.33 80.72-14.1c39.29-38.97 4.07-91.63 4.07-91.63" fill="none" stroke-width="19.96" stroke-linecap="round" stroke-linejoin="round"/><path d="M550.99 117.35c-9.71-.61-18.84 2.83-25.73 9.7-1.83 1.8-4.77 1.89-6.78-.17q0 0 0 0c-2.01-2.04-2-5.96.31-8.26 8.43-8.41 19.6-12.62 31.49-11.87 3.26.2 5.85 3.14 5.69 6q0 0 0 0c-.15 2.87-2.42 4.75-4.98 4.6Z" fill="#ff953e" stroke-width="3.19" stroke-linecap="round" stroke-linejoin="round"/><path d="M550.99 117.35c-9.71-.61-18.84 2.83-25.73 9.7-1.83 1.8-4.77 1.89-6.78-.17-2.01-2.04-2-5.96.31-8.26 8.43-8.41 19.6-12.62 31.49-11.87 3.26.2 5.85 3.14 5.69 6-.15 2.87-2.42 4.75-4.98 4.6Z" fill="#9abe3e" stroke-width="2.99" stroke-miterlimit="10"/></g><g fill="none" stroke="#422720" stroke-width="11.98" stroke-linecap="round" stroke-linejoin="round"><path d="M202.76 438.93c-1.84 0-3.55-.16-5.22-.47-6.07-1.16-11.5-4.57-16.45-8.09-17.78-12.6-33.33-28.49-48.37-43.84l-43.3-44.22c-13.28-13.57-24.5-26.15-27.28-42.79-1.01-6.06-.38-11.07 1.87-14.9 4.77-8.1 15.28-9.08 22.78-9.11h.86c18.29 0 36.75 2.2 54.61 4.34 2.72.32 5.43.65 8.15.97 58.31 6.81 117.63 10.26 176.32 10.26 13.22 0 26.62-.18 39.84-.52l1.02-.03c3.61-.1 7.33-.19 11.02-.19 8.68 0 18.9.46 28.87 3.9 5.54 1.91 10.78 4.68 15.85 7.36 3.45 1.82 7.02 3.71 10.61 5.28 4.77 2.09 10.37 3.17 15.78 4.21 6.4 1.23 13.02 2.51 18.51 5.48 8.78 4.76 13.89 18.04 13.76 28.14-.14 11.2-5.83 21.92-14.83 27.98-6.2 4.18-13.66 6.01-20.25 7.62l-229.12 56.22c-4.61 1.13-9.84 2.42-15.05 2.42l.02-.02Z"/><path d="M87.67 277c20.94 0 41.77 2.87 62.59 5.3a1522.44 1522.44 0 0 0 216.36 9.75c3.98-.1 7.99-.22 11.99-.22 9.65 0 19.27.68 28.39 3.82 9.18 3.16 17.44 8.69 26.35 12.59 10.6 4.64 24.31 4.29 34.18 9.64 8.43 4.57 13.1 17.51 12.98 26.8-.13 10.63-5.63 21.01-14.17 26.76-5.92 3.98-12.92 5.73-19.77 7.41-20.04 4.92-40.09 9.84-60.13 14.75-56.33 13.82-112.66 27.64-168.99 41.47-4.83 1.18-9.78 2.37-14.69 2.37-1.65 0-3.3-.13-4.94-.45-5.8-1.11-10.99-4.38-15.87-7.84-17.61-12.49-32.94-28.12-48.16-43.67-14.43-14.74-28.86-29.48-43.3-44.22-11.72-11.97-24.06-25.11-26.87-41.99-.78-4.71-.71-9.83 1.69-13.9 4.19-7.13 13.49-8.34 21.5-8.37h.86m0-3h-.87c-7.86.03-18.91 1.08-24.07 9.85-2.44 4.14-3.13 9.49-2.06 15.91 2.84 17.07 14.22 29.84 27.68 43.6l3.61 3.68 39.69 40.53c15.09 15.41 30.68 31.34 48.57 44.02 5.09 3.61 10.68 7.12 17.04 8.34 1.74.33 3.59.5 5.5.5 5.39 0 10.71-1.31 15.41-2.46l27.82-6.82 141.18-34.64 60.13-14.75c6.7-1.65 14.3-3.51 20.73-7.83 9.41-6.33 15.35-17.53 15.49-29.21.13-10.54-5.27-24.45-14.55-29.47-5.69-3.08-12.42-4.38-18.94-5.63-5.33-1.03-10.85-2.09-15.47-4.11-3.54-1.55-7.09-3.42-10.51-5.23-5.12-2.71-10.42-5.5-16.07-7.45-10.24-3.53-21.07-3.98-29.36-3.98-3.7 0-7.44.1-11.06.2l-1.02.03c-13.2.35-26.59.52-39.8.52-58.63 0-117.89-3.45-176.15-10.25-2.71-.32-5.42-.64-8.14-.97-17.9-2.14-36.41-4.35-54.8-4.35v0l.02-.03Zm266.54 113.1-49.64 12.18"/><path d="M457.01 359.32c-5.92 3.98-12.92 5.73-19.77 7.41-20.04 4.92-40.09 9.84-60.13 14.75M86.81 277c21.23-.08 42.35 2.83 63.44 5.29 71.8 8.39 144.15 11.65 216.37 9.75 13.57-.36 27.48-.85 40.38 3.59 9.18 3.16 17.44 8.69 26.36 12.59 9.91 4.34 22.5 4.37 32.16 8.72-1.51 2.26-2.93 15.2-13.25 19.65-10.32 4.44-18.99-1.66-26.35-.67s-10.98 3.7-17.5 14.54-25.44 12.64-39.39 13.66c-22.77 1.67-51.2-10.34-67.02 7.34-15.81 17.68-29.86 15.82-53.57 14.48s-43.58 10.77-46.13 21.55c-2.55 10.79 2.3 16.41.24 24.36-.53 2.03-1.57 3.78-2.9 5.29-.61-.07-1.22-.05-1.83-.17-5.8-1.11-10.99-4.38-15.87-7.84-17.61-12.49-32.94-28.12-48.16-43.67-14.43-14.74-28.86-29.48-43.3-44.22-11.72-11.97-24.06-25.11-26.87-41.99-.78-4.71-.71-9.83 1.69-13.9 4.19-7.13 13.49-8.34 21.5-8.37v.02Z"/><path d="M90.5 323.38c-5.26-5.37-10.65-10.98-15.24-17.06m102.13 104.04c-5.53-5.09-11.2-10.41-16.1-16.24m-11.16-10.09c-5.52-5.39-10.93-10.92-16.33-16.43l-32.48-33.17m368.46-34.63c-1.48 1.25-3.75 1.35-4.88 2.94-3.19 4.45 6.84 8.01 6.96 13.57.07 3.21-3.27 6.19-4.08 8.92-.52 1.77-2.06 3.05-3.9 3.14-.1 0-.21 0-.31.01a4.262 4.262 0 0 0-4.05 4.14l-.06 2.21a4.24 4.24 0 0 1-2 3.49c-3.51 2.17-5.96 6.12-6.59 10.34-.5 3.34-4.44 4.84-6.99 2.64-3.52-3.04-7.13-6.53-10.17-.65-.1.18-.2.37-.32.53-6.59 8.89-20.18 3.74-20.59-6.77-.04-1.15-.51-2.26-1.37-3.02-3.36-2.98-9.76-2.05-11.51 2.43-1.05 2.68-.54 5.8-1.47 8.53-.92 2.71-3.39 4.64-6.07 5.16-1.74.34-3.13 1.67-3.43 3.42-.43 2.58-2.25 5-4.56 5.98-1.49.64-2.52 2.02-2.65 3.64-.63 8.16-13.11 9.66-17.14-1.61-.83-2.32-3.46-3.46-5.71-2.46-5.99 2.68-10.74 11.86-17.79 11.77-6.59-.09-11.83-8.51-18.19-6.73-2.5.7-4.56 2.94-7.14 2.97-3.04.04-6.4-2.93-8.73-.89-1.33 1.16-1.27 3.24-1.83 4.98-.2.63-.56 1.19-1.03 1.66-3.51 3.56-5.64.55-11.99 8.8-.06.08-.13.17-.2.25-5.27 5.88-10.43 2.42-10.14-1.06.22-2.59-1.97-4.78-4.56-4.55-2.55.23-5.02 1.7-6.05 4.18-1.7 4.1-.44 10.36-4.44 11.93-1.16.46-2.46.29-3.69.11-7.33-1.06-51.53 26.57-62.14 5.01-.1-.2-.18-.41-.24-.62-.59-1.97-.97-4.08-2.23-5.67-1.07-1.35-2.63-2.14-4.14-2.88-8.2-4.5-17.32-7.61-24.94-13.04-.18-.13-.35-.27-.5-.42-7.08-7.02-5.08-21.7-13.85-26.26-3.65-1.9-8.25-1.33-11.58-3.78-2.89-2.13-3.9-5.74-4.15-9.55-.18-2.73-2.81-4.61-5.43-3.84-5.39 1.58-11.08 1.9-16.13-.42-5.62-2.58-9.62-9.39-8.69-15.43.32-2.05-.84-4.06-2.8-4.72-6.96-2.34-12.99-7.73-16.23-14.6-.62-1.31-1.85-2.24-3.29-2.43-7.55-1.02-12.77-4.35-11.4-12.65.07-.42.07-.86 0-1.28-.64-4.05-4.8-7.02-8.66-6.73-2.72.2-4.91-2.25-4.48-4.94.56-3.44 3.55-6.5 6.94-8.57a4.248 4.248 0 0 0 1.36-5.92c-2.2-3.44-3.6-7.45-4.03-11.57a4.245 4.245 0 0 1 3.5-4.62c29.15-4.98 59.48 9.35 85.32 22.04 30.04 16.65 58.56 41.81 92.54 41.45 14.98-.16 29.67-5.45 44.65-4.79 14.02.61 28 6.42 41.77 3.61 10.53-2.14 19.69-9.14 30.2-11.4 8.97-1.93 18.28-.28 27.42-.96 21.78-1.72 42.7-16.68 65-9.99 4.24 1.25 20.72 8.34 12.89 14.96l-.01.01Z"/><path d="M64.33 270.91c2.34-2.95 5.86-4.52 9.25-5.98-4.85-5-7.54-12.22-7.19-19.33 8.82-3.27 18.54-2.28 27.77-.59 21.31 3.89 42.03 11.32 61.15 21.92 30.04 16.65 58.56 41.81 92.54 41.45 14.98-.16 29.67-5.45 44.65-4.79 14.02.61 28 6.42 41.77 3.61 10.53-2.14 19.69-9.14 30.2-11.4 8.97-1.93 18.28-.28 27.42-.96 11.89-.89 23.14-5.68 34.66-8.87 9.94-2.75 20.31-4.07 30.34-1.12 2.24.66 7.85 2.95 11.53 5.93.04.81-.07 1.65-.48 2.33-1.06 1.74-3 2.62-4.79 3.5-7.07 3.49-13.45 8.5-18.62 14.62-5.61 2.05-12.12 1.18-17.07-2.27-4.34 6.39-12.24 8.7-19.52 10.59-3.33.86-6.65 1.73-9.98 2.59-1.19.31-2.43.62-3.63.35-1.74-.39-3.02-1.88-4.37-3.1-5.21-4.71-12.48-5.78-19.32-6.67-1.14-.15-2.37-.28-3.39.28-1.87 1.03-2.1 3.78-3.59 5.35-3.44 3.64-11.77-.25-13.06 4.68-.35 1.34.14 2.79-.16 4.13-1.21 5.41-10.27 1.15-14.16 4.94-1.64 1.61-1.83 4.22-2.8 6.35-2.59 5.65-10 6.6-15.84 5.2s-11.56-4.36-17.51-3.66c-4.8.57-9.04 3.46-13.69 4.82-5.69 1.66-11.74.98-17.63 1.47-9.63.81-18.98 4.9-26.28 11.5-1.17 1.06-2.34 2.21-3.82 2.69-1.74.56-3.62.09-5.4-.37a357.557 357.557 0 0 0-41.83-8.15c-2.93-.39-5.94-.74-8.81-.03-5.01 1.24-9 5.82-10.14 11.07-.41 1.9-.49 3.86-.53 5.81-.13 5.26 0 10.53.25 15.78-1.1-.63-2.15-1.32-3.08-2.2-7.37-6.92-5.22-21.88-14.09-26.49-3.65-1.9-8.25-1.33-11.58-3.78-4.38-3.23-4.45-9.87-4.07-15.46-6.83 3.11-14.82 4.78-21.65 1.65s-11.26-12.49-7.39-19.14c-9.41-1.45-17.84-8.51-21.25-17.79-5.8-.42-13.19-2.33-13.85-8.37-.18-1.66.24-3.33.18-5-.23-5.54-7.06-9.43-11.63-6.61-2.52-2.78-1.83-7.55.51-10.5l-.02.02Zm371.48 62.92c.76-.54 1.51-1.1 2.24-1.67.35-.27.7-.54 1.04-.82.19-.15.38-.31.57-.46.25-.2-.22.19.19-.16 1.43-1.21 2.82-2.46 4.16-3.77 2.69-2.62 5.18-5.44 7.48-8.44 1-1.3 3.24-1.22 4.29-.06 1.22 1.35 1.12 3.1.06 4.49-4.82 6.29-10.55 11.76-16.9 16.32-1.31.94-3.41.36-4.17-1.09-.83-1.59-.37-3.35 1.03-4.36l.01.02Zm-19.48-3.39c.2-.17.41-.34.61-.5.47-.29.97-.44 1.52-.45-.21.03-.43.07-.64.1 2.07-.32 4.09-.92 6.03-1.76.57-.27 1.13-.55 1.68-.86 1.39-.8 3.36-.46 4.17 1.09.76 1.46.45 3.51-1.03 4.36-1.55.89-3.2 1.65-4.88 2.23-1.71.59-3.45.94-5.22 1.2-.71.1-1.67-.4-2.16-.9-.53-.54-.94-1.44-.92-2.23.02-.82.27-1.68.86-2.26l-.02-.02Zm10.18-13.6 9.37-2.16c.8-.18 1.61-.14 2.34.29.63.38 1.24 1.12 1.42 1.88.37 1.58-.41 3.55-2.07 3.93l-9.37 2.16c-.8.18-1.61.14-2.34-.29-.63-.38-1.24-1.12-1.42-1.88-.37-1.58.41-3.55 2.07-3.93Zm-65.53 33.58c5.37-.72 11.05-1.45 16.14-3.45 4-1.57 7.66-4.66 8.53-9.21.32-1.68 2.19-2.68 3.7-2.26 1.67.46 2.49 2.19 2.17 3.88-1.17 6.14-5.91 10.65-11.21 13.06-5.97 2.71-12.84 3.48-19.25 4.34-1.63.22-3.06-1.56-3.08-3.14-.02-1.88 1.36-2.99 2.99-3.21l.01-.01Z"/><path d="M367.44 329.09c1.09 0 2.17-.04 3.25-.12.58-.05 1.16-.11 1.74-.18.25-.03.5-.06.74-.1h.07c.08-.01.16-.03.24-.04 2.18-.37 4.33-.93 6.43-1.65 1.51-.52 3.38.54 3.76 2.17.4 1.72-.45 3.38-2.07 3.93a43.652 43.652 0 0 1-14.09 2.34c-1.59 0-3.13-1.41-3.07-3.14.05-1.7 1.29-3.21 2.99-3.21h.01Zm-29.64 15.97 7.44-.48c1.59-.1 3.12 1.48 3.07 3.14-.05 1.79-1.29 3.1-2.99 3.21l-7.43.48c-1.59.1-3.12-1.48-3.08-3.14.05-1.79 1.29-3.1 2.99-3.21Zm-17.6 11.02 12.77.15c1.58.02 3.19 1.09 3.22 2.91.02 1.59-1.15 3.43-2.85 3.41l-12.77-.15c-1.58-.02-3.19-1.09-3.22-2.91-.03-1.59 1.15-3.43 2.85-3.41Zm-66.43 20.4c2.52-4.5 7.29-6.22 12.07-6.37 5.68-.18 12.11 2.43 16.71-2.3 3.93-4.04 5.68-9.81 9.61-13.88 3.95-4.1 9.78-5.98 14.92-3.21 3.48 1.87.48 7.39-2.99 5.52-4.56-2.46-8.65 2.96-10.75 6.45-2.53 4.2-4.79 8.62-8.74 11.57-4.31 3.21-9.49 2.9-14.5 2.42-3.58-.34-8.91-.87-11.04 2.94-1.97 3.52-7.26.4-5.28-3.14h-.01Zm5.55-17.86c.39-.66 1.03-1.34 1.79-1.48 3.13-.58 6.25-1.16 9.38-1.73.83-.15 1.58-.16 2.34.29.63.38 1.24 1.12 1.42 1.88.19.81.16 1.72-.28 2.45-.39.66-1.03 1.34-1.8 1.48-3.13.58-6.25 1.16-9.38 1.73-.83.15-1.58.16-2.34-.29-.63-.38-1.24-1.13-1.42-1.88-.19-.81-.16-1.72.28-2.45h.01Zm-48.36 29.79c1.29-.81 3.47-.48 4.17 1.09s1.68 2.17 3.38 2.57c1.8.42 4.22-.26 6.17-.98 4.95-1.83 10.01-4.38 15.34-2.5 1.55.55 2.6 2.14 2.17 3.88-.39 1.57-2.14 2.82-3.7 2.27-5.2-1.84-10.37 2.4-15.34 3.42-4.85.99-10.9-.22-13.2-5.38-.7-1.55-.47-3.41 1.03-4.36l-.02-.01Zm-24.14-14.82c.51-1.72 2.03-2.62 3.7-2.26l12.95 2.72c1.56.33 2.63 2.31 2.17 3.88-.51 1.72-2.03 2.62-3.7 2.27-4.32-.91-8.64-1.81-12.95-2.72-1.56-.33-2.63-2.31-2.17-3.88v-.01Zm31.86-.19 7.05-.45c1.59-.1 3.12 1.48 3.07 3.14-.05 1.79-1.29 3.11-2.99 3.21l-7.05.45c-1.59.1-3.12-1.48-3.08-3.14.05-1.79 1.29-3.11 2.99-3.21h.01Zm-67.1-35.38c1.44-.82 3.29-.44 4.17 1.09.02.04.05.08.07.12.06.06.11.11.16.17l.42.24c.17.05.33.11.5.15.15.04.3.07.45.1.05.01.22.04.34.05.05 0 .1 0 .12.01.2.01.41.02.61.02h1.27c1.12 0 2.22.05 3.32.23 4.33.68 7.79 5.28 5.72 9.75-.69 1.5-2.81 2.06-4.14 1.19s-1.75-2.4-1.27-3.87c0-.01-.01-.02-.02-.04 0 .02 0 0 0 0-.02-.04-.04-.08-.06-.11-.04-.07-.01-.02-.03-.05-.07-.09-.15-.17-.22-.24-.09-.09-.43-.49-.11-.11.3.35 0 .02-.14-.06-.04-.02-.08-.04-.13-.07-.24-.12-.79-.2-.93-.23-.03 0-.01 0-.04-.01h-.06c-.19 0-.38-.02-.57-.03-.42-.02-.84-.02-1.27-.01-3.47 0-7.26-.54-9.22-3.95-.82-1.43-.41-3.54 1.03-4.36l.03.02Zm-46.53-36.26c4.39 1.15 8.92 2.43 12.81 4.93 1.91 1.23 3.64 2.72 5.06 4.55 1.59 2.05 2.51 4.37 3.61 6.72.98 2.1 2.04 3.88 4.26 4.63 2.18.73 4.54.58 6.79.68 4.65.19 9.18 1.35 11.99 5.52 2.25 3.35-2.96 6.6-5.2 3.27-2.18-3.25-7.64-2.34-10.86-2.61-4.72-.4-8.75-2.09-11.29-6.48-2.19-3.79-3.11-7.85-6.84-10.43-3.56-2.46-7.77-3.57-11.86-4.64-3.79-.99-2.26-7.14 1.54-6.14h-.01Zm-8.1-34.56c3.24-.87 6.13.81 7.92 3.61 1.84 2.87 1.81 6.15 1.55 9.45-.12 1.53-.31 3.16.1 4.66.05.18.3.86.26.77-.11-.24.25.44.28.5 0 .01.28.44.32.52.18.23.37.44.57.65.97 1.02 1.56 1.41 2.79 2.15 1.15.7 2.36 1.29 3.57 1.87 1.49.71 1.9 2.93 1.14 4.33-.87 1.6-2.64 1.91-4.14 1.19-4.74-2.26-9.88-5.45-10.86-11.29-.29-1.76-.25-3.49-.12-5.27.06-.75.12-1.49.15-2.24a15 15 0 0 0 .01-1.34c0-.11-.13-1.12-.02-.56-.05-.27-.12-.53-.2-.79-.04-.13-.25-.7-.09-.33-.13-.3-.3-.58-.46-.86l-.17-.26c-.13-.15-.27-.29-.41-.43-.04-.02-.22-.15-.35-.23v0l-.06-.02h-.04c-.04.01-.03 0-.09.03-1.59.43-3.3-.49-3.76-2.17-.45-1.61.48-3.5 2.07-3.93l.04-.01Zm-20.13 4.88c1.09-1.07 3.21-1.42 4.29-.05 3.54 4.5 7.08 8.99 10.62 13.49.53.67.91 1.33.92 2.23.01.78-.31 1.71-.86 2.26-1.09 1.07-3.21 1.42-4.29.06-3.54-4.5-7.08-9-10.62-13.49-.53-.67-.91-1.33-.92-2.23-.01-.78.31-1.71.86-2.26v-.01Z"/><path d="M338.31 356.07c-10.28 0-21.21-1.74-33.42-5.32-3.42-1-6.75-2.14-9.97-3.24-8.94-3.05-17.38-5.93-27.12-5.93-9.32.01-18.64 1.97-27.65 3.85-2.07.43-4.15.87-6.22 1.28-11.19 2.23-20.28 3.27-28.58 3.27v0c-8.04 0-15.2-.97-21.87-2.97-1-.3-2.01-.63-3.02-.99-12.65-4.51-23.13-12.99-31.71-20.69-2.8-2.52-5.59-5.13-8.21-7.6l-50.69-47.65c-1.06-1-2.14-2-3.23-3.01l-.82-.76c-1.31-1.22-2.64-2.45-3.95-3.7l.95-1.16-1.03 1.09c-7.73-7.37-15.34-15.58-18.8-25.76a36.514 36.514 0 0 1-1.93-11.7v-.49l-.02-.48c.6-79.73 62.39-141.04 74.77-152.53l.1-.09c1.07-.99 1.67-1.52 1.76-1.59 27.57-23.46 73.74-37.47 123.49-37.47 43.23 0 85.07 10.19 120.99 29.46 76.3 40.93 94.52 167.38 89.26 213.21-1.2 10.48-8.11 19.23-18.03 22.84-17.74 6.45-32.75 10.91-45.89 13.63-8.45 1.75-13.55 8.71-19.46 16.77-8.79 12-18.76 25.61-42.98 27.49-2.2.17-4.47.26-6.73.26l.01-.02Z"/><path d="M261.15 33.91c39.88 0 82.42 8.97 120.28 29.28 74.24 39.83 93.98 163.77 88.48 211.72a26.155 26.155 0 0 1-17.05 21.6c-14.94 5.43-30.58 10.44-45.68 13.57-21.87 4.53-22.22 41.12-62.25 44.23-2.21.17-4.42.25-6.62.25-11.18 0-22.26-2.11-33-5.26-12.71-3.73-23.9-9.23-37.52-9.23h-.07c-11.51.02-22.79 2.92-34.09 5.16-9.27 1.85-18.84 3.24-28.29 3.24-7.28 0-14.49-.83-21.44-2.91-.99-.3-1.97-.62-2.94-.96-11.8-4.21-21.81-11.96-31.21-20.4-2.77-2.49-5.49-5.04-8.19-7.57-13.91-13.08-27.82-26.16-41.73-39.23l-8.96-8.42c-1.33-1.25-2.69-2.51-4.06-3.78-1.31-1.22-2.63-2.44-3.93-3.69-.03-.03-.07-.06-.1-.1-7.71-7.35-15.06-15.32-18.38-25.13a34.733 34.733 0 0 1-1.85-11.22v-.1c0-.15 0-.3-.01-.44v-.44c.6-79.35 62.82-140.79 74.29-151.43 0 0 0 0 0 0 1.08-1 1.7-1.55 1.79-1.62 27.28-23.21 72.83-37.12 122.53-37.12m0-2.99c-50.1 0-96.63 14.14-124.47 37.83-.14.11-.75.65-1.69 1.53l-.07.05-.18.19c-12.59 11.69-74.59 73.34-75.19 153.55v.74l.01.24v.03c0 4.14.68 8.23 2.01 12.17 3.56 10.5 11.31 18.86 19.15 26.34l.05.05h.01l.04.05c1.33 1.27 2.69 2.54 3.96 3.72l.89.83c1.06.99 2.12 1.96 3.15 2.94l8.19 7.7.76.72 40.55 38.12 1.19 1.11c2.74 2.58 5.43 5.1 8.24 7.62 8.69 7.8 19.3 16.39 32.2 20.99 1.03.37 2.07.71 3.09 1.01 6.81 2.04 14.1 3.03 22.29 3.03s17.59-1.05 28.88-3.3c2.08-.41 4.16-.85 6.24-1.28 8.94-1.87 18.18-3.81 27.27-3.82h.07c9.49 0 17.82 2.84 26.64 5.85 3.24 1.1 6.58 2.25 10.03 3.26 12.34 3.62 23.41 5.38 33.84 5.38 2.31 0 4.61-.09 6.85-.26 24.9-1.93 35.53-16.44 44.07-28.1 5.72-7.81 10.67-14.56 18.55-16.19 13.21-2.74 28.29-7.21 46.1-13.69 10.46-3.8 17.74-13.02 19-24.07 2.75-23.98-.66-67.34-14.46-110.17-11.38-35.3-33.73-82.08-75.58-104.53-36.14-19.39-78.22-29.63-121.7-29.63v0l.02-.01Z"/><path d="M398.04 99.85c-5.03-7.13-10.56-13.72-16.61-19.57m62.27 161.03c-3.52-36.53-13.72-86.1-35.55-125.32m7.17 82.06c-2.08-10.15-4.73-20.15-8.05-29.72m14.48 91.63c-.24-13.78-1.2-28.28-3.19-42.78M66.61 224.1c.25 6.48 1.58 12.82 4.95 18.71 4.32 7.53 11.06 13.19 17.46 18.88 6.99 6.22 13.57 12.87 20.39 19.28 16.01 15.04 32.09 30.02 48.22 44.94 7.48 6.91 16.32 12.33 26.01 15.5.66.22 1.39.42 2.02.13.73-.33 1.05-1.24.95-2.04s-.51-1.51-.9-2.21c-4.65-8.29-7.23-17.66-8.65-27.01-1.42-9.3-1.84-19.95-1.24-31.64 1.09-21.21 5.25-42.14 8.29-57.42.76-3.84 1.48-7.47 2.04-10.53.63-3.46 1.58-7.56 2.69-12.31 3.82-16.4 9.06-38.85 6.79-60.4-2.65-25.19-14.84-42.45-37.28-52.78a19.975 19.975 0 0 0-8.34-1.84c-4.98 0-9.88 1.89-13.67 5.49-9.43 8.97-18.29 18.54-26.43 28.69-10.03 12.51-19 25.93-26.22 40.26-7.77 15.44-13.5 31.99-15.91 49.14-.8 5.68-1.42 11.48-1.2 17.17l.03-.01Z"/><path d="M131.39 120.08c-10.47 12.14-19.91 25.24-27.63 39.31-8.32 15.15-14.62 31.49-17.64 48.55-1 5.65-1.82 11.42-1.81 17.12M125.04 199c-3.82 11.35-6.46 23.09-7.49 35.04-.5 5.72-.8 11.54-.28 17.21m9.77-92.3c-2.3 3.9-4.47 7.86-6.51 11.9-7.77 15.44-13.5 31.99-15.91 49.14m107.6-8.37c2.88-13.4 7.06-32.6 7.11-52.32m-17.47 163.62c-5.54-29.29 1.19-65.11 5.9-88.89m15.58 58.84c.63-21.29 4.73-42.8 7.91-58.84m68.65-84.76s-12.03-11.85-30.4-10c-13.36 1.35-23.24 8.33-27.53 12.97a10.085 10.085 0 0 1-6.66 3.22l-3.03.22"/><path d="M303.65 138.49s-4.33-6.61-31.64-4.61-49.67 8.03-49.67 8.03 12.34-23.13 35.55-24.35 47.02 11.17 53.86 6.45c1.49 11.2-8.1 14.48-8.1 14.48Zm8.82 74.22s-2.57-2.91-5.8-1.31-7.14 5.73-5.52 15.9 13.28 12.04 13.28 12.04m85.85-88.12s-4.05 2.26-7.06 0m-45.19-7.57s10.82-11.21 25.82-11.2c15 0 22.87 14.29 22.87 14.29"/><path d="M401.7 135.79s-6.88-8.07-24.1-8.62c-17.23-.55-29.17 10.08-29.17 10.08s-5.89-8.18-4.5-13.89c7.72 1.59 59.5-22.39 57.77 12.43ZM377.86 265.1s-2.65 6.61-.87 12.88m-93.15-14.7s-2.86 4.76-8.68 8.22-6.59 8.07-6.59 8.07m76.15 43.94s5.55 6.41 2.86 15.28m-57.57-109.68s-12.72 12.4-21.99 17.83c-9.27 5.42-13.21 12.53-12.07 17.9m108.51-42.21s17.59 14.07 19.27 28.57m-138.79-91.9s4.9 3.7 13.6 5.78c-2.59-2.28-4.34-5.54-4.61-9.25-.18-2.49.31-4.87 1.35-6.97-8.47 4.09-10.34 10.45-10.34 10.45v-.01Z"/><path d="M253.94 155.83c.27 3.71 2.02 6.98 4.61 9.25 2.59.61 5.51 1.08 8.73 1.26 2.39.14 4.98.11 7.66-.04h.02c4.01-2.65 6.55-7.33 6.17-12.47-.22-3-1.4-5.71-3.24-7.85-2.24-.37-4.65-.53-7.2-.47-6.68.2-11.69 1.56-15.42 3.35-1.04 2.1-1.53 4.49-1.35 6.97h.02Z"/><path d="M274.97 166.29c13.14-.75 28.06-4.33 28.06-4.33s-8.14-13.32-25.13-16c1.84 2.14 3.02 4.85 3.24 7.85.38 5.15-2.16 9.83-6.17 12.47v.01Zm78.46-21.86c-7.72 6.07-8.5 14.28-8.5 14.28s6.53 1.97 16.18 2.39c-4.64-1.65-8.14-5.87-8.52-11.11-.15-1.97.16-3.85.84-5.57v.01Z"/><path d="M353.43 144.43c-.68 1.72-.98 3.6-.84 5.57.39 5.24 3.88 9.46 8.52 11.11h.02c2.63.1 5.48.1 8.5-.09h.01c5.22-1.89 8.76-7.07 8.33-12.89-.3-4.11-2.53-7.62-5.71-9.71-2.16-.09-4.49.09-6.97.65-5.14 1.14-8.99 3.1-11.88 5.37l.02-.01Z"/><path d="M369.66 161c1.7-.1 3.48-.27 5.27-.51 16.7-2.23 18.28-9.28 18.28-9.28s-6.8-12.29-20.94-12.81c3.19 2.09 5.41 5.6 5.71 9.71.43 5.81-3.12 11-8.33 12.89h.01Zm-94.72 5.3c-2.68.15-5.27.18-7.66.04-3.23-.18-6.15-.65-8.73-1.26-8.71-2.08-13.6-5.78-13.6-5.78s1.87-6.36 10.34-10.45c3.72-1.79 8.74-3.16 15.42-3.35 2.55-.07 4.96.1 7.2.47 16.99 2.67 25.13 16 25.13 16s-14.92 3.58-28.06 4.33"/><path d="M255.29 148.85c-1.04 2.1-1.53 4.49-1.35 6.97.27 3.71 2.02 6.98 4.61 9.25m102.59-3.97c2.63.1 5.48.1 8.5-.09m.02-.01c1.7-.1 3.48-.27 5.27-.51 16.7-2.23 18.28-9.28 18.28-9.28s-6.8-12.29-20.94-12.81c-2.16-.09-4.49.09-6.97.65-5.14 1.14-8.99 3.1-11.88 5.37-7.72 6.07-8.5 14.28-8.5 14.28s6.53 1.97 16.18 2.39"/><path d="M353.43 144.43c-.68 1.72-.98 3.6-.84 5.57.39 5.24 3.88 9.46 8.52 11.11h.02m8.51-.1h.01c5.22-1.89 8.76-7.07 8.33-12.89-.3-4.11-2.53-7.62-5.71-9.71m-97.33 27.89h.02c4.01-2.65 6.55-7.33 6.17-12.47-.22-3-1.4-5.71-3.24-7.85m107.96 21.3s-15.35 6.93-34.48-.33"/><circle r="6.26" transform="translate(267.55 154.83)"/><ellipse rx="3.7" ry="4.59" transform="rotate(-28.22 439.307 -471.17)"/><circle r="2.6" transform="translate(261.98 157.29)"/><circle r="5.74" transform="translate(365.29 149.06)"/><circle r="2.6" transform="translate(359.72 151.51)"/><ellipse rx="3.49" ry="4.59" transform="rotate(-28.85 470.445 -650.893)"/><path d="M315.98 235.3c-.09 3.07 16.92 1.71 16.92 1.71v0c-1.78-1.31-3.42-2.56-4.62-3.15-3.21-1.62-12.2-1.63-12.3 1.44Z"/><path d="M332.9 237.01s-17.01 1.36-16.92-1.71c.1-3.07 9.09-3.06 12.3-1.44 1.2.6 2.84 1.84 4.62 3.14 2.94 2.18 6.24 4.54 8.45 4.48 3.55-.1 6.82-.16 10.47-4.48 3.64-4.33 10.22-8.19 11.5-12 1.3-3.81-2.77-8.56-2.77-8.56s-21.63-33.37-21.24-54.88m35.48 109.59s-7.11 20.5-19.67 26.28c-12.55 5.77-53.13 11.45-78.41-24.87 65.48 19.85 98.08-1.41 98.08-1.41Z"/><path d="m277.83 272.03-.19.3c19.86 12.31 36.35 9.44 64.83 8.16 12.91-.6 21.22-3.31 26.48-6.13v0s-10.98-7.97-17.48-6.49c-6.51 1.46-9.38 5.38-9.38 5.38s-4.28-6.04-17.66-4.11c-12.69 1.84-35.46 9.31-46.61 2.9l.01-.01Z"/><path d="M368.96 274.34s-10.98-7.95-17.48-6.48c-6.51 1.46-9.38 5.38-9.38 5.38s-4.28-6.04-17.66-4.11c-12.69 1.84-35.46 9.31-46.61 2.9-.59-.34-1.15-.73-1.68-1.16"/><path d="M377.34 267.01s-1.77 3.78-8.38 7.34c-5.27 2.83-13.57 5.54-26.48 6.13-28.48 1.28-44.97 4.15-64.83-8.16-.48-.28-.97-.58-1.45-.9m86.04 19.51s-2.37 6.12-11.81 7.97-31.36 3.4-37.98-1.65m41.42-8.85s-13.7 5.97-34.69 1.24M244.94 159.3s-3.74 3.23-10.75 2.81m48.01 12.14s-20.87 7.87-35.69-5.65M196.76 60.46c.03.07.06.14.1.2 6.92 14.39 16.51 11.04 20.38 8.65 1.58 11.46 21.57 8.06 28.78 4.98 6.37 7.21 21.6 6.77 28.78 1.11 8.92 7.62 33.06 8.58 39.3-3.32 3.13 5.66 7.83 14.52 24.06 12.54 16.24-1.98 20-15.15 13.58-19.73 8.78-3.57 8.46-16.71 1.29-25.2v0c-3.69-4.37-9.21-7.5-16.23-7.46-1.16-18.8-23.65-24.92-35.42-16.05-5.18-5.67-14.66-6.64-21.03-1.66-3.55-4.63-11.87-4.71-16.61-2.21-13.87-21.8-44.68-6.74-50.37 13.29-8.77-5.42-18.29-2.73-18.29 8.87-4.72-.78-14.15 2.35-13.31 10.76-5.14 10.91 7.26 17.68 14.99 15.24v-.01Z"/><path d="m303.8 38.44 1.39-1.53c3.02-3.33 7.87-4.38 12.96-2.79 5.52 1.71 9.66 6.08 10.3 10.86l.27 1.97-1.44-1.37c-3.77-3.58-11.58-9.32-21.44-7.51l-2.03.37h-.01Zm-3.09 5.16c3.78.99 6.16 3.48 6.71 7.01l.29 1.87-1.44-1.24c-4.31-3.71-10.06-3.18-15.62-2.67-1.11.1-2.26.21-3.37.28l-1.55.09.96-1.22c2.84-3.62 9-5.43 14.02-4.12Zm-27.82 7.78c4.97.52 9.35 3.65 10.91 7.8l.6 1.6-1.55-.72c-6.85-3.17-11.91-5.09-19.52-3.04l-1.74.47.97-1.52c2.15-3.38 5.91-5.05 10.33-4.6v.01Zm-5.85-16.07c3.75-.16 6.68 1.62 8.04 4.88l.63 1.51-1.53-.59c-5.3-2.06-8.91-.61-13.48 1.23-1.1.44-2.23.9-3.46 1.34l-1.33.48.43-1.35c1.31-4.08 5.91-7.3 10.7-7.5Zm15.43-4.21c-2.53-.53-4.53-.95-8.1-1.22l-1.07-.08.51-.95c1.31-2.42 4.03-3.66 7.09-3.24 3.26.45 5.87 2.65 6.51 5.47l.23 1.03-1.04-.19c-1.64-.3-2.97-.57-4.14-.82h.01Zm-50.03 1.34-1.31.1.65-1.14c1.85-3.25 6.15-5.35 10.21-5.01 3.34.29 5.88 2.15 6.95 5.12l.5 1.37-1.38-.47c-4.38-1.5-7.23-1.08-10.83-.54-1.4.21-2.98.44-4.78.58l-.01-.01Zm2.4 21.2c2.92-.1 5.07 1.37 5.91 4.04l.37 1.17-1.2-.28c-2.96-.7-5.07-.01-7.52.78-1.45.47-3.08 1.01-5.05 1.28l-1.02.14.24-1c.87-3.64 4.97-6.02 8.26-6.14l.01.01Zm-29.06-8.02c2.76-.88 6.52-.41 8.24 2.7l.51.91-1.04.12c-5.15.59-6.99.9-11.52 3.5l-.92.53-.12-1.06c-.35-3.02 1.56-5.66 4.86-6.71l-.01.01Zm21.94-6.57c2.94-.23 5.95 1.26 7.32 3.62l.47.82-.92.21c-1.72.39-3.09.52-4.33.52-1.12 0-2.14-.11-3.22-.22-1.1-.12-2.36-.25-3.9-.29l-.99-.02.35-.92c.83-2.17 2.73-3.53 5.22-3.72Zm20.8-16.39-1.43.52.54-1.43c1.25-3.3 4.27-5.43 8.07-5.7 4.2-.3 8.27 1.75 10.12 5.1l.7 1.27-2.13-.37c-6.41-1.11-9.62-1.67-15.86.6l-.01.01Z"/><path d="M196.76 60.46s.07.12.1.2c6.92 14.39 16.51 11.04 20.38 8.65 1.58 11.46 21.57 8.06 28.78 4.98 6.37 7.21 21.6 6.77 28.78 1.11 8.92 7.62 33.06 8.58 39.3-3.32 3.13 5.66 7.83 14.52 24.06 12.54 16.24-1.98 20-15.15 13.58-19.73 8.78-3.57 8.46-16.71 1.29-25.2v0c1.99 7.74-1.53 18.41-4.82 23.8-1.36-5.11-7.19-8.94-11.91-11.89 2.45 4.23 5.03 10.49 4.65 15.6-7.56-9.4-29.57-8.97-44.17-1.65 1.24 2.29 3.42 4.48 5.73 5.58-1.67 2.9-29.35 4.05-36.1-8.39-.97 2.1-1.49 6.12 1.35 8.98-8.92.28-14.84-2.86-19.25-9.79-5.61 8.59-23.58 10.59-30.96-2.5-5.12 7.77-17.59 1.5-20.79 1.03Z"/></g><g stroke-width="0"><path d="M202.76 438.93c-1.84 0-3.55-.16-5.22-.47-6.07-1.16-11.5-4.57-16.45-8.09-17.78-12.6-33.33-28.49-48.37-43.84l-43.3-44.22c-13.28-13.57-24.5-26.15-27.28-42.79-1.01-6.06-.38-11.07 1.87-14.9 4.77-8.1 15.28-9.08 22.78-9.11h.86c18.29 0 36.75 2.2 54.61 4.34 2.72.32 5.43.65 8.15.97 58.31 6.81 117.63 10.26 176.32 10.26 13.22 0 26.62-.18 39.84-.52l1.02-.03c3.61-.1 7.33-.19 11.02-.19 8.68 0 18.9.46 28.87 3.9 5.54 1.91 10.78 4.68 15.85 7.36 3.45 1.82 7.02 3.71 10.61 5.28 4.77 2.09 10.37 3.17 15.78 4.21 6.4 1.23 13.02 2.51 18.51 5.48 8.78 4.76 13.89 18.04 13.76 28.14-.14 11.2-5.83 21.92-14.83 27.98-6.2 4.18-13.66 6.01-20.25 7.62l-229.12 56.22c-4.61 1.13-9.84 2.42-15.05 2.42l.02-.02Z" fill="#ff953e"/><path d="M87.67 277c20.94 0 41.77 2.87 62.59 5.3a1522.44 1522.44 0 0 0 216.36 9.75c3.98-.1 7.99-.22 11.99-.22 9.65 0 19.27.68 28.39 3.82 9.18 3.16 17.44 8.69 26.35 12.59 10.6 4.64 24.31 4.29 34.18 9.64 8.43 4.57 13.1 17.51 12.98 26.8-.13 10.63-5.63 21.01-14.17 26.76-5.92 3.98-12.92 5.73-19.77 7.41-20.04 4.92-40.09 9.84-60.13 14.75-56.33 13.82-112.66 27.64-168.99 41.47-4.83 1.18-9.78 2.37-14.69 2.37-1.65 0-3.3-.13-4.94-.45-5.8-1.11-10.99-4.38-15.87-7.84-17.61-12.49-32.94-28.12-48.16-43.67-14.43-14.74-28.86-29.48-43.3-44.22-11.72-11.97-24.06-25.11-26.87-41.99-.78-4.71-.71-9.83 1.69-13.9 4.19-7.13 13.49-8.34 21.5-8.37h.86m0-3h-.87c-7.86.03-18.91 1.08-24.07 9.85-2.44 4.14-3.13 9.49-2.06 15.91 2.84 17.07 14.22 29.84 27.68 43.6l3.61 3.68 39.69 40.53c15.09 15.41 30.68 31.34 48.57 44.02 5.09 3.61 10.68 7.12 17.04 8.34 1.74.33 3.59.5 5.5.5 5.39 0 10.71-1.31 15.41-2.46l27.82-6.82 141.18-34.64 60.13-14.75c6.7-1.65 14.3-3.51 20.73-7.83 9.41-6.33 15.35-17.53 15.49-29.21.13-10.54-5.27-24.45-14.55-29.47-5.69-3.08-12.42-4.38-18.94-5.63-5.33-1.03-10.85-2.09-15.47-4.11-3.54-1.55-7.09-3.42-10.51-5.23-5.12-2.71-10.42-5.5-16.07-7.45-10.24-3.53-21.07-3.98-29.36-3.98-3.7 0-7.44.1-11.06.2l-1.02.03c-13.2.35-26.59.52-39.8.52-58.63 0-117.89-3.45-176.15-10.25-2.71-.32-5.42-.64-8.14-.97-17.9-2.14-36.41-4.35-54.8-4.35l.02-.03Z" fill="#422720"/></g><path d="m354.21 387.1-49.64 12.18m152.44-39.96c-5.92 3.98-12.92 5.73-19.77 7.41-20.04 4.92-40.09 9.84-60.13 14.75" fill="none" stroke="#f4be59" stroke-width="5.99" stroke-linecap="round" stroke-miterlimit="10"/><path d="M86.81 277c21.23-.08 42.35 2.83 63.44 5.29 71.8 8.39 144.15 11.65 216.37 9.75 13.57-.36 27.48-.85 40.38 3.59 9.18 3.16 17.44 8.69 26.36 12.59 9.91 4.34 22.5 4.37 32.16 8.72-1.51 2.26-2.93 15.2-13.25 19.65-10.32 4.44-18.99-1.66-26.35-.67s-10.98 3.7-17.5 14.54-25.44 12.64-39.39 13.66c-22.77 1.67-51.2-10.34-67.02 7.34-15.81 17.68-29.86 15.82-53.57 14.48s-43.58 10.77-46.13 21.55c-2.55 10.79 2.3 16.41.24 24.36-.53 2.03-1.57 3.78-2.9 5.29-.61-.07-1.22-.05-1.83-.17-5.8-1.11-10.99-4.38-15.87-7.84-17.61-12.49-32.94-28.12-48.16-43.67-14.43-14.74-28.86-29.48-43.3-44.22-11.72-11.97-24.06-25.11-26.87-41.99-.78-4.71-.71-9.83 1.69-13.9 4.19-7.13 13.49-8.34 21.5-8.37v.02Z" fill="#c55023" stroke-width="0"/><path d="M90.5 323.38c-5.26-5.37-10.65-10.98-15.24-17.06m102.13 104.04c-5.53-5.09-11.2-10.41-16.1-16.24m-11.16-10.09c-5.52-5.39-10.93-10.92-16.33-16.43l-32.48-33.17" fill="none" stroke="#ff953e" stroke-width="5.99" stroke-linecap="round" stroke-linejoin="round"/><path d="M469.78 299.8c-1.48 1.25-3.75 1.35-4.88 2.94-3.19 4.45 6.84 8.01 6.96 13.57.07 3.21-3.27 6.19-4.08 8.92-.52 1.77-2.06 3.05-3.9 3.14-.1 0-.21 0-.31.01a4.262 4.262 0 0 0-4.05 4.14l-.06 2.21a4.24 4.24 0 0 1-2 3.49c-3.51 2.17-5.96 6.12-6.59 10.34-.5 3.34-4.44 4.84-6.99 2.64-3.52-3.04-7.13-6.53-10.17-.65-.1.18-.2.37-.32.53-6.59 8.89-20.18 3.74-20.59-6.77-.04-1.15-.51-2.26-1.37-3.02-3.36-2.98-9.76-2.05-11.51 2.43-1.05 2.68-.54 5.8-1.47 8.53-.92 2.71-3.39 4.64-6.07 5.16-1.74.34-3.13 1.67-3.43 3.42-.43 2.58-2.25 5-4.56 5.98-1.49.64-2.52 2.02-2.65 3.64-.63 8.16-13.11 9.66-17.14-1.61-.83-2.32-3.46-3.46-5.71-2.46-5.99 2.68-10.74 11.86-17.79 11.77-6.59-.09-11.83-8.51-18.19-6.73-2.5.7-4.56 2.94-7.14 2.97-3.04.04-6.4-2.93-8.73-.89-1.33 1.16-1.27 3.24-1.83 4.98-.2.63-.56 1.19-1.03 1.66-3.51 3.56-5.64.55-11.99 8.8-.06.08-.13.17-.2.25-5.27 5.88-10.43 2.42-10.14-1.06.22-2.59-1.97-4.78-4.56-4.55-2.55.23-5.02 1.7-6.05 4.18-1.7 4.1-.44 10.36-4.44 11.93-1.16.46-2.46.29-3.69.11-7.33-1.06-51.53 26.57-62.14 5.01-.1-.2-.18-.41-.24-.62-.59-1.97-.97-4.08-2.23-5.67-1.07-1.35-2.63-2.14-4.14-2.88-8.2-4.5-17.32-7.61-24.94-13.04-.18-.13-.35-.27-.5-.42-7.08-7.02-5.08-21.7-13.85-26.26-3.65-1.9-8.25-1.33-11.58-3.78-2.89-2.13-3.9-5.74-4.15-9.55-.18-2.73-2.81-4.61-5.43-3.84-5.39 1.58-11.08 1.9-16.13-.42-5.62-2.58-9.62-9.39-8.69-15.43.32-2.05-.84-4.06-2.8-4.72-6.96-2.34-12.99-7.73-16.23-14.6-.62-1.31-1.85-2.24-3.29-2.43-7.55-1.02-12.77-4.35-11.4-12.65.07-.42.07-.86 0-1.28-.64-4.05-4.8-7.02-8.66-6.73-2.72.2-4.91-2.25-4.48-4.94.56-3.44 3.55-6.5 6.94-8.57a4.248 4.248 0 0 0 1.36-5.92c-2.2-3.44-3.6-7.45-4.03-11.57a4.245 4.245 0 0 1 3.5-4.62c29.15-4.98 59.48 9.35 85.32 22.04 30.04 16.65 58.56 41.81 92.54 41.45 14.98-.16 29.67-5.45 44.65-4.79 14.02.61 28 6.42 41.77 3.61 10.53-2.14 19.69-9.14 30.2-11.4 8.97-1.93 18.28-.28 27.42-.96 21.78-1.72 42.7-16.68 65-9.99 4.24 1.25 20.72 8.34 12.89 14.96l-.01.01Z" fill="#9abe3e" stroke="#422720" stroke-width="2.99" stroke-miterlimit="10"/><path style="mix-blend-mode:multiply" d="M64.33 270.91c2.34-2.95 5.86-4.52 9.25-5.98-4.85-5-7.54-12.22-7.19-19.33 8.82-3.27 18.54-2.28 27.77-.59 21.31 3.89 42.03 11.32 61.15 21.92 30.04 16.65 58.56 41.81 92.54 41.45 14.98-.16 29.67-5.45 44.65-4.79 14.02.61 28 6.42 41.77 3.61 10.53-2.14 19.69-9.14 30.2-11.4 8.97-1.93 18.28-.28 27.42-.96 11.89-.89 23.14-5.68 34.66-8.87 9.94-2.75 20.31-4.07 30.34-1.12 2.24.66 7.85 2.95 11.53 5.93.04.81-.07 1.65-.48 2.33-1.06 1.74-3 2.62-4.79 3.5-7.07 3.49-13.45 8.5-18.62 14.62-5.61 2.05-12.12 1.18-17.07-2.27-4.34 6.39-12.24 8.7-19.52 10.59-3.33.86-6.65 1.73-9.98 2.59-1.19.31-2.43.62-3.63.35-1.74-.39-3.02-1.88-4.37-3.1-5.21-4.71-12.48-5.78-19.32-6.67-1.14-.15-2.37-.28-3.39.28-1.87 1.03-2.1 3.78-3.59 5.35-3.44 3.64-11.77-.25-13.06 4.68-.35 1.34.14 2.79-.16 4.13-1.21 5.41-10.27 1.15-14.16 4.94-1.64 1.61-1.83 4.22-2.8 6.35-2.59 5.65-10 6.6-15.84 5.2s-11.56-4.36-17.51-3.66c-4.8.57-9.04 3.46-13.69 4.82-5.69 1.66-11.74.98-17.63 1.47-9.63.81-18.98 4.9-26.28 11.5-1.17 1.06-2.34 2.21-3.82 2.69-1.74.56-3.62.09-5.4-.37a357.557 357.557 0 0 0-41.83-8.15c-2.93-.39-5.94-.74-8.81-.03-5.01 1.24-9 5.82-10.14 11.07-.41 1.9-.49 3.86-.53 5.81-.13 5.26 0 10.53.25 15.78-1.1-.63-2.15-1.32-3.08-2.2-7.37-6.92-5.22-21.88-14.09-26.49-3.65-1.9-8.25-1.33-11.58-3.78-4.38-3.23-4.45-9.87-4.07-15.46-6.83 3.11-14.82 4.78-21.65 1.65s-11.26-12.49-7.39-19.14c-9.41-1.45-17.84-8.51-21.25-17.79-5.8-.42-13.19-2.33-13.85-8.37-.18-1.66.24-3.33.18-5-.23-5.54-7.06-9.43-11.63-6.61-2.52-2.78-1.83-7.55.51-10.5l-.02.02Z" opacity=".26" fill="#92ab2c" stroke-width="0"/><path d="M435.81 333.83c.76-.54 1.51-1.1 2.24-1.67.35-.27.7-.54 1.04-.82.19-.15.38-.31.57-.46.25-.2-.22.19.19-.16 1.43-1.21 2.82-2.46 4.16-3.77 2.69-2.62 5.18-5.44 7.48-8.44 1-1.3 3.24-1.22 4.29-.06 1.22 1.35 1.12 3.1.06 4.49-4.82 6.29-10.55 11.76-16.9 16.32-1.31.94-3.41.36-4.17-1.09-.83-1.59-.37-3.35 1.03-4.36l.01.02Zm-19.48-3.39c.2-.17.41-.34.61-.5.47-.29.97-.44 1.52-.45-.21.03-.43.07-.64.1 2.07-.32 4.09-.92 6.03-1.76.57-.27 1.13-.55 1.68-.86 1.39-.8 3.36-.46 4.17 1.09.76 1.46.45 3.51-1.03 4.36-1.55.89-3.2 1.65-4.88 2.23-1.71.59-3.45.94-5.22 1.2-.71.1-1.67-.4-2.16-.9-.53-.54-.94-1.44-.92-2.23.02-.82.27-1.68.86-2.26l-.02-.02Zm10.18-13.6 9.37-2.16c.8-.18 1.61-.14 2.34.29.63.38 1.24 1.12 1.42 1.88.37 1.58-.41 3.55-2.07 3.93l-9.37 2.16c-.8.18-1.61.14-2.34-.29-.63-.38-1.24-1.12-1.42-1.88-.37-1.58.41-3.55 2.07-3.93Zm-65.53 33.58c5.37-.72 11.05-1.45 16.14-3.45 4-1.57 7.66-4.66 8.53-9.21.32-1.68 2.19-2.68 3.7-2.26 1.67.46 2.49 2.19 2.17 3.88-1.17 6.14-5.91 10.65-11.21 13.06-5.97 2.71-12.84 3.48-19.25 4.34-1.63.22-3.06-1.56-3.08-3.14-.02-1.88 1.36-2.99 2.99-3.21l.01-.01Zm6.46-21.33c1.09 0 2.17-.04 3.25-.12.58-.05 1.16-.11 1.74-.18.25-.03.5-.06.74-.1h.07c.08-.01.16-.03.24-.04 2.18-.37 4.33-.93 6.43-1.65 1.51-.52 3.38.54 3.76 2.17.4 1.72-.45 3.38-2.07 3.93a43.652 43.652 0 0 1-14.09 2.34c-1.59 0-3.13-1.41-3.07-3.14.05-1.7 1.29-3.21 2.99-3.21h.01Zm-29.64 15.97 7.44-.48c1.59-.1 3.12 1.48 3.07 3.14-.05 1.79-1.29 3.1-2.99 3.21l-7.43.48c-1.59.1-3.12-1.48-3.08-3.14.05-1.79 1.29-3.1 2.99-3.21Zm-17.6 11.02 12.77.15c1.58.02 3.19 1.09 3.22 2.91.02 1.59-1.15 3.43-2.85 3.41l-12.77-.15c-1.58-.02-3.19-1.09-3.22-2.91-.03-1.59 1.15-3.43 2.85-3.41Zm-66.43 20.4c2.52-4.5 7.29-6.22 12.07-6.37 5.68-.18 12.11 2.43 16.71-2.3 3.93-4.04 5.68-9.81 9.61-13.88 3.95-4.1 9.78-5.98 14.92-3.21 3.48 1.87.48 7.39-2.99 5.52-4.56-2.46-8.65 2.96-10.75 6.45-2.53 4.2-4.79 8.62-8.74 11.57-4.31 3.21-9.49 2.9-14.5 2.42-3.58-.34-8.91-.87-11.04 2.94-1.97 3.52-7.26.4-5.28-3.14h-.01Zm5.55-17.86c.39-.66 1.03-1.34 1.79-1.48 3.13-.58 6.25-1.16 9.38-1.73.83-.15 1.58-.16 2.34.29.63.38 1.24 1.12 1.42 1.88.19.81.16 1.72-.28 2.45-.39.66-1.03 1.34-1.8 1.48-3.13.58-6.25 1.16-9.38 1.73-.83.15-1.58.16-2.34-.29-.63-.38-1.24-1.13-1.42-1.88-.19-.81-.16-1.72.28-2.45h.01Zm-48.36 29.79c1.29-.81 3.47-.48 4.17 1.09s1.68 2.17 3.38 2.57c1.8.42 4.22-.26 6.17-.98 4.95-1.83 10.01-4.38 15.34-2.5 1.55.55 2.6 2.14 2.17 3.88-.39 1.57-2.14 2.82-3.7 2.27-5.2-1.84-10.37 2.4-15.34 3.42-4.85.99-10.9-.22-13.2-5.38-.7-1.55-.47-3.41 1.03-4.36l-.02-.01Zm-24.14-14.82c.51-1.72 2.03-2.62 3.7-2.26l12.95 2.72c1.56.33 2.63 2.31 2.17 3.88-.51 1.72-2.03 2.62-3.7 2.27-4.32-.91-8.64-1.81-12.95-2.72-1.56-.33-2.63-2.31-2.17-3.88v-.01Zm31.86-.19 7.05-.45c1.59-.1 3.12 1.48 3.07 3.14-.05 1.79-1.29 3.11-2.99 3.21l-7.05.45c-1.59.1-3.12-1.48-3.08-3.14.05-1.79 1.29-3.11 2.99-3.21h.01Zm-67.1-35.38c1.44-.82 3.29-.44 4.17 1.09.02.04.05.08.07.12.06.06.11.11.16.17l.42.24c.17.05.33.11.5.15.15.04.3.07.45.1.05.01.22.04.34.05.05 0 .1 0 .12.01.2.01.41.02.61.02h1.27c1.12 0 2.22.05 3.32.23 4.33.68 7.79 5.28 5.72 9.75-.69 1.5-2.81 2.06-4.14 1.19s-1.75-2.4-1.27-3.87c0-.01-.01-.02-.02-.04 0 .02 0 0 0 0-.02-.04-.04-.08-.06-.11-.04-.07-.01-.02-.03-.05-.07-.09-.15-.17-.22-.24-.09-.09-.43-.49-.11-.11.3.35 0 .02-.14-.06-.04-.02-.08-.04-.13-.07-.24-.12-.79-.2-.93-.23-.03 0-.01 0-.04-.01h-.06c-.19 0-.38-.02-.57-.03-.42-.02-.84-.02-1.27-.01-3.47 0-7.26-.54-9.22-3.95-.82-1.43-.41-3.54 1.03-4.36l.03.02Zm-46.53-36.26c4.39 1.15 8.92 2.43 12.81 4.93 1.91 1.23 3.64 2.72 5.06 4.55 1.59 2.05 2.51 4.37 3.61 6.72.98 2.1 2.04 3.88 4.26 4.63 2.18.73 4.54.58 6.79.68 4.65.19 9.18 1.35 11.99 5.52 2.25 3.35-2.96 6.6-5.2 3.27-2.18-3.25-7.64-2.34-10.86-2.61-4.72-.4-8.75-2.09-11.29-6.48-2.19-3.79-3.11-7.85-6.84-10.43-3.56-2.46-7.77-3.57-11.86-4.64-3.79-.99-2.26-7.14 1.54-6.14h-.01Zm-8.1-34.56c3.24-.87 6.13.81 7.92 3.61 1.84 2.87 1.81 6.15 1.55 9.45-.12 1.53-.31 3.16.1 4.66.05.18.3.86.26.77-.11-.24.25.44.28.5 0 .01.28.44.32.52.18.23.37.44.57.65.97 1.02 1.56 1.41 2.79 2.15 1.15.7 2.36 1.29 3.57 1.87 1.49.71 1.9 2.93 1.14 4.33-.87 1.6-2.64 1.91-4.14 1.19-4.74-2.26-9.88-5.45-10.86-11.29-.29-1.76-.25-3.49-.12-5.27.06-.75.12-1.49.15-2.24a15 15 0 0 0 .01-1.34c0-.11-.13-1.12-.02-.56-.05-.27-.12-.53-.2-.79-.04-.13-.25-.7-.09-.33-.13-.3-.3-.58-.46-.86l-.17-.26c-.13-.15-.27-.29-.41-.43-.04-.02-.22-.15-.35-.23l-.06-.02h-.04c-.04.01-.03 0-.09.03-1.59.43-3.3-.49-3.76-2.17-.45-1.61.48-3.5 2.07-3.93l.04-.01Zm-20.13 4.88c1.09-1.07 3.21-1.42 4.29-.05 3.54 4.5 7.08 8.99 10.62 13.49.53.67.91 1.33.92 2.23.01.78-.31 1.71-.86 2.26-1.09 1.07-3.21 1.42-4.29.06-3.54-4.5-7.08-9-10.62-13.49-.53-.67-.91-1.33-.92-2.23-.01-.78.31-1.71.86-2.26v-.01Z" fill="#a9d928" stroke-width="0"/><g stroke-width="0"><path d="M338.31 356.07c-10.28 0-21.21-1.74-33.42-5.32-3.42-1-6.75-2.14-9.97-3.24-8.94-3.05-17.38-5.93-27.12-5.93-9.32.01-18.64 1.97-27.65 3.85-2.07.43-4.15.87-6.22 1.28-11.19 2.23-20.28 3.27-28.58 3.27-8.04 0-15.2-.97-21.87-2.97-1-.3-2.01-.63-3.02-.99-12.65-4.51-23.13-12.99-31.71-20.69-2.8-2.52-5.59-5.13-8.21-7.6l-50.69-47.65c-1.06-1-2.14-2-3.23-3.01l-.82-.76c-1.31-1.22-2.64-2.45-3.95-3.7l.95-1.16-1.03 1.09c-7.73-7.37-15.34-15.58-18.8-25.76a36.514 36.514 0 0 1-1.93-11.7v-.49l-.02-.48c.6-79.73 62.39-141.04 74.77-152.53l.1-.09c1.07-.99 1.67-1.52 1.76-1.59 27.57-23.46 73.74-37.47 123.49-37.47 43.23 0 85.07 10.19 120.99 29.46 76.3 40.93 94.52 167.38 89.26 213.21-1.2 10.48-8.11 19.23-18.03 22.84-17.74 6.45-32.75 10.91-45.89 13.63-8.45 1.75-13.55 8.71-19.46 16.77-8.79 12-18.76 25.61-42.98 27.49-2.2.17-4.47.26-6.73.26l.01-.02Z" fill="#ff953e"/><path d="M261.15 33.91c39.88 0 82.42 8.97 120.28 29.28 74.24 39.83 93.98 163.77 88.48 211.72a26.155 26.155 0 0 1-17.05 21.6c-14.94 5.43-30.58 10.44-45.68 13.57-21.87 4.53-22.22 41.12-62.25 44.23-2.21.17-4.42.25-6.62.25-11.18 0-22.26-2.11-33-5.26-12.71-3.73-23.9-9.23-37.52-9.23h-.07c-11.51.02-22.79 2.92-34.09 5.16-9.27 1.85-18.84 3.24-28.29 3.24-7.28 0-14.49-.83-21.44-2.91-.99-.3-1.97-.62-2.94-.96-11.8-4.21-21.81-11.96-31.21-20.4-2.77-2.49-5.49-5.04-8.19-7.57-13.91-13.08-27.82-26.16-41.73-39.23l-8.96-8.42c-1.33-1.25-2.69-2.51-4.06-3.78-1.31-1.22-2.63-2.44-3.93-3.69-.03-.03-.07-.06-.1-.1-7.71-7.35-15.06-15.32-18.38-25.13a34.733 34.733 0 0 1-1.85-11.22v-.1c0-.15 0-.3-.01-.44v-.44c.6-79.35 62.82-140.79 74.29-151.43 1.08-1 1.7-1.55 1.79-1.62 27.28-23.21 72.83-37.12 122.53-37.12m0-2.99c-50.1 0-96.63 14.14-124.47 37.83-.14.11-.75.65-1.69 1.53l-.07.05-.18.19c-12.59 11.69-74.59 73.34-75.19 153.55v.74l.01.24v.03c0 4.14.68 8.23 2.01 12.17 3.56 10.5 11.31 18.86 19.15 26.34l.05.05h.01l.04.05c1.33 1.27 2.69 2.54 3.96 3.72l.89.83c1.06.99 2.12 1.96 3.15 2.94l8.19 7.7.76.72 40.55 38.12 1.19 1.11c2.74 2.58 5.43 5.1 8.24 7.62 8.69 7.8 19.3 16.39 32.2 20.99 1.03.37 2.07.71 3.09 1.01 6.81 2.04 14.1 3.03 22.29 3.03s17.59-1.05 28.88-3.3c2.08-.41 4.16-.85 6.24-1.28 8.94-1.87 18.18-3.81 27.27-3.82h.07c9.49 0 17.82 2.84 26.64 5.85 3.24 1.1 6.58 2.25 10.03 3.26 12.34 3.62 23.41 5.38 33.84 5.38 2.31 0 4.61-.09 6.85-.26 24.9-1.93 35.53-16.44 44.07-28.1 5.72-7.81 10.67-14.56 18.55-16.19 13.21-2.74 28.29-7.21 46.1-13.69 10.46-3.8 17.74-13.02 19-24.07 2.75-23.98-.66-67.34-14.46-110.17-11.38-35.3-33.73-82.08-75.58-104.53-36.14-19.39-78.22-29.63-121.7-29.63l.02-.01Z" fill="#422720"/></g><path d="M398.04 99.85c-5.03-7.13-10.56-13.72-16.61-19.57m62.27 161.03c-3.52-36.53-13.72-86.1-35.55-125.32m7.17 82.06c-2.08-10.15-4.73-20.15-8.05-29.72m14.48 91.63c-.24-13.78-1.2-28.28-3.19-42.78" fill="none" stroke="#f4be59" stroke-width="5.99" stroke-linecap="round" stroke-miterlimit="10"/><path d="M66.61 224.1c.25 6.48 1.58 12.82 4.95 18.71 4.32 7.53 11.06 13.19 17.46 18.88 6.99 6.22 13.57 12.87 20.39 19.28 16.01 15.04 32.09 30.02 48.22 44.94 7.48 6.91 16.32 12.33 26.01 15.5.66.22 1.39.42 2.02.13.73-.33 1.05-1.24.95-2.04s-.51-1.51-.9-2.21c-4.65-8.29-7.23-17.66-8.65-27.01-1.42-9.3-1.84-19.95-1.24-31.64 1.09-21.21 5.25-42.14 8.29-57.42.76-3.84 1.48-7.47 2.04-10.53.63-3.46 1.58-7.56 2.69-12.31 3.82-16.4 9.06-38.85 6.79-60.4-2.65-25.19-14.84-42.45-37.28-52.78a19.975 19.975 0 0 0-8.34-1.84c-4.98 0-9.88 1.89-13.67 5.49-9.43 8.97-18.29 18.54-26.43 28.69-10.03 12.51-19 25.93-26.22 40.26-7.77 15.44-13.5 31.99-15.91 49.14-.8 5.68-1.42 11.48-1.2 17.17l.03-.01Z" fill="#c55023" stroke-width="0"/><path d="M131.39 120.08c-10.47 12.14-19.91 25.24-27.63 39.31-8.32 15.15-14.62 31.49-17.64 48.55-1 5.65-1.82 11.42-1.81 17.12M125.04 199c-3.82 11.35-6.46 23.09-7.49 35.04-.5 5.72-.8 11.54-.28 17.21m9.77-92.3c-2.3 3.9-4.47 7.86-6.51 11.9-7.77 15.44-13.5 31.99-15.91 49.14" fill="none" stroke="#ff953e" stroke-width="5.99" stroke-linecap="round" stroke-linejoin="round"/><path d="M212.22 211.62c2.88-13.4 7.06-32.6 7.11-52.32m-17.47 163.62c-5.54-29.29 1.19-65.11 5.9-88.89m15.58 58.84c.63-21.29 4.73-42.8 7.91-58.84" fill="none" stroke="#f4be59" stroke-width="5.99" stroke-linecap="round" stroke-miterlimit="10"/><path d="M299.9 149.27s-12.03-11.85-30.4-10c-13.36 1.35-23.24 8.33-27.53 12.97a10.085 10.085 0 0 1-6.66 3.22l-3.03.22" fill="none" stroke="#c55023" stroke-width="4.45" stroke-linecap="round" stroke-linejoin="round"/><path d="M303.65 138.49s-4.33-6.61-31.64-4.61-49.67 8.03-49.67 8.03 12.34-23.13 35.55-24.35 47.02 11.17 53.86 6.45c1.49 11.2-8.1 14.48-8.1 14.48Z" fill="#8e4638" stroke="#422720" stroke-width="2.99" stroke-linecap="round" stroke-linejoin="round"/><path d="M312.47 212.71s-2.57-2.91-5.8-1.31-7.14 5.73-5.52 15.9 13.28 12.04 13.28 12.04" fill="none" stroke="#422720" stroke-width="2.97" stroke-linecap="round" stroke-linejoin="round"/><path d="M400.28 151.22s-4.05 2.26-7.06 0" fill="none" stroke="#422720" stroke-width="2.99" stroke-linecap="round" stroke-linejoin="round"/><path d="M348.03 143.65s10.82-11.21 25.82-11.2c15 0 22.87 14.29 22.87 14.29" fill="none" stroke="#c55023" stroke-width="4.45" stroke-linecap="round" stroke-linejoin="round"/><path d="M401.7 135.79s-6.88-8.07-24.1-8.62c-17.23-.55-29.17 10.08-29.17 10.08s-5.89-8.18-4.5-13.89c7.72 1.59 59.5-22.39 57.77 12.43Z" fill="#8e4638" stroke="#422720" stroke-width="2.99" stroke-linecap="round" stroke-linejoin="round"/><path d="M377.86 265.1s-2.65 6.61-.87 12.88m-93.15-14.7s-2.86 4.76-8.68 8.22-6.59 8.07-6.59 8.07m76.15 43.94s5.55 6.41 2.86 15.28" fill="none" stroke="#422720" stroke-width="2.97" stroke-linecap="round" stroke-linejoin="round"/><path d="M290.01 229.11s-12.72 12.4-21.99 17.83c-9.27 5.42-13.21 12.53-12.07 17.9m108.51-42.21s17.59 14.07 19.27 28.57" fill="none" stroke="#c55023" stroke-width="4.45" stroke-linecap="round" stroke-linejoin="round"/><g stroke-width="0"><path d="M244.94 159.3s4.9 3.7 13.6 5.78c-2.59-2.28-4.34-5.54-4.61-9.25-.18-2.49.31-4.87 1.35-6.97-8.47 4.09-10.34 10.45-10.34 10.45v-.01Z" fill="#fffcfd"/><path d="M253.94 155.83c.27 3.71 2.02 6.98 4.61 9.25 2.59.61 5.51 1.08 8.73 1.26 2.39.14 4.98.11 7.66-.04h.02c4.01-2.65 6.55-7.33 6.17-12.47-.22-3-1.4-5.71-3.24-7.85-2.24-.37-4.65-.53-7.2-.47-6.68.2-11.69 1.56-15.42 3.35-1.04 2.1-1.53 4.49-1.35 6.97h.02Z" fill="#632d2a"/><path d="M274.97 166.29c13.14-.75 28.06-4.33 28.06-4.33s-8.14-13.32-25.13-16c1.84 2.14 3.02 4.85 3.24 7.85.38 5.15-2.16 9.83-6.17 12.47v.01Zm78.46-21.86c-7.72 6.07-8.5 14.28-8.5 14.28s6.53 1.97 16.18 2.39c-4.64-1.65-8.14-5.87-8.52-11.11-.15-1.97.16-3.85.84-5.57v.01Z" fill="#fffcfd"/><path d="M353.43 144.43c-.68 1.72-.98 3.6-.84 5.57.39 5.24 3.88 9.46 8.52 11.11h.02c2.63.1 5.48.1 8.5-.09h.01c5.22-1.89 8.76-7.07 8.33-12.89-.3-4.11-2.53-7.62-5.71-9.71-2.16-.09-4.49.09-6.97.65-5.14 1.14-8.99 3.1-11.88 5.37l.02-.01Z" fill="#632d2a"/><path d="M369.66 161c1.7-.1 3.48-.27 5.27-.51 16.7-2.23 18.28-9.28 18.28-9.28s-6.8-12.29-20.94-12.81c3.19 2.09 5.41 5.6 5.71 9.71.43 5.81-3.12 11-8.33 12.89h.01Z" fill="#fffcfd"/></g><g fill="none" stroke="#422720" stroke-width="2.97" stroke-linecap="round" stroke-linejoin="round"><path d="M274.94 166.3c-2.68.15-5.27.18-7.66.04-3.23-.18-6.15-.65-8.73-1.26-8.71-2.08-13.6-5.78-13.6-5.78s1.87-6.36 10.34-10.45c3.72-1.79 8.74-3.16 15.42-3.35 2.55-.07 4.96.1 7.2.47 16.99 2.67 25.13 16 25.13 16s-14.92 3.58-28.06 4.33"/><path d="M255.29 148.85c-1.04 2.1-1.53 4.49-1.35 6.97.27 3.71 2.02 6.98 4.61 9.25m102.59-3.97c2.63.1 5.48.1 8.5-.09m.02-.01c1.7-.1 3.48-.27 5.27-.51 16.7-2.23 18.28-9.28 18.28-9.28s-6.8-12.29-20.94-12.81c-2.16-.09-4.49.09-6.97.65-5.14 1.14-8.99 3.1-11.88 5.37-7.72 6.07-8.5 14.28-8.5 14.28s6.53 1.97 16.18 2.39"/><path d="M353.43 144.43c-.68 1.72-.98 3.6-.84 5.57.39 5.24 3.88 9.46 8.52 11.11h.02m8.51-.1h.01c5.22-1.89 8.76-7.07 8.33-12.89-.3-4.11-2.53-7.62-5.71-9.71m-97.33 27.89h.02c4.01-2.65 6.55-7.33 6.17-12.47-.22-3-1.4-5.71-3.24-7.85"/></g><path d="M385.85 167.28s-15.35 6.93-34.48-.33" fill="none" stroke="#c55023" stroke-width="4.45" stroke-linecap="round" stroke-linejoin="round"/><circle r="6.26" transform="translate(267.55 154.83)" fill="#422720" stroke-width="0"/><ellipse rx="3.7" ry="4.59" transform="rotate(-28.22 439.307 -471.17)" fill="#fff" stroke-width="0"/><circle r="2.6" transform="translate(261.98 157.29)" fill="#fff" stroke-width="0"/><circle r="5.74" transform="translate(365.29 149.06)" fill="#422720" stroke-width="0"/><circle r="2.6" transform="translate(359.72 151.51)" fill="#fff" stroke-width="0"/><ellipse rx="3.49" ry="4.59" transform="rotate(-28.85 470.445 -650.893)" fill="#fff" stroke-width="0"/><g stroke="#422720" stroke-linecap="round" stroke-linejoin="round"><path d="M315.98 235.3c-.09 3.07 16.92 1.71 16.92 1.71v0c-1.78-1.31-3.42-2.56-4.62-3.15-3.21-1.62-12.2-1.63-12.3 1.44Z" fill="#8e4638" stroke-width="2.99"/><path d="M332.9 237.01s-17.01 1.36-16.92-1.71c.1-3.07 9.09-3.06 12.3-1.44 1.2.6 2.84 1.84 4.62 3.14 2.94 2.18 6.24 4.54 8.45 4.48 3.55-.1 6.82-.16 10.47-4.48 3.64-4.33 10.22-8.19 11.5-12 1.3-3.81-2.77-8.56-2.77-8.56s-21.63-33.37-21.24-54.88" fill="none" stroke-width="2.97"/></g><path d="M374.79 271.15s-7.11 20.5-19.67 26.28c-12.55 5.77-53.13 11.45-78.41-24.87 65.48 19.85 98.08-1.41 98.08-1.41Z" fill="#c55023" stroke-width="0"/><path d="m277.83 272.03-.19.3c19.86 12.31 36.35 9.44 64.83 8.16 12.91-.6 21.22-3.31 26.48-6.13 0 0-10.98-7.97-17.48-6.49-6.51 1.46-9.38 5.38-9.38 5.38s-4.28-6.04-17.66-4.11c-12.69 1.84-35.46 9.31-46.61 2.9l.01-.01Z" fill="#c55023" stroke-width="0"/><g fill="none" stroke="#422720" stroke-width="2.97" stroke-linecap="round" stroke-linejoin="round"><path d="M368.96 274.34s-10.98-7.95-17.48-6.48c-6.51 1.46-9.38 5.38-9.38 5.38s-4.28-6.04-17.66-4.11c-12.69 1.84-35.46 9.31-46.61 2.9-.59-.34-1.15-.73-1.68-1.16"/><path d="M377.34 267.01s-1.77 3.78-8.38 7.34c-5.27 2.83-13.57 5.54-26.48 6.13-28.48 1.28-44.97 4.15-64.83-8.16-.48-.28-.97-.58-1.45-.9"/></g><path d="M362.24 290.93s-2.37 6.12-11.81 7.97-31.36 3.4-37.98-1.65" fill="none" stroke="#422720" stroke-width="2.97" stroke-linecap="round" stroke-linejoin="round"/><path d="M353.87 288.4s-13.7 5.97-34.69 1.24" fill="none" stroke="#f0976c" stroke-width="5.93" stroke-linecap="round" stroke-linejoin="round"/><path d="M244.94 159.3s-3.74 3.23-10.75 2.81" fill="none" stroke="#422720" stroke-width="2.97" stroke-linecap="round" stroke-linejoin="round"/><path d="M282.2 174.25s-20.87 7.87-35.69-5.65" fill="none" stroke="#c55023" stroke-width="4.45" stroke-linecap="round" stroke-linejoin="round"/><path d="M196.76 60.46c.03.07.06.14.1.2 6.92 14.39 16.51 11.04 20.38 8.65 1.58 11.46 21.57 8.06 28.78 4.98 6.37 7.21 21.6 6.77 28.78 1.11 8.92 7.62 33.06 8.58 39.3-3.32 3.13 5.66 7.83 14.52 24.06 12.54 16.24-1.98 20-15.15 13.58-19.73 8.78-3.57 8.46-16.71 1.29-25.2v0c-3.69-4.37-9.21-7.5-16.23-7.46-1.16-18.8-23.65-24.92-35.42-16.05-5.18-5.67-14.66-6.64-21.03-1.66-3.55-4.63-11.87-4.71-16.61-2.21-13.87-21.8-44.68-6.74-50.37 13.29-8.77-5.42-18.29-2.73-18.29 8.87-4.72-.78-14.15 2.35-13.31 10.76-5.14 10.91 7.26 17.68 14.99 15.24v-.01Z" fill="#9abe3e" stroke="#422720" stroke-width="3.19" stroke-linecap="round" stroke-linejoin="round"/><path d="m303.8 38.44 1.39-1.53c3.02-3.33 7.87-4.38 12.96-2.79 5.52 1.71 9.66 6.08 10.3 10.86l.27 1.97-1.44-1.37c-3.77-3.58-11.58-9.32-21.44-7.51l-2.03.37h-.01Zm-3.09 5.16c3.78.99 6.16 3.48 6.71 7.01l.29 1.87-1.44-1.24c-4.31-3.71-10.06-3.18-15.62-2.67-1.11.1-2.26.21-3.37.28l-1.55.09.96-1.22c2.84-3.62 9-5.43 14.02-4.12Zm-27.82 7.78c4.97.52 9.35 3.65 10.91 7.8l.6 1.6-1.55-.72c-6.85-3.17-11.91-5.09-19.52-3.04l-1.74.47.97-1.52c2.15-3.38 5.91-5.05 10.33-4.6v.01Zm-5.85-16.07c3.75-.16 6.68 1.62 8.04 4.88l.63 1.51-1.53-.59c-5.3-2.06-8.91-.61-13.48 1.23-1.1.44-2.23.9-3.46 1.34l-1.33.48.43-1.35c1.31-4.08 5.91-7.3 10.7-7.5Zm15.43-4.21c-2.53-.53-4.53-.95-8.1-1.22l-1.07-.08.51-.95c1.31-2.42 4.03-3.66 7.09-3.24 3.26.45 5.87 2.65 6.51 5.47l.23 1.03-1.04-.19c-1.64-.3-2.97-.57-4.14-.82h.01Zm-50.03 1.34-1.31.1.65-1.14c1.85-3.25 6.15-5.35 10.21-5.01 3.34.29 5.88 2.15 6.95 5.12l.5 1.37-1.38-.47c-4.38-1.5-7.23-1.08-10.83-.54-1.4.21-2.98.44-4.78.58l-.01-.01Zm2.4 21.2c2.92-.1 5.07 1.37 5.91 4.04l.37 1.17-1.2-.28c-2.96-.7-5.07-.01-7.52.78-1.45.47-3.08 1.01-5.05 1.28l-1.02.14.24-1c.87-3.64 4.97-6.02 8.26-6.14l.01.01Zm-29.06-8.02c2.76-.88 6.52-.41 8.24 2.7l.51.91-1.04.12c-5.15.59-6.99.9-11.52 3.5l-.92.53-.12-1.06c-.35-3.02 1.56-5.66 4.86-6.71l-.01.01Zm21.94-6.57c2.94-.23 5.95 1.26 7.32 3.62l.47.82-.92.21c-1.72.39-3.09.52-4.33.52-1.12 0-2.14-.11-3.22-.22-1.1-.12-2.36-.25-3.9-.29l-.99-.02.35-.92c.83-2.17 2.73-3.53 5.22-3.72Zm20.8-16.39-1.43.52.54-1.43c1.25-3.3 4.27-5.43 8.07-5.7 4.2-.3 8.27 1.75 10.12 5.1l.7 1.27-2.13-.37c-6.41-1.11-9.62-1.67-15.86.6l-.01.01Z" fill="#a9d928" stroke-width="0"/><path style="mix-blend-mode:multiply" d="M196.76 60.46s.07.12.1.2c6.92 14.39 16.51 11.04 20.38 8.65 1.58 11.46 21.57 8.06 28.78 4.98 6.37 7.21 21.6 6.77 28.78 1.11 8.92 7.62 33.06 8.58 39.3-3.32 3.13 5.66 7.83 14.52 24.06 12.54 16.24-1.98 20-15.15 13.58-19.73 8.78-3.57 8.46-16.71 1.29-25.2 1.99 7.74-1.53 18.41-4.82 23.8-1.36-5.11-7.19-8.94-11.91-11.89 2.45 4.23 5.03 10.49 4.65 15.6-7.56-9.4-29.57-8.97-44.17-1.65 1.24 2.29 3.42 4.48 5.73 5.58-1.67 2.9-29.35 4.05-36.1-8.39-.97 2.1-1.49 6.12 1.35 8.98-8.92.28-14.84-2.86-19.25-9.79-5.61 8.59-23.58 10.59-30.96-2.5-5.12 7.77-17.59 1.5-20.79 1.03Z" opacity=".26" fill="#92ab2c" stroke-width="0"/><g id="eHoh2uUWFm0255" stroke="#422720"><path d="M112.333 181.904s-65.05-36.01-94.08 6.68 33.93 96.62 33.93 96.62" fill="none" stroke-width="19.96" stroke-linecap="round" stroke-linejoin="round"/><g stroke-width="3.19" stroke-linecap="round" stroke-linejoin="round"><path d="M66.353 284.164s42.34-7.99 39.05 17.9c11.15 14.19 12.6 24.51 1.94 26.31-.67 10.86-4.94 14.37-15.34 12.43-3.17 9.06-13.24 9.94-18.5-2-5.26-11.93-32.18-7.24-28.99-37.25 20.62-2.32 21.84-17.4 21.84-17.4v.01Z" fill="#ff953e"/><path d="M105.413 302.064s-6.58-9.21-19.88-10.24m5.3 14.61s14.01 5.53 16.51 21.94m-26.68-9.93s13.65 6.46 11.34 22.37" fill="#e5994e"/></g><path d="M40.873 295.454c9.64-2.57 17.4-8.89 21.86-17.82 1.19-2.35 4.02-3.39 6.65-2.05q0 0 0 0c2.62 1.33 3.89 5.14 2.39 8.14-5.46 10.93-14.95 18.66-26.75 21.8-3.24.86-6.71-1.15-7.49-3.98q0 0 0 0c-.79-2.84.8-5.41 3.34-6.1v.01Z" fill="#fff" stroke-width="3.19" stroke-linecap="round" stroke-linejoin="round"/><path d="M40.873 295.454c9.64-2.57 17.4-8.89 21.86-17.82 1.19-2.35 4.02-3.39 6.65-2.05 2.62 1.33 3.89 5.14 2.39 8.14-5.46 10.93-14.95 18.66-26.75 21.8-3.24.86-6.71-1.15-7.49-3.98-.79-2.84.8-5.41 3.34-6.1v.01Z" fill="#9abe3e" stroke-width="2.99" stroke-miterlimit="10"/></g></g></g><script><![CDATA[
!function(t,n){"object"==typeof exports&&"undefined"!=typeof module?module.exports=n():"function"==typeof __SVGATOR_DEFINE__&&__SVGATOR_DEFINE__.amd?__SVGATOR_DEFINE__(n):((t="undefined"!=typeof globalThis?globalThis:t||self).__SVGATOR_PLAYER__=t.__SVGATOR_PLAYER__||{},t.__SVGATOR_PLAYER__["5c7f360c"]=n())}(this,(function(){"use strict";function t(t,n){var e=Object.keys(t);if(Object.getOwnPropertySymbols){var r=Object.getOwnPropertySymbols(t);n&&(r=r.filter((function(n){return Object.getOwnPropertyDescriptor(t,n).enumerable}))),e.push.apply(e,r)}return e}function n(n){for(var e=1;e<arguments.length;e++){var r=null!=arguments[e]?arguments[e]:{};e%2?t(Object(r),!0).forEach((function(t){u(n,t,r[t])})):Object.getOwnPropertyDescriptors?Object.defineProperties(n,Object.getOwnPropertyDescriptors(r)):t(Object(r)).forEach((function(t){Object.defineProperty(n,t,Object.getOwnPropertyDescriptor(r,t))}))}return n}function e(t){return(e="function"==typeof Symbol&&"symbol"==typeof Symbol.iterator?function(t){return typeof t}:function(t){return t&&"function"==typeof Symbol&&t.constructor===Symbol&&t!==Symbol.prototype?"symbol":typeof t})(t)}function r(t,n){if(!(t instanceof n))throw new TypeError("Cannot call a class as a function")}function i(t,n){for(var e=0;e<n.length;e++){var r=n[e];r.enumerable=r.enumerable||!1,r.configurable=!0,"value"in r&&(r.writable=!0),Object.defineProperty(t,r.key,r)}}function o(t,n,e){return n&&i(t.prototype,n),e&&i(t,e),t}function u(t,n,e){return n in t?Object.defineProperty(t,n,{value:e,enumerable:!0,configurable:!0,writable:!0}):t[n]=e,t}function a(t){return(a=Object.setPrototypeOf?Object.getPrototypeOf:function(t){return t.__proto__||Object.getPrototypeOf(t)})(t)}function l(t,n){return(l=Object.setPrototypeOf||function(t,n){return t.__proto__=n,t})(t,n)}function s(){if("undefined"==typeof Reflect||!Reflect.construct)return!1;if(Reflect.construct.sham)return!1;if("function"==typeof Proxy)return!0;try{return Boolean.prototype.valueOf.call(Reflect.construct(Boolean,[],(function(){}))),!0}catch(t){return!1}}function f(t,n,e){return(f=s()?Reflect.construct:function(t,n,e){var r=[null];r.push.apply(r,n);var i=new(Function.bind.apply(t,r));return e&&l(i,e.prototype),i}).apply(null,arguments)}function c(t,n){if(n&&("object"==typeof n||"function"==typeof n))return n;if(void 0!==n)throw new TypeError("Derived constructors may only return object or undefined");return function(t){if(void 0===t)throw new ReferenceError("this hasn't been initialised - super() hasn't been called");return t}(t)}function h(t,n,e){return(h="undefined"!=typeof Reflect&&Reflect.get?Reflect.get:function(t,n,e){var r=function(t,n){for(;!Object.prototype.hasOwnProperty.call(t,n)&&null!==(t=a(t)););return t}(t,n);if(r){var i=Object.getOwnPropertyDescriptor(r,n);return i.get?i.get.call(e):i.value}})(t,n,e||t)}function v(t){return function(t){if(Array.isArray(t))return y(t)}(t)||function(t){if("undefined"!=typeof Symbol&&null!=t[Symbol.iterator]||null!=t["@@iterator"])return Array.from(t)}(t)||function(t,n){if(!t)return;if("string"==typeof t)return y(t,n);var e=Object.prototype.toString.call(t).slice(8,-1);"Object"===e&&t.constructor&&(e=t.constructor.name);if("Map"===e||"Set"===e)return Array.from(t);if("Arguments"===e||/^(?:Ui|I)nt(?:8|16|32)(?:Clamped)?Array$/.test(e))return y(t,n)}(t)||function(){throw new TypeError("Invalid attempt to spread non-iterable instance.\nIn order to be iterable, non-array objects must have a [Symbol.iterator]() method.")}()}function y(t,n){(null==n||n>t.length)&&(n=t.length);for(var e=0,r=new Array(n);e<n;e++)r[e]=t[e];return r}function g(t,n,e){if(Number.isInteger(t))return t;var r=Math.pow(10,n);return Math[e]((+t+Number.EPSILON)*r)/r}Number.isInteger||(Number.isInteger=function(t){return"number"==typeof t&&isFinite(t)&&Math.floor(t)===t}),Number.EPSILON||(Number.EPSILON=2220446049250313e-31);var d=p(Math.pow(10,-6));function p(t){var n=arguments.length>1&&void 0!==arguments[1]?arguments[1]:6;return g(t,n,"round")}function m(t,n){var e=arguments.length>2&&void 0!==arguments[2]?arguments[2]:d;return Math.abs(t-n)<e}p(Math.pow(10,-2)),p(Math.pow(10,-4));var b=Math.PI/180;function w(t){return t}function A(t,n,e){var r=1-e;return 3*e*r*(t*r+n*e)+e*e*e}function _(){var t=arguments.length>0&&void 0!==arguments[0]?arguments[0]:0,n=arguments.length>1&&void 0!==arguments[1]?arguments[1]:0,e=arguments.length>2&&void 0!==arguments[2]?arguments[2]:1,r=arguments.length>3&&void 0!==arguments[3]?arguments[3]:1;return t<0||t>1||e<0||e>1?null:m(t,n)&&m(e,r)?w:function(i){if(i<=0)return t>0?i*n/t:0===n&&e>0?i*r/e:0;if(i>=1)return e<1?1+(i-1)*(r-1)/(e-1):1===e&&t<1?1+(i-1)*(n-1)/(t-1):1;for(var o,u=0,a=1;u<a;){var l=A(t,e,o=(u+a)/2);if(m(i,l))break;l<i?u=o:a=o}return A(n,r,o)}}function x(){return 1}function k(t){return 1===t?1:0}function S(){var t=arguments.length>0&&void 0!==arguments[0]?arguments[0]:1,n=arguments.length>1&&void 0!==arguments[1]?arguments[1]:0;if(1===t){if(0===n)return k;if(1===n)return x}var e=1/t;return function(t){return t>=1?1:(t+=n*e)-t%e}}var O=Math.sin,j=Math.cos,M=Math.acos,E=Math.asin,P=Math.tan,I=Math.atan2,R=Math.PI/180,F=180/Math.PI,N=Math.sqrt,T=function(){function t(){var n=arguments.length>0&&void 0!==arguments[0]?arguments[0]:1,e=arguments.length>1&&void 0!==arguments[1]?arguments[1]:0,i=arguments.length>2&&void 0!==arguments[2]?arguments[2]:0,o=arguments.length>3&&void 0!==arguments[3]?arguments[3]:1,u=arguments.length>4&&void 0!==arguments[4]?arguments[4]:0,a=arguments.length>5&&void 0!==arguments[5]?arguments[5]:0;r(this,t),this.m=[n,e,i,o,u,a],this.i=null,this.w=null,this.s=null}return o(t,[{key:"determinant",get:function(){var t=this.m;return t[0]*t[3]-t[1]*t[2]}},{key:"isIdentity",get:function(){if(null===this.i){var t=this.m;this.i=1===t[0]&&0===t[1]&&0===t[2]&&1===t[3]&&0===t[4]&&0===t[5]}return this.i}},{key:"point",value:function(t,n){var e=this.m;return{x:e[0]*t+e[2]*n+e[4],y:e[1]*t+e[3]*n+e[5]}}},{key:"translateSelf",value:function(){var t=arguments.length>0&&void 0!==arguments[0]?arguments[0]:0,n=arguments.length>1&&void 0!==arguments[1]?arguments[1]:0;if(!t&&!n)return this;var e=this.m;return e[4]+=e[0]*t+e[2]*n,e[5]+=e[1]*t+e[3]*n,this.w=this.s=this.i=null,this}},{key:"rotateSelf",value:function(){var t=arguments.length>0&&void 0!==arguments[0]?arguments[0]:0;if(t%=360){var n=O(t*=R),e=j(t),r=this.m,i=r[0],o=r[1];r[0]=i*e+r[2]*n,r[1]=o*e+r[3]*n,r[2]=r[2]*e-i*n,r[3]=r[3]*e-o*n,this.w=this.s=this.i=null}return this}},{key:"scaleSelf",value:function(){var t=arguments.length>0&&void 0!==arguments[0]?arguments[0]:1,n=arguments.length>1&&void 0!==arguments[1]?arguments[1]:1;if(1!==t||1!==n){var e=this.m;e[0]*=t,e[1]*=t,e[2]*=n,e[3]*=n,this.w=this.s=this.i=null}return this}},{key:"skewSelf",value:function(t,n){if(n%=360,(t%=360)||n){var e=this.m,r=e[0],i=e[1],o=e[2],u=e[3];t&&(t=P(t*R),e[2]+=r*t,e[3]+=i*t),n&&(n=P(n*R),e[0]+=o*n,e[1]+=u*n),this.w=this.s=this.i=null}return this}},{key:"resetSelf",value:function(){var t=arguments.length>0&&void 0!==arguments[0]?arguments[0]:1,n=arguments.length>1&&void 0!==arguments[1]?arguments[1]:0,e=arguments.length>2&&void 0!==arguments[2]?arguments[2]:0,r=arguments.length>3&&void 0!==arguments[3]?arguments[3]:1,i=arguments.length>4&&void 0!==arguments[4]?arguments[4]:0,o=arguments.length>5&&void 0!==arguments[5]?arguments[5]:0,u=this.m;return u[0]=t,u[1]=n,u[2]=e,u[3]=r,u[4]=i,u[5]=o,this.w=this.s=this.i=null,this}},{key:"recomposeSelf",value:function(){var t=arguments.length>0&&void 0!==arguments[0]?arguments[0]:null,n=arguments.length>1&&void 0!==arguments[1]?arguments[1]:null,e=arguments.length>2&&void 0!==arguments[2]?arguments[2]:null,r=arguments.length>3&&void 0!==arguments[3]?arguments[3]:null,i=arguments.length>4&&void 0!==arguments[4]?arguments[4]:null;return this.isIdentity||this.resetSelf(),t&&(t.x||t.y)&&this.translateSelf(t.x,t.y),n&&this.rotateSelf(n),e&&(e.x&&this.skewSelf(e.x,0),e.y&&this.skewSelf(0,e.y)),!r||1===r.x&&1===r.y||this.scaleSelf(r.x,r.y),i&&(i.x||i.y)&&this.translateSelf(i.x,i.y),this}},{key:"decompose",value:function(){var t=arguments.length>0&&void 0!==arguments[0]?arguments[0]:0,n=arguments.length>1&&void 0!==arguments[1]?arguments[1]:0,e=this.m,r=e[0]*e[0]+e[1]*e[1],i=[[e[0],e[1]],[e[2],e[3]]],o=N(r);if(0===o)return{origin:{x:p(e[4]),y:p(e[5])},translate:{x:p(t),y:p(n)},scale:{x:0,y:0},skew:{x:0,y:0},rotate:0};i[0][0]/=o,i[0][1]/=o;var u=e[0]*e[3]-e[1]*e[2]<0;u&&(o=-o);var a=i[0][0]*i[1][0]+i[0][1]*i[1][1];i[1][0]-=i[0][0]*a,i[1][1]-=i[0][1]*a;var l=N(i[1][0]*i[1][0]+i[1][1]*i[1][1]);if(0===l)return{origin:{x:p(e[4]),y:p(e[5])},translate:{x:p(t),y:p(n)},scale:{x:p(o),y:0},skew:{x:0,y:0},rotate:0};i[1][0]/=l,i[1][1]/=l,a/=l;var s=0;return i[1][1]<0?(s=M(i[1][1])*F,i[0][1]<0&&(s=360-s)):s=E(i[0][1])*F,u&&(s=-s),a=I(a,N(i[0][0]*i[0][0]+i[0][1]*i[0][1]))*F,u&&(a=-a),{origin:{x:p(e[4]),y:p(e[5])},translate:{x:p(t),y:p(n)},scale:{x:p(o),y:p(l)},skew:{x:p(a),y:0},rotate:p(s)}}},{key:"clone",value:function(){var t=this.m;return new this.constructor(t[0],t[1],t[2],t[3],t[4],t[5])}},{key:"toString",value:function(){var t=arguments.length>0&&void 0!==arguments[0]?arguments[0]:" ";if(null===this.s){var n=this.m.map((function(t){return p(t)}));1===n[0]&&0===n[1]&&0===n[2]&&1===n[3]?this.s="translate("+n[4]+t+n[5]+")":this.s="matrix("+n.join(t)+")"}return this.s}}],[{key:"create",value:function(t){return t?Array.isArray(t)?f(this,v(t)):t instanceof this?t.clone():(new this).recomposeSelf(t.origin,t.rotate,t.skew,t.scale,t.translate):new this}}]),t}();function q(t,n,e){return t>=.5?e:n}function B(t,n,e){return 0===t||n===e?n:t*(e-n)+n}function D(t,n,e){var r=B(t,n,e);return r<=0?0:r}function L(t,n,e){var r=B(t,n,e);return r<=0?0:r>=1?1:r}function C(t,n,e){return 0===t?n:1===t?e:{x:B(t,n.x,e.x),y:B(t,n.y,e.y)}}function V(t,n,e){var r=function(t,n,e){return Math.round(B(t,n,e))}(t,n,e);return r<=0?0:r>=255?255:r}function G(t,n,e){return 0===t?n:1===t?e:{r:V(t,n.r,e.r),g:V(t,n.g,e.g),b:V(t,n.b,e.b),a:B(t,null==n.a?1:n.a,null==e.a?1:e.a)}}function z(t,n){for(var e=[],r=0;r<t;r++)e.push(n);return e}function Y(t,n){if(--n<=0)return t;var e=(t=Object.assign([],t)).length;do{for(var r=0;r<e;r++)t.push(t[r])}while(--n>0);return t}var $,U=function(){function t(n){r(this,t),this.list=n,this.length=n.length}return o(t,[{key:"setAttribute",value:function(t,n){for(var e=this.list,r=0;r<this.length;r++)e[r].setAttribute(t,n)}},{key:"removeAttribute",value:function(t){for(var n=this.list,e=0;e<this.length;e++)n[e].removeAttribute(t)}},{key:"style",value:function(t,n){for(var e=this.list,r=0;r<this.length;r++)e[r].style[t]=n}}]),t}(),Q=/-./g,H=function(t,n){return n.toUpperCase()};function J(t){return"function"==typeof t?t:q}function Z(t){return t?"function"==typeof t?t:Array.isArray(t)?function(t){var n=arguments.length>1&&void 0!==arguments[1]?arguments[1]:w;if(!Array.isArray(t))return n;switch(t.length){case 1:return S(t[0])||n;case 2:return S(t[0],t[1])||n;case 4:return _(t[0],t[1],t[2],t[3])||n}return n}(t,null):function(t,n){var e=arguments.length>2&&void 0!==arguments[2]?arguments[2]:w;switch(t){case"linear":return w;case"steps":return S(n.steps||1,n.jump||0)||e;case"bezier":case"cubic-bezier":return _(n.x1||0,n.y1||0,n.x2||0,n.y2||0)||e}return e}(t.type,t.value,null):null}function K(t,n,e){var r=arguments.length>3&&void 0!==arguments[3]&&arguments[3],i=n.length-1;if(t<=n[0].t)return r?[0,0,n[0].v]:n[0].v;if(t>=n[i].t)return r?[i,1,n[i].v]:n[i].v;var o,u=n[0],a=null;for(o=1;o<=i;o++){if(!(t>n[o].t)){a=n[o];break}u=n[o]}return null==a?r?[i,1,n[i].v]:n[i].v:u.t===a.t?r?[o,1,a.v]:a.v:(t=(t-u.t)/(a.t-u.t),u.e&&(t=u.e(t)),r?[o,t,e(t,u.v,a.v)]:e(t,u.v,a.v))}function W(t,n){var e=arguments.length>2&&void 0!==arguments[2]?arguments[2]:null;return t&&t.length?"function"!=typeof n?null:("function"!=typeof e&&(e=null),function(r){var i=K(r,t,n);return null!=i&&e&&(i=e(i)),i}):null}function X(t,n){return t.t-n.t}function tt(t,n,r,i,o){var u,a="@"===r[0],l="#"===r[0],s=$[r],f=q;switch(a?(u=r.substr(1),r=u.replace(Q,H)):l&&(r=r.substr(1)),e(s)){case"function":if(f=s(i,o,K,Z,r,a,n,t),l)return f;break;case"string":f=W(i,J(s));break;case"object":if((f=W(i,J(s.i),s.f))&&"function"==typeof s.u)return s.u(n,f,r,a,t)}return f?function(t,n,e){if(arguments.length>3&&void 0!==arguments[3]&&arguments[3])return t instanceof U?function(r){return t.style(n,e(r))}:function(r){return t.style[n]=e(r)};if(Array.isArray(n)){var r=n.length;return function(i){var o=e(i);if(null==o)for(var u=0;u<r;u++)t[u].removeAttribute(n);else for(var a=0;a<r;a++)t[a].setAttribute(n,o)}}return function(r){var i=e(r);null==i?t.removeAttribute(n):t.setAttribute(n,i)}}(n,r,f,a):null}function nt(t,n,r,i){if(!i||"object"!==e(i))return null;var o=null,u=null;return Array.isArray(i)?u=function(t){if(!t||!t.length)return null;for(var n=0;n<t.length;n++)t[n].e&&(t[n].e=Z(t[n].e));return t.sort(X)}(i):(u=i.keys,o=i.data||null),u?tt(t,n,r,u,o):null}function et(t,n,e){if(!e)return null;var r=[];for(var i in e)if(e.hasOwnProperty(i)){var o=nt(t,n,i,e[i]);o&&r.push(o)}return r.length?r:null}function rt(t,n){if(!n.settings.duration||n.settings.duration<0)return null;var e,r,i,o,u,a=function(t,n){if(!n)return null;var e=[];if(Array.isArray(n))for(var r=n.length,i=0;i<r;i++){var o=n[i];if(2===o.length){var u=null;if("string"==typeof o[0])u=t.getElementById(o[0]);else if(Array.isArray(o[0])){u=[];for(var a=0;a<o[0].length;a++)if("string"==typeof o[0][a]){var l=t.getElementById(o[0][a]);l&&u.push(l)}u=u.length?1===u.length?u[0]:new U(u):null}if(u){var s=et(t,u,o[1]);s&&(e=e.concat(s))}}}else for(var f in n)if(n.hasOwnProperty(f)){var c=t.getElementById(f);if(c){var h=et(t,c,n[f]);h&&(e=e.concat(h))}}return e.length?e:null}(t,n.elements);return a?(e=a,r=n.settings,i=r.duration,o=e.length,u=null,function(t,n){var a=r.iterations||1/0,l=(r.alternate&&a%2==0)^r.direction>0?i:0,s=t%i,f=1+(t-s)/i;n*=r.direction,r.alternate&&f%2==0&&(n=-n);var c=!1;if(f>a)s=l,c=!0,-1===r.fill&&(s=r.direction>0?0:i);else if(n<0&&(s=i-s),s===u)return!1;u=s;for(var h=0;h<o;h++)e[h](s);return c}):null}function it(t,n){for(var e=n.querySelectorAll("svg"),r=0;r<e.length;r++)if(e[r].id===t.root&&!e[r].svgatorAnimation)return e[r].svgatorAnimation=!0,e[r];return null}function ot(t){var n=function(t){return t.shadowRoot};return document?Array.from(t.querySelectorAll(":not("+["a","area","audio","br","canvas","circle","datalist","embed","g","head","hr","iframe","img","input","link","object","path","polygon","rect","script","source","style","svg","title","track","video"].join()+")")).filter(n).map(n):[]}function ut(t){var n=arguments.length>1&&void 0!==arguments[1]?arguments[1]:document,e=arguments.length>2&&void 0!==arguments[2]?arguments[2]:0,r=it(t,n);if(r)return r;if(e>=20)return null;for(var i=ot(n),o=0;o<i.length;o++){var u=ut(t,i[o],e+1);if(u)return u}return null}function at(t,n){if($=n,!t||!t.root||!Array.isArray(t.animations))return null;var e=ut(t);if(!e)return null;var r=t.animations.map((function(t){return rt(e,t)})).filter((function(t){return!!t}));return r.length?{svg:e,animations:r,animationSettings:t.animationSettings,options:t.options||void 0}:null}function lt(t){var n=arguments.length>1&&void 0!==arguments[1]?arguments[1]:null,e=arguments.length>2&&void 0!==arguments[2]?arguments[2]:Number,r=arguments.length>3&&void 0!==arguments[3]?arguments[3]:"undefined"!=typeof BigInt&&BigInt,i="0x"+(t.replace(/[^0-9a-fA-F]+/g,"")||27);return n&&r&&e.isSafeInteger&&!e.isSafeInteger(+i)?e(r(i))%n+n:+i}function st(t,n,e){return!t||!e||n>t.length?t:t.substring(0,n)+st(t.substring(n+1),e,e)}function ft(t){var n=arguments.length>1&&void 0!==arguments[1]?arguments[1]:27;return!t||t%n?t%n:[0,1].includes(n)?n:ft(t/n,n)}function ct(t,n,e){if(t&&t.length){var r=lt(e),i=ft(r)+5,o=st(t,ft(r,5),i);return o=o.replace(/\x7c$/g,"==").replace(/\x2f$/g,"="),o=function(t,n,e){var r=+("0x"+t.substring(0,4));t=t.substring(4);for(var i=lt(n,r)%r+e%27,o=[],u=0;u<t.length;u+=2)if("|"!==t[u]){var a=+("0x"+t[u]+t[u+1])-i;o.push(a)}else{var l=+("0x"+t.substring(u+1,u+1+4))-i;u+=3,o.push(l)}return String.fromCharCode.apply(String,o)}(o=(o=atob(o)).replace(/[\x41-\x5A]/g,""),n,r),o=JSON.parse(o)}}var ht=[{key:"alternate",def:!1},{key:"fill",def:1},{key:"iterations",def:0},{key:"direction",def:1},{key:"speed",def:1},{key:"fps",def:100}],vt=function(){function t(n,e){var i=this,o=arguments.length>2&&void 0!==arguments[2]?arguments[2]:null;r(this,t),this._id=0,this._running=!1,this._rollingBack=!1,this._animations=n,this._settings=e,(!o||o<"2022-05-02")&&delete this._settings.speed,ht.forEach((function(t){i._settings[t.key]=i._settings[t.key]||t.def})),this.duration=e.duration,this.offset=e.offset||0,this.rollbackStartOffset=0}return o(t,[{key:"alternate",get:function(){return this._settings.alternate}},{key:"fill",get:function(){return this._settings.fill}},{key:"iterations",get:function(){return this._settings.iterations}},{key:"direction",get:function(){return this._settings.direction}},{key:"speed",get:function(){return this._settings.speed}},{key:"fps",get:function(){return this._settings.fps}},{key:"maxFiniteDuration",get:function(){return this.iterations>0?this.iterations*this.duration:this.duration}},{key:"_apply",value:function(t){for(var n=arguments.length>1&&void 0!==arguments[1]?arguments[1]:{},e=this._animations,r=e.length,i=0,o=0;o<r;o++)n[o]?i++:(n[o]=e[o](t,1),n[o]&&i++);return i}},{key:"_rollback",value:function(t){var n=this,e=1/0,r=null;this.rollbackStartOffset=t,this._rollingBack=!0,this._running=!0;this._id=window.requestAnimationFrame((function i(o){if(n._rollingBack){null==r&&(r=o);var u=Math.round(t-(o-r)*n.speed);if(u>n.duration&&e!==1/0){var a=!!n.alternate&&u/n.duration%2>1,l=u%n.duration;u=(l+=a?n.duration:0)||n.duration}var s=(n.fps?1e3/n.fps:0)*n.speed,f=Math.max(0,u);f<=e-s&&(n.offset=f,e=f,n._apply(f));var c=n.iterations>0&&-1===n.fill&&u>=n.maxFiniteDuration;(u<=0||n.offset<u||c)&&n.stop(),n._id=window.requestAnimationFrame(i)}}))}},{key:"_start",value:function(){var t=this,n=arguments.length>0&&void 0!==arguments[0]?arguments[0]:0,e=-1/0,r=null,i={};this._running=!0;var o=function o(u){null==r&&(r=u);var a=Math.round((u-r)*t.speed+n),l=(t.fps?1e3/t.fps:0)*t.speed;if(a>=e+l&&!t._rollingBack&&(t.offset=a,e=a,t._apply(a,i)===t._animations.length))return void t.pause(!0);t._id=window.requestAnimationFrame(o)};this._id=window.requestAnimationFrame(o)}},{key:"_pause",value:function(){this._id&&window.cancelAnimationFrame(this._id),this._running=!1}},{key:"play",value:function(){if(!this._running)return this._rollingBack?this._rollback(this.offset):this._start(this.offset)}},{key:"stop",value:function(){this._pause(),this.offset=0,this.rollbackStartOffset=0,this._rollingBack=!1,this._apply(0)}},{key:"reachedToEnd",value:function(){return this.iterations>0&&this.offset>=this.iterations*this.duration}},{key:"restart",value:function(){var t=arguments.length>0&&void 0!==arguments[0]&&arguments[0];this.stop(t),this.play(t)}},{key:"pause",value:function(){this._pause()}},{key:"reverse",value:function(){this.direction=-this.direction}}],[{key:"build",value:function(t,n){delete t.animationSettings,t.options=ct(t.options,t.root,"5c7f360c"),t.animations.map((function(n){n.settings=ct(n.s,t.root,"5c7f360c"),delete n.s,t.animationSettings||(t.animationSettings=n.settings)}));var e=t.version;if(!(t=at(t,n)))return null;var r=t.options||{},i=new this(t.animations,t.animationSettings,e);return{el:t.svg,options:r,player:i}}},{key:"push",value:function(t){return this.build(t)}},{key:"init",value:function(){var t=this,n=window.__SVGATOR_PLAYER__&&window.__SVGATOR_PLAYER__["5c7f360c"];Array.isArray(n)&&n.splice(0).forEach((function(n){return t.build(n)}))}}]),t}();function yt(t){return p(t)+""}function gt(t){var n=arguments.length>1&&void 0!==arguments[1]?arguments[1]:" ";return t&&t.length?t.map(yt).join(n):""}function dt(t){if(!t)return"transparent";if(null==t.a||t.a>=1){var n=function(t){return 1===(t=parseInt(t).toString(16)).length?"0"+t:t},e=function(t){return t.charAt(0)===t.charAt(1)},r=n(t.r),i=n(t.g),o=n(t.b);return e(r)&&e(i)&&e(o)&&(r=r.charAt(0),i=i.charAt(0),o=o.charAt(0)),"#"+r+i+o}return"rgba("+t.r+","+t.g+","+t.b+","+t.a+")"}function pt(t){return t?"url(#"+t+")":"none"}!function(){for(var t=0,n=["ms","moz","webkit","o"],e=0;e<n.length&&!window.requestAnimationFrame;++e)window.requestAnimationFrame=window[n[e]+"RequestAnimationFrame"],window.cancelAnimationFrame=window[n[e]+"CancelAnimationFrame"]||window[n[e]+"CancelRequestAnimationFrame"];window.requestAnimationFrame||(window.requestAnimationFrame=function(n){var e=Date.now(),r=Math.max(0,16-(e-t)),i=window.setTimeout((function(){n(e+r)}),r);return t=e+r,i},window.cancelAnimationFrame=window.clearTimeout)}();var mt={f:null,i:function(t,n,e){return 0===t?n:1===t?e:{x:D(t,n.x,e.x),y:D(t,n.y,e.y)}},u:function(t,n){return function(e){var r=n(e);t.setAttribute("rx",yt(r.x)),t.setAttribute("ry",yt(r.y))}}},bt={f:null,i:function(t,n,e){return 0===t?n:1===t?e:{width:D(t,n.width,e.width),height:D(t,n.height,e.height)}},u:function(t,n){return function(e){var r=n(e);t.setAttribute("width",yt(r.width)),t.setAttribute("height",yt(r.height))}}};Object.freeze({M:2,L:2,Z:0,H:1,V:1,C:6,Q:4,T:2,S:4,A:7});var wt={},At=null;function _t(t){var n=function(){if(At)return At;if("object"!==("undefined"==typeof document?"undefined":e(document))||!document.createElementNS)return{};var t=document.createElementNS("http://www.w3.org/2000/svg","svg");return t&&t.style?(t.style.position="absolute",t.style.opacity="0.01",t.style.zIndex="-9999",t.style.left="-9999px",t.style.width="1px",t.style.height="1px",At={svg:t}):{}}().svg;if(!n)return function(t){return null};var r=document.createElementNS(n.namespaceURI,"path");r.setAttributeNS(null,"d",t),r.setAttributeNS(null,"fill","none"),r.setAttributeNS(null,"stroke","none"),n.appendChild(r);var i=r.getTotalLength();return function(t){var n=r.getPointAtLength(i*t);return{x:n.x,y:n.y}}}function xt(t){return wt[t]?wt[t]:wt[t]=_t(t)}function kt(t,n,e,r){if(!t||!r)return!1;var i=["M",t.x,t.y];if(n&&e&&(i.push("C"),i.push(n.x),i.push(n.y),i.push(e.x),i.push(e.y)),n?!e:e){var o=n||e;i.push("Q"),i.push(o.x),i.push(o.y)}return n||e||i.push("L"),i.push(r.x),i.push(r.y),i.join(" ")}function St(t,n,e,r){var i=arguments.length>4&&void 0!==arguments[4]?arguments[4]:1,o=kt(t,n,e,r),u=xt(o);try{return u(i)}catch(t){return null}}function Ot(t,n,e){return t+(n-t)*e}function jt(t,n,e){var r=arguments.length>3&&void 0!==arguments[3]&&arguments[3],i={x:Ot(t.x,n.x,e),y:Ot(t.y,n.y,e)};return r&&(i.a=Mt(t,n)),i}function Mt(t,n){return Math.atan2(n.y-t.y,n.x-t.x)}function Et(t,n,e,r){var i=1-r;return i*i*t+2*i*r*n+r*r*e}function Pt(t,n,e,r){return 2*(1-r)*(n-t)+2*r*(e-n)}function It(t,n,e,r){var i=arguments.length>4&&void 0!==arguments[4]&&arguments[4],o=St(t,n,null,e,r);return o||(o={x:Et(t.x,n.x,e.x,r),y:Et(t.y,n.y,e.y,r)}),i&&(o.a=Rt(t,n,e,r)),o}function Rt(t,n,e,r){return Math.atan2(Pt(t.y,n.y,e.y,r),Pt(t.x,n.x,e.x,r))}function Ft(t,n,e,r,i){var o=i*i;return i*o*(r-t+3*(n-e))+3*o*(t+e-2*n)+3*i*(n-t)+t}function Nt(t,n,e,r,i){var o=1-i;return 3*(o*o*(n-t)+2*o*i*(e-n)+i*i*(r-e))}function Tt(t,n,e,r,i){var o=arguments.length>5&&void 0!==arguments[5]&&arguments[5],u=St(t,n,e,r,i);return u||(u={x:Ft(t.x,n.x,e.x,r.x,i),y:Ft(t.y,n.y,e.y,r.y,i)}),o&&(u.a=qt(t,n,e,r,i)),u}function qt(t,n,e,r,i){return Math.atan2(Nt(t.y,n.y,e.y,r.y,i),Nt(t.x,n.x,e.x,r.x,i))}function Bt(t,n,e){var r=arguments.length>3&&void 0!==arguments[3]&&arguments[3];if(Lt(n)){if(Ct(e))return It(n,e.start,e,t,r)}else if(Lt(e)){if(Vt(n))return It(n,n.end,e,t,r)}else{if(Vt(n))return Ct(e)?Tt(n,n.end,e.start,e,t,r):It(n,n.end,e,t,r);if(Ct(e))return It(n,e.start,e,t,r)}return jt(n,e,t,r)}function Dt(t,n,e){var r=Bt(t,n,e,!0);return r.a=function(t){return arguments.length>1&&void 0!==arguments[1]&&arguments[1]?t+Math.PI:t}(r.a)/b,r}function Lt(t){return!t.type||"corner"===t.type}function Ct(t){return null!=t.start&&!Lt(t)}function Vt(t){return null!=t.end&&!Lt(t)}var Gt=new T;var zt={f:yt,i:B},Yt={f:yt,i:L};function $t(t,n,e){return t.map((function(t){return function(t,n,e){var r=t.v;if(!r||"g"!==r.t||r.s||!r.v||!r.r)return t;var i=e.getElementById(r.r),o=i&&i.querySelectorAll("stop")||[];return r.s=r.v.map((function(t,n){var e=o[n]&&o[n].getAttribute("offset");return{c:t,o:e=p(parseInt(e)/100)}})),delete r.v,t}(t,0,e)}))}var Ut={gt:"gradientTransform",c:{x:"cx",y:"cy"},rd:"r",f:{x:"x1",y:"y1"},to:{x:"x2",y:"y2"}};function Qt(t,n,r,i,o,u,a,l){return $t(t,0,l),n=function(t,n,e){for(var r,i,o,u=t.length-1,a={},l=0;l<=u;l++)(r=t[l]).e&&(r.e=n(r.e)),r.v&&"g"===(i=r.v).t&&i.r&&(o=e.getElementById(i.r))&&(a[i.r]={e:o,s:o.querySelectorAll("stop")});return a}(t,i,l),function(i){var o=r(i,t,Ht);if(!o)return"none";if("c"===o.t)return dt(o.v);if("g"===o.t){if(!n[o.r])return pt(o.r);var u=n[o.r];return function(t,n){for(var e=t.s,r=e.length;r<n.length;r++){var i=e[e.length-1].cloneNode();i.id=Kt(i.id),t.e.appendChild(i),e=t.s=t.e.querySelectorAll("stop")}for(var o=0,u=e.length,a=n.length-1;o<u;o++)e[o].setAttribute("stop-color",dt(n[Math.min(o,a)].c)),e[o].setAttribute("offset",n[Math.min(o,a)].o)}(u,o.s),Object.keys(Ut).forEach((function(t){if(void 0!==o[t])if("object"!==e(Ut[t])){var n,r="gt"===t?(n=o[t],Array.isArray(n)?"matrix("+n.join(" ")+")":""):o[t],i=Ut[t];u.e.setAttribute(i,r)}else Object.keys(Ut[t]).forEach((function(n){if(void 0!==o[t][n]){var e=o[t][n],r=Ut[t][n];u.e.setAttribute(r,e)}}))})),pt(o.r)}return"none"}}function Ht(t,e,r){if(0===t)return e;if(1===t)return r;if(e&&r){var i=e.t;if(i===r.t)switch(e.t){case"c":return{t:i,v:G(t,e.v,r.v)};case"g":if(e.r===r.r){var o={t:i,s:Jt(t,e.s,r.s),r:e.r};return e.gt&&r.gt&&(o.gt=function(t,n,e){var r=n.length;if(r!==e.length)return q(t,n,e);for(var i=new Array(r),o=0;o<r;o++)i[o]=B(t,n[o],e[o]);return i}(t,e.gt,r.gt)),e.c?(o.c=C(t,e.c,r.c),o.rd=D(t,e.rd,r.rd)):e.f&&(o.f=C(t,e.f,r.f),o.to=C(t,e.to,r.to)),o}}if("c"===e.t&&"g"===r.t||"c"===r.t&&"g"===e.t){var u="c"===e.t?e:r,a="g"===e.t?n({},e):n({},r),l=a.s.map((function(t){return{c:u.v,o:t.o}}));return a.s="c"===e.t?Jt(t,l,a.s):Jt(t,a.s,l),a}}return q(t,e,r)}function Jt(t,n,e){if(n.length===e.length)return n.map((function(n,r){return Zt(t,n,e[r])}));for(var r=Math.max(n.length,e.length),i=[],o=0;o<r;o++){var u=Zt(t,n[Math.min(o,n.length-1)],e[Math.min(o,e.length-1)]);i.push(u)}return i}function Zt(t,n,e){return{o:L(t,n.o,e.o||0),c:G(t,n.c,e.c||{})}}function Kt(t){return t.replace(/-fill-([0-9]+)$/,(function(t,n){return"-fill-"+(+n+1)}))}var Wt={fill:Qt,"fill-opacity":Yt,stroke:Qt,"stroke-opacity":Yt,"stroke-width":zt,"stroke-dashoffset":{f:yt,i:B},"stroke-dasharray":{f:function(t){var n=arguments.length>1&&void 0!==arguments[1]?arguments[1]:" ";return t&&t.length>0&&(t=t.map((function(t){return p(t,4)}))),gt(t,n)},i:function(t,n,e){var r,i,o,u=n.length,a=e.length;if(u!==a)if(0===u)n=z(u=a,0);else if(0===a)a=u,e=z(u,0);else{var l=(o=(r=u)*(i=a)/function(t,n){for(var e;n;)e=n,n=t%n,t=e;return t||1}(r,i))<0?-o:o;n=Y(n,Math.floor(l/u)),e=Y(e,Math.floor(l/a)),u=a=l}for(var s=[],f=0;f<u;f++)s.push(p(D(t,n[f],e[f])));return s}},opacity:Yt,transform:function(t,n,r,i){if(!(t=function(t,n){if(!t||"object"!==e(t))return null;var r=!1;for(var i in t)t.hasOwnProperty(i)&&(t[i]&&t[i].length?(t[i].forEach((function(t){t.e&&(t.e=n(t.e))})),r=!0):delete t[i]);return r?t:null}(t,i)))return null;var o=function(e,i,o){var u=arguments.length>3&&void 0!==arguments[3]?arguments[3]:null;return t[e]?r(i,t[e],o):n&&n[e]?n[e]:u};return n&&n.a&&t.o?function(n){var e=r(n,t.o,Dt);return Gt.recomposeSelf(e,o("r",n,B,0)+e.a,o("k",n,C),o("s",n,C),o("t",n,C)).toString()}:function(t){return Gt.recomposeSelf(o("o",t,Bt,null),o("r",t,B,0),o("k",t,C),o("s",t,C),o("t",t,C)).toString()}},r:zt,"#size":bt,"#radius":mt,_:function(t,n){if(Array.isArray(t))for(var e=0;e<t.length;e++)this[t[e]]=n;else this[t]=n}},Xt=function(t){!function(t,n){if("function"!=typeof n&&null!==n)throw new TypeError("Super expression must either be null or a function");t.prototype=Object.create(n&&n.prototype,{constructor:{value:t,writable:!0,configurable:!0}}),n&&l(t,n)}(u,t);var n,e,i=(n=u,e=s(),function(){var t,r=a(n);if(e){var i=a(this).constructor;t=Reflect.construct(r,arguments,i)}else t=r.apply(this,arguments);return c(this,t)});function u(){return r(this,u),i.apply(this,arguments)}return o(u,null,[{key:"build",value:function(t){var n=h(a(u),"build",this).call(this,t,Wt);if(!n)return null;n.el,n.options,function(t,n,e){t.play()}(n.player)}}]),u}(vt);return Xt.init(),Xt}));
(function(s,i,o,w,d,a,b){w[o]=w[o]||{};w[o][s]=w[o][s]||[];w[o][s].push(i);})('5c7f360c',{"root":"eHoh2uUWFm01","version":"2022-05-04","animations":[{"elements":{"eHoh2uUWFm07":{"transform":{"data":{"o":{"x":158.645766,"y":381.48,"type":"corner"},"t":{"x":-158.645753,"y":-381.48}},"keys":{"r":[{"t":0,"v":0},{"t":1500,"v":11.734797},{"t":3000,"v":0}]}}},"eHoh2uUWFm016":{"transform":{"data":{"o":{"x":362.24,"y":366.252989,"type":"corner"},"t":{"x":-362.648122,"y":-366.252975}},"keys":{"r":[{"t":0,"v":0},{"t":1500,"v":-4.418859},{"t":3000,"v":0}]}}},"eHoh2uUWFm031":{"transform":{"data":{"o":{"x":283.290829,"y":221.014245,"type":"corner"},"t":{"x":-283.290829,"y":-221.014245}},"keys":{"r":[{"t":0,"v":0},{"t":1500,"v":5.206921},{"t":3000,"v":0}]}}},"eHoh2uUWFm032":{"transform":{"data":{"o":{"x":455.696274,"y":235.04702,"type":"corner"},"t":{"x":-455.696274,"y":-235.047014}},"keys":{"r":[{"t":0,"v":0},{"t":1500,"v":-18.206547},{"t":3000,"v":0}]}}},"eHoh2uUWFm0255":{"transform":{"data":{"o":{"x":112.333378,"y":181.574826,"type":"corner"},"t":{"x":-111.709999,"y":-182.5611}},"keys":{"r":[{"t":0,"v":0},{"t":1500,"v":-19.025394},{"t":3000,"v":0}]}}}},"s":"MWDA1ZDg5SzMwNzI4MzLgwNmY4Mjc3N2Q3Y0cOzMDQ4NDEzZTNlM2UzGYTMwNzI3NzgwNzM3METgyNzc3ZEQ3YzMwNDUgzZjNhMzA3NzgyNzNNBODA2ZjgyNzdCN2Q3QYzgxMzA0ODNlM2EzMGDc0Nzc3YTdhMzA0ODSNmRjNhMzA2ZjdhODIB3MzgwN2NDNmY4MjczWVzMwNDhQNzQ2ZjdhOSDE3MzNhMzA4MTdlNzRM3MzcyMzA0OEMzZjNOhMzA3NFc3ZTgxMzA0PODNmM2UzZThi"}],"options":"MGDAxMDg4MmY4MDgxNmBU3ZjgxMmY0NzJmNzkI3YzZlNzEyZjhh"},'__SVGATOR_PLAYER__',window,document)
]]></script></svg>