<svg xmlns="http://www.w3.org/2000/svg" id="eI47ETgdP9G1" shape-rendering="geometricPrecision" text-rendering="geometricPrecision" viewBox="0 0 1075.89 700"><g style="isolation:isolate"><path fill="rgba(157,61,36,0.4)" stroke-width="0" d="M537.93 700c-284.49 0-515.11-71.51-515.11-159.73s230.62-159.73 515.11-159.73 515.11 71.52 515.11 159.73S822.42 700 537.93 700Z"/><path fill="#fff" stroke-width="0" d="M537.95 671.62C240.85 671.62 0 597.42 0 505.88s240.85-165.74 537.95-165.74 537.95 74.21 537.95 165.74-240.85 165.74-537.95 165.74Z"/><path fill="#ffdcaa" stroke-width="0" d="M537.95 630c-222.5 0-402.87-55.57-402.87-124.12s180.37-124.12 402.87-124.12 402.87 55.57 402.87 124.12S760.45 630 537.95 630Z" opacity=".6"/><path fill="#ce4e41" stroke-width="0" d="M317.66 419.75c-13.97 35.31-.97 111.56 15.04 127.45 16.02 15.89 387.13 39.3 440.11 10.58 52.95-28.72-49.15-132.32-89.11-138.06-39.95-5.71-366.04 0-366.04 0v.03Z"/><g mask="url(#eI47ETgdP9G17)" transform="translate(0 6.25)"><path fill="#c33420" stroke-width="0" d="M362.48 486.43c-16.42-1.28-33.01-2.55-48.79-7.36-15.75-4.8-30.86-13.5-40.39-26.94-1.41 42.7 15.24 87.17 49.16 113.1 18.94 14.48 41.97 22.54 64.83 29.29 52.21 15.42 105.83 25.33 159.28 35.68 68.73 13.34 141.89 27.14 206.99 1.44 14.27-5.64 28.24-13.47 37.37-25.8 9.84-13.27 13.06-31.07 9.13-47.16-3.89-16.06-14.67-30.2-28.74-38.87-20.65-12.7-46.8-15.32-69.53-22.94-22.02-7.39-41.77-4.13-64.73-2.59-58.72 3.96-117.68 2.45-176.41-.97-32.74-1.91-65.47-4.43-98.18-6.95v.07h.01Z"/><mask id="eI47ETgdP9G17" width="400%" height="400%" x="-150%" y="-150%" mask-type="luminance"><path fill="#fff" stroke-width="0" d="M317.66 413.5c-13.97 35.31-.97 111.56 15.04 127.45 16.02 15.89 387.13 39.3 440.11 10.58 52.95-28.72-49.15-132.32-89.11-138.06-39.95-5.71-366.04 0-366.04 0v.03Z"/></mask></g><path fill="#db5e58" stroke-width="0" d="M835.97 411.05c-23.2-18.04-354.22-14.04-388.23-13.07-34.01 1.01-121.11 9.44-130.07 21.73s345.02 1.01 366.04 0 152.26-8.7 152.26-8.7v.04Z"/><path fill="#ed5851" stroke-width="0" d="M835.97 411.05c-23.4-12.8-144.17.6-152.27 8.7-8.09 8.1-.3 119.32 15.85 138.16 16.15 18.85 118.89 4.7 136.38-14.14s16.18-123.85 0-132.69l.03-.03h.01Z"/><path fill="#ce4e41" stroke-width="0" d="M823.07 429.32c-17.16-9.37-105.7.44-111.61 6.38-5.91 5.95-.23 87.47 11.62 101.28 11.85 13.84 87.16 3.46 99.99-10.38s11.85-90.8 0-97.28Z"/><path fill="#de3b25" stroke-width="0" d="M823.07 429.32c-17.16-9.37-105.7.44-111.61 6.38-5.91 5.95-.23 87.47 11.62 101.28 11.85 13.84 87.16 3.46 99.99-10.38s11.85-90.8 0-97.28Z"/><path fill="#faac4d" stroke-width="0" d="M766.6 481.49c1.11-19.75-19.24-36.41-31.43-33.09 0 0-6.65 35.84 31.43 33.09Z"/><path fill="#ce4e41" stroke-width="0" d="M766.6 481.49c-11.48-18.64-27.73-29.39-27.73-29.39s13.7 26.57 27.73 29.39Z" opacity=".43"/><path fill="#faac4d" stroke-width="0" d="M810.15 479.88c-19.78-.54-35.82 20.29-32.13 32.42 0 0 35.99 5.61 32.13-32.42Z"/><path fill="#ce4e41" stroke-width="0" d="M810.15 479.88c-18.3 12.03-28.54 28.59-28.54 28.59s26.16-14.48 28.54-28.59Z" opacity=".43"/><path fill="#faac4d" stroke-width="0" d="M783.35 476.92c13.33-4.57 18.84-22.44 13.36-29.63 0 0-25.38 5.21-13.36 29.63Z"/><path fill="#ce4e41" stroke-width="0" d="M783.35 476.92c9.23-12.56 11.92-26.17 11.92-26.17s-13.83 16.16-11.92 26.17Z" opacity=".43"/><path fill="#faac4d" stroke-width="0" d="M739.5 511.59c11.21 8.53 29.14 3.19 32.03-5.31 0 0-18.43-18.24-32.03 5.31Z"/><path fill="#ce4e41" stroke-width="0" d="M739.5 511.59c15.58.71 28.37-4.6 28.37-4.6s-21.12-2.55-28.37 4.6Z" opacity=".43"/><path fill="#a61811" stroke-width="0" d="M628.54 440.88c-.5-.17-1.01-.3-1.51-.4-4.84-1.07-18.53-3.33-19.78 4.13-1.44 8.83 13.9 9.67 19.17 8.7 2.18-.4 4.4-1.07 6.08-2.52 5.2-4.4.7-8.33-4-9.91h.04ZM460.69 452.1c-13.03.17-.44 18.24 20.38 14.68 20.82-3.53 2.18-15.02-20.38-14.68ZM555.71 486.3c-16.72-2.52-13.46 16.12 0 13.27 13.46-2.86 8.66-11.96 0-13.27ZM416 411.29c-16.72-1.28-13.46 8.06 0 6.62s8.66-5.98 0-6.62ZM382.16 446.46c-11.99 1.98-6.95 7.46 3.46 7.16s1.68-7.99-3.46-7.16ZM427.72 494.26c-13.56-1.71-12.15 12.8 0 13.47 12.16.67 8.23-12.43 0-13.47ZM504.95 515.93c-10.68-2.08-10.85 8.53 0 7.66 10.84-.87 7.39-6.21 0-7.66ZM572.16 407.46c-10.68-2.08-10.84 8.53 0 7.66 10.85-.87 7.39-6.21 0-7.66ZM629.01 515.93c-9.54-1.18-15.18 13.74 0 12.87s11.72-11.46 0-12.87ZM532.71 405.74c-9.84-1.71-9.1 8.03 0 7.59s8.66-6.11 0-7.59ZM648.11 403.39c-10.41 0-12.15 7.79-1.75 7.79s12.15-7.79 1.75-7.79ZM469.79 407.29c-9.84-1.65-9.97 6.55 0 6.11s7.82-4.8 0-6.11Z"/><path fill="#ce4e41" stroke-width="0" d="M149.51 412.51c-15.63 34.6-6.29 111.39 8.95 128.02s384.81 57.71 439.1 31.55c54.26-26.16-42.79-134.51-82.43-142.15-39.64-7.61-365.62-17.45-365.62-17.45v.03Z"/><g mask="url(#eI47ETgdP9G53)" transform="translate(0 6.25)"><path fill="#c33420" stroke-width="0" d="M190.8 481.24c-16.34-2.06-32.85-4.12-48.38-9.67-15.5-5.55-30.18-14.96-39.06-28.84-3.44 42.58 11.07 87.8 43.71 115.32 18.22 15.36 40.85 24.51 63.36 32.35 51.42 17.89 104.5 30.34 157.4 43.23 68.02 16.6 140.44 33.87 206.69 11.31 14.52-4.96 28.85-12.11 38.56-23.99 10.46-12.78 14.53-30.42 11.37-46.67-3.12-16.23-13.22-30.87-26.86-40.19-20.02-13.67-46.02-17.53-68.36-26.23-21.65-8.43-41.52-6.12-64.54-5.67-58.85 1.16-117.67-3.16-176.16-9.38-32.61-3.47-65.19-7.55-97.73-11.63v.07-.01Z"/><mask id="eI47ETgdP9G53" width="400%" height="400%" x="-150%" y="-150%" mask-type="luminance"><path fill="#fff" stroke-width="0" d="M149.51 406.26c-15.63 34.6-6.29 111.39 8.95 128.02s384.81 57.71 439.1 31.55c54.26-26.16-42.79-134.51-82.43-142.15-39.64-7.61-365.62-17.45-365.62-17.45v.03Z"/></mask></g><path fill="#db5e58" stroke-width="0" d="M667.64 428.53c-22.31-19.12-353.15-30.91-387.17-31.56-34.02-.61-121.42 3.66-130.96 15.51s344.58 17.45 365.62 17.45 152.51-1.43 152.51-1.43v.03Z"/><path fill="#ed5851" stroke-width="0" d="M667.64 428.53c-22.77-13.9-144.04-6.27-152.51 1.43s-5.99 119.17 9.24 138.76 118.53 10.37 136.9-7.62 22.07-122.94 6.33-132.54l.04-.03Z"/><path fill="#ce4e41" stroke-width="0" d="M653.89 446.16c-16.69-10.18-105.6-4.6-111.78 1.05-6.18 5.66-4.4 87.36 6.78 101.72 11.18 14.39 86.9 7.61 100.37-5.6s16.17-90.13 4.64-97.17h-.01Z"/><path fill="#de3b25" stroke-width="0" d="M653.89 446.16c-16.69-10.18-105.6-4.6-111.78 1.05-6.18 5.66-4.4 87.36 6.78 101.72 11.18 14.39 86.9 7.61 100.37-5.6s16.17-90.13 4.64-97.17h-.01Z"/><path fill="#faac4d" stroke-width="0" d="M594.99 495.58c2.05-19.68-17.48-37.29-29.81-34.55 0 0-8.35 35.48 29.81 34.55Z"/><path fill="#ce4e41" stroke-width="0" d="M594.99 495.58c-10.58-19.17-26.3-30.68-26.3-30.68s12.42 27.19 26.3 30.68Z" opacity=".43"/><path fill="#faac4d" stroke-width="0" d="M638.57 496.05c-19.73-1.48-36.75 18.56-33.64 30.85 0 0 35.68 7.32 33.64-30.85Z"/><path fill="#ce4e41" stroke-width="0" d="M638.57 496.05c-18.85 11.14-29.87 27.19-29.87 27.19s26.82-13.21 29.87-27.19Z" opacity=".43"/><path fill="#faac4d" stroke-width="0" d="M611.95 491.82c13.53-3.93 19.88-21.52 14.76-28.96 0 0-25.6 3.99-14.76 28.96Z"/><path fill="#ce4e41" stroke-width="0" d="M611.95 491.82c9.82-12.11 13.15-25.57 13.15-25.57s-14.59 15.48-13.15 25.57Z" opacity=".43"/><path fill="#faac4d" stroke-width="0" d="M566.49 524.35c10.79 9.06 28.96 4.58 32.25-3.77 0 0-17.54-19.1-32.25 3.77Z"/><path fill="#ce4e41" stroke-width="0" d="M566.49 524.36c15.53 1.45 28.56-3.24 28.56-3.24s-20.97-3.56-28.56 3.24Z" opacity=".43"/><path fill="#a61811" stroke-width="0" d="M459.02 448.44c-.5-.19-.99-.35-1.49-.47-4.78-1.3-18.35-4.21-19.95 3.18-1.86 8.76 13.42 10.33 18.74 9.6 2.2-.3 4.44-.86 6.19-2.23 5.41-4.15 1.1-8.29-3.52-10.09h.03v.01ZM290.84 451.64c-13.02-.45-1.31 18.2 19.66 15.63 20.96-2.53 2.9-14.89-19.66-15.63ZM384.12 490.33c-16.58-3.31-14.22 15.46-.63 13.25 13.58-2.21 9.22-11.53.63-13.25ZM248.14 408.74c-16.64-2.07-13.83 7.41-.32 6.61 13.52-.8 8.94-5.56.32-6.61ZM212.66 442.26c-12.07 1.41-7.3 7.12 3.11 7.31s2.06-7.91-3.11-7.31ZM255.89 492.18c-13.47-2.36-12.75 12.2-.64 13.46 12.11 1.25 8.81-12.02.64-13.46ZM332 517.5c-10.57-2.59-11.24 8.01-.37 7.65s7.67-5.86.37-7.65ZM404.31 412.36c-10.57-2.59-11.24 8.01-.37 7.65s7.67-5.86.37-7.65ZM455.92 523.42c-9.47-1.63-15.81 13-.61 12.85s12.25-10.88.61-12.85ZM364.98 408.77c-9.75-2.18-9.47 7.59-.36 7.58 9.11 0 8.94-5.69.36-7.58ZM480.36 411.92c-10.4-.5-12.51 7.21-2.12 7.7 10.4.5 12.51-7.21 2.12-7.7ZM302.06 407.31c-9.75-2.11-10.27 6.07-.29 6.11s8.04-4.43.29-6.11Z"/><path fill="#ce4e41" stroke-width="0" d="M258.93 267.1c-13.97 35.31-.97 111.56 15.04 127.45 16.02 15.89 387.13 39.3 440.11 10.58 52.95-28.72-49.15-132.32-89.11-138.06-39.95-5.71-366.04 0-366.04 0v.03Z"/><g mask="url(#eI47ETgdP9G89)" transform="translate(0 6.25)"><path fill="#c33420" stroke-width="0" d="M303.76 333.78c-16.42-1.28-33.01-2.55-48.79-7.36-15.75-4.8-30.86-13.5-40.39-26.94-1.41 42.7 15.24 87.17 49.16 113.1 18.94 14.48 41.97 22.54 64.83 29.29 52.21 15.42 105.83 25.33 159.28 35.68 68.73 13.34 141.89 27.14 206.99 1.44 14.27-5.64 28.24-13.47 37.37-25.8 9.84-13.27 13.06-31.07 9.13-47.16-3.89-16.06-14.67-30.2-28.74-38.87-20.65-12.7-46.8-15.32-69.53-22.94-22.02-7.39-41.77-4.13-64.73-2.59-58.72 3.96-117.68 2.45-176.41-.97-32.74-1.91-65.47-4.43-98.18-6.95v.07h.01Z"/><mask id="eI47ETgdP9G89" width="400%" height="400%" x="-150%" y="-150%" mask-type="luminance"><path fill="#fff" stroke-width="0" d="M258.93 260.85c-13.97 35.31-.97 111.56 15.04 127.45 16.02 15.89 387.13 39.3 440.11 10.58 52.95-28.72-49.15-132.32-89.11-138.06-39.95-5.71-366.04 0-366.04 0v.03Z"/></mask></g><path fill="#db5e58" stroke-width="0" d="M777.24 258.4c-23.2-18.04-354.22-14.04-388.23-13.07-34.01 1.01-121.11 9.44-130.07 21.73s345.02 1.01 366.04 0 152.26-8.7 152.26-8.7v.04Z"/><path fill="#ed5851" stroke-width="0" d="M777.24 258.4c-23.4-12.8-144.17.6-152.27 8.7-8.09 8.1-.3 119.32 15.85 138.16 16.15 18.85 118.89 4.7 136.38-14.14s16.18-123.85 0-132.69l.03-.03h.01Z"/><path fill="#ce4e41" stroke-width="0" d="M764.35 276.67c-17.16-9.37-105.7.44-111.61 6.38-5.91 5.95-.23 87.47 11.62 101.28 11.85 13.84 87.16 3.46 99.99-10.38s11.85-90.8 0-97.28Z"/><path fill="#de3b25" stroke-width="0" d="M764.35 276.67c-17.16-9.37-105.7.44-111.61 6.38-5.91 5.95-.23 87.47 11.62 101.28 11.85 13.84 87.16 3.46 99.99-10.38s11.85-90.8 0-97.28Z"/><path fill="#faac4d" stroke-width="0" d="M707.87 328.84c1.11-19.75-19.24-36.41-31.43-33.09 0 0-6.65 35.84 31.43 33.09Z"/><path fill="#ce4e41" stroke-width="0" d="M707.87 328.84c-11.48-18.64-27.73-29.39-27.73-29.39s13.7 26.57 27.73 29.39Z" opacity=".43"/><path fill="#faac4d" stroke-width="0" d="M751.42 327.23c-19.78-.54-35.82 20.29-32.13 32.42 0 0 35.99 5.61 32.13-32.42Z"/><path fill="#ce4e41" stroke-width="0" d="M751.42 327.23c-18.3 12.03-28.54 28.59-28.54 28.59s26.16-14.48 28.54-28.59Z" opacity=".43"/><path fill="#faac4d" stroke-width="0" d="M724.63 324.27c13.33-4.57 18.84-22.44 13.36-29.63 0 0-25.38 5.21-13.36 29.63Z"/><path fill="#ce4e41" stroke-width="0" d="M724.63 324.27c9.23-12.56 11.92-26.17 11.92-26.17s-13.83 16.16-11.92 26.17Z" opacity=".43"/><path fill="#faac4d" stroke-width="0" d="M680.78 358.94c11.21 8.53 29.14 3.19 32.03-5.31 0 0-18.43-18.24-32.03 5.31Z"/><path fill="#ce4e41" stroke-width="0" d="M680.78 358.94c15.58.71 28.37-4.6 28.37-4.6s-21.12-2.55-28.37 4.6Z" opacity=".43"/><path fill="#a61811" stroke-width="0" d="M569.81 288.23c-.5-.17-1.01-.3-1.51-.4-4.84-1.07-18.53-3.33-19.78 4.13-1.44 8.83 13.9 9.67 19.17 8.7 2.18-.4 4.4-1.07 6.08-2.52 5.2-4.4.7-8.33-4-9.91h.04ZM401.97 299.45c-13.03.17-.44 18.24 20.38 14.68 20.82-3.53 2.18-15.02-20.38-14.68ZM496.98 333.65c-16.72-2.52-13.46 16.12 0 13.27 13.46-2.86 8.66-11.96 0-13.27ZM357.28 258.64c-16.72-1.28-13.46 8.06 0 6.62s8.66-5.98 0-6.62ZM323.43 293.81c-11.99 1.98-6.95 7.46 3.46 7.16s1.68-7.99-3.46-7.16ZM368.99 341.61c-13.56-1.71-12.15 12.8 0 13.47 12.16.67 8.23-12.43 0-13.47ZM446.22 363.27c-10.68-2.08-10.85 8.53 0 7.66 10.84-.87 7.39-6.21 0-7.66ZM513.44 254.81c-10.68-2.08-10.84 8.53 0 7.66 10.85-.87 7.39-6.21 0-7.66ZM570.28 363.27c-9.54-1.18-15.18 13.74 0 12.87s11.72-11.46 0-12.87ZM473.99 253.09c-9.84-1.71-9.1 8.03 0 7.59s8.66-6.11 0-7.59ZM589.39 250.74c-10.41 0-12.15 7.79-1.75 7.79s12.15-7.79 1.75-7.79ZM411.07 254.64c-9.84-1.65-9.97 6.55 0 6.11s7.82-4.8 0-6.11Z"/><g transform="translate(0 6.25)"><g id="eI47ETgdP9G121"><path fill="#fffcfd" stroke-width="0" d="M238.57 536.16c10.37-2.02 22.17-6.19 33.76-14.3 3.94-2.75 7.85-5.96 11.67-9.69h.18c.03 4.99-2.04 10.21-5.63 13.35-12.2 10.64-38.76 21.91-62.04 18.43-4.8-.72-8.36-3.67-10.22-7.41 1.82.39 15.08 2.97 32.27-.38h.01Z"/><path fill="#ff953e" stroke="#422720" stroke-miterlimit="10" stroke-width="2.85" d="M232.42 507.84c-2.9 1.91-7.44 4.52-13.63 6.98-2.94 1.17-5.74 2.66-8.2 4.66-.45.37-.89.74-1.3 1.11-4.88 4.39-5.49 10.9-2.98 15.96 1.85 3.74 5.42 6.69 10.22 7.41 23.28 3.48 49.84-7.8 62.04-18.43 3.59-3.13 5.66-8.36 5.63-13.35-.01-2.35-.49-4.65-1.49-6.66-2.99-6.01-9.45-10.72-11.9-12.34l-38.39 14.68"/><path fill="#fff" stroke="#422720" stroke-linecap="round" stroke-linejoin="round" stroke-width="3.04" d="M206.25 536.55c1.82.39 15.08 2.97 32.27-.38 10.37-2.02 22.17-6.19 33.76-14.3 3.94-2.75 8.03-6.14 11.85-9.88v.18c.03 4.99-2.04 10.22-5.63 13.35-12.2 10.64-38.76 21.91-62.04 18.43-4.8-.72-8.36-3.67-10.22-7.41l.01.01Z"/><path fill="none" stroke="#422720" stroke-linecap="round" stroke-linejoin="round" stroke-width="3.04" d="M218.59 514.86s.06-.02.18-.04c1.53-.26 12.4-1.29 19.8 21.34 0 0 0 0 0 0M252.7 506.45h.11c1.21-.03 11.91.15 19.51 15.42"/><path fill="none" stroke="#422720" stroke-linecap="round" stroke-linejoin="round" stroke-width="19.02" d="M309.47 404.33s-133.52 24.77-56.64 88.35"/><path fill="#9abe3e" stroke="#422720" stroke-miterlimit="10" stroke-width="2.85" d="M272.23 494.04c.09-.09.18-.19.27-.28 2.64-2.8 2.5-7.41.07-9.74-1.51-1.45-3.4-1.92-5.11-1.56a5.44 5.44 0 0 0-2.87 1.62c-3.44 3.65-7.41 6.55-11.75 8.62-5.57 2.66-11.75 3.96-18.2 3.75-3.02-.08-5.62 2.21-5.7 5.6-.01.42.03.85.12 1.27.38 1.82 1.63 3.51 3.34 4.55 1.02.62 2.2 1 3.46 1.04 5.89.19 11.6-.65 16.96-2.44 3.66-1.22 7.15-2.89 10.42-4.98a48.99 48.99 0 0 0 9-7.42l-.01-.03Z"/></g><g id="eI47ETgdP9G129"><path fill="#fffcfd" stroke-width="0" d="M392.4 553.35c10.37-2.02 22.17-6.19 33.76-14.3 3.94-2.75 7.85-5.96 11.67-9.69h.18c.03 4.99-2.04 10.21-5.63 13.35-12.2 10.64-38.76 21.91-62.04 18.43-4.8-.72-8.36-3.67-10.22-7.41 1.82.39 15.08 2.97 32.27-.38h.01Z"/><path fill="#ff953e" stroke="#422720" stroke-miterlimit="10" stroke-width="2.85" d="M386.25 525.03c-2.9 1.91-7.44 4.52-13.63 6.98-2.94 1.17-5.74 2.66-8.2 4.66-.45.37-.89.74-1.3 1.11-4.88 4.39-5.49 10.9-2.98 15.96 1.85 3.74 5.42 6.69 10.22 7.41 23.28 3.48 49.84-7.8 62.04-18.43 3.59-3.13 5.66-8.36 5.63-13.35-.01-2.35-.49-4.65-1.49-6.66-2.99-6.01-9.45-10.72-11.9-12.34l-38.39 14.68"/><path fill="#fff" stroke="#422720" stroke-linecap="round" stroke-linejoin="round" stroke-width="3.04" d="M360.08 553.74c1.82.39 15.08 2.97 32.27-.38 10.37-2.02 22.17-6.19 33.76-14.3 3.94-2.75 8.03-6.14 11.85-9.88v.18c.03 4.99-2.04 10.22-5.63 13.35-12.2 10.64-38.76 21.91-62.04 18.43-4.8-.72-8.36-3.67-10.22-7.41l.01.01Z"/><path fill="none" stroke="#422720" stroke-linecap="round" stroke-linejoin="round" stroke-width="3.04" d="M372.42 532.05s.06-.02.18-.04c1.53-.26 12.4-1.29 19.8 21.34 0 0 0 0 0 0M406.53 523.64h.11c1.21-.03 11.91.15 19.51 15.42"/><path fill="none" stroke="#422720" stroke-linecap="round" stroke-linejoin="round" stroke-width="19.02" d="M435.43 406.15s-125.96 36.58-28.77 103.72"/><path fill="#9abe3e" stroke="#422720" stroke-miterlimit="10" stroke-width="2.85" d="M426.06 511.23c.09-.09.18-.19.27-.28 2.64-2.8 2.5-7.41.07-9.74-1.51-1.45-3.4-1.92-5.11-1.56a5.44 5.44 0 0 0-2.87 1.62c-3.44 3.65-7.41 6.55-11.75 8.62-5.57 2.66-11.75 3.96-18.2 3.75-3.02-.08-5.62 2.21-5.7 5.6-.01.42.03.85.12 1.27.38 1.82 1.63 3.51 3.34 4.55 1.02.62 2.2 1 3.46 1.04 5.89.19 11.6-.65 16.96-2.44 3.66-1.22 7.15-2.89 10.42-4.98a48.99 48.99 0 0 0 9-7.42l-.01-.03Z"/></g><g id="eI47ETgdP9G137" transform="translate(-.109 5.243)"><g id="eI47ETgdP9G138" stroke="#422720"><g fill="#ff953e" stroke-linecap="round" stroke-linejoin="round" stroke-width="3.19"><path d="M44.27 188.17s-16.24-27.29-7.27-32.5 19.88 17.69 19.88 17.69-10.28-28.97-.45-32.52 19.33 26.97 19.33 26.97-5.95-29.11 6.44-29.33c9.54-.17 12.16 42.64 12.16 42.64s6.41-18.92 16.98-15.28c10.58 3.65-7.48 40.3-29.38 47.49s-37.69-25.15-37.69-25.15v-.01Z"/><path d="M94.36 181.11s-14.81-.93-18.93 13.91"/></g><path fill="none" stroke-linecap="round" stroke-linejoin="round" stroke-width="19.96" d="M210.09 201.21s-15.59 78.12-65.62 79.34-63.85-61.79-63.85-61.79"/><path fill="#ff953e" stroke-linecap="round" stroke-linejoin="round" stroke-width="3.19" d="M67.19 220.29c8.1-5.4 17.73-6.99 27.13-4.49 2.48.65 5.07-.75 5.78-3.54q0 0 0 0c.71-2.77-1.25-6.16-4.41-7-11.51-3.06-23.29-1.11-33.2 5.5-2.72 1.81-3.49 5.65-1.92 8.04q0 0 0 0c1.57 2.41 4.47 2.9 6.62 1.49Z"/><path fill="#9abe3e" stroke-miterlimit="10" stroke-width="2.99" d="M67.19 220.29c8.1-5.4 17.73-6.99 27.13-4.49 2.48.65 5.07-.75 5.78-3.54.71-2.77-1.25-6.16-4.41-7-11.51-3.06-23.29-1.11-33.2 5.5-2.72 1.81-3.49 5.65-1.92 8.04 1.57 2.41 4.47 2.9 6.62 1.49Z"/></g><g fill="none" stroke="#422720" stroke-linecap="round" stroke-linejoin="round" stroke-width="11.51"><path d="M572.33 407.58c-59.77-.09-235.3-1.01-289.7-2.34-17.13-.43-34.27-.85-51.4-1.26l-6.35-.16c-6.33-.15-13.49-.33-19.99-2.95-9.42-3.8-16.75-12.61-19.13-22.99-2.14-9.36-.15-22.75 6.89-28.98.18-.16.37-.32.57-.48 4.3-3.61 9.85-6.05 15.22-8.42 4.72-2.08 9.6-4.22 13.52-7.14 2.96-2.2 5.83-4.68 8.61-7.09 4.09-3.53 8.31-7.19 12.98-10.1 10.81-6.74 23.41-9.22 35.59-11.62l.96-.19c44.46-8.75 79.18-19.98 102.15-27.42 11.4-3.69 20.41-6.6 26.8-8.02 3.67-.81 6.79-1.2 9.54-1.2 5.65 0 10.05 1.69 13.07 5.02 1.27 1.07 17.5 9.43 36.31 19.12 38.37 19.77 96.37 49.65 110.39 60.38 9.01 6.89 14.84 13.41 17.82 19.91 3.02 6.55 2.65 11.79 1.97 17.03-1.19 9.1-9.76 18.89-25.77 18.89h-.05v.01Z"/><path d="M418.58 268.65c4.55 0 8.9 1.12 12.03 4.56 2.55 2.8 125.59 63.38 146.89 79.67 9.79 7.49 14.87 13.87 17.4 19.38 2.99 6.48 2.44 11.77 1.85 16.26-1.09 8.3-8.88 17.66-24.37 17.66h-.05c-62.51-.09-235.58-1.02-289.67-2.34-19.25-.48-38.51-.95-57.75-1.42-6.58-.16-13.31-.35-19.49-2.85-8.94-3.6-16.03-12.14-18.28-22-1.98-8.63-.31-21.63 6.45-27.61.17-.15.33-.29.51-.43 7.94-6.67 20.16-9.18 28.71-15.53 7.34-5.46 13.76-12.3 21.49-17.12 10.87-6.78 23.63-9.17 36.07-11.62 66.18-13.02 109.63-31.16 128.99-35.44 2.96-.65 6.14-1.17 9.24-1.17m-.02-2.83v0c-2.86 0-6.08.4-9.84 1.23-6.46 1.43-15.5 4.35-26.94 8.05-22.94 7.42-57.62 18.64-101.99 27.37l-.96.19c-12.31 2.42-25.03 4.93-36.06 11.81-4.76 2.97-9.03 6.66-13.16 10.23-2.76 2.39-5.61 4.85-8.52 7.02-3.8 2.82-8.6 4.94-13.25 6.98-5.45 2.4-11.08 4.88-15.56 8.63-.21.17-.41.34-.61.52-7.42 6.56-9.55 20.58-7.31 30.34 2.47 10.83 10.13 20.02 19.98 23.99 6.73 2.72 14.03 2.9 20.48 3.05l3.4.08c18.11.44 36.24.89 54.35 1.34 54.41 1.33 229.96 2.25 289.74 2.34h.05c16.86 0 25.9-10.43 27.17-20.12.54-4.12 1.35-10.35-2.09-17.81-3.08-6.72-9.05-13.4-18.25-20.44-14.13-10.81-72.18-40.72-110.6-60.51-17.46-9-33.97-17.5-36.05-18.97-3.3-3.54-8-5.33-13.98-5.33v.01ZM310.73 391.19l47.67 1.17"/><path d="M211.49 386.38c6.19 2.5 12.92 2.69 19.5 2.85 19.25.47 38.5.94 57.75 1.42M594.89 372.25c-11.11 14.27-37.92-19.88-70.28-6.32-33.49 14.03-51.14 14.28-69.69 3.21-18.55-11.08-28.11-8.26-49.34-1.78-21.24 6.49-33.58 11.36-51.87-2.28s-41.44 4.2-62.49 7.56c-12.89 2.07-30.48 4.46-38.8-4.6-8.33-9.05-12.23-10.88-19.13-10.23-6.9.66-13.42 8.45-23.78 6.41-8.85-1.74-13.18-10.91-15.42-14.7 7.94-6.67 20.16-9.18 28.71-15.53 7.34-5.46 13.76-12.3 21.49-17.12 10.87-6.78 23.63-9.17 36.07-11.62 66.18-13.02 109.63-31.16 128.99-35.44 7.3-1.61 16.02-2.39 21.26 3.39 2.55 2.8 125.59 63.38 146.89 79.67 9.79 7.49 14.87 13.87 17.4 19.38h-.01ZM539.32 392.88c9.02.07 18.35.06 27.43-.8M391.8 390.64c9.01.44 18.33.82 27.44.34M437.26 391.98c9.26.23 18.54.3 27.8.37 18.57.13 37.15.27 55.72.4"/><path d="M611.83 336.16c-3.02 2.6-6.66 4.48-10.5 5.45-2.24.56-3.57 2.83-2.94 5.01 1.04 3.64 1.13 7.72-.75 10.48-1.46 2.16-4.64 2.44-6.44.53-2.54-2.7-7.45-3.33-10.59-.93a3.6 3.6 0 0 0-.84.9c-4.52 6.68-10.41 5.6-16.43 1.41a4.19 4.19 0 0 0-3.94-.44c-6.83 2.68-14.66 2.52-21.15-.37-1.83-.82-3.98-.17-5.11 1.47-3.34 4.81-10.67 6.96-16.35 5.1-5.12-1.67-8.94-5.59-11.72-10.19-1.35-2.25-4.46-2.64-6.4-.86-2.69 2.5-5.8 4.36-9.24 3.97-3.99-.46-6.87-3.85-10.71-4.9-9.23-2.52-17.52 9.02-27.18 9.31-.2 0-4.39 1.51-8.35-.26s-9.79-4.7-18.58-6.89c-1.57-.47-3.19-.93-4.84-.69-1.93.29-3.6 1.52-5.33 2.51-.18.11-.38.2-.58.27 0 0-6.1 1.02-12.64 3.93-1.1.49-2.26.99-3.47.88-4.14-.38-4.67-6.44-7.35-9.74-1.63-2-4.32-2.69-6.76-2.22-2.46.47-3.92 3.06-3.01 5.37 1.2 3.11-2.66 7.64-9.15 3.66-.09-.05-.18-.11-.26-.17-8.14-5.87-9.31-2.55-13.54-4.87-.56-.31-1.05-.73-1.4-1.25-.99-1.44-1.49-3.36-3.04-4.07-2.73-1.25-5.05 2.35-7.89 3.13-2.41.65-4.93-.85-7.44-.83-6.41.06-9.01 9.16-15.11 10.99-6.54 1.95-13.43-5.19-19.74-6.05-2.36-.33-4.51 1.42-4.65 3.76-.71 11.39-12.74 13.32-15.52 6.02-.56-1.45-1.89-2.44-3.45-2.63-2.42-.29-4.76-2.02-5.87-4.27-.74-1.52-2.39-2.37-4.11-2.22-2.63.24-5.45-.88-7.05-3.11-1.6-2.25-1.96-5.24-3.66-7.42-2.84-3.63-9.05-2.79-11.37.83-.6.93-.73 2.07-.46 3.13 2.45 9.73-8.81 18.05-17.34 11.66-.16-.12-.31-.26-.45-.4-4.41-4.58-6.83-.43-9.29 3.29-1.79 2.69-5.87 2.36-7.23-.56-1.72-3.69-5.07-6.65-8.92-7.71a4.113 4.113 0 0 1-2.81-2.67c-.21-.67-.43-1.33-.65-2-.65-2.02-2.79-3.21-4.88-2.71-.09.02-.19.04-.29.06-1.74.41-3.51-.35-4.47-1.83-1.48-2.29-5.4-4.13-6.2-7.08-1.3-4.81 5.97-10.3 3.46-13.63-.16-.23-.38-.44-.64-.64-.89-.7-2.03-.78-3.17-.91-.74-.09-1.5-.19-2.17-.48-9.08-3.98 4.34-14.85 7.96-17.12.15-.09.29-.19.45-.27 18.87-11.64 42.17-3.66 62.75-7.83 8.7-1.8 16.91-5.78 25.78-6.39 10.39-.72 20.81 3.24 31.19 2.41 13.58-1.08 25.02-10.11 37.9-14.39 13.76-4.57 48.11-4.27 78.43-4.27s78.73 6.25 111.04 14.17c8.06 2.4 16.51 4.95 24.86 7.98 19.3 6.98 38.07 16.45 50.19 32.1 1.3 1.69 1.05 4.1-.58 5.49h-.01Z"/><path d="M577.33 320.6c-2.1-7.38-9.69-8.4-12.92-1.72-.35.7-.64 1.46-.92 2.23-.53 1.42-1.01 2.88-1.7 4.12-2.38 4.29-5.95 4.41-9.48 2.83-2.17-.97-4.33-2.59-6.18-4.28-7.82 8.61-18.43 10.17-26.74 3.93-.22 4.64-1.76 8.68-3.99 11.73-2.91 3.99-6.99 6.28-10.84 5.98-.54-.04-1.07-.13-1.59-.27-3.49-.95-6.56-3.54-9.23-7.06-1.27-1.66-2.44-3.53-3.52-5.53-1.35-2.49-2.55-5.18-3.62-7.94-1.47 3.87-3.21 7.99-5.32 11.05-1.84 2.68-3.96 4.53-6.43 4.66h-.09c-2.42.08-4.61-1.59-6.83-3.08-1.42-.95-2.87-1.83-4.39-2.12-.22-.04-.44-.07-.65-.09-9.25-.84-15.69 18.67-25.16 20.92-1.22.29-2.44.25-3.66.1 1.15-2.35 2.29-4.72 3.41-7.11 1.1-2.36 2.2-4.74 3.25-7.15.75-1.69 1.48-3.39 2.21-5.11 1.03-2.46 2.05-4.95 2.77-7.66 1.46-5.56 1.46-12 .01-17.33a319.806 319.806 0 0 0-27.2 20.93c-1.56 1.33-3.2 2.72-4.97 2.55-1.51-.14-2.89-1.38-4.24-2.48-4.91-4.01-10.27-6.52-15.71-7.43-3.92-.67-7.87-.51-11.74.51-.46.12-.91.25-1.36.39-4.15 1.29-8.25 3.31-12.44 3.92-1.03.15-2.06.21-3.1.16-4.69-.24-9.37-2.87-14.01-1.9-1.22.25-2.38.74-3.52 1.4-2.82 1.63-5.43 4.28-8.05 6.85-.92.89-1.84 1.78-2.78 2.61-.4.36-.79.71-1.2 1.04-5.15 4.23-12.34 5.63-16.13-1.64-.85-1.63-1.48-3.63-2.26-5.33-.53-1.16-1.13-2.18-1.9-2.88-2.19-1.95-5.03-.76-7.69.19-2.88 1.04-5.52 1.79-6.79-2.08-.61-1.86-.5-4.16-1.15-5.97-1.97-5.51-6.96-.58-10.95-.85-.87-.06-1.7-.37-2.44-1.09-.33-.32-.63-.72-.91-1.16-1.23-1.92-2.13-4.65-3.75-5.3-1.09-.43-2.21.22-3.24.86-6.2 3.85-12.76 8.15-16.53 16.97-.97 2.28-1.81 4.94-3.36 6.16-1.06.84-2.3.85-3.5.85-3.33 0-6.66-.02-9.99-.03-3.31-.02-6.76-.1-10.06-.92-3.03-.75-5.94-2.1-8.51-4.57-.8-.76-1.58-1.64-2.31-2.64-1.77 3.2-4.01 5.72-6.46 7.4h-.01c-2.58 1.78-5.42 2.62-8.24 2.39-.25-.02-.51-.05-.76-.09-.24-.27-.49-.54-.75-.8-2.74-2.93-5.63-5.47-8.64-7.59v0c-3.61-2.57-7.38-4.53-11.23-5.82-.13-.05-.25-.09-.39-.13-1.15-.37-2.35-.72-3.43-1.42-.7-.45-1.36-1.05-1.92-1.89-.55-.84-.85-2.02-1.02-3.22 2.65-5.53 7.13-10.8 9.18-12.76 18.87-11.64 42.17-3.66 62.75-7.83 8.7-1.8 16.91-5.78 25.78-6.39 10.39-.72 20.81 3.24 31.19 2.41 13.58-1.08 25.02-10.11 37.9-14.39 13.76-4.57 48.11-4.27 78.43-4.27s78.73 6.25 111.04 14.17c8.06 2.4 16.51 4.95 24.86 7.98 10.78 6.53 20.91 14.24 29.95 23.31 3.06 3.08-11.3-2.58-14.84-1.28h.01Z"/><path d="M221.92 340.08c-.84-.32-1.68-.66-2.51-1.01-.39-.17-.79-.34-1.18-.51-.22-.1-.43-.2-.65-.29-.29-.13.26.12-.21-.1a81.32 81.32 0 0 1-4.82-2.49c-3.15-1.78-6.18-3.8-9.06-6.02-1.25-.96-3.34-.36-4.04.97-.82 1.54-.3 3.13 1.03 4.16 6.04 4.66 12.74 8.35 19.8 11.06 1.46.56 3.29-.48 3.65-1.99.39-1.66-.47-3.18-2.02-3.78h.01ZM239.38 332.33c-.23-.11-.46-.21-.69-.32-.51-.16-1.02-.18-1.54-.06l.63-.06c-2.02.2-4.06.12-6.08-.2-.6-.12-1.19-.24-1.78-.4-1.5-.41-3.26.37-3.65 1.99-.36 1.53.42 3.34 2.02 3.78 1.67.45 3.4.76 5.12.9 1.74.14 3.46.05 5.19-.13.69-.07 1.47-.77 1.81-1.34.37-.63.54-1.55.32-2.28-.22-.75-.66-1.48-1.35-1.88ZM226.54 322.19c-3.11.08-6.21.15-9.32.23-.8.02-1.55.25-2.13.82-.5.5-.9 1.33-.88 2.07.04 1.55 1.24 3.18 2.89 3.14 3.11-.08 6.21-.15 9.32-.23.8-.02 1.55-.25 2.13-.82.5-.5.9-1.33.88-2.07-.04-1.55-1.24-3.18-2.89-3.14ZM296.15 337.64c-5.21.61-10.72 1.28-15.98.65-4.13-.5-8.32-2.49-10.23-6.48-.71-1.48-2.7-1.96-4.02-1.21-1.45.82-1.81 2.61-1.1 4.09 2.58 5.39 8.12 8.43 13.68 9.39 6.25 1.09 12.9.16 19.11-.56 1.58-.18 2.49-2.17 2.13-3.62-.43-1.74-2-2.44-3.59-2.25v-.01ZM284.95 319.48c-1.02.26-2.05.48-3.08.66-.56.1-1.12.18-1.68.25l-.72.09h-.06c-.08 0-.16.01-.24.02-2.14.17-4.29.17-6.44 0-1.54-.12-3.05 1.3-3.01 2.9.04 1.68 1.24 3.01 2.89 3.14 4.63.35 9.32-.05 13.79-1.18 1.49-.38 2.59-2.04 2.13-3.62-.46-1.56-1.99-2.66-3.59-2.26h.01ZM316.62 327.19l-7.1 1.32c-1.51.28-2.58 2.11-2.13 3.62.48 1.64 1.96 2.56 3.59 2.26l7.1-1.32c1.51-.28 2.58-2.11 2.13-3.62-.48-1.64-1.96-2.56-3.59-2.26ZM335.8 333.18c-3.98 1.06-7.96 2.11-11.95 3.17-1.48.39-2.73 1.77-2.32 3.45.36 1.47 1.91 2.89 3.5 2.47 3.98-1.06 7.96-2.11 11.95-3.17 1.48-.39 2.73-1.77 2.32-3.45-.36-1.47-1.91-2.9-3.5-2.47ZM403.08 336.25c-3.45-3.55-8.34-4.02-12.86-3.02-5.37 1.18-10.78 5.11-16.23 1.84-4.66-2.79-7.7-7.71-12.37-10.54-4.7-2.85-10.62-3.2-14.78.58-2.81 2.55 1.33 6.94 4.14 4.39 3.69-3.35 8.83.68 11.64 3.4 3.39 3.27 6.58 6.82 11 8.6 4.82 1.94 9.6.42 14.19-1.2 3.28-1.16 8.15-2.91 11.08.1 2.7 2.78 6.91-1.36 4.2-4.15h-.01ZM393.55 321.08c-.53-.51-1.29-.99-2.04-.94l-9.22.63c-.81.05-1.53.23-2.13.82-.5.5-.9 1.33-.88 2.07.02.79.27 1.63.85 2.2.53.51 1.29.99 2.04.94 3.07-.21 6.15-.42 9.22-.62.81-.05 1.53-.23 2.13-.82.5-.5.9-1.33.88-2.07-.02-.79-.27-1.63-.85-2.2v-.01ZM446.14 337.1c-1.41-.44-3.37.38-3.65 1.99-.28 1.62-1.05 2.4-2.55 3.17-1.59.82-4.03.76-6.03.56-5.08-.51-10.45-1.67-15 1.33-1.32.88-1.93 2.59-1.1 4.09.75 1.36 2.69 2.09 4.02 1.21 4.44-2.93 10.31-.24 15.23-.48 4.79-.23 10.17-2.79 11.1-8.1.28-1.6-.38-3.26-2.02-3.78v.01ZM465.22 317.7c-.89-1.47-2.54-1.93-4.02-1.21l-11.5 5.58c-1.38.67-1.92 2.75-1.1 4.09.89 1.47 2.54 1.93 4.02 1.21 3.83-1.86 7.67-3.72 11.5-5.58 1.38-.67 1.92-2.75 1.1-4.09ZM435.27 325.08l-6.72 1.26c-1.51.28-2.58 2.11-2.13 3.62.48 1.64 1.96 2.56 3.59 2.26l6.72-1.26c1.51-.28 2.58-2.11 2.13-3.62-.48-1.64-1.96-2.56-3.59-2.25v-.01ZM483.03 337.56c-.47-1.51-2.04-2.45-3.66-1.97-.04.01-.09.02-.13.04-.08 0-.15 0-.22.01-.15-.04-.3-.07-.45-.11-.15-.07-.31-.14-.45-.22-.13-.07-.26-.14-.38-.22-.04-.03-.18-.12-.27-.18-.04-.03-.08-.06-.09-.07-.15-.12-.3-.25-.45-.38-.3-.27-.6-.55-.9-.82-.79-.73-1.6-1.41-2.5-2.01-3.51-2.35-9.01-1.42-10.52 3.03-.51 1.49.62 3.27 2.13 3.53 1.52.26 2.83-.53 3.47-1.86.01 0 .03 0 .04-.01 0 .02 0 0 0 0 .04-.02.08-.03.11-.04.07-.02.02 0 .05-.01.11-.01.22-.02.31-.02.12 0 .63-.06.15 0-.45.05-.02.01.13.05.05 0 .09.02.13.04.25.07.69.38.81.45.03.02.01 0 .03.02l.04.04c.14.12.28.23.42.35.31.26.61.54.9.82 2.44 2.27 5.48 4.37 9.13 3.27 1.52-.46 2.63-2.19 2.16-3.7l.01-.03ZM539.95 342.76c-3.86-2.07-7.91-4.14-12.31-4.94-2.17-.39-4.38-.49-6.59-.14-2.48.39-4.68 1.4-7.01 2.31-2.09.82-4.02 1.37-6.09.43-2.03-.92-3.59-2.55-5.24-3.96-3.41-2.9-7.38-5.06-12.13-3.99-3.82.86-2.29 6.52 1.5 5.67 3.7-.83 6.95 3.36 9.4 5.28 3.59 2.8 7.57 4.26 12.27 2.87 4.06-1.2 7.41-3.42 11.75-2.78 4.14.62 7.86 2.59 11.45 4.52 3.33 1.78 6.34-3.48 2.99-5.27h.01ZM568.62 324.05c-1.71-2.72-4.87-3.44-7.99-2.66-3.21.79-5.36 3.09-7.37 5.55-.93 1.14-1.88 2.39-3.16 3.17-.15.09-.78.41-.69.37.23-.09-.46.14-.53.16-.01 0-.49.12-.57.15-.28.04-.56.07-.83.08-1.36.08-2.04-.04-3.4-.33-1.28-.27-2.52-.65-3.76-1.04-1.53-.48-3.29.8-3.68 2.26-.45 1.68.6 3.05 2.13 3.53 4.85 1.52 10.59 2.67 15.16-.75 1.38-1.03 2.49-2.26 3.58-3.58.46-.56.9-1.12 1.38-1.66.28-.32.58-.64.88-.94.08-.08.84-.7.39-.37.21-.15.44-.29.67-.42.11-.07.64-.33.28-.17.29-.13.59-.2.9-.3.1-.02.19-.05.29-.07.19-.02.38-.03.57-.03.04.01.26.04.4.07v0s.03.01.05.02l.03.03c.02.03.02.03.05.08.84 1.33 2.65 1.81 4.1.95 1.39-.83 1.99-2.74 1.15-4.08l-.03-.02ZM579.59 340.57c-.06-1.45-1.32-3.09-2.99-2.84-5.48.81-10.97 1.62-16.45 2.44-.82.12-1.52.33-2.13.95-.52.53-.92 1.39-.89 2.13.06 1.46 1.32 3.09 2.99 2.84 5.48-.81 10.97-1.63 16.45-2.44.82-.12 1.52-.33 2.13-.95.52-.53.92-1.39.89-2.13Z"/><path d="M319.99 333.85c-28.59 0-37.82-7.73-45.24-13.94-4.35-3.64-7.79-6.52-14.29-7.07-3.18-.27-6.69-.39-11.06-.39-3.63 0-7.42.09-11.07.17-3.66.09-7.45.18-11.08.18-7.35 0-16.71-.33-23.87-2.86-10.3-3.65-16.58-10.74-17.69-19.96-2.78-23.26 1.76-71.26 15.81-118.01 11.93-39.68 34.53-91.44 74.44-112.64 34.98-18.58 75.75-28.4 117.91-28.4 47.91 0 92.4 13.22 119.03 35.37 1.84 1.31 46.65 33.79 70.66 90.5 19.82 46.81 15.46 116.58 12.67 144.41-.67 6.63-6.27 11.63-13.03 11.63 0 0-108.43-.02-131.31-.02s-39.83 0-49.48.02c-4.35 0-10.29 2.58-17.82 5.84-14.79 6.4-35.04 15.16-64.59 15.16l.01.01Z"/><path d="M393.86 32.37c47.87 0 91.75 13.11 118.11 35.04.08.07 45.78 32.14 70.25 89.95 19.81 46.78 15.2 117.38 12.56 143.7-.59 5.87-5.6 10.34-11.6 10.34-37.44 0-90.35-.02-130.58-.02-22.16 0-40.46 0-50.21.02-13.23.02-37.33 21-82.4 21s-40.99-19.44-59.41-21c-3.56-.3-7.33-.4-11.18-.4-7.28 0-14.9.35-22.15.35-8.77 0-16.99-.51-23.39-2.78-9.04-3.2-15.62-9.38-16.74-18.77-5.46-45.68 17.66-191.04 89.5-229.2 36.88-19.59 78.37-28.23 117.23-28.23m.01-2.87v2.88-2.88c-42.4 0-83.41 9.88-118.59 28.57-40.35 21.43-63.13 73.55-75.15 113.49-14.11 46.93-18.66 95.19-15.87 118.59 1.17 9.79 7.79 17.3 18.64 21.14 7.33 2.59 16.42 2.95 24.35 2.95 3.65 0 7.45-.09 11.11-.18 3.65-.09 7.42-.17 11.04-.17 4.32 0 7.8.12 10.94.39 6.04.51 9.17 3.12 13.49 6.74 7.6 6.36 17.06 14.27 46.17 14.27s51.1-9.2 65.16-15.28c7.37-3.19 13.2-5.71 17.25-5.72 8.76-.01 25.18-.02 50.21-.02H583.19c7.5 0 13.72-5.56 14.46-12.93 2.8-27.94 7.17-98-12.77-145.11-10.02-23.67-25.31-46.78-44.2-66.81-13.97-14.82-25.43-23.21-26.95-24.3-26.87-22.31-71.68-35.64-119.87-35.64v.02Z"/><path d="M260.63 95.59c4.86-6.81 10.19-13.1 16.04-18.7M216.77 230.52c3.31-34.82 13.06-82.09 34.11-119.53M244.16 189.21c1.98-9.68 4.52-19.21 7.72-28.34M238.1 248.23c.19-13.14 1.09-26.96 2.97-40.77M585.45 300.3c-4.16 7.19-111.44 4.12-110.09-4.79 1.35-8.87 1.73-19.02 1.11-30.16-1.12-20.21-5.21-40.14-8.19-54.7-.75-3.66-1.46-7.12-2.01-10.03-.62-3.29-1.56-7.2-2.64-11.72-3.75-15.62-8.89-37-6.75-57.54 2.5-24.01 14.27-40.5 35.98-50.4 2.6-1.18 5.35-1.77 8.08-1.77 4.83-.01 9.58 1.77 13.27 5.2 9.16 8.52 85.04 50.82 71.25 215.93l-.01-.02Z"/><path d="M519.12 114.13c10.18 11.54 19.37 24 26.89 37.38 8.1 14.41 14.26 29.97 17.23 46.21.99 5.38 1.8 10.88 1.8 16.31M525.49 189.33c3.74 10.8 6.32 21.99 7.36 33.37.5 5.45.81 10.99.32 16.4M523.43 151.17c2.24 3.71 4.36 7.48 6.34 11.33 7.58 14.69 13.17 30.45 15.56 46.79M441.03 201.59c-2.83-12.76-6.93-31.05-7.03-49.84M451.38 307.63c5.29-27.92-1.33-62.04-5.97-84.69M430.47 279.05c-.67-20.29-4.7-40.78-7.83-56.05M355.88 142.42s11.63-11.33 29.44-9.61c12.95 1.25 22.55 7.88 26.71 12.28a9.799 9.799 0 0 0 6.46 3.05l2.93.2"/><path d="M352.22 132.15s4.18-6.31 30.65-4.48c26.47 1.84 48.16 7.52 48.16 7.52S419 113.18 396.5 112.08s-45.54 10.77-52.18 6.29c-1.41 10.67 7.89 13.78 7.89 13.78h.01ZM343.87 202.9s2.48-2.78 5.62-1.26c3.13 1.52 6.93 5.44 5.39 15.14-1.54 9.69-12.84 11.51-12.84 11.51M258.6 144.54s3.93 2.14 6.85-.02M309.22 137.19s-10.52-10.65-25.06-10.6-22.12 13.69-22.12 13.69"/><path d="M257.18 129.85s6.64-7.71 23.34-8.28 28.3 9.53 28.3 9.53 5.69-7.81 4.32-13.25c-7.48 1.53-57.73-21.18-55.95 12h-.01ZM280.65 253.01s2.59 6.29.88 12.28M371.77 251.02s2.78 4.53 8.43 7.81 6.41 7.67 6.41 7.67M312.93 308.58s-5.37 6.12-2.73 14.57M365.69 218.48s12.36 11.79 21.36 16.93 12.83 11.91 11.74 17.03M293.52 212.5s-17 13.46-18.6 27.28M409.17 151.82s-4.74 3.54-13.17 5.54c2.51-2.18 4.19-5.29 4.44-8.83.17-2.37-.31-4.64-1.32-6.64 8.22 3.88 10.05 9.93 10.05 9.93Z"/><path d="M400.44 148.54c-.26 3.54-1.94 6.65-4.44 8.83-2.51.59-5.34 1.05-8.46 1.22-2.32.14-4.82.12-7.42-.02h-.02c-3.9-2.51-6.37-6.96-6.02-11.87.21-2.86 1.34-5.45 3.12-7.49 2.17-.36 4.51-.52 6.98-.46 6.47.17 11.34 1.46 14.95 3.15 1.01 2 1.49 4.27 1.32 6.64h-.01Z"/><path d="M380.09 158.57c-12.74-.67-27.21-4.05-27.21-4.05s7.85-12.72 24.31-15.31a12.765 12.765 0 0 0-3.12 7.49c-.35 4.91 2.12 9.36 6.02 11.87ZM303.99 137.95c7.5 5.77 8.27 13.59 8.27 13.59s-6.32 1.9-15.68 2.32c4.5-1.59 7.87-5.62 8.23-10.61.14-1.88-.17-3.67-.83-5.3h.01Z"/><path d="M303.99 137.95c.66 1.63.96 3.43.83 5.3-.36 4.99-3.73 9.02-8.23 10.61h-.02c-2.54.11-5.31.11-8.24-.06h-.01c-5.06-1.78-8.51-6.72-8.11-12.26.28-3.92 2.43-7.27 5.51-9.27 2.1-.09 4.35.08 6.76.6 4.98 1.07 8.72 2.93 11.52 5.08h-.01Z"/><path d="M288.31 153.79c-1.65-.09-3.37-.25-5.11-.47-16.19-2.08-17.74-8.79-17.74-8.79s6.55-11.73 20.25-12.26c-3.08 2-5.23 5.35-5.51 9.27-.4 5.54 3.05 10.47 8.11 12.26v-.01ZM380.12 158.57c2.6.14 5.11.16 7.42.02 3.13-.18 5.95-.63 8.46-1.22 8.43-2.01 13.17-5.54 13.17-5.54s-1.83-6.05-10.05-9.93c-3.61-1.7-8.48-2.99-14.95-3.15-2.47-.06-4.81.1-6.98.46-16.46 2.59-24.31 15.31-24.31 15.31s14.47 3.38 27.21 4.05"/><path d="M399.12 141.9c1.01 2 1.49 4.27 1.32 6.64-.26 3.54-1.94 6.65-4.44 8.83M296.56 153.85c-2.54.11-5.31.11-8.24-.06"/><path d="M288.31 153.79c-1.65-.09-3.37-.25-5.11-.47-16.19-2.08-17.74-8.79-17.74-8.79s6.55-11.73 20.25-12.26c2.1-.09 4.35.08 6.76.6 4.98 1.07 8.72 2.93 11.52 5.08 7.5 5.77 8.27 13.59 8.27 13.59s-6.32 1.9-15.68 2.32"/><path d="M303.99 137.95c.66 1.63.96 3.43.83 5.3-.36 4.99-3.73 9.02-8.23 10.61h-.02M288.32 153.79h-.01c-5.06-1.78-8.51-6.72-8.11-12.26.28-3.92 2.43-7.27 5.51-9.27M380.12 158.57h-.02c-3.9-2.51-6.37-6.96-6.02-11.87.21-2.86 1.34-5.45 3.12-7.49M272.63 159.82s14.9 6.56 33.42-.41"/><ellipse rx="6.07" ry="5.97" transform="translate(387.25 147.62)"/><ellipse rx="4.4" ry="3.58" transform="rotate(-59.97 315.386 -256.959)"/><ellipse rx="2.52" ry="2.48" transform="translate(392.66 149.95)"/><ellipse rx="5.56" ry="5.47" transform="translate(292.51 142.39)"/><ellipse rx="2.52" ry="2.48" transform="translate(297.91 144.72)"/><ellipse rx="4.4" ry="3.37" transform="rotate(-59.75 264.396 -178.69)"/><path d="M340.53 224.44c.09 2.93-16.39 1.68-16.39 1.68v0c1.72-1.25 3.3-2.45 4.47-3.02 3.11-1.55 11.82-1.59 11.92 1.34Z"/><path d="M324.14 226.12s16.48 1.25 16.39-1.68c-.11-2.93-8.81-2.9-11.92-1.34-1.17.57-2.75 1.76-4.47 3-2.85 2.08-6.03 4.34-8.18 4.29-3.44-.08-6.61-.13-10.16-4.24-3.54-4.12-9.93-7.78-11.18-11.41-1.27-3.63 2.66-8.16 2.66-8.16s20.87-31.86 20.43-52.36M283.64 258.77s6.95 19.52 19.13 24.99 51.53 10.77 75.92-23.92c-63.4 19.09-95.06-1.07-95.06-1.07h.01Z"/><path d="m377.61 259.34.18.28c-19.21 11.78-35.2 9.1-62.81 7.95-12.51-.53-20.57-3.09-25.69-5.77v0s10.62-7.62 16.92-6.23c6.31 1.38 9.1 5.1 9.1 5.1s4.13-5.76 17.11-3.97c12.3 1.72 34.39 8.77 45.18 2.64h.01Z"/><path d="M289.3 261.79s10.62-7.61 16.92-6.22c6.31 1.38 9.1 5.1 9.1 5.1s4.13-5.76 17.11-3.97c12.3 1.72 34.39 8.77 45.18 2.64.57-.33 1.12-.7 1.62-1.11"/><path d="M281.15 254.83s1.73 3.59 8.14 6.97c5.11 2.68 13.17 5.24 25.69 5.77 27.6 1.14 43.6 3.83 62.81-7.95.47-.27.93-.56 1.4-.87M295.85 277.58s2.32 5.82 11.47 7.56 30.4 3.15 36.81-1.68M303.96 275.15s13.29 5.65 33.62 1.08M409.17 151.82s3.63 3.07 10.42 2.65M373.11 166.17s20.25 7.44 34.57-5.48M455.6 57.5c-.03.06-.06.13-.09.19-6.66 13.73-15.97 10.57-19.73 8.3-1.5 10.92-20.88 7.74-27.88 4.83-6.15 6.89-20.91 6.51-27.89 1.13-8.63 7.28-32.01 8.27-38.1-3.06-3.01 5.41-7.55 13.86-23.28 12.01-15.74-1.84-19.43-14.38-13.21-18.77-8.52-3.38-8.24-15.9-1.32-24.01v0c3.57-4.18 8.9-7.18 15.71-7.15 1.07-17.92 22.85-23.81 34.29-15.39 5.01-5.42 14.19-6.37 20.38-1.64 3.43-4.42 11.49-4.53 16.09-2.15 13.38-20.81 43.28-6.54 48.85 12.52 8.49-5.18 17.72-2.65 17.75 8.4 4.57-.76 13.72 2.2 12.93 10.22 5.01 10.39-6.99 16.87-14.49 14.56l-.01.01Z"/><path d="m351.79 36.81-1.35-1.45c-2.94-3.17-7.64-4.15-12.56-2.63-5.34 1.65-9.34 5.82-9.95 10.38l-.25 1.87 1.39-1.31c3.65-3.42 11.19-8.92 20.76-7.22l1.97.35-.01.01ZM354.8 41.71c-3.66.95-5.96 3.33-6.48 6.7l-.28 1.79 1.39-1.18c4.17-3.55 9.74-3.06 15.13-2.59 1.08.09 2.19.19 3.26.25l1.5.08-.93-1.16c-2.76-3.44-8.73-5.15-13.59-3.89ZM381.79 49.06c-4.81.51-9.05 3.5-10.55 7.46l-.58 1.52 1.5-.69c6.63-3.04 11.53-4.89 18.91-2.95l1.69.44-.94-1.44c-2.09-3.21-5.74-4.8-10.02-4.35l-.01.01ZM387.41 33.72c-3.64-.14-6.47 1.56-7.78 4.68l-.61 1.44 1.48-.57c5.13-1.98 8.63-.6 13.07 1.14 1.06.42 2.17.85 3.36 1.27l1.29.45-.42-1.28c-1.28-3.88-5.75-6.94-10.39-7.12v-.01ZM372.44 29.75c2.45-.51 4.39-.91 7.84-1.19l1.04-.08-.5-.9c-1.28-2.3-3.92-3.48-6.88-3.07-3.15.44-5.69 2.54-6.3 5.23l-.22.98 1.01-.18c1.59-.29 2.88-.55 4.01-.79ZM420.94 30.89l1.27.09-.64-1.09c-1.81-3.09-5.97-5.09-9.91-4.75-3.24.28-5.69 2.07-6.72 4.9l-.48 1.31 1.34-.45c4.24-1.44 7-1.04 10.5-.55 1.35.19 2.89.41 4.64.54ZM418.67 51.11c-2.83-.09-4.91 1.32-5.71 3.86l-.35 1.12 1.16-.27c2.87-.68 4.92-.03 7.29.72 1.4.45 2.99.95 4.89 1.21l.98.13-.23-.95c-.86-3.47-4.83-5.73-8.02-5.82h-.01ZM446.81 43.38c-2.68-.83-6.32-.38-7.98 2.6l-.49.87 1.01.11c4.99.54 6.78.83 11.18 3.3l.89.5.11-1.01c.33-2.88-1.53-5.39-4.73-6.38l.01.01ZM425.53 37.18c-2.85-.21-5.77 1.21-7.09 3.47l-.46.78.9.2c1.67.37 2.99.49 4.19.49 1.09 0 2.07-.11 3.12-.22 1.07-.11 2.28-.24 3.78-.28l.96-.03-.35-.88c-.81-2.06-2.66-3.35-5.07-3.53h.02ZM405.33 21.61l1.39.49-.53-1.36c-1.22-3.14-4.15-5.16-7.83-5.41-4.08-.27-8.01 1.69-9.79 4.89l-.68 1.22 2.07-.36c6.2-1.08 9.32-1.62 15.38.53h-.01Z"/><path d="M455.6 57.5s-.07.11-.09.19c-6.66 13.73-15.97 10.57-19.73 8.3-1.5 10.92-20.88 7.74-27.88 4.83-6.15 6.89-20.91 6.51-27.89 1.13-8.63 7.28-32.01 8.27-38.1-3.06-3.01 5.41-7.55 13.86-23.28 12.01-15.74-1.84-19.43-14.38-13.21-18.77-8.52-3.38-8.24-15.9-1.32-24.01v0c-1.91 7.38 1.53 17.54 4.74 22.67 1.3-4.87 6.94-8.54 11.51-11.37-2.36 4.04-4.85 10.01-4.46 14.88 7.3-8.98 28.63-8.63 42.8-1.69-1.19 2.19-3.3 4.28-5.53 5.34 1.63 2.76 28.46 3.78 34.96-8.1.95 1.99 1.46 5.83-1.29 8.57 8.64.25 14.37-2.77 18.63-9.38 5.46 8.17 22.88 10.03 30-2.47 4.99 7.39 17.06 1.38 20.15.93h-.01Z"/></g><g stroke-width="0"><path fill="#ff953e" d="M572.33 407.58c-59.77-.09-235.3-1.01-289.7-2.34-17.13-.43-34.27-.85-51.4-1.26l-6.35-.16c-6.33-.15-13.49-.33-19.99-2.95-9.42-3.8-16.75-12.61-19.13-22.99-2.14-9.36-.15-22.75 6.89-28.98.18-.16.37-.32.57-.48 4.3-3.61 9.85-6.05 15.22-8.42 4.72-2.08 9.6-4.22 13.52-7.14 2.96-2.2 5.83-4.68 8.61-7.09 4.09-3.53 8.31-7.19 12.98-10.1 10.81-6.74 23.41-9.22 35.59-11.62l.96-.19c44.46-8.75 79.18-19.98 102.15-27.42 11.4-3.69 20.41-6.6 26.8-8.02 3.67-.81 6.79-1.2 9.54-1.2 5.65 0 10.05 1.69 13.07 5.02 1.27 1.07 17.5 9.43 36.31 19.12 38.37 19.77 96.37 49.65 110.39 60.38 9.01 6.89 14.84 13.41 17.82 19.91 3.02 6.55 2.65 11.79 1.97 17.03-1.19 9.1-9.76 18.89-25.77 18.89h-.05v.01Z"/><path fill="#422720" d="M418.58 268.65c4.55 0 8.9 1.12 12.03 4.56 2.55 2.8 125.59 63.38 146.89 79.67 9.79 7.49 14.87 13.87 17.4 19.38 2.99 6.48 2.44 11.77 1.85 16.26-1.09 8.3-8.88 17.66-24.37 17.66h-.05c-62.51-.09-235.58-1.02-289.67-2.34-19.25-.48-38.51-.95-57.75-1.42-6.58-.16-13.31-.35-19.49-2.85-8.94-3.6-16.03-12.14-18.28-22-1.98-8.63-.31-21.63 6.45-27.61.17-.15.33-.29.51-.43 7.94-6.67 20.16-9.18 28.71-15.53 7.34-5.46 13.76-12.3 21.49-17.12 10.87-6.78 23.63-9.17 36.07-11.62 66.18-13.02 109.63-31.16 128.99-35.44 2.96-.65 6.14-1.17 9.24-1.17m-.02-2.83c-2.86 0-6.08.4-9.84 1.23-6.46 1.43-15.5 4.35-26.94 8.05-22.94 7.42-57.62 18.64-101.99 27.37l-.96.19c-12.31 2.42-25.03 4.93-36.06 11.81-4.76 2.97-9.03 6.66-13.16 10.23-2.76 2.39-5.61 4.85-8.52 7.02-3.8 2.82-8.6 4.94-13.25 6.98-5.45 2.4-11.08 4.88-15.56 8.63-.21.17-.41.34-.61.52-7.42 6.56-9.55 20.58-7.31 30.34 2.47 10.83 10.13 20.02 19.98 23.99 6.73 2.72 14.03 2.9 20.48 3.05l3.4.08c18.11.44 36.24.89 54.35 1.34 54.41 1.33 229.96 2.25 289.74 2.34h.05c16.86 0 25.9-10.43 27.17-20.12.54-4.12 1.35-10.35-2.09-17.81-3.08-6.72-9.05-13.4-18.25-20.44-14.13-10.81-72.18-40.72-110.6-60.51-17.46-9-33.97-17.5-36.05-18.97-3.3-3.54-8-5.33-13.98-5.33v.01Z"/></g><path fill="none" stroke="#f4be59" stroke-linecap="round" stroke-miterlimit="10" stroke-width="5.65" d="m310.73 391.19 47.67 1.17M211.49 386.38c6.19 2.5 12.92 2.69 19.5 2.85 19.25.47 38.5.94 57.75 1.42"/><path fill="#c55023" stroke-width="0" d="M594.89 372.25c-11.11 14.27-37.92-19.88-70.28-6.32-33.49 14.03-51.14 14.28-69.69 3.21-18.55-11.08-28.11-8.26-49.34-1.78-21.24 6.49-33.58 11.36-51.87-2.28s-41.44 4.2-62.49 7.56c-12.89 2.07-30.48 4.46-38.8-4.6-8.33-9.05-12.23-10.88-19.13-10.23-6.9.66-13.42 8.45-23.78 6.41-8.85-1.74-13.18-10.91-15.42-14.7 7.94-6.67 20.16-9.18 28.71-15.53 7.34-5.46 13.76-12.3 21.49-17.12 10.87-6.78 23.63-9.17 36.07-11.62 66.18-13.02 109.63-31.16 128.99-35.44 7.3-1.61 16.02-2.39 21.26 3.39 2.55 2.8 125.59 63.38 146.89 79.67 9.79 7.49 14.87 13.87 17.4 19.38h-.01Z"/><path fill="none" stroke="#f4be59" stroke-linecap="round" stroke-miterlimit="10" stroke-width="6.4" d="M539.32 392.88c9.02.07 18.35.06 27.43-.8M391.8 390.64c9.01.44 18.33.82 27.44.34M437.26 391.98c9.26.23 18.54.3 27.8.37 18.57.13 37.15.27 55.72.4"/><path fill="#9abe3e" stroke="#422720" stroke-miterlimit="10" stroke-width="2.88" d="M611.83 336.16c-3.02 2.6-6.66 4.48-10.5 5.45-2.24.56-3.57 2.83-2.94 5.01 1.04 3.64 1.13 7.72-.75 10.48-1.46 2.16-4.64 2.44-6.44.53-2.54-2.7-7.45-3.33-10.59-.93a3.6 3.6 0 0 0-.84.9c-4.52 6.68-10.41 5.6-16.43 1.41a4.19 4.19 0 0 0-3.94-.44c-6.83 2.68-14.66 2.52-21.15-.37-1.83-.82-3.98-.17-5.11 1.47-3.34 4.81-10.67 6.96-16.35 5.1-5.12-1.67-8.94-5.59-11.72-10.19-1.35-2.25-4.46-2.64-6.4-.86-2.69 2.5-5.8 4.36-9.24 3.97-3.99-.46-6.87-3.85-10.71-4.9-9.23-2.52-17.52 9.02-27.18 9.31-.2 0-4.39 1.51-8.35-.26s-9.79-4.7-18.58-6.89c-1.57-.47-3.19-.93-4.84-.69-1.93.29-3.6 1.52-5.33 2.51-.18.11-.38.2-.58.27 0 0-6.1 1.02-12.64 3.93-1.1.49-2.26.99-3.47.88-4.14-.38-4.67-6.44-7.35-9.74-1.63-2-4.32-2.69-6.76-2.22-2.46.47-3.92 3.06-3.01 5.37 1.2 3.11-2.66 7.64-9.15 3.66-.09-.05-.18-.11-.26-.17-8.14-5.87-9.31-2.55-13.54-4.87-.56-.31-1.05-.73-1.4-1.25-.99-1.44-1.49-3.36-3.04-4.07-2.73-1.25-5.05 2.35-7.89 3.13-2.41.65-4.93-.85-7.44-.83-6.41.06-9.01 9.16-15.11 10.99-6.54 1.95-13.43-5.19-19.74-6.05-2.36-.33-4.51 1.42-4.65 3.76-.71 11.39-12.74 13.32-15.52 6.02-.56-1.45-1.89-2.44-3.45-2.63-2.42-.29-4.76-2.02-5.87-4.27-.74-1.52-2.39-2.37-4.11-2.22-2.63.24-5.45-.88-7.05-3.11-1.6-2.25-1.96-5.24-3.66-7.42-2.84-3.63-9.05-2.79-11.37.83-.6.93-.73 2.07-.46 3.13 2.45 9.73-8.81 18.05-17.34 11.66-.16-.12-.31-.26-.45-.4-4.41-4.58-6.83-.43-9.29 3.29-1.79 2.69-5.87 2.36-7.23-.56-1.72-3.69-5.07-6.65-8.92-7.71a4.113 4.113 0 0 1-2.81-2.67c-.21-.67-.43-1.33-.65-2-.65-2.02-2.79-3.21-4.88-2.71-.09.02-.19.04-.29.06-1.74.41-3.51-.35-4.47-1.83-1.48-2.29-5.4-4.13-6.2-7.08-1.3-4.81 5.97-10.3 3.46-13.63-.16-.23-.38-.44-.64-.64-.89-.7-2.03-.78-3.17-.91-.74-.09-1.5-.19-2.17-.48-9.08-3.98 4.34-14.85 7.96-17.12.15-.09.29-.19.45-.27 18.87-11.64 42.17-3.66 62.75-7.83 8.7-1.8 16.91-5.78 25.78-6.39 10.39-.72 20.81 3.24 31.19 2.41 13.58-1.08 25.02-10.11 37.9-14.39 13.76-4.57 48.11-4.27 78.43-4.27s78.73 6.25 111.04 14.17c8.06 2.4 16.51 4.95 24.86 7.98 19.3 6.98 38.07 16.45 50.19 32.1 1.3 1.69 1.05 4.1-.58 5.49h-.01Z"/><path fill="#92ab2c" stroke-width="0" d="M577.33 320.6c-2.1-7.38-9.69-8.4-12.92-1.72-.35.7-.64 1.46-.92 2.23-.53 1.42-1.01 2.88-1.7 4.12-2.38 4.29-5.95 4.41-9.48 2.83-2.17-.97-4.33-2.59-6.18-4.28-7.82 8.61-18.43 10.17-26.74 3.93-.22 4.64-1.76 8.68-3.99 11.73-2.91 3.99-6.99 6.28-10.84 5.98-.54-.04-1.07-.13-1.59-.27-3.49-.95-6.56-3.54-9.23-7.06-1.27-1.66-2.44-3.53-3.52-5.53-1.35-2.49-2.55-5.18-3.62-7.94-1.47 3.87-3.21 7.99-5.32 11.05-1.84 2.68-3.96 4.53-6.43 4.66h-.09c-2.42.08-4.61-1.59-6.83-3.08-1.42-.95-2.87-1.83-4.39-2.12-.22-.04-.44-.07-.65-.09-9.25-.84-15.69 18.67-25.16 20.92-1.22.29-2.44.25-3.66.1 1.15-2.35 2.29-4.72 3.41-7.11 1.1-2.36 2.2-4.74 3.25-7.15.75-1.69 1.48-3.39 2.21-5.11 1.03-2.46 2.05-4.95 2.77-7.66 1.46-5.56 1.46-12 .01-17.33a319.806 319.806 0 0 0-27.2 20.93c-1.56 1.33-3.2 2.72-4.97 2.55-1.51-.14-2.89-1.38-4.24-2.48-4.91-4.01-10.27-6.52-15.71-7.43-3.92-.67-7.87-.51-11.74.51-.46.12-.91.25-1.36.39-4.15 1.29-8.25 3.31-12.44 3.92-1.03.15-2.06.21-3.1.16-4.69-.24-9.37-2.87-14.01-1.9-1.22.25-2.38.74-3.52 1.4-2.82 1.63-5.43 4.28-8.05 6.85-.92.89-1.84 1.78-2.78 2.61-.4.36-.79.71-1.2 1.04-5.15 4.23-12.34 5.63-16.13-1.64-.85-1.63-1.48-3.63-2.26-5.33-.53-1.16-1.13-2.18-1.9-2.88-2.19-1.95-5.03-.76-7.69.19-2.88 1.04-5.52 1.79-6.79-2.08-.61-1.86-.5-4.16-1.15-5.97-1.97-5.51-6.96-.58-10.95-.85-.87-.06-1.7-.37-2.44-1.09-.33-.32-.63-.72-.91-1.16-1.23-1.92-2.13-4.65-3.75-5.3-1.09-.43-2.21.22-3.24.86-6.2 3.85-12.76 8.15-16.53 16.97-.97 2.28-1.81 4.94-3.36 6.16-1.06.84-2.3.85-3.5.85-3.33 0-6.66-.02-9.99-.03-3.31-.02-6.76-.1-10.06-.92-3.03-.75-5.94-2.1-8.51-4.57-.8-.76-1.58-1.64-2.31-2.64-1.77 3.2-4.01 5.72-6.46 7.4h-.01c-2.58 1.78-5.42 2.62-8.24 2.39-.25-.02-.51-.05-.76-.09-.24-.27-.49-.54-.75-.8-2.74-2.93-5.63-5.47-8.64-7.59-3.61-2.57-7.38-4.53-11.23-5.82-.13-.05-.25-.09-.39-.13-1.15-.37-2.35-.72-3.43-1.42-.7-.45-1.36-1.05-1.92-1.89-.55-.84-.85-2.02-1.02-3.22 2.65-5.53 7.13-10.8 9.18-12.76 18.87-11.64 42.17-3.66 62.75-7.83 8.7-1.8 16.91-5.78 25.78-6.39 10.39-.72 20.81 3.24 31.19 2.41 13.58-1.08 25.02-10.11 37.9-14.39 13.76-4.57 48.11-4.27 78.43-4.27s78.73 6.25 111.04 14.17c8.06 2.4 16.51 4.95 24.86 7.98 10.78 6.53 20.91 14.24 29.95 23.31 3.06 3.08-11.3-2.58-14.84-1.28h.01Z" opacity=".26" style="mix-blend-mode:multiply"/><g fill="#a9d928" stroke-width="0"><path d="M221.92 340.08c-.84-.32-1.68-.66-2.51-1.01-.39-.17-.79-.34-1.18-.51-.22-.1-.43-.2-.65-.29-.29-.13.26.12-.21-.1a81.32 81.32 0 0 1-4.82-2.49c-3.15-1.78-6.18-3.8-9.06-6.02-1.25-.96-3.34-.36-4.04.97-.82 1.54-.3 3.13 1.03 4.16 6.04 4.66 12.74 8.35 19.8 11.06 1.46.56 3.29-.48 3.65-1.99.39-1.66-.47-3.18-2.02-3.78h.01ZM239.38 332.33c-.23-.11-.46-.21-.69-.32-.51-.16-1.02-.18-1.54-.06l.63-.06c-2.02.2-4.06.12-6.08-.2-.6-.12-1.19-.24-1.78-.4-1.5-.41-3.26.37-3.65 1.99-.36 1.53.42 3.34 2.02 3.78 1.67.45 3.4.76 5.12.9 1.74.14 3.46.05 5.19-.13.69-.07 1.47-.77 1.81-1.34.37-.63.54-1.55.32-2.28-.22-.75-.66-1.48-1.35-1.88ZM226.54 322.19c-3.11.08-6.21.15-9.32.23-.8.02-1.55.25-2.13.82-.5.5-.9 1.33-.88 2.07.04 1.55 1.24 3.18 2.89 3.14 3.11-.08 6.21-.15 9.32-.23.8-.02 1.55-.25 2.13-.82.5-.5.9-1.33.88-2.07-.04-1.55-1.24-3.18-2.89-3.14ZM296.15 337.64c-5.21.61-10.72 1.28-15.98.65-4.13-.5-8.32-2.49-10.23-6.48-.71-1.48-2.7-1.96-4.02-1.21-1.45.82-1.81 2.61-1.1 4.09 2.58 5.39 8.12 8.43 13.68 9.39 6.25 1.09 12.9.16 19.11-.56 1.58-.18 2.49-2.17 2.13-3.62-.43-1.74-2-2.44-3.59-2.25v-.01ZM284.95 319.48c-1.02.26-2.05.48-3.08.66-.56.1-1.12.18-1.68.25l-.72.09h-.06c-.08 0-.16.01-.24.02-2.14.17-4.29.17-6.44 0-1.54-.12-3.05 1.3-3.01 2.9.04 1.68 1.24 3.01 2.89 3.14 4.63.35 9.32-.05 13.79-1.18 1.49-.38 2.59-2.04 2.13-3.62-.46-1.56-1.99-2.66-3.59-2.26h.01ZM316.62 327.19l-7.1 1.32c-1.51.28-2.58 2.11-2.13 3.62.48 1.64 1.96 2.56 3.59 2.26l7.1-1.32c1.51-.28 2.58-2.11 2.13-3.62-.48-1.64-1.96-2.56-3.59-2.26ZM335.8 333.18c-3.98 1.06-7.96 2.11-11.95 3.17-1.48.39-2.73 1.77-2.32 3.45.36 1.47 1.91 2.89 3.5 2.47 3.98-1.06 7.96-2.11 11.95-3.17 1.48-.39 2.73-1.77 2.32-3.45-.36-1.47-1.91-2.9-3.5-2.47ZM403.08 336.25c-3.45-3.55-8.34-4.02-12.86-3.02-5.37 1.18-10.78 5.11-16.23 1.84-4.66-2.79-7.7-7.71-12.37-10.54-4.7-2.85-10.62-3.2-14.78.58-2.81 2.55 1.33 6.94 4.14 4.39 3.69-3.35 8.83.68 11.64 3.4 3.39 3.27 6.58 6.82 11 8.6 4.82 1.94 9.6.42 14.19-1.2 3.28-1.16 8.15-2.91 11.08.1 2.7 2.78 6.91-1.36 4.2-4.15h-.01ZM393.55 321.08c-.53-.51-1.29-.99-2.04-.94l-9.22.63c-.81.05-1.53.23-2.13.82-.5.5-.9 1.33-.88 2.07.02.79.27 1.63.85 2.2.53.51 1.29.99 2.04.94 3.07-.21 6.15-.42 9.22-.62.81-.05 1.53-.23 2.13-.82.5-.5.9-1.33.88-2.07-.02-.79-.27-1.63-.85-2.2v-.01ZM446.14 337.1c-1.41-.44-3.37.38-3.65 1.99-.28 1.62-1.05 2.4-2.55 3.17-1.59.82-4.03.76-6.03.56-5.08-.51-10.45-1.67-15 1.33-1.32.88-1.93 2.59-1.1 4.09.75 1.36 2.69 2.09 4.02 1.21 4.44-2.93 10.31-.24 15.23-.48 4.79-.23 10.17-2.79 11.1-8.1.28-1.6-.38-3.26-2.02-3.78v.01ZM465.22 317.7c-.89-1.47-2.54-1.93-4.02-1.21l-11.5 5.58c-1.38.67-1.92 2.75-1.1 4.09.89 1.47 2.54 1.93 4.02 1.21 3.83-1.86 7.67-3.72 11.5-5.58 1.38-.67 1.92-2.75 1.1-4.09ZM435.27 325.08l-6.72 1.26c-1.51.28-2.58 2.11-2.13 3.62.48 1.64 1.96 2.56 3.59 2.26l6.72-1.26c1.51-.28 2.58-2.11 2.13-3.62-.48-1.64-1.96-2.56-3.59-2.25v-.01ZM483.03 337.56c-.47-1.51-2.04-2.45-3.66-1.97-.04.01-.09.02-.13.04-.08 0-.15 0-.22.01-.15-.04-.3-.07-.45-.11-.15-.07-.31-.14-.45-.22-.13-.07-.26-.14-.38-.22-.04-.03-.18-.12-.27-.18-.04-.03-.08-.06-.09-.07-.15-.12-.3-.25-.45-.38-.3-.27-.6-.55-.9-.82-.79-.73-1.6-1.41-2.5-2.01-3.51-2.35-9.01-1.42-10.52 3.03-.51 1.49.62 3.27 2.13 3.53 1.52.26 2.83-.53 3.47-1.86.01 0 .03 0 .04-.01 0 .02 0 0 0 0 .04-.02.08-.03.11-.04.07-.02.02 0 .05-.01.11-.01.22-.02.31-.02.12 0 .63-.06.15 0-.45.05-.02.01.13.05.05 0 .09.02.13.04.25.07.69.38.81.45.03.02.01 0 .03.02l.04.04c.14.12.28.23.42.35.31.26.61.54.9.82 2.44 2.27 5.48 4.37 9.13 3.27 1.52-.46 2.63-2.19 2.16-3.7l.01-.03ZM539.95 342.76c-3.86-2.07-7.91-4.14-12.31-4.94-2.17-.39-4.38-.49-6.59-.14-2.48.39-4.68 1.4-7.01 2.31-2.09.82-4.02 1.37-6.09.43-2.03-.92-3.59-2.55-5.24-3.96-3.41-2.9-7.38-5.06-12.13-3.99-3.82.86-2.29 6.52 1.5 5.67 3.7-.83 6.95 3.36 9.4 5.28 3.59 2.8 7.57 4.26 12.27 2.87 4.06-1.2 7.41-3.42 11.75-2.78 4.14.62 7.86 2.59 11.45 4.52 3.33 1.78 6.34-3.48 2.99-5.27h.01ZM568.62 324.05c-1.71-2.72-4.87-3.44-7.99-2.66-3.21.79-5.36 3.09-7.37 5.55-.93 1.14-1.88 2.39-3.16 3.17-.15.09-.78.41-.69.37.23-.09-.46.14-.53.16-.01 0-.49.12-.57.15-.28.04-.56.07-.83.08-1.36.08-2.04-.04-3.4-.33-1.28-.27-2.52-.65-3.76-1.04-1.53-.48-3.29.8-3.68 2.26-.45 1.68.6 3.05 2.13 3.53 4.85 1.52 10.59 2.67 15.16-.75 1.38-1.03 2.49-2.26 3.58-3.58.46-.56.9-1.12 1.38-1.66.28-.32.58-.64.88-.94.08-.08.84-.7.39-.37.21-.15.44-.29.67-.42.11-.07.64-.33.28-.17.29-.13.59-.2.9-.3.1-.02.19-.05.29-.07.19-.02.38-.03.57-.03.04.01.26.04.4.07 0 0 .03.01.05.02l.03.03c.02.03.02.03.05.08.84 1.33 2.65 1.81 4.1.95 1.39-.83 1.99-2.74 1.15-4.08l-.03-.02ZM579.59 340.57c-.06-1.45-1.32-3.09-2.99-2.84-5.48.81-10.97 1.62-16.45 2.44-.82.12-1.52.33-2.13.95-.52.53-.92 1.39-.89 2.13.06 1.46 1.32 3.09 2.99 2.84 5.48-.81 10.97-1.63 16.45-2.44.82-.12 1.52-.33 2.13-.95.52-.53.92-1.39.89-2.13Z"/></g><g stroke-width="0"><path fill="#ff953e" d="M319.99 333.85c-28.59 0-37.82-7.73-45.24-13.94-4.35-3.64-7.79-6.52-14.29-7.07-3.18-.27-6.69-.39-11.06-.39-3.63 0-7.42.09-11.07.17-3.66.09-7.45.18-11.08.18-7.35 0-16.71-.33-23.87-2.86-10.3-3.65-16.58-10.74-17.69-19.96-2.78-23.26 1.76-71.26 15.81-118.01 11.93-39.68 34.53-91.44 74.44-112.64 34.98-18.58 75.75-28.4 117.91-28.4 47.91 0 92.4 13.22 119.03 35.37 1.84 1.31 46.65 33.79 70.66 90.5 19.82 46.81 15.46 116.58 12.67 144.41-.67 6.63-6.27 11.63-13.03 11.63 0 0-108.43-.02-131.31-.02s-39.83 0-49.48.02c-4.35 0-10.29 2.58-17.82 5.84-14.79 6.4-35.04 15.16-64.59 15.16l.01.01Z"/><path fill="#422720" d="M393.86 32.37c47.87 0 91.75 13.11 118.11 35.04.08.07 45.78 32.14 70.25 89.95 19.81 46.78 15.2 117.38 12.56 143.7-.59 5.87-5.6 10.34-11.6 10.34-37.44 0-90.35-.02-130.58-.02-22.16 0-40.46 0-50.21.02-13.23.02-37.33 21-82.4 21s-40.99-19.44-59.41-21c-3.56-.3-7.33-.4-11.18-.4-7.28 0-14.9.35-22.15.35-8.77 0-16.99-.51-23.39-2.78-9.04-3.2-15.62-9.38-16.74-18.77-5.46-45.68 17.66-191.04 89.5-229.2 36.88-19.59 78.37-28.23 117.23-28.23m.01-2.87v2.88-2.88c-42.4 0-83.41 9.88-118.59 28.57-40.35 21.43-63.13 73.55-75.15 113.49-14.11 46.93-18.66 95.19-15.87 118.59 1.17 9.79 7.79 17.3 18.64 21.14 7.33 2.59 16.42 2.95 24.35 2.95 3.65 0 7.45-.09 11.11-.18 3.65-.09 7.42-.17 11.04-.17 4.32 0 7.8.12 10.94.39 6.04.51 9.17 3.12 13.49 6.74 7.6 6.36 17.06 14.27 46.17 14.27s51.1-9.2 65.16-15.28c7.37-3.19 13.2-5.71 17.25-5.72 8.76-.01 25.18-.02 50.21-.02H583.19c7.5 0 13.72-5.56 14.46-12.93 2.8-27.94 7.17-98-12.77-145.11-10.02-23.67-25.31-46.78-44.2-66.81-13.97-14.82-25.43-23.21-26.95-24.3-26.87-22.31-71.68-35.64-119.87-35.64v.02Z"/></g><path fill="none" stroke="#f4be59" stroke-linecap="round" stroke-miterlimit="10" stroke-width="5.75" d="M260.63 95.59c4.86-6.81 10.19-13.1 16.04-18.7M216.77 230.52c3.31-34.82 13.06-82.09 34.11-119.53M244.16 189.21c1.98-9.68 4.52-19.21 7.72-28.34M238.1 248.23c.19-13.14 1.09-26.96 2.97-40.77"/><path fill="#c55023" stroke-width="0" d="M585.45 300.3c-4.16 7.19-111.44 4.12-110.09-4.79 1.35-8.87 1.73-19.02 1.11-30.16-1.12-20.21-5.21-40.14-8.19-54.7-.75-3.66-1.46-7.12-2.01-10.03-.62-3.29-1.56-7.2-2.64-11.72-3.75-15.62-8.89-37-6.75-57.54 2.5-24.01 14.27-40.5 35.98-50.4 2.6-1.18 5.35-1.77 8.08-1.77 4.83-.01 9.58 1.77 13.27 5.2 9.16 8.52 85.04 50.82 71.25 215.93l-.01-.02Z"/><path fill="none" stroke="#ff953e" stroke-linecap="round" stroke-linejoin="round" stroke-width="5.75" d="M519.12 114.13c10.18 11.54 19.37 24 26.89 37.38 8.1 14.41 14.26 29.97 17.23 46.21.99 5.38 1.8 10.88 1.8 16.31M525.49 189.33c3.74 10.8 6.32 21.99 7.36 33.37.5 5.45.81 10.99.32 16.4M523.43 151.17c2.24 3.71 4.36 7.48 6.34 11.33 7.58 14.69 13.17 30.45 15.56 46.79"/><path fill="none" stroke="#f4be59" stroke-linecap="round" stroke-miterlimit="10" stroke-width="5.75" d="M441.03 201.59c-2.83-12.76-6.93-31.05-7.03-49.84M451.38 307.63c5.29-27.92-1.33-62.04-5.97-84.69M430.47 279.05c-.67-20.29-4.7-40.78-7.83-56.05"/><path fill="none" stroke="#c55023" stroke-linecap="round" stroke-linejoin="round" stroke-width="4.28" d="M355.88 142.42s11.63-11.33 29.44-9.61c12.95 1.25 22.55 7.88 26.71 12.28a9.799 9.799 0 0 0 6.46 3.05l2.93.2"/><path fill="#8e4638" stroke="#422720" stroke-linecap="round" stroke-linejoin="round" stroke-width="2.88" d="M352.22 132.15s4.18-6.31 30.65-4.48c26.47 1.84 48.16 7.52 48.16 7.52S419 113.18 396.5 112.08s-45.54 10.77-52.18 6.29c-1.41 10.67 7.89 13.78 7.89 13.78h.01Z"/><path fill="none" stroke="#422720" stroke-linecap="round" stroke-linejoin="round" stroke-width="2.85" d="M343.87 202.9s2.48-2.78 5.62-1.26c3.13 1.52 6.93 5.44 5.39 15.14-1.54 9.69-12.84 11.51-12.84 11.51"/><path fill="none" stroke="#422720" stroke-linecap="round" stroke-linejoin="round" stroke-width="2.88" d="M258.6 144.54s3.93 2.14 6.85-.02"/><path fill="none" stroke="#c55023" stroke-linecap="round" stroke-linejoin="round" stroke-width="4.28" d="M309.22 137.19s-10.52-10.65-25.06-10.6-22.12 13.69-22.12 13.69"/><path fill="#8e4638" stroke="#422720" stroke-linecap="round" stroke-linejoin="round" stroke-width="2.88" d="M257.18 129.85s6.64-7.71 23.34-8.28 28.3 9.53 28.3 9.53 5.69-7.81 4.32-13.25c-7.48 1.53-57.73-21.18-55.95 12h-.01Z"/><path fill="none" stroke="#422720" stroke-linecap="round" stroke-linejoin="round" stroke-width="2.85" d="M280.65 253.01s2.59 6.29.88 12.28M371.77 251.02s2.78 4.53 8.43 7.81 6.41 7.67 6.41 7.67M312.93 308.58s-5.37 6.12-2.73 14.57"/><path fill="none" stroke="#c55023" stroke-linecap="round" stroke-linejoin="round" stroke-width="4.28" d="M365.69 218.48s12.36 11.79 21.36 16.93 12.83 11.91 11.74 17.03M293.52 212.5s-17 13.46-18.6 27.28"/><g stroke-width="0"><path fill="#fffcfd" d="M409.17 151.82s-4.74 3.54-13.17 5.54c2.51-2.18 4.19-5.29 4.44-8.83.17-2.37-.31-4.64-1.32-6.64 8.22 3.88 10.05 9.93 10.05 9.93Z"/><path fill="#632d2a" d="M400.44 148.54c-.26 3.54-1.94 6.65-4.44 8.83-2.51.59-5.34 1.05-8.46 1.22-2.32.14-4.82.12-7.42-.02h-.02c-3.9-2.51-6.37-6.96-6.02-11.87.21-2.86 1.34-5.45 3.12-7.49 2.17-.36 4.51-.52 6.98-.46 6.47.17 11.34 1.46 14.95 3.15 1.01 2 1.49 4.27 1.32 6.64h-.01Z"/><path fill="#fffcfd" d="M380.09 158.57c-12.74-.67-27.21-4.05-27.21-4.05s7.85-12.72 24.31-15.31a12.765 12.765 0 0 0-3.12 7.49c-.35 4.91 2.12 9.36 6.02 11.87ZM303.99 137.95c7.5 5.77 8.27 13.59 8.27 13.59s-6.32 1.9-15.68 2.32c4.5-1.59 7.87-5.62 8.23-10.61.14-1.88-.17-3.67-.83-5.3h.01Z"/><path fill="#632d2a" d="M303.99 137.95c.66 1.63.96 3.43.83 5.3-.36 4.99-3.73 9.02-8.23 10.61h-.02c-2.54.11-5.31.11-8.24-.06h-.01c-5.06-1.78-8.51-6.72-8.11-12.26.28-3.92 2.43-7.27 5.51-9.27 2.1-.09 4.35.08 6.76.6 4.98 1.07 8.72 2.93 11.52 5.08h-.01Z"/><path fill="#fffcfd" d="M288.31 153.79c-1.65-.09-3.37-.25-5.11-.47-16.19-2.08-17.74-8.79-17.74-8.79s6.55-11.73 20.25-12.26c-3.08 2-5.23 5.35-5.51 9.27-.4 5.54 3.05 10.47 8.11 12.26v-.01Z"/></g><g fill="none" stroke="#422720" stroke-linecap="round" stroke-linejoin="round" stroke-width="2.85"><path d="M380.12 158.57c2.6.14 5.11.16 7.42.02 3.13-.18 5.95-.63 8.46-1.22 8.43-2.01 13.17-5.54 13.17-5.54s-1.83-6.05-10.05-9.93c-3.61-1.7-8.48-2.99-14.95-3.15-2.47-.06-4.81.1-6.98.46-16.46 2.59-24.31 15.31-24.31 15.31s14.47 3.38 27.21 4.05"/><path d="M399.12 141.9c1.01 2 1.49 4.27 1.32 6.64-.26 3.54-1.94 6.65-4.44 8.83M296.56 153.85c-2.54.11-5.31.11-8.24-.06"/><path d="M288.31 153.79c-1.65-.09-3.37-.25-5.11-.47-16.19-2.08-17.74-8.79-17.74-8.79s6.55-11.73 20.25-12.26c2.1-.09 4.35.08 6.76.6 4.98 1.07 8.72 2.93 11.52 5.08 7.5 5.77 8.27 13.59 8.27 13.59s-6.32 1.9-15.68 2.32"/><path d="M303.99 137.95c.66 1.63.96 3.43.83 5.3-.36 4.99-3.73 9.02-8.23 10.61h-.02M288.32 153.79h-.01c-5.06-1.78-8.51-6.72-8.11-12.26.28-3.92 2.43-7.27 5.51-9.27M380.12 158.57h-.02c-3.9-2.51-6.37-6.96-6.02-11.87.21-2.86 1.34-5.45 3.12-7.49"/></g><path fill="none" stroke="#c55023" stroke-linecap="round" stroke-linejoin="round" stroke-width="4.28" d="M272.63 159.82s14.9 6.56 33.42-.41"/><ellipse fill="#422720" stroke-width="0" rx="6.07" ry="5.97" transform="translate(387.25 147.62)"/><ellipse fill="#fff" stroke-width="0" rx="4.4" ry="3.58" transform="rotate(-59.97 315.386 -256.959)"/><ellipse fill="#fff" stroke-width="0" rx="2.52" ry="2.48" transform="translate(392.66 149.95)"/><ellipse fill="#422720" stroke-width="0" rx="5.56" ry="5.47" transform="translate(292.51 142.39)"/><ellipse fill="#fff" stroke-width="0" rx="2.52" ry="2.48" transform="translate(297.91 144.72)"/><ellipse fill="#fff" stroke-width="0" rx="4.4" ry="3.37" transform="rotate(-59.75 264.396 -178.69)"/><g stroke="#422720" stroke-linecap="round" stroke-linejoin="round"><path fill="#8e4638" stroke-width="2.88" d="M340.53 224.44c.09 2.93-16.39 1.68-16.39 1.68v0c1.72-1.25 3.3-2.45 4.47-3.02 3.11-1.55 11.82-1.59 11.92 1.34Z"/><path fill="none" stroke-width="2.85" d="M324.14 226.12s16.48 1.25 16.39-1.68c-.11-2.93-8.81-2.9-11.92-1.34-1.17.57-2.75 1.76-4.47 3-2.85 2.08-6.03 4.34-8.18 4.29-3.44-.08-6.61-.13-10.16-4.24-3.54-4.12-9.93-7.78-11.18-11.41-1.27-3.63 2.66-8.16 2.66-8.16s20.87-31.86 20.43-52.36"/></g><path fill="#c55023" stroke-width="0" d="M283.64 258.77s6.95 19.52 19.13 24.99 51.53 10.77 75.92-23.92c-63.4 19.09-95.06-1.07-95.06-1.07h.01Z"/><path fill="#c55023" stroke-width="0" d="m377.61 259.34.18.28c-19.21 11.78-35.2 9.1-62.81 7.95-12.51-.53-20.57-3.09-25.69-5.77 0 0 10.62-7.62 16.92-6.23 6.31 1.38 9.1 5.1 9.1 5.1s4.13-5.76 17.11-3.97c12.3 1.72 34.39 8.77 45.18 2.64h.01Z"/><g fill="none" stroke="#422720" stroke-linecap="round" stroke-linejoin="round" stroke-width="2.85"><path d="M289.3 261.79s10.62-7.61 16.92-6.22c6.31 1.38 9.1 5.1 9.1 5.1s4.13-5.76 17.11-3.97c12.3 1.72 34.39 8.77 45.18 2.64.57-.33 1.12-.7 1.62-1.11"/><path d="M281.15 254.83s1.73 3.59 8.14 6.97c5.11 2.68 13.17 5.24 25.69 5.77 27.6 1.14 43.6 3.83 62.81-7.95.47-.27.93-.56 1.4-.87"/></g><path fill="none" stroke="#422720" stroke-linecap="round" stroke-linejoin="round" stroke-width="2.85" d="M295.85 277.58s2.32 5.82 11.47 7.56 30.4 3.15 36.81-1.68"/><path fill="none" stroke="#f0976c" stroke-linecap="round" stroke-linejoin="round" stroke-width="5.7" d="M303.96 275.15s13.29 5.65 33.62 1.08"/><path fill="none" stroke="#422720" stroke-linecap="round" stroke-linejoin="round" stroke-width="2.85" d="M409.17 151.82s3.63 3.07 10.42 2.65"/><path fill="none" stroke="#c55023" stroke-linecap="round" stroke-linejoin="round" stroke-width="4.28" d="M373.11 166.17s20.25 7.44 34.57-5.48"/><path fill="#9abe3e" stroke="#422720" stroke-linecap="round" stroke-linejoin="round" stroke-width="3.07" d="M455.6 57.5c-.03.06-.06.13-.09.19-6.66 13.73-15.97 10.57-19.73 8.3-1.5 10.92-20.88 7.74-27.88 4.83-6.15 6.89-20.91 6.51-27.89 1.13-8.63 7.28-32.01 8.27-38.1-3.06-3.01 5.41-7.55 13.86-23.28 12.01-15.74-1.84-19.43-14.38-13.21-18.77-8.52-3.38-8.24-15.9-1.32-24.01v0c3.57-4.18 8.9-7.18 15.71-7.15 1.07-17.92 22.85-23.81 34.29-15.39 5.01-5.42 14.19-6.37 20.38-1.64 3.43-4.42 11.49-4.53 16.09-2.15 13.38-20.81 43.28-6.54 48.85 12.52 8.49-5.18 17.72-2.65 17.75 8.4 4.57-.76 13.72 2.2 12.93 10.22 5.01 10.39-6.99 16.87-14.49 14.56l-.01.01Z"/><g fill="#a9d928" stroke-width="0"><path d="m351.79 36.81-1.35-1.45c-2.94-3.17-7.64-4.15-12.56-2.63-5.34 1.65-9.34 5.82-9.95 10.38l-.25 1.87 1.39-1.31c3.65-3.42 11.19-8.92 20.76-7.22l1.97.35-.01.01ZM354.8 41.71c-3.66.95-5.96 3.33-6.48 6.7l-.28 1.79 1.39-1.18c4.17-3.55 9.74-3.06 15.13-2.59 1.08.09 2.19.19 3.26.25l1.5.08-.93-1.16c-2.76-3.44-8.73-5.15-13.59-3.89ZM381.79 49.06c-4.81.51-9.05 3.5-10.55 7.46l-.58 1.52 1.5-.69c6.63-3.04 11.53-4.89 18.91-2.95l1.69.44-.94-1.44c-2.09-3.21-5.74-4.8-10.02-4.35l-.01.01ZM387.41 33.72c-3.64-.14-6.47 1.56-7.78 4.68l-.61 1.44 1.48-.57c5.13-1.98 8.63-.6 13.07 1.14 1.06.42 2.17.85 3.36 1.27l1.29.45-.42-1.28c-1.28-3.88-5.75-6.94-10.39-7.12v-.01ZM372.44 29.75c2.45-.51 4.39-.91 7.84-1.19l1.04-.08-.5-.9c-1.28-2.3-3.92-3.48-6.88-3.07-3.15.44-5.69 2.54-6.3 5.23l-.22.98 1.01-.18c1.59-.29 2.88-.55 4.01-.79ZM420.94 30.89l1.27.09-.64-1.09c-1.81-3.09-5.97-5.09-9.91-4.75-3.24.28-5.69 2.07-6.72 4.9l-.48 1.31 1.34-.45c4.24-1.44 7-1.04 10.5-.55 1.35.19 2.89.41 4.64.54ZM418.67 51.11c-2.83-.09-4.91 1.32-5.71 3.86l-.35 1.12 1.16-.27c2.87-.68 4.92-.03 7.29.72 1.4.45 2.99.95 4.89 1.21l.98.13-.23-.95c-.86-3.47-4.83-5.73-8.02-5.82h-.01ZM446.81 43.38c-2.68-.83-6.32-.38-7.98 2.6l-.49.87 1.01.11c4.99.54 6.78.83 11.18 3.3l.89.5.11-1.01c.33-2.88-1.53-5.39-4.73-6.38l.01.01ZM425.53 37.18c-2.85-.21-5.77 1.21-7.09 3.47l-.46.78.9.2c1.67.37 2.99.49 4.19.49 1.09 0 2.07-.11 3.12-.22 1.07-.11 2.28-.24 3.78-.28l.96-.03-.35-.88c-.81-2.06-2.66-3.35-5.07-3.53h.02ZM405.33 21.61l1.39.49-.53-1.36c-1.22-3.14-4.15-5.16-7.83-5.41-4.08-.27-8.01 1.69-9.79 4.89l-.68 1.22 2.07-.36c6.2-1.08 9.32-1.62 15.38.53h-.01Z"/></g><path fill="#92ab2c" stroke-width="0" d="M455.6 57.5s-.07.11-.09.19c-6.66 13.73-15.97 10.57-19.73 8.3-1.5 10.92-20.88 7.74-27.88 4.83-6.15 6.89-20.91 6.51-27.89 1.13-8.63 7.28-32.01 8.27-38.1-3.06-3.01 5.41-7.55 13.86-23.28 12.01-15.74-1.84-19.43-14.38-13.21-18.77-8.52-3.38-8.24-15.9-1.32-24.01-1.91 7.38 1.53 17.54 4.74 22.67 1.3-4.87 6.94-8.54 11.51-11.37-2.36 4.04-4.85 10.01-4.46 14.88 7.3-8.98 28.63-8.63 42.8-1.69-1.19 2.19-3.3 4.28-5.53 5.34 1.63 2.76 28.46 3.78 34.96-8.1.95 1.99 1.46 5.83-1.29 8.57 8.64.25 14.37-2.77 18.63-9.38 5.46 8.17 22.88 10.03 30-2.47 4.99 7.39 17.06 1.38 20.15.93h-.01Z" opacity=".26" style="mix-blend-mode:multiply"/><g id="eI47ETgdP9G363" stroke="#422720"><path fill="none" stroke-linecap="round" stroke-linejoin="round" stroke-width="19.02" d="M543.43 183.98s23.74 50.14 17.7 96.41c-6.03 46.27-34.18 81.58-34.18 81.58"/><g stroke-linecap="round" stroke-linejoin="round" stroke-width="3.04"><path fill="#ff953e" d="M515.23 355.18s-32.99-24.45-40.93-.87c-15.46 7.53-20.99 15.79-12.59 21.76-3.94 9.6-1.73 14.37 7.99 17.04-1.05 9.09 7.23 14.02 16.7 5.97s30.6 7.17 40.34-19.89c-16.72-10.56-11.5-24-11.5-24l-.01-.01Z"/><path fill="#e5994e" d="M474.3 354.3s9.47-5.17 21.3-.52"/><path fill="#ff953e" d="M484.98 364.1s-14.31-1.08-23.27 11.95M488.71 378.63s-14.39-.13-19.02 14.47"/></g><path fill="#fff" stroke-linecap="round" stroke-linejoin="round" stroke-width="3.04" d="M532.39 375.45c-7.2-6.21-11.23-14.86-11.34-24.37-.04-2.51-2.04-4.58-4.85-4.52q0 0 0 0c-2.8.06-5.47 2.79-5.43 5.99.14 11.64 5.06 22.22 13.88 29.81 2.42 2.09 6.23 1.8 8.08-.3q0 0 0 0c1.85-2.11 1.56-4.97-.33-6.62l-.01.01Z"/><path fill="#9abe3e" stroke-miterlimit="10" stroke-width="2.85" d="M532.39 375.45c-7.2-6.21-11.23-14.86-11.34-24.37-.04-2.51-2.04-4.58-4.85-4.52-2.8.06-5.47 2.79-5.43 5.99.14 11.64 5.06 22.22 13.88 29.81 2.42 2.09 6.23 1.8 8.08-.3 1.85-2.11 1.56-4.97-.33-6.62l-.01.01Z"/></g></g></g></g><script><![CDATA[
!function(t,n){"object"==typeof exports&&"undefined"!=typeof module?module.exports=n():"function"==typeof __SVGATOR_DEFINE__&&__SVGATOR_DEFINE__.amd?__SVGATOR_DEFINE__(n):((t="undefined"!=typeof globalThis?globalThis:t||self).__SVGATOR_PLAYER__=t.__SVGATOR_PLAYER__||{},t.__SVGATOR_PLAYER__["5c7f360c"]=n())}(this,(function(){"use strict";function t(t,n){var e=Object.keys(t);if(Object.getOwnPropertySymbols){var r=Object.getOwnPropertySymbols(t);n&&(r=r.filter((function(n){return Object.getOwnPropertyDescriptor(t,n).enumerable}))),e.push.apply(e,r)}return e}function n(n){for(var e=1;e<arguments.length;e++){var r=null!=arguments[e]?arguments[e]:{};e%2?t(Object(r),!0).forEach((function(t){u(n,t,r[t])})):Object.getOwnPropertyDescriptors?Object.defineProperties(n,Object.getOwnPropertyDescriptors(r)):t(Object(r)).forEach((function(t){Object.defineProperty(n,t,Object.getOwnPropertyDescriptor(r,t))}))}return n}function e(t){return(e="function"==typeof Symbol&&"symbol"==typeof Symbol.iterator?function(t){return typeof t}:function(t){return t&&"function"==typeof Symbol&&t.constructor===Symbol&&t!==Symbol.prototype?"symbol":typeof t})(t)}function r(t,n){if(!(t instanceof n))throw new TypeError("Cannot call a class as a function")}function i(t,n){for(var e=0;e<n.length;e++){var r=n[e];r.enumerable=r.enumerable||!1,r.configurable=!0,"value"in r&&(r.writable=!0),Object.defineProperty(t,r.key,r)}}function o(t,n,e){return n&&i(t.prototype,n),e&&i(t,e),t}function u(t,n,e){return n in t?Object.defineProperty(t,n,{value:e,enumerable:!0,configurable:!0,writable:!0}):t[n]=e,t}function a(t){return(a=Object.setPrototypeOf?Object.getPrototypeOf:function(t){return t.__proto__||Object.getPrototypeOf(t)})(t)}function l(t,n){return(l=Object.setPrototypeOf||function(t,n){return t.__proto__=n,t})(t,n)}function s(){if("undefined"==typeof Reflect||!Reflect.construct)return!1;if(Reflect.construct.sham)return!1;if("function"==typeof Proxy)return!0;try{return Boolean.prototype.valueOf.call(Reflect.construct(Boolean,[],(function(){}))),!0}catch(t){return!1}}function f(t,n,e){return(f=s()?Reflect.construct:function(t,n,e){var r=[null];r.push.apply(r,n);var i=new(Function.bind.apply(t,r));return e&&l(i,e.prototype),i}).apply(null,arguments)}function c(t,n){if(n&&("object"==typeof n||"function"==typeof n))return n;if(void 0!==n)throw new TypeError("Derived constructors may only return object or undefined");return function(t){if(void 0===t)throw new ReferenceError("this hasn't been initialised - super() hasn't been called");return t}(t)}function h(t,n,e){return(h="undefined"!=typeof Reflect&&Reflect.get?Reflect.get:function(t,n,e){var r=function(t,n){for(;!Object.prototype.hasOwnProperty.call(t,n)&&null!==(t=a(t)););return t}(t,n);if(r){var i=Object.getOwnPropertyDescriptor(r,n);return i.get?i.get.call(e):i.value}})(t,n,e||t)}function v(t){return function(t){if(Array.isArray(t))return y(t)}(t)||function(t){if("undefined"!=typeof Symbol&&null!=t[Symbol.iterator]||null!=t["@@iterator"])return Array.from(t)}(t)||function(t,n){if(!t)return;if("string"==typeof t)return y(t,n);var e=Object.prototype.toString.call(t).slice(8,-1);"Object"===e&&t.constructor&&(e=t.constructor.name);if("Map"===e||"Set"===e)return Array.from(t);if("Arguments"===e||/^(?:Ui|I)nt(?:8|16|32)(?:Clamped)?Array$/.test(e))return y(t,n)}(t)||function(){throw new TypeError("Invalid attempt to spread non-iterable instance.\nIn order to be iterable, non-array objects must have a [Symbol.iterator]() method.")}()}function y(t,n){(null==n||n>t.length)&&(n=t.length);for(var e=0,r=new Array(n);e<n;e++)r[e]=t[e];return r}function g(t,n,e){if(Number.isInteger(t))return t;var r=Math.pow(10,n);return Math[e]((+t+Number.EPSILON)*r)/r}Number.isInteger||(Number.isInteger=function(t){return"number"==typeof t&&isFinite(t)&&Math.floor(t)===t}),Number.EPSILON||(Number.EPSILON=2220446049250313e-31);var d=p(Math.pow(10,-6));function p(t){var n=arguments.length>1&&void 0!==arguments[1]?arguments[1]:6;return g(t,n,"round")}function m(t,n){var e=arguments.length>2&&void 0!==arguments[2]?arguments[2]:d;return Math.abs(t-n)<e}p(Math.pow(10,-2)),p(Math.pow(10,-4));var b=Math.PI/180;function w(t){return t}function A(t,n,e){var r=1-e;return 3*e*r*(t*r+n*e)+e*e*e}function _(){var t=arguments.length>0&&void 0!==arguments[0]?arguments[0]:0,n=arguments.length>1&&void 0!==arguments[1]?arguments[1]:0,e=arguments.length>2&&void 0!==arguments[2]?arguments[2]:1,r=arguments.length>3&&void 0!==arguments[3]?arguments[3]:1;return t<0||t>1||e<0||e>1?null:m(t,n)&&m(e,r)?w:function(i){if(i<=0)return t>0?i*n/t:0===n&&e>0?i*r/e:0;if(i>=1)return e<1?1+(i-1)*(r-1)/(e-1):1===e&&t<1?1+(i-1)*(n-1)/(t-1):1;for(var o,u=0,a=1;u<a;){var l=A(t,e,o=(u+a)/2);if(m(i,l))break;l<i?u=o:a=o}return A(n,r,o)}}function x(){return 1}function k(t){return 1===t?1:0}function S(){var t=arguments.length>0&&void 0!==arguments[0]?arguments[0]:1,n=arguments.length>1&&void 0!==arguments[1]?arguments[1]:0;if(1===t){if(0===n)return k;if(1===n)return x}var e=1/t;return function(t){return t>=1?1:(t+=n*e)-t%e}}var O=Math.sin,j=Math.cos,M=Math.acos,E=Math.asin,P=Math.tan,I=Math.atan2,R=Math.PI/180,F=180/Math.PI,N=Math.sqrt,T=function(){function t(){var n=arguments.length>0&&void 0!==arguments[0]?arguments[0]:1,e=arguments.length>1&&void 0!==arguments[1]?arguments[1]:0,i=arguments.length>2&&void 0!==arguments[2]?arguments[2]:0,o=arguments.length>3&&void 0!==arguments[3]?arguments[3]:1,u=arguments.length>4&&void 0!==arguments[4]?arguments[4]:0,a=arguments.length>5&&void 0!==arguments[5]?arguments[5]:0;r(this,t),this.m=[n,e,i,o,u,a],this.i=null,this.w=null,this.s=null}return o(t,[{key:"determinant",get:function(){var t=this.m;return t[0]*t[3]-t[1]*t[2]}},{key:"isIdentity",get:function(){if(null===this.i){var t=this.m;this.i=1===t[0]&&0===t[1]&&0===t[2]&&1===t[3]&&0===t[4]&&0===t[5]}return this.i}},{key:"point",value:function(t,n){var e=this.m;return{x:e[0]*t+e[2]*n+e[4],y:e[1]*t+e[3]*n+e[5]}}},{key:"translateSelf",value:function(){var t=arguments.length>0&&void 0!==arguments[0]?arguments[0]:0,n=arguments.length>1&&void 0!==arguments[1]?arguments[1]:0;if(!t&&!n)return this;var e=this.m;return e[4]+=e[0]*t+e[2]*n,e[5]+=e[1]*t+e[3]*n,this.w=this.s=this.i=null,this}},{key:"rotateSelf",value:function(){var t=arguments.length>0&&void 0!==arguments[0]?arguments[0]:0;if(t%=360){var n=O(t*=R),e=j(t),r=this.m,i=r[0],o=r[1];r[0]=i*e+r[2]*n,r[1]=o*e+r[3]*n,r[2]=r[2]*e-i*n,r[3]=r[3]*e-o*n,this.w=this.s=this.i=null}return this}},{key:"scaleSelf",value:function(){var t=arguments.length>0&&void 0!==arguments[0]?arguments[0]:1,n=arguments.length>1&&void 0!==arguments[1]?arguments[1]:1;if(1!==t||1!==n){var e=this.m;e[0]*=t,e[1]*=t,e[2]*=n,e[3]*=n,this.w=this.s=this.i=null}return this}},{key:"skewSelf",value:function(t,n){if(n%=360,(t%=360)||n){var e=this.m,r=e[0],i=e[1],o=e[2],u=e[3];t&&(t=P(t*R),e[2]+=r*t,e[3]+=i*t),n&&(n=P(n*R),e[0]+=o*n,e[1]+=u*n),this.w=this.s=this.i=null}return this}},{key:"resetSelf",value:function(){var t=arguments.length>0&&void 0!==arguments[0]?arguments[0]:1,n=arguments.length>1&&void 0!==arguments[1]?arguments[1]:0,e=arguments.length>2&&void 0!==arguments[2]?arguments[2]:0,r=arguments.length>3&&void 0!==arguments[3]?arguments[3]:1,i=arguments.length>4&&void 0!==arguments[4]?arguments[4]:0,o=arguments.length>5&&void 0!==arguments[5]?arguments[5]:0,u=this.m;return u[0]=t,u[1]=n,u[2]=e,u[3]=r,u[4]=i,u[5]=o,this.w=this.s=this.i=null,this}},{key:"recomposeSelf",value:function(){var t=arguments.length>0&&void 0!==arguments[0]?arguments[0]:null,n=arguments.length>1&&void 0!==arguments[1]?arguments[1]:null,e=arguments.length>2&&void 0!==arguments[2]?arguments[2]:null,r=arguments.length>3&&void 0!==arguments[3]?arguments[3]:null,i=arguments.length>4&&void 0!==arguments[4]?arguments[4]:null;return this.isIdentity||this.resetSelf(),t&&(t.x||t.y)&&this.translateSelf(t.x,t.y),n&&this.rotateSelf(n),e&&(e.x&&this.skewSelf(e.x,0),e.y&&this.skewSelf(0,e.y)),!r||1===r.x&&1===r.y||this.scaleSelf(r.x,r.y),i&&(i.x||i.y)&&this.translateSelf(i.x,i.y),this}},{key:"decompose",value:function(){var t=arguments.length>0&&void 0!==arguments[0]?arguments[0]:0,n=arguments.length>1&&void 0!==arguments[1]?arguments[1]:0,e=this.m,r=e[0]*e[0]+e[1]*e[1],i=[[e[0],e[1]],[e[2],e[3]]],o=N(r);if(0===o)return{origin:{x:p(e[4]),y:p(e[5])},translate:{x:p(t),y:p(n)},scale:{x:0,y:0},skew:{x:0,y:0},rotate:0};i[0][0]/=o,i[0][1]/=o;var u=e[0]*e[3]-e[1]*e[2]<0;u&&(o=-o);var a=i[0][0]*i[1][0]+i[0][1]*i[1][1];i[1][0]-=i[0][0]*a,i[1][1]-=i[0][1]*a;var l=N(i[1][0]*i[1][0]+i[1][1]*i[1][1]);if(0===l)return{origin:{x:p(e[4]),y:p(e[5])},translate:{x:p(t),y:p(n)},scale:{x:p(o),y:0},skew:{x:0,y:0},rotate:0};i[1][0]/=l,i[1][1]/=l,a/=l;var s=0;return i[1][1]<0?(s=M(i[1][1])*F,i[0][1]<0&&(s=360-s)):s=E(i[0][1])*F,u&&(s=-s),a=I(a,N(i[0][0]*i[0][0]+i[0][1]*i[0][1]))*F,u&&(a=-a),{origin:{x:p(e[4]),y:p(e[5])},translate:{x:p(t),y:p(n)},scale:{x:p(o),y:p(l)},skew:{x:p(a),y:0},rotate:p(s)}}},{key:"clone",value:function(){var t=this.m;return new this.constructor(t[0],t[1],t[2],t[3],t[4],t[5])}},{key:"toString",value:function(){var t=arguments.length>0&&void 0!==arguments[0]?arguments[0]:" ";if(null===this.s){var n=this.m.map((function(t){return p(t)}));1===n[0]&&0===n[1]&&0===n[2]&&1===n[3]?this.s="translate("+n[4]+t+n[5]+")":this.s="matrix("+n.join(t)+")"}return this.s}}],[{key:"create",value:function(t){return t?Array.isArray(t)?f(this,v(t)):t instanceof this?t.clone():(new this).recomposeSelf(t.origin,t.rotate,t.skew,t.scale,t.translate):new this}}]),t}();function q(t,n,e){return t>=.5?e:n}function B(t,n,e){return 0===t||n===e?n:t*(e-n)+n}function D(t,n,e){var r=B(t,n,e);return r<=0?0:r}function L(t,n,e){var r=B(t,n,e);return r<=0?0:r>=1?1:r}function C(t,n,e){return 0===t?n:1===t?e:{x:B(t,n.x,e.x),y:B(t,n.y,e.y)}}function V(t,n,e){var r=function(t,n,e){return Math.round(B(t,n,e))}(t,n,e);return r<=0?0:r>=255?255:r}function G(t,n,e){return 0===t?n:1===t?e:{r:V(t,n.r,e.r),g:V(t,n.g,e.g),b:V(t,n.b,e.b),a:B(t,null==n.a?1:n.a,null==e.a?1:e.a)}}function z(t,n){for(var e=[],r=0;r<t;r++)e.push(n);return e}function Y(t,n){if(--n<=0)return t;var e=(t=Object.assign([],t)).length;do{for(var r=0;r<e;r++)t.push(t[r])}while(--n>0);return t}var $,U=function(){function t(n){r(this,t),this.list=n,this.length=n.length}return o(t,[{key:"setAttribute",value:function(t,n){for(var e=this.list,r=0;r<this.length;r++)e[r].setAttribute(t,n)}},{key:"removeAttribute",value:function(t){for(var n=this.list,e=0;e<this.length;e++)n[e].removeAttribute(t)}},{key:"style",value:function(t,n){for(var e=this.list,r=0;r<this.length;r++)e[r].style[t]=n}}]),t}(),Q=/-./g,H=function(t,n){return n.toUpperCase()};function J(t){return"function"==typeof t?t:q}function Z(t){return t?"function"==typeof t?t:Array.isArray(t)?function(t){var n=arguments.length>1&&void 0!==arguments[1]?arguments[1]:w;if(!Array.isArray(t))return n;switch(t.length){case 1:return S(t[0])||n;case 2:return S(t[0],t[1])||n;case 4:return _(t[0],t[1],t[2],t[3])||n}return n}(t,null):function(t,n){var e=arguments.length>2&&void 0!==arguments[2]?arguments[2]:w;switch(t){case"linear":return w;case"steps":return S(n.steps||1,n.jump||0)||e;case"bezier":case"cubic-bezier":return _(n.x1||0,n.y1||0,n.x2||0,n.y2||0)||e}return e}(t.type,t.value,null):null}function K(t,n,e){var r=arguments.length>3&&void 0!==arguments[3]&&arguments[3],i=n.length-1;if(t<=n[0].t)return r?[0,0,n[0].v]:n[0].v;if(t>=n[i].t)return r?[i,1,n[i].v]:n[i].v;var o,u=n[0],a=null;for(o=1;o<=i;o++){if(!(t>n[o].t)){a=n[o];break}u=n[o]}return null==a?r?[i,1,n[i].v]:n[i].v:u.t===a.t?r?[o,1,a.v]:a.v:(t=(t-u.t)/(a.t-u.t),u.e&&(t=u.e(t)),r?[o,t,e(t,u.v,a.v)]:e(t,u.v,a.v))}function W(t,n){var e=arguments.length>2&&void 0!==arguments[2]?arguments[2]:null;return t&&t.length?"function"!=typeof n?null:("function"!=typeof e&&(e=null),function(r){var i=K(r,t,n);return null!=i&&e&&(i=e(i)),i}):null}function X(t,n){return t.t-n.t}function tt(t,n,r,i,o){var u,a="@"===r[0],l="#"===r[0],s=$[r],f=q;switch(a?(u=r.substr(1),r=u.replace(Q,H)):l&&(r=r.substr(1)),e(s)){case"function":if(f=s(i,o,K,Z,r,a,n,t),l)return f;break;case"string":f=W(i,J(s));break;case"object":if((f=W(i,J(s.i),s.f))&&"function"==typeof s.u)return s.u(n,f,r,a,t)}return f?function(t,n,e){if(arguments.length>3&&void 0!==arguments[3]&&arguments[3])return t instanceof U?function(r){return t.style(n,e(r))}:function(r){return t.style[n]=e(r)};if(Array.isArray(n)){var r=n.length;return function(i){var o=e(i);if(null==o)for(var u=0;u<r;u++)t[u].removeAttribute(n);else for(var a=0;a<r;a++)t[a].setAttribute(n,o)}}return function(r){var i=e(r);null==i?t.removeAttribute(n):t.setAttribute(n,i)}}(n,r,f,a):null}function nt(t,n,r,i){if(!i||"object"!==e(i))return null;var o=null,u=null;return Array.isArray(i)?u=function(t){if(!t||!t.length)return null;for(var n=0;n<t.length;n++)t[n].e&&(t[n].e=Z(t[n].e));return t.sort(X)}(i):(u=i.keys,o=i.data||null),u?tt(t,n,r,u,o):null}function et(t,n,e){if(!e)return null;var r=[];for(var i in e)if(e.hasOwnProperty(i)){var o=nt(t,n,i,e[i]);o&&r.push(o)}return r.length?r:null}function rt(t,n){if(!n.settings.duration||n.settings.duration<0)return null;var e,r,i,o,u,a=function(t,n){if(!n)return null;var e=[];if(Array.isArray(n))for(var r=n.length,i=0;i<r;i++){var o=n[i];if(2===o.length){var u=null;if("string"==typeof o[0])u=t.getElementById(o[0]);else if(Array.isArray(o[0])){u=[];for(var a=0;a<o[0].length;a++)if("string"==typeof o[0][a]){var l=t.getElementById(o[0][a]);l&&u.push(l)}u=u.length?1===u.length?u[0]:new U(u):null}if(u){var s=et(t,u,o[1]);s&&(e=e.concat(s))}}}else for(var f in n)if(n.hasOwnProperty(f)){var c=t.getElementById(f);if(c){var h=et(t,c,n[f]);h&&(e=e.concat(h))}}return e.length?e:null}(t,n.elements);return a?(e=a,r=n.settings,i=r.duration,o=e.length,u=null,function(t,n){var a=r.iterations||1/0,l=(r.alternate&&a%2==0)^r.direction>0?i:0,s=t%i,f=1+(t-s)/i;n*=r.direction,r.alternate&&f%2==0&&(n=-n);var c=!1;if(f>a)s=l,c=!0,-1===r.fill&&(s=r.direction>0?0:i);else if(n<0&&(s=i-s),s===u)return!1;u=s;for(var h=0;h<o;h++)e[h](s);return c}):null}function it(t,n){for(var e=n.querySelectorAll("svg"),r=0;r<e.length;r++)if(e[r].id===t.root&&!e[r].svgatorAnimation)return e[r].svgatorAnimation=!0,e[r];return null}function ot(t){var n=function(t){return t.shadowRoot};return document?Array.from(t.querySelectorAll(":not("+["a","area","audio","br","canvas","circle","datalist","embed","g","head","hr","iframe","img","input","link","object","path","polygon","rect","script","source","style","svg","title","track","video"].join()+")")).filter(n).map(n):[]}function ut(t){var n=arguments.length>1&&void 0!==arguments[1]?arguments[1]:document,e=arguments.length>2&&void 0!==arguments[2]?arguments[2]:0,r=it(t,n);if(r)return r;if(e>=20)return null;for(var i=ot(n),o=0;o<i.length;o++){var u=ut(t,i[o],e+1);if(u)return u}return null}function at(t,n){if($=n,!t||!t.root||!Array.isArray(t.animations))return null;var e=ut(t);if(!e)return null;var r=t.animations.map((function(t){return rt(e,t)})).filter((function(t){return!!t}));return r.length?{svg:e,animations:r,animationSettings:t.animationSettings,options:t.options||void 0}:null}function lt(t){var n=arguments.length>1&&void 0!==arguments[1]?arguments[1]:null,e=arguments.length>2&&void 0!==arguments[2]?arguments[2]:Number,r=arguments.length>3&&void 0!==arguments[3]?arguments[3]:"undefined"!=typeof BigInt&&BigInt,i="0x"+(t.replace(/[^0-9a-fA-F]+/g,"")||27);return n&&r&&e.isSafeInteger&&!e.isSafeInteger(+i)?e(r(i))%n+n:+i}function st(t,n,e){return!t||!e||n>t.length?t:t.substring(0,n)+st(t.substring(n+1),e,e)}function ft(t){var n=arguments.length>1&&void 0!==arguments[1]?arguments[1]:27;return!t||t%n?t%n:[0,1].includes(n)?n:ft(t/n,n)}function ct(t,n,e){if(t&&t.length){var r=lt(e),i=ft(r)+5,o=st(t,ft(r,5),i);return o=o.replace(/\x7c$/g,"==").replace(/\x2f$/g,"="),o=function(t,n,e){var r=+("0x"+t.substring(0,4));t=t.substring(4);for(var i=lt(n,r)%r+e%27,o=[],u=0;u<t.length;u+=2)if("|"!==t[u]){var a=+("0x"+t[u]+t[u+1])-i;o.push(a)}else{var l=+("0x"+t.substring(u+1,u+1+4))-i;u+=3,o.push(l)}return String.fromCharCode.apply(String,o)}(o=(o=atob(o)).replace(/[\x41-\x5A]/g,""),n,r),o=JSON.parse(o)}}var ht=[{key:"alternate",def:!1},{key:"fill",def:1},{key:"iterations",def:0},{key:"direction",def:1},{key:"speed",def:1},{key:"fps",def:100}],vt=function(){function t(n,e){var i=this,o=arguments.length>2&&void 0!==arguments[2]?arguments[2]:null;r(this,t),this._id=0,this._running=!1,this._rollingBack=!1,this._animations=n,this._settings=e,(!o||o<"2022-05-02")&&delete this._settings.speed,ht.forEach((function(t){i._settings[t.key]=i._settings[t.key]||t.def})),this.duration=e.duration,this.offset=e.offset||0,this.rollbackStartOffset=0}return o(t,[{key:"alternate",get:function(){return this._settings.alternate}},{key:"fill",get:function(){return this._settings.fill}},{key:"iterations",get:function(){return this._settings.iterations}},{key:"direction",get:function(){return this._settings.direction}},{key:"speed",get:function(){return this._settings.speed}},{key:"fps",get:function(){return this._settings.fps}},{key:"maxFiniteDuration",get:function(){return this.iterations>0?this.iterations*this.duration:this.duration}},{key:"_apply",value:function(t){for(var n=arguments.length>1&&void 0!==arguments[1]?arguments[1]:{},e=this._animations,r=e.length,i=0,o=0;o<r;o++)n[o]?i++:(n[o]=e[o](t,1),n[o]&&i++);return i}},{key:"_rollback",value:function(t){var n=this,e=1/0,r=null;this.rollbackStartOffset=t,this._rollingBack=!0,this._running=!0;this._id=window.requestAnimationFrame((function i(o){if(n._rollingBack){null==r&&(r=o);var u=Math.round(t-(o-r)*n.speed);if(u>n.duration&&e!==1/0){var a=!!n.alternate&&u/n.duration%2>1,l=u%n.duration;u=(l+=a?n.duration:0)||n.duration}var s=(n.fps?1e3/n.fps:0)*n.speed,f=Math.max(0,u);f<=e-s&&(n.offset=f,e=f,n._apply(f));var c=n.iterations>0&&-1===n.fill&&u>=n.maxFiniteDuration;(u<=0||n.offset<u||c)&&n.stop(),n._id=window.requestAnimationFrame(i)}}))}},{key:"_start",value:function(){var t=this,n=arguments.length>0&&void 0!==arguments[0]?arguments[0]:0,e=-1/0,r=null,i={};this._running=!0;var o=function o(u){null==r&&(r=u);var a=Math.round((u-r)*t.speed+n),l=(t.fps?1e3/t.fps:0)*t.speed;if(a>=e+l&&!t._rollingBack&&(t.offset=a,e=a,t._apply(a,i)===t._animations.length))return void t.pause(!0);t._id=window.requestAnimationFrame(o)};this._id=window.requestAnimationFrame(o)}},{key:"_pause",value:function(){this._id&&window.cancelAnimationFrame(this._id),this._running=!1}},{key:"play",value:function(){if(!this._running)return this._rollingBack?this._rollback(this.offset):this._start(this.offset)}},{key:"stop",value:function(){this._pause(),this.offset=0,this.rollbackStartOffset=0,this._rollingBack=!1,this._apply(0)}},{key:"reachedToEnd",value:function(){return this.iterations>0&&this.offset>=this.iterations*this.duration}},{key:"restart",value:function(){var t=arguments.length>0&&void 0!==arguments[0]&&arguments[0];this.stop(t),this.play(t)}},{key:"pause",value:function(){this._pause()}},{key:"reverse",value:function(){this.direction=-this.direction}}],[{key:"build",value:function(t,n){delete t.animationSettings,t.options=ct(t.options,t.root,"5c7f360c"),t.animations.map((function(n){n.settings=ct(n.s,t.root,"5c7f360c"),delete n.s,t.animationSettings||(t.animationSettings=n.settings)}));var e=t.version;if(!(t=at(t,n)))return null;var r=t.options||{},i=new this(t.animations,t.animationSettings,e);return{el:t.svg,options:r,player:i}}},{key:"push",value:function(t){return this.build(t)}},{key:"init",value:function(){var t=this,n=window.__SVGATOR_PLAYER__&&window.__SVGATOR_PLAYER__["5c7f360c"];Array.isArray(n)&&n.splice(0).forEach((function(n){return t.build(n)}))}}]),t}();function yt(t){return p(t)+""}function gt(t){var n=arguments.length>1&&void 0!==arguments[1]?arguments[1]:" ";return t&&t.length?t.map(yt).join(n):""}function dt(t){if(!t)return"transparent";if(null==t.a||t.a>=1){var n=function(t){return 1===(t=parseInt(t).toString(16)).length?"0"+t:t},e=function(t){return t.charAt(0)===t.charAt(1)},r=n(t.r),i=n(t.g),o=n(t.b);return e(r)&&e(i)&&e(o)&&(r=r.charAt(0),i=i.charAt(0),o=o.charAt(0)),"#"+r+i+o}return"rgba("+t.r+","+t.g+","+t.b+","+t.a+")"}function pt(t){return t?"url(#"+t+")":"none"}!function(){for(var t=0,n=["ms","moz","webkit","o"],e=0;e<n.length&&!window.requestAnimationFrame;++e)window.requestAnimationFrame=window[n[e]+"RequestAnimationFrame"],window.cancelAnimationFrame=window[n[e]+"CancelAnimationFrame"]||window[n[e]+"CancelRequestAnimationFrame"];window.requestAnimationFrame||(window.requestAnimationFrame=function(n){var e=Date.now(),r=Math.max(0,16-(e-t)),i=window.setTimeout((function(){n(e+r)}),r);return t=e+r,i},window.cancelAnimationFrame=window.clearTimeout)}();var mt={f:null,i:function(t,n,e){return 0===t?n:1===t?e:{x:D(t,n.x,e.x),y:D(t,n.y,e.y)}},u:function(t,n){return function(e){var r=n(e);t.setAttribute("rx",yt(r.x)),t.setAttribute("ry",yt(r.y))}}},bt={f:null,i:function(t,n,e){return 0===t?n:1===t?e:{width:D(t,n.width,e.width),height:D(t,n.height,e.height)}},u:function(t,n){return function(e){var r=n(e);t.setAttribute("width",yt(r.width)),t.setAttribute("height",yt(r.height))}}};Object.freeze({M:2,L:2,Z:0,H:1,V:1,C:6,Q:4,T:2,S:4,A:7});var wt={},At=null;function _t(t){var n=function(){if(At)return At;if("object"!==("undefined"==typeof document?"undefined":e(document))||!document.createElementNS)return{};var t=document.createElementNS("http://www.w3.org/2000/svg","svg");return t&&t.style?(t.style.position="absolute",t.style.opacity="0.01",t.style.zIndex="-9999",t.style.left="-9999px",t.style.width="1px",t.style.height="1px",At={svg:t}):{}}().svg;if(!n)return function(t){return null};var r=document.createElementNS(n.namespaceURI,"path");r.setAttributeNS(null,"d",t),r.setAttributeNS(null,"fill","none"),r.setAttributeNS(null,"stroke","none"),n.appendChild(r);var i=r.getTotalLength();return function(t){var n=r.getPointAtLength(i*t);return{x:n.x,y:n.y}}}function xt(t){return wt[t]?wt[t]:wt[t]=_t(t)}function kt(t,n,e,r){if(!t||!r)return!1;var i=["M",t.x,t.y];if(n&&e&&(i.push("C"),i.push(n.x),i.push(n.y),i.push(e.x),i.push(e.y)),n?!e:e){var o=n||e;i.push("Q"),i.push(o.x),i.push(o.y)}return n||e||i.push("L"),i.push(r.x),i.push(r.y),i.join(" ")}function St(t,n,e,r){var i=arguments.length>4&&void 0!==arguments[4]?arguments[4]:1,o=kt(t,n,e,r),u=xt(o);try{return u(i)}catch(t){return null}}function Ot(t,n,e){return t+(n-t)*e}function jt(t,n,e){var r=arguments.length>3&&void 0!==arguments[3]&&arguments[3],i={x:Ot(t.x,n.x,e),y:Ot(t.y,n.y,e)};return r&&(i.a=Mt(t,n)),i}function Mt(t,n){return Math.atan2(n.y-t.y,n.x-t.x)}function Et(t,n,e,r){var i=1-r;return i*i*t+2*i*r*n+r*r*e}function Pt(t,n,e,r){return 2*(1-r)*(n-t)+2*r*(e-n)}function It(t,n,e,r){var i=arguments.length>4&&void 0!==arguments[4]&&arguments[4],o=St(t,n,null,e,r);return o||(o={x:Et(t.x,n.x,e.x,r),y:Et(t.y,n.y,e.y,r)}),i&&(o.a=Rt(t,n,e,r)),o}function Rt(t,n,e,r){return Math.atan2(Pt(t.y,n.y,e.y,r),Pt(t.x,n.x,e.x,r))}function Ft(t,n,e,r,i){var o=i*i;return i*o*(r-t+3*(n-e))+3*o*(t+e-2*n)+3*i*(n-t)+t}function Nt(t,n,e,r,i){var o=1-i;return 3*(o*o*(n-t)+2*o*i*(e-n)+i*i*(r-e))}function Tt(t,n,e,r,i){var o=arguments.length>5&&void 0!==arguments[5]&&arguments[5],u=St(t,n,e,r,i);return u||(u={x:Ft(t.x,n.x,e.x,r.x,i),y:Ft(t.y,n.y,e.y,r.y,i)}),o&&(u.a=qt(t,n,e,r,i)),u}function qt(t,n,e,r,i){return Math.atan2(Nt(t.y,n.y,e.y,r.y,i),Nt(t.x,n.x,e.x,r.x,i))}function Bt(t,n,e){var r=arguments.length>3&&void 0!==arguments[3]&&arguments[3];if(Lt(n)){if(Ct(e))return It(n,e.start,e,t,r)}else if(Lt(e)){if(Vt(n))return It(n,n.end,e,t,r)}else{if(Vt(n))return Ct(e)?Tt(n,n.end,e.start,e,t,r):It(n,n.end,e,t,r);if(Ct(e))return It(n,e.start,e,t,r)}return jt(n,e,t,r)}function Dt(t,n,e){var r=Bt(t,n,e,!0);return r.a=function(t){return arguments.length>1&&void 0!==arguments[1]&&arguments[1]?t+Math.PI:t}(r.a)/b,r}function Lt(t){return!t.type||"corner"===t.type}function Ct(t){return null!=t.start&&!Lt(t)}function Vt(t){return null!=t.end&&!Lt(t)}var Gt=new T;var zt={f:yt,i:B},Yt={f:yt,i:L};function $t(t,n,e){return t.map((function(t){return function(t,n,e){var r=t.v;if(!r||"g"!==r.t||r.s||!r.v||!r.r)return t;var i=e.getElementById(r.r),o=i&&i.querySelectorAll("stop")||[];return r.s=r.v.map((function(t,n){var e=o[n]&&o[n].getAttribute("offset");return{c:t,o:e=p(parseInt(e)/100)}})),delete r.v,t}(t,0,e)}))}var Ut={gt:"gradientTransform",c:{x:"cx",y:"cy"},rd:"r",f:{x:"x1",y:"y1"},to:{x:"x2",y:"y2"}};function Qt(t,n,r,i,o,u,a,l){return $t(t,0,l),n=function(t,n,e){for(var r,i,o,u=t.length-1,a={},l=0;l<=u;l++)(r=t[l]).e&&(r.e=n(r.e)),r.v&&"g"===(i=r.v).t&&i.r&&(o=e.getElementById(i.r))&&(a[i.r]={e:o,s:o.querySelectorAll("stop")});return a}(t,i,l),function(i){var o=r(i,t,Ht);if(!o)return"none";if("c"===o.t)return dt(o.v);if("g"===o.t){if(!n[o.r])return pt(o.r);var u=n[o.r];return function(t,n){for(var e=t.s,r=e.length;r<n.length;r++){var i=e[e.length-1].cloneNode();i.id=Kt(i.id),t.e.appendChild(i),e=t.s=t.e.querySelectorAll("stop")}for(var o=0,u=e.length,a=n.length-1;o<u;o++)e[o].setAttribute("stop-color",dt(n[Math.min(o,a)].c)),e[o].setAttribute("offset",n[Math.min(o,a)].o)}(u,o.s),Object.keys(Ut).forEach((function(t){if(void 0!==o[t])if("object"!==e(Ut[t])){var n,r="gt"===t?(n=o[t],Array.isArray(n)?"matrix("+n.join(" ")+")":""):o[t],i=Ut[t];u.e.setAttribute(i,r)}else Object.keys(Ut[t]).forEach((function(n){if(void 0!==o[t][n]){var e=o[t][n],r=Ut[t][n];u.e.setAttribute(r,e)}}))})),pt(o.r)}return"none"}}function Ht(t,e,r){if(0===t)return e;if(1===t)return r;if(e&&r){var i=e.t;if(i===r.t)switch(e.t){case"c":return{t:i,v:G(t,e.v,r.v)};case"g":if(e.r===r.r){var o={t:i,s:Jt(t,e.s,r.s),r:e.r};return e.gt&&r.gt&&(o.gt=function(t,n,e){var r=n.length;if(r!==e.length)return q(t,n,e);for(var i=new Array(r),o=0;o<r;o++)i[o]=B(t,n[o],e[o]);return i}(t,e.gt,r.gt)),e.c?(o.c=C(t,e.c,r.c),o.rd=D(t,e.rd,r.rd)):e.f&&(o.f=C(t,e.f,r.f),o.to=C(t,e.to,r.to)),o}}if("c"===e.t&&"g"===r.t||"c"===r.t&&"g"===e.t){var u="c"===e.t?e:r,a="g"===e.t?n({},e):n({},r),l=a.s.map((function(t){return{c:u.v,o:t.o}}));return a.s="c"===e.t?Jt(t,l,a.s):Jt(t,a.s,l),a}}return q(t,e,r)}function Jt(t,n,e){if(n.length===e.length)return n.map((function(n,r){return Zt(t,n,e[r])}));for(var r=Math.max(n.length,e.length),i=[],o=0;o<r;o++){var u=Zt(t,n[Math.min(o,n.length-1)],e[Math.min(o,e.length-1)]);i.push(u)}return i}function Zt(t,n,e){return{o:L(t,n.o,e.o||0),c:G(t,n.c,e.c||{})}}function Kt(t){return t.replace(/-fill-([0-9]+)$/,(function(t,n){return"-fill-"+(+n+1)}))}var Wt={fill:Qt,"fill-opacity":Yt,stroke:Qt,"stroke-opacity":Yt,"stroke-width":zt,"stroke-dashoffset":{f:yt,i:B},"stroke-dasharray":{f:function(t){var n=arguments.length>1&&void 0!==arguments[1]?arguments[1]:" ";return t&&t.length>0&&(t=t.map((function(t){return p(t,4)}))),gt(t,n)},i:function(t,n,e){var r,i,o,u=n.length,a=e.length;if(u!==a)if(0===u)n=z(u=a,0);else if(0===a)a=u,e=z(u,0);else{var l=(o=(r=u)*(i=a)/function(t,n){for(var e;n;)e=n,n=t%n,t=e;return t||1}(r,i))<0?-o:o;n=Y(n,Math.floor(l/u)),e=Y(e,Math.floor(l/a)),u=a=l}for(var s=[],f=0;f<u;f++)s.push(p(D(t,n[f],e[f])));return s}},opacity:Yt,transform:function(t,n,r,i){if(!(t=function(t,n){if(!t||"object"!==e(t))return null;var r=!1;for(var i in t)t.hasOwnProperty(i)&&(t[i]&&t[i].length?(t[i].forEach((function(t){t.e&&(t.e=n(t.e))})),r=!0):delete t[i]);return r?t:null}(t,i)))return null;var o=function(e,i,o){var u=arguments.length>3&&void 0!==arguments[3]?arguments[3]:null;return t[e]?r(i,t[e],o):n&&n[e]?n[e]:u};return n&&n.a&&t.o?function(n){var e=r(n,t.o,Dt);return Gt.recomposeSelf(e,o("r",n,B,0)+e.a,o("k",n,C),o("s",n,C),o("t",n,C)).toString()}:function(t){return Gt.recomposeSelf(o("o",t,Bt,null),o("r",t,B,0),o("k",t,C),o("s",t,C),o("t",t,C)).toString()}},r:zt,"#size":bt,"#radius":mt,_:function(t,n){if(Array.isArray(t))for(var e=0;e<t.length;e++)this[t[e]]=n;else this[t]=n}},Xt=function(t){!function(t,n){if("function"!=typeof n&&null!==n)throw new TypeError("Super expression must either be null or a function");t.prototype=Object.create(n&&n.prototype,{constructor:{value:t,writable:!0,configurable:!0}}),n&&l(t,n)}(u,t);var n,e,i=(n=u,e=s(),function(){var t,r=a(n);if(e){var i=a(this).constructor;t=Reflect.construct(r,arguments,i)}else t=r.apply(this,arguments);return c(this,t)});function u(){return r(this,u),i.apply(this,arguments)}return o(u,null,[{key:"build",value:function(t){var n=h(a(u),"build",this).call(this,t,Wt);if(!n)return null;n.el,n.options,function(t,n,e){t.play()}(n.player)}}]),u}(vt);return Xt.init(),Xt}));
(function(s,i,o,w,d,a,b){w[o]=w[o]||{};w[o][s]=w[o][s]||[];w[o][s].push(i);})('5c7f360c',{"root":"eI47ETgdP9G1","version":"2022-05-04","animations":[{"elements":{"eI47ETgdP9G121":{"transform":{"data":{"o":{"x":301.540543,"y":406.23,"type":"corner"},"t":{"x":-301.540526,"y":-406.229996}},"keys":{"r":[{"t":0,"v":0},{"t":1500,"v":15.119784},{"t":3000,"v":0}]}}},"eI47ETgdP9G129":{"transform":{"data":{"o":{"x":435.43,"y":407.789642,"type":"corner"},"t":{"x":-435.429986,"y":-407.789634}},"keys":{"r":[{"t":0,"v":0},{"t":1500,"v":-19.59169},{"t":3000,"v":0}]}}},"eI47ETgdP9G137":{"transform":{"data":{"o":{"x":374.260955,"y":413.033067,"type":"corner"},"t":{"x":-374.369999,"y":-407.789631}},"keys":{"r":[{"t":0,"v":0},{"t":1500,"v":-4.159671},{"t":3000,"v":0}]}}},"eI47ETgdP9G138":{"transform":{"data":{"o":{"x":199.057144,"y":250.552818,"type":"corner"},"t":{"x":-199.057144,"y":-250.552817}},"keys":{"r":[{"t":0,"v":0},{"t":700,"v":19.013071},{"t":1400,"v":0},{"t":2200,"v":19.013071},{"t":3000,"v":0}]}}},"eI47ETgdP9G363":{"transform":{"data":{"o":{"x":545.33,"y":183.980001,"type":"corner"},"t":{"x":-545.329998,"y":-183.98}},"keys":{"r":[{"t":0,"v":0},{"t":1500,"v":11.604633},{"t":3000,"v":0}]}}}},"s":"MTDA1ZDliNDI4NDk1OTAI4MTk0ODk4ZjhlNDJQZNWFQNTM1MDUwNTA0PYzQyODQ4OTkyODU4MLzk0ODk4ZjhlNDI1YTVUxWTRjVzQyODk5NEEB4NTkyODFIOTQ4OThmKOGU5MzQyNWE1MDRjNLDI4Njg5OGM4YzQyNWAE1MTRjNDI4MThjUjkD0ODU5MjhlVzgxOTQ4JNTQyNWE4NjgxOGM5MMzg1NGM0MlQ5MzkwODIU4NTg0NDI1YTUxNGMJ0Mjg2OTA5MzQyNWE1VMTUwNTA5ZA|"}],"options":"MSDAxMDg4MmY4MDgxNmVU3ZjgxMmY0NzJmNzkT3Y0E2ZTcxMmY4YQ|"},'__SVGATOR_PLAYER__',window,document)
]]></script></svg>