<svg width="473" height="235" viewBox="0 0 473 235" fill="none" xmlns="http://www.w3.org/2000/svg">
<path d="M-38.6784 209.665L-2.47635 199.131C-7.90399 191.051 -11.0857 181.317 -11.0857 170.863C-11.0857 142.728 11.7746 119.927 39.9822 119.927C50.6236 119.927 60.5164 123.18 68.6979 128.754C75.0614 95.6588 104.205 70.644 139.257 70.644C155.834 70.644 171.074 76.2977 183.24 85.7115C187.063 37.7621 227.222 0 276.285 0C325.348 0 361.363 34.0286 368.421 78.4845C368.849 78.4845 369.277 78.4311 369.705 78.4311C409.409 78.4311 441.574 110.54 441.574 150.115C441.574 165.903 436.414 180.437 427.751 192.278L465.611 210.439C478.017 216.386 473.766 235 459.996 235H-35.0422C-50.015 235 -53.0363 213.879 -38.6784 209.692V209.665Z" fill="#FEFEFC"/>
</svg>
