<svg width="475" height="235" viewBox="0 0 475 235" fill="none" xmlns="http://www.w3.org/2000/svg">
<g clip-path="url(#clip0_38_11354)">
<path d="M-36.6687 209.665L-0.466581 199.131C-5.89422 191.051 -9.07594 181.317 -9.07594 170.863C-9.07594 142.728 13.7843 119.927 41.992 119.927C52.6334 119.927 62.5261 123.18 70.7077 128.754C77.0711 95.6588 106.215 70.644 141.267 70.644C157.844 70.644 173.084 76.2977 185.25 85.7115C189.073 37.7621 229.232 0 278.295 0C327.358 0 363.372 34.0286 370.431 78.4845C370.859 78.4845 371.287 78.4311 371.714 78.4311C411.419 78.4311 443.584 110.54 443.584 150.115C443.584 165.903 438.424 180.437 429.761 192.278L467.621 210.439C480.027 216.386 475.775 235 462.006 235H-33.0324C-48.0052 235 -51.0265 213.879 -36.6687 209.692V209.665Z" fill="#FEFEFC"/>
</g>
<defs>
<clipPath id="clip0_38_11354">
<rect width="521" height="235" fill="white" transform="translate(-46)"/>
</clipPath>
</defs>
</svg>
