<svg width="628" height="233" viewBox="0 0 628 233" fill="none" xmlns="http://www.w3.org/2000/svg">
<path d="M618.654 208.742L557.06 193.75C560.082 187.504 561.958 180.528 561.958 173.136C561.958 146.9 540.697 125.662 514.433 125.662C509.326 125.662 504.532 126.703 499.946 128.16C491.921 100.155 466.179 79.7489 435.642 79.7489C415.632 79.7489 397.705 88.5983 385.512 102.445C376.444 84.7462 358.206 72.4611 336.945 72.4611C323.5 72.4611 311.306 77.5626 301.718 85.5791C300.988 38.2087 262.426 0 214.797 0C167.168 0 127.773 38.9374 127.773 86.9325C127.773 95.6778 129.127 104.111 131.525 112.023C121.519 104.944 109.221 100.675 95.9851 100.675C62.009 100.675 34.3904 128.16 34.3904 162.205C34.3904 173.761 37.6213 184.588 43.2492 193.854L7.39712 209.471C-4.79676 214.781 -1.0448 233 12.2955 233H615.736C630.223 233 632.724 212.282 618.654 208.846V208.742Z" fill="#FEFEFC"/>
</svg>
