<svg xmlns="http://www.w3.org/2000/svg" width="3000" height="695" fill="none"><path fill="#E46942" d="M2480.27 122.332c-9.56-.836-19.04 1.326-28.46 2.767-9.43 2.133-18.8 4.632-28.13 3.085-9.32 3.209-18.6-.702-27.84 3.305-9.24-1.874-18.45 3.949-27.63 3.421-9.19-.711-18.35-1.499-27.5 3.421-9.15 8.571-18.29-1.24-27.44 3.324-9.15 2.239-18.29 3.95-27.45 3.114-9.16.259-18.33 4.083-27.53 2.796-9.2 1.845-18.43-.413-27.69 2.373-9.27.212-18.57 7.899-27.92 1.845-9.35-2.835-18.75.25-28.22 1.211-9.46 4.804-18.99-2.623-28.59.471-9.61-5.132-19.28-1.278-29.04-.375-9.77-1.864-19.62 5.957-29.56-1.336-9.94.769-19.99 5.967-30.15-2.392-10.18-3.44-20.27 3.065-30.26-2.047-10-.384-19.9-.481-29.72-.336-108.05 1.585-206.2 32.804-307.1 42.615-28.17 2.738-55.97 3.632-83.51 3.228-9.18-.134-18.33-.413-27.46-.826-9.13-5.996-18.23-7.168-27.31-1.566-9.09-.269-18.14-2.873-27.19-2.201-9.05 6.15-18.07 5.352-27.1-2.709-9.01-15.192-18.02 4.131-27.02-3.094-8.99-3.171-17.99 3.478-26.97-3.363-8.99 1.278-17.98-3.133-26.95-3.517-8.99 8.427-17.98-.625-26.96-3.546-8.99-.509-18 6.409-26.99-3.45-9.01-3.363-18.02 1.999-27.05-3.238-9.03-2.046-18.07 1.451-27.13-2.911-7.79-.779-16.13-1.576-24.85-2.45-43.6-4.353-96.62-10.349-136.61-22.697-57.89-17.872-80.48-58.767-129.34-88.247a259.047 259.047 0 0 0-23.361-12.492 285.282 285.282 0 0 0-24.432-10.137c-8.304-4.007-16.762-9.541-25.345-7.985-8.583-3.075-17.291-10.695-26.095-6.025-8.804-6.39-17.713-5.063-26.691-4.276-8.977 10.82-18.03-8.407-27.123-2.71-9.102-14.691-18.242 6.18-27.402-1.344-9.159.807-18.348 15.114-27.517-.183-9.169-.317-18.339 2.767-27.479.778-9.131-.134-18.233-.922-27.277 1.547-9.035 8.908-18.022-.173-26.912 2.114a2231.68 2231.68 0 0 0-26.393 2.48c-8.689.864-17.272 1.758-25.71 2.651-39.57 4.18-73.576 13.731-104.716 27.549a356.183 356.183 0 0 0-22.866 11.146c-7.468 3.911-14.811 6.813-22.048 12.636-7.238 3.7-14.389 4.17-21.482 14.029-7.093-4.959-14.148 4.381-21.174 15.316-7.035-4.766-14.061 15.124-21.125 16.499-7.065 12.923-14.158 7.965-21.328 17.574-7.17 18.603-14.417 11.79-21.789 18.555-7.362 10.8-14.85 16.738-22.491 19.419-6.843 9.378-13.609 9.849-20.309 17.613-6.699 3.037-13.359 11.704-19.991 17.287-6.632 5.035-13.254 11.328-19.896 16.863-39.839 33.247-80.447 63.37-129.85 86.979C140.393 336.628 56.986 343.21 0 390.14c189.162 299.373 571.848 335.339 889.447 285.603 422.443-66.147 889.003-187.824 1317.413-128.191 196.31 27.318 381.4 124.598 568.45 19.035 66.77-37.686 77.06-69.731 114.18-140.616 26.76-51.1 88.08-106.6 102.22-160.64 46.15-176.342-108.38-195.137-263.6-180.33-11.09 1.058-22.17.346-33.19 3.642-11.02-3.593-21.98 2.24-32.78 4.401-10.8 1.096-21.47-3.786-31.93 4.891-10.45 6.553-20.68-3.392-30.63 5.102-9.95 1.221-19.61 7.245-28.91 5.055-9.3.019-18.24.605-26.75 4.718-8.51 1.489-16.57 2.882-24.14 4.122-7.57 1.249-14.62 2.344-21.1 3.257-6.79.951-12.94 1.701-18.37 2.191l-.04-.048Z"/></svg>