<svg width="24" height="24" viewBox="0 0 24 24" fill="none" xmlns="http://www.w3.org/2000/svg">
<path d="M4.99718 11.4134C4.99718 10.8594 5.45222 10.4044 6.00518 10.4044H7.70534C8.25926 10.4044 8.7335 10.8594 8.7335 11.4335V17.8454C8.93126 17.7858 9.16838 17.7263 9.44582 17.6668C9.82118 17.5679 10.0986 17.2319 10.0986 16.8354V8.87991C10.0986 8.32599 10.5537 7.85079 11.1268 7.85079H12.8269C13.3809 7.85079 13.8551 8.30583 13.8551 8.87991V16.2623C13.8551 16.2623 14.2708 16.0838 14.6855 15.9062C15.0023 15.7679 15.2001 15.4713 15.2001 15.1142V6.30807C15.2001 5.75415 15.6551 5.27895 16.209 5.27895H17.9092C18.4631 5.27895 18.9181 5.73399 18.9181 6.30807V13.5714C20.3812 12.503 21.8845 11.2166 23.0711 9.67287C23.4273 9.21783 23.5261 8.62359 23.3284 8.06967C21.153 1.81623 14.3121 -1.50921 8.06342 0.668072C1.81478 2.84535 -1.50682 9.69207 0.667583 15.9465C0.904703 16.6588 1.2215 17.3318 1.59686 17.9846C1.8935 18.4991 2.44742 18.7958 3.0407 18.7362C3.3575 18.7161 3.75302 18.6767 4.24646 18.6172C4.68134 18.5778 4.99814 18.2015 4.99814 17.7657L4.99718 11.4134Z" fill="white"/>
<path d="M4.95703 21.7045C10.3158 25.6031 17.8105 24.4155 21.7052 19.053C23.1884 16.9947 23.9986 14.5208 23.9986 11.9883C23.9986 11.7109 23.9785 11.4344 23.9593 11.157C19.5903 17.7071 11.5023 20.7743 4.95703 21.7045Z" fill="white"/>
</svg>
