<svg width="22" height="18" viewBox="0 0 22 18" fill="none" xmlns="http://www.w3.org/2000/svg">
<path d="M22 2.1306C21.1782 2.49786 20.304 2.73927 19.4077 2.8464C20.3566 2.27116 21.0614 1.37817 21.3919 0.3324C20.5088 0.860489 19.5387 1.23366 18.5252 1.4352C18.1083 0.983926 17.5999 0.623154 17.0327 0.376007C16.4655 0.128859 15.8519 0.000787457 15.2313 0C12.738 0 10.7177 2.0352 10.7177 4.5438C10.7177 4.9002 10.7586 5.2476 10.8344 5.5794C7.084 5.3898 3.75833 3.5808 1.53144 0.8304C1.12982 1.52764 0.919652 2.31539 0.921556 3.1164C0.921556 4.6926 1.71783 6.0834 2.92844 6.8982C2.21008 6.87465 1.50841 6.6794 0.884277 6.3294V6.387C0.884277 8.589 2.43956 10.4256 4.50511 10.842C3.84115 11.0243 3.14292 11.0512 2.46644 10.9206C3.04089 12.726 4.708 14.0406 6.68311 14.0766C5.75453 14.8142 4.6844 15.3609 3.53631 15.6844C2.38823 16.0078 1.18563 16.1014 0 15.9594C2.05271 17.2908 4.45879 18.0005 6.919 18C15.2209 18 19.7597 11.076 19.7597 5.07C19.7597 4.8738 19.7554 4.6776 19.7468 4.4826C20.634 3.83598 21.3969 3.03958 22 2.1306Z" fill="white"/>
</svg>
