<svg width="26" height="30" viewBox="0 0 26 30" fill="none" xmlns="http://www.w3.org/2000/svg">
<path d="M8.1398 2.9638C7.78355 2.9088 7.76855 2.9013 7.93605 2.8763C8.2573 2.8263 9.0173 2.89505 9.54105 3.0188C10.7623 3.31005 11.8736 4.0538 13.0611 5.37505L13.3761 5.72505L13.8261 5.6538C15.7261 5.34755 17.6598 5.5913 19.2761 6.33755C19.7211 6.54255 20.4223 6.9513 20.5098 7.05755C20.5386 7.09005 20.5898 7.3063 20.6235 7.5363C20.7435 8.33255 20.6835 8.94255 20.441 9.3988C20.3085 9.6463 20.3011 9.7238 20.3898 9.9363C20.4319 10.0241 20.4978 10.0983 20.58 10.1504C20.6623 10.2026 20.7574 10.2306 20.8548 10.2313C21.2573 10.2313 21.6898 9.5813 21.8898 8.67755L21.9698 8.3188L22.1273 8.49755C22.9923 9.47755 23.671 10.8138 23.7873 11.7638L23.8186 12.0126L23.6723 11.7876C23.4223 11.4001 23.1723 11.1351 22.8498 10.9213C22.2698 10.5376 21.6561 10.4076 20.0311 10.3213C18.5636 10.2438 17.7323 10.1188 16.9098 9.85005C15.5086 9.3938 14.8023 8.78505 13.1373 6.6013C12.3986 5.6313 11.9411 5.09505 11.4873 4.6638C10.4536 3.6813 9.43855 3.1663 8.1398 2.9638Z" fill="white"/>
<path d="M20.9295 5.86236C20.967 5.21236 21.0545 4.78361 21.232 4.39236C21.302 4.23736 21.3682 4.10986 21.3782 4.10986C21.3671 4.19761 21.344 4.28341 21.3095 4.36486C21.1807 4.74486 21.1595 5.26486 21.2482 5.86861C21.3607 6.63611 21.4257 6.74611 22.2357 7.57486C22.617 7.96361 23.0595 8.45361 23.2195 8.66486L23.5107 9.04736L23.2195 8.77361C22.8632 8.43986 22.0432 7.78611 21.862 7.69361C21.7407 7.63111 21.722 7.63236 21.647 7.70611C21.5782 7.77611 21.5632 7.87861 21.5545 8.36736C21.5395 9.12736 21.4357 9.61736 21.1845 10.1049C21.0495 10.3674 21.0282 10.3124 21.1507 10.0136C21.242 9.79111 21.2507 9.69361 21.2507 8.95736C21.2507 7.47736 21.0745 7.12236 20.0432 6.51236C19.7329 6.33231 19.4142 6.16712 19.0882 6.01736C18.9272 5.95275 18.771 5.87673 18.6207 5.78986C18.6495 5.76111 19.6545 6.05361 20.0582 6.20986C20.6607 6.44111 20.7595 6.47111 20.8332 6.44236C20.882 6.42361 20.9057 6.28111 20.9295 5.86236ZM8.92073 8.39361C8.19698 7.39736 7.74948 5.86861 7.84573 4.72611L7.87573 4.37236L8.04073 4.40236C8.35073 4.45861 8.88448 4.65736 9.13448 4.80986C9.81948 5.22611 10.117 5.77486 10.4182 7.18236C10.507 7.59486 10.6232 8.06111 10.677 8.21986C10.762 8.47361 11.087 9.06736 11.352 9.45361C11.542 9.73111 11.4145 9.86236 10.9945 9.82486C10.352 9.76611 9.48198 9.16611 8.92073 8.39361ZM20.052 15.8124C16.6682 14.4499 15.477 13.2674 15.477 11.2724C15.477 10.9786 15.487 10.7386 15.4982 10.7386C15.5107 10.7386 15.642 10.8349 15.7895 10.9536C16.4757 11.5036 17.2445 11.7386 19.3707 12.0486C20.622 12.2324 21.327 12.3799 21.977 12.5949C24.042 13.2799 25.3195 14.6699 25.6245 16.5624C25.712 17.1124 25.6607 18.1436 25.517 18.6874C25.4045 19.1174 25.0582 19.8911 24.967 19.9211C24.942 19.9286 24.917 19.8324 24.9095 19.6986C24.8745 18.9886 24.5157 18.2961 23.912 17.7774C23.2257 17.1886 22.3057 16.7186 20.052 15.8124ZM17.677 16.3774C17.637 16.1359 17.5823 15.8971 17.5132 15.6624L17.4257 15.4049L17.587 15.5849C17.8082 15.8349 17.9845 16.1524 18.132 16.5774C18.2457 16.9011 18.2582 16.9974 18.257 17.5236C18.257 18.0411 18.2432 18.1486 18.1382 18.4411C17.9922 18.87 17.7478 19.2587 17.4245 19.5761C16.8057 20.2061 16.012 20.5536 14.8645 20.6986C14.6645 20.7236 14.0845 20.7661 13.5732 20.7924C12.2857 20.8599 11.4395 20.9974 10.6782 21.2649C10.6096 21.2956 10.5358 21.3134 10.4607 21.3174C10.4307 21.2861 10.9482 20.9774 11.377 20.7711C11.9807 20.4799 12.5807 20.3211 13.927 20.0974C14.592 19.9861 15.2795 19.8524 15.4532 19.7986C17.1007 19.2936 17.9482 17.9911 17.677 16.3774Z" fill="white"/>
<path d="M18.4153 19.5486C17.9653 18.5824 17.8628 17.6486 18.109 16.7786C18.1353 16.6861 18.1778 16.6099 18.2028 16.6099C18.2874 16.6405 18.367 16.6834 18.439 16.7374C18.6465 16.8774 19.0615 17.1124 20.1678 17.7149C21.549 18.4686 22.3365 19.0524 22.8728 19.7174C23.3415 20.3011 23.6315 20.9661 23.7715 21.7761C23.8503 22.2349 23.804 23.3386 23.6865 23.8011C23.3153 25.2586 22.4515 26.4036 21.2215 27.0711C21.1054 27.1383 20.9852 27.198 20.8615 27.2499C20.844 27.2499 20.909 27.0836 21.0078 26.8786C21.4203 26.0136 21.469 25.1711 21.1553 24.2336C20.964 23.6599 20.5728 22.9586 19.784 21.7761C18.8665 20.4011 18.6415 20.0336 18.4153 19.5486ZM5.70651 24.7624C6.96276 23.7024 8.52401 22.9499 9.94776 22.7186C10.5603 22.6186 11.5828 22.6586 12.1503 22.8036C13.0603 23.0361 13.8753 23.5586 14.299 24.1799C14.7115 24.7874 14.8903 25.3174 15.074 26.4949C15.149 26.9599 15.2278 27.4261 15.2515 27.5324C15.389 28.1424 15.6603 28.6311 15.9953 28.8761C16.5265 29.2649 17.4428 29.2886 18.3428 28.9386C18.4368 28.8955 18.5359 28.8644 18.6378 28.8461C18.6703 28.8786 18.2178 29.1824 17.8978 29.3424C17.5202 29.5444 17.0972 29.6468 16.669 29.6399C15.844 29.6399 15.159 29.2211 14.5878 28.3649C14.4753 28.1961 14.2228 27.6924 14.0253 27.2436C13.4228 25.8686 13.1253 25.4486 12.4253 24.9899C11.814 24.5899 11.0278 24.5186 10.4365 24.8086C9.65901 25.1899 9.44276 26.1836 9.99901 26.8124C10.2203 27.0624 10.6328 27.2786 10.9703 27.3199C11.1175 27.3394 11.2672 27.327 11.4092 27.2837C11.5513 27.2404 11.6824 27.1671 11.7937 27.0687C11.9049 26.9703 11.9938 26.8492 12.0542 26.7136C12.1147 26.5779 12.1453 26.4309 12.144 26.2824C12.144 25.8674 11.984 25.6324 11.584 25.4511C11.0378 25.2049 10.4503 25.4924 10.4528 26.0061C10.454 26.2249 10.549 26.3624 10.769 26.4624C10.9103 26.5249 10.9128 26.5311 10.7978 26.5074C10.2965 26.4024 10.179 25.7986 10.5828 25.3974C11.0665 24.9149 12.0678 25.1274 12.4115 25.7849C12.5565 26.0611 12.5728 26.6124 12.4465 26.9449C12.1653 27.6886 11.3428 28.0786 10.509 27.8661C9.94151 27.7211 9.71026 27.5649 9.02651 26.8599C7.83776 25.6349 7.37651 25.3974 5.66151 25.1299L5.33276 25.0786L5.70651 24.7624Z" fill="white"/>
<path fill-rule="evenodd" clip-rule="evenodd" d="M0.332764 0.564863L0.452763 0.711113C5.08776 6.38611 7.48276 9.33111 7.63526 9.54111C7.88526 9.88861 7.79151 10.1999 7.36151 10.4449C7.12276 10.5811 6.63026 10.7186 6.38526 10.7186C6.10651 10.7186 5.79276 10.5849 5.56401 10.3686C5.40276 10.2149 4.75151 9.24236 3.24776 6.90861C2.54358 5.80561 1.83022 4.70849 1.10776 3.61736C1.04651 3.55986 1.04776 3.56111 3.13026 7.28736C4.43776 9.62736 4.88026 10.4536 4.88026 10.5649C4.88026 10.7899 4.81776 10.9074 4.54026 11.2174C4.07776 11.7336 3.87151 12.3136 3.72151 13.5136C3.55401 14.8599 3.08401 15.8099 1.77901 17.4361C1.01651 18.3886 0.891513 18.5636 0.697763 18.9474C0.455263 19.4299 0.389013 19.7011 0.361513 20.3111C0.332763 20.9561 0.389014 21.3736 0.586514 21.9899C0.759014 22.5299 0.939013 22.8874 1.39901 23.5999C1.79651 24.2161 2.02526 24.6736 2.02526 24.8524C2.02526 24.9949 2.05276 24.9949 2.66901 24.8561C4.14276 24.5236 5.33901 23.9374 6.01276 23.2199C6.42901 22.7761 6.52651 22.5311 6.53026 21.9224C6.53151 21.5249 6.51776 21.4411 6.41026 21.2124C6.23526 20.8399 5.91651 20.5299 5.21401 20.0499C4.29276 19.4199 3.90026 18.9124 3.79151 18.2161C3.70151 17.6449 3.80526 17.2411 4.31526 16.1736C4.84151 15.0686 4.97276 14.5986 5.06151 13.4849C5.11776 12.7649 5.19651 12.4811 5.40401 12.2536C5.61901 12.0161 5.81401 11.9349 6.34776 11.8624C7.21776 11.7436 7.77151 11.5186 8.22651 11.0999C8.62151 10.7349 8.78651 10.3836 8.81151 9.85611L8.83151 9.45611L8.61026 9.19861C8.29276 8.82861 5.66651 5.93111 0.730263 0.503613L0.597764 0.359863L0.332764 0.564863ZM2.47526 21.0424C2.56247 20.888 2.58851 20.7064 2.54823 20.5337C2.50795 20.361 2.40429 20.2098 2.25776 20.1099C1.97276 19.9199 1.52901 20.0099 1.52901 20.2574C1.52901 20.3324 1.57026 20.3874 1.66401 20.4361C1.82276 20.5174 1.83401 20.6099 1.71026 20.7961C1.58401 20.9861 1.59401 21.1536 1.73901 21.2674C1.97151 21.4499 2.30026 21.3486 2.47526 21.0424ZM9.38026 12.0724C8.97151 12.1974 8.57526 12.6311 8.45151 13.0849C8.37651 13.3611 8.41901 13.8474 8.53151 13.9974C8.71276 14.2399 8.88901 14.3036 9.36401 14.2999C10.294 14.2936 11.1015 13.8949 11.1965 13.3961C11.274 12.9874 10.9178 12.4211 10.429 12.1711C10.1765 12.0436 9.64026 11.9924 9.38026 12.0724ZM10.4678 12.9224C10.6115 12.7186 10.5478 12.4974 10.3053 12.3499C9.84026 12.0661 9.13776 12.2999 9.13776 12.7399C9.13776 12.9574 9.50401 13.1961 9.83901 13.1961C10.064 13.1961 10.369 13.0624 10.4678 12.9224Z" fill="white"/>
</svg>
